<svg width="120" height="120" viewBox="0 0 120 120" fill="none" xmlns="http://www.w3.org/2000/svg">
<path d="M7.78906 65.9033C8.54175 65.9033 8.98379 65.4209 9.71862 65.4209" stroke="#B6B6B6" stroke-width="2.47423" stroke-linecap="round"/>
<path fill-rule="evenodd" clip-rule="evenodd" d="M6.55277 58.9561C6.91242 63.8761 8.56026 68.3852 11.1308 72.1584C10.8569 74.0614 10.7825 76.0259 10.9287 78.0266C11.8454 90.5668 21.1306 100.437 32.7318 102.257C41.4021 108.104 52.0241 111.193 63.263 110.372C77.284 109.347 89.4698 102.44 97.5821 92.2419C107.34 87.9386 113.818 77.6172 112.976 66.0928C112.633 61.4042 111.121 57.0889 108.755 53.428C109.258 50.8704 109.432 48.2061 109.233 45.4841C108.2 31.3588 97.4658 20.2316 83.9331 17.9921C77.8506 11.1185 68.6832 7.05694 58.747 7.78327C51.5037 8.31275 45.0346 11.3001 40.1161 15.8577C38.5038 15.4901 36.8073 15.3524 35.0675 15.4796C25.8493 16.1534 18.9105 24.0065 19.5694 33.0199C19.5924 33.3346 19.6244 33.6465 19.665 33.9555C11.1968 38.7729 5.77788 48.3555 6.55277 58.9561Z" fill="#F3F3F3"/>
<ellipse cx="46.3227" cy="42.8547" rx="9.54925" ry="9.77661" fill="white"/>
<ellipse cx="66.3383" cy="44.219" rx="9.54925" ry="9.77661" fill="white"/>
<circle cx="46.3255" cy="42.6273" r="5.91144" fill="#444444"/>
<circle cx="65.8802" cy="43.9915" r="5.91144" fill="#444444"/>
<path d="M36.8591 13.9238C36.8591 14.5394 36.609 15.4426 36.8948 16.0142C37.002 16.2287 37.5076 16.9012 37.663 16.979" stroke="#B6B6B6" stroke-width="2.47423" stroke-linecap="round"/>
<path d="M84.5235 18.7815C84.2337 18.7453 85.6491 17.4761 85.6491 17.1736" stroke="#B6B6B6" stroke-width="2.47423" stroke-linecap="round"/>
<path d="M22.7056 33.2195C22.3473 33.2195 23.4131 33.4063 23.7061 33.6125C24.0216 33.8346 24.6312 34.1764 24.796 34.5059" stroke="#B6B6B6" stroke-width="2.47423" stroke-linecap="round"/>
<path d="M90.7266 80.8157C91.3279 80.8157 91.4843 81.4127 91.8521 81.7805" stroke="#B6B6B6" stroke-width="2.47423" stroke-linecap="round"/>
<path d="M58.5955 53.9203L51.9255 52.9003C51.4969 52.8348 51.0913 53.1141 50.9996 53.5379L50.882 54.0813C50.5335 55.6921 51.1863 57.3546 52.5377 58.2978C53.5675 59.0165 54.8704 59.222 56.0714 58.8552L56.1795 58.8222C57.9292 58.2877 59.1525 56.709 59.2333 54.8812L59.241 54.7064C59.2581 54.318 58.9799 53.979 58.5955 53.9203Z" fill="#FF7171" stroke="#E0E0E0" stroke-width="3.06669" stroke-linecap="round"/>
<path d="M59.9511 72.2778C61.6626 79.4146 62.8553 83.0732 64.2215 84.4863L74.1264 73.1256C73.3294 72.0517 69.6862 64.8169 67.9785 62.104C66.1819 59.2499 65.2504 56.1435 63.3668 55.5012C62.343 55.152 62.0014 55.6607 61.8306 55.9998C61.6599 56.3389 61.2425 55.9286 60.806 56.1694C60.1913 56.5085 60.2438 56.8251 59.9521 57.1867C59.738 57.4522 59.4398 57.0172 59.0982 57.5259C58.7567 57.865 58.5249 58.8741 58.4378 59.2214C57.9161 61.3033 58.2432 65.1561 59.9511 72.2778Z" fill="url(#paint0_linear_953_5288)"/>
<path d="M50.5567 71.8229C48.8452 78.9598 47.6525 82.6184 46.2863 84.0314L36.3815 72.6707C37.1784 71.5969 40.8216 64.3621 42.5293 61.6492C44.3259 58.7951 45.2574 55.6887 47.141 55.0463C48.1649 54.6972 48.5064 55.2058 48.6772 55.545C48.848 55.8841 49.2653 55.4737 49.7018 55.7145C50.3166 56.0537 50.264 56.3702 50.5557 56.7319C50.7698 56.9974 51.068 56.5623 51.4096 57.071C51.7511 57.4102 51.9829 58.4192 52.07 58.7666C52.5917 60.8485 52.2646 64.7013 50.5567 71.8229Z" fill="url(#paint1_linear_953_5288)"/>
<ellipse cx="34.0499" cy="49.7197" rx="5.91144" ry="3.63781" transform="rotate(7.09183 34.0499 49.7197)" fill="#FFD7D7"/>
<ellipse cx="75.8937" cy="54.2668" rx="5.91144" ry="3.63781" transform="rotate(7.09183 75.8937 54.2668)" fill="#FFD7D7"/>
<path d="M7.50626 20.1423C9.46557 19.2904 11.5598 22.0315 12.4504 22.7426C12.8508 17.5345 15.4003 17.4337 16.011 17.8651C19.8525 20.5786 15.6214 25.924 15.2573 29.7494C15.2381 29.9512 15.3142 30.1082 15.1227 30.1743C14.9698 30.2271 14.7096 30.0151 14.5652 29.9425C13.5762 29.4457 13.0765 29.3074 12.2528 28.983C11.038 28.5044 9.30866 27.8765 8.1883 27.1905C7.04365 26.4897 6.09447 25.719 5.23583 24.6898C3.69457 22.8423 5.93369 20.8261 7.50626 20.1423Z" fill="#FF7171"/>
<path d="M8.96304 34.8329C8.82336 34.126 9.87731 33.6333 10.1757 33.391C8.48847 32.8842 8.63877 32.0368 8.82487 31.8667C9.99549 30.7962 11.4522 32.5751 12.6865 32.9705C12.7516 32.9913 12.8088 32.9775 12.8168 33.0454C12.8232 33.0995 12.7346 33.17 12.7003 33.2124C12.4654 33.5025 12.3839 33.6572 12.2177 33.9053C11.9726 34.2711 11.6412 34.7957 11.3345 35.1155C11.0212 35.4422 10.6989 35.6995 10.298 35.9083C9.57834 36.2832 9.07515 35.4003 8.96304 34.8329Z" fill="#FF7171"/>
<defs>
<linearGradient id="paint0_linear_953_5288" x1="69.8583" y1="75.5617" x2="59.3907" y2="53.06" gradientUnits="userSpaceOnUse">
<stop stop-color="#F3F3F3"/>
<stop offset="1" stop-color="#C5C5C5"/>
</linearGradient>
<linearGradient id="paint1_linear_953_5288" x1="40.6496" y1="75.1069" x2="51.1171" y2="52.6051" gradientUnits="userSpaceOnUse">
<stop stop-color="#F3F3F3"/>
<stop offset="1" stop-color="#C5C5C5"/>
</linearGradient>
</defs>
</svg>
