<svg width="82" height="25" viewBox="0 0 82 25" fill="none" xmlns="http://www.w3.org/2000/svg">
<g id="img_ministry_of_education" clip-path="url(#clip0_1130_3008)">
<g id="Group">
<path id="Vector" d="M35.1501 12.2923V9.19405H36.3239V12.2923H37.9889V9.19405H39.1753V12.2923H42.14V13.3779H32.9688V12.2923H35.1501ZM40.1602 10.5341V5.7482H33.7068V4.63989H41.402V10.5341H40.1602Z" fill="#575756"/>
<path id="Vector_2" d="M52.6051 11.0605V14.1361H51.3633V12.1235H44.6757V11.0605H46.2651L46.2751 9.89678H44.1719V8.82373H53.3432V9.89678H51.2298V11.0605H52.6051ZM51.2197 6.18394C51.2197 6.49628 51.1517 6.79099 51.0182 7.06807C50.8822 7.34514 50.7084 7.58948 50.4918 7.8061C50.2676 8.00761 50.0081 8.16882 49.7084 8.29225C49.4112 8.41567 49.0938 8.47613 48.7588 8.47613C48.4238 8.47613 48.1064 8.41567 47.8016 8.29225C47.4993 8.16882 47.2374 8.00761 47.0132 7.8061C46.7966 7.58948 46.6228 7.34514 46.4867 7.06807C46.3507 6.79351 46.2852 6.4988 46.2852 6.18394C46.2852 5.86907 46.3507 5.57688 46.4867 5.2998C46.6202 5.02273 46.7966 4.77839 47.0132 4.56177C47.2374 4.3527 47.4993 4.18645 47.8016 4.06303C48.1039 3.9396 48.4238 3.87915 48.7588 3.87915C49.0938 3.87915 49.4112 3.9396 49.7084 4.06303C50.0081 4.18645 50.2676 4.3527 50.4918 4.56177C50.7059 4.77839 50.8822 5.02273 51.0182 5.2998C51.1517 5.57688 51.2197 5.86907 51.2197 6.18394ZM47.4061 11.0605H50.0913V9.89678H47.4187L47.4061 11.0605ZM50.0006 6.18394C50.0006 5.84892 49.8797 5.56429 49.6353 5.32751C49.3935 5.09326 49.1013 4.97487 48.7588 4.97487C48.4162 4.97487 48.1215 5.09326 47.8746 5.32751C47.6278 5.56177 47.5044 5.8464 47.5044 6.18394C47.5044 6.52147 47.6278 6.8061 47.8746 7.0454C48.1215 7.28469 48.4137 7.40308 48.7588 7.40308C49.1039 7.40308 49.3935 7.28469 49.6353 7.0454C49.8772 6.8061 50.0006 6.51895 50.0006 6.18394Z" fill="#575756"/>
<path id="Vector_3" d="M55.4922 10.4383H64.6635V11.534H60.6937V14.1058H59.4519V11.534H55.4922V10.4383ZM57.4494 5.56172H62.6937V4.29724H63.9229V9.09573H56.2277V4.29724H57.4468V5.56172H57.4494ZM62.6937 6.63729H57.4494V8.01261H62.6937V6.63729Z" fill="#575756"/>
</g>
<g id="Group_2">
<path id="Vector_4" d="M36.4975 17.9697V21.5088H35.9282V18.6599L35.0038 21.5088H34.4546L33.5302 18.6599V21.5088H32.9609V17.9697H33.835L34.7292 20.7279L35.6234 17.9697H36.4949H36.4975Z" fill="#575756"/>
<path id="Vector_5" d="M37.8577 18.2469C37.8577 18.3451 37.82 18.4307 37.7494 18.5038C37.6764 18.5768 37.5882 18.6121 37.4875 18.6121C37.3867 18.6121 37.2985 18.5743 37.2255 18.5038C37.1525 18.4307 37.1172 18.3451 37.1172 18.2469C37.1172 18.1486 37.1525 18.0579 37.2255 17.9849C37.2985 17.9119 37.3842 17.8766 37.4875 17.8766C37.5907 17.8766 37.6764 17.9119 37.7494 17.9849C37.8225 18.0579 37.8577 18.1436 37.8577 18.2469ZM37.2028 21.5088V18.9647H37.7822V21.5088H37.2028Z" fill="#575756"/>
<path id="Vector_6" d="M39.0587 20.2292V21.5088H38.4844V18.9647H39.0385V19.3048C39.1065 19.1864 39.2048 19.0907 39.3332 19.0151C39.4617 18.9421 39.6002 18.9043 39.7489 18.9043C40.0511 18.9043 40.2904 19.0076 40.4718 19.2116C40.6531 19.4156 40.7438 19.6902 40.7438 20.0302V21.5088H40.1645V20.1789C40.1645 19.9068 40.1217 19.7078 40.0335 19.5768C39.9453 19.4459 39.8093 19.3804 39.6279 19.3804C39.5322 19.3804 39.4416 19.4106 39.3509 19.4736C39.2602 19.5365 39.1922 19.6222 39.1443 19.7305C39.0864 19.8564 39.0587 20.0202 39.0587 20.2267V20.2292Z" fill="#575756"/>
<path id="Vector_7" d="M42.0868 18.2469C42.0868 18.3451 42.0516 18.4307 41.9785 18.5038C41.9055 18.5768 41.8173 18.6121 41.7165 18.6121C41.6158 18.6121 41.5276 18.5743 41.4546 18.5038C41.3815 18.4307 41.3438 18.3451 41.3438 18.2469C41.3438 18.1486 41.3815 18.0579 41.4546 17.9849C41.5276 17.9119 41.6133 17.8766 41.7165 17.8766C41.8198 17.8766 41.9055 17.9119 41.9785 17.9849C42.0516 18.0579 42.0868 18.1436 42.0868 18.2469ZM41.4319 21.5088V18.9647H42.0113V21.5088H41.4319Z" fill="#575756"/>
<path id="Vector_8" d="M42.4844 21.0352L42.8446 20.665C42.9478 20.8035 43.0587 20.9118 43.1796 20.9899C43.298 21.0604 43.4264 21.0957 43.5599 21.0957C43.6934 21.0957 43.7967 21.0705 43.8874 21.0176C43.9781 20.9647 44.0234 20.8942 44.0234 20.806C44.0234 20.7179 43.9806 20.6498 43.8924 20.5995C43.8068 20.5516 43.7035 20.5037 43.5851 20.4609C43.4466 20.4181 43.303 20.3677 43.1594 20.3148C42.963 20.2443 42.8194 20.1536 42.7287 20.0403C42.638 19.9294 42.5927 19.801 42.5927 19.6599C42.5927 19.4509 42.6909 19.272 42.8874 19.1234C43.0839 18.9773 43.3156 18.9017 43.5826 18.9017C43.8647 18.9017 44.099 18.9697 44.2778 19.1058C44.3685 19.1763 44.4416 19.2645 44.497 19.3702L44.1418 19.7153C44.0939 19.6347 44.0385 19.5692 43.9756 19.5163C43.8647 19.4181 43.7237 19.3702 43.5549 19.3702C43.4567 19.3702 43.371 19.3954 43.298 19.4433C43.2249 19.4937 43.1897 19.5516 43.1897 19.6196C43.1897 19.6927 43.23 19.7556 43.3106 19.8085C43.3937 19.8589 43.5121 19.9093 43.6708 19.9546C43.7287 19.9723 43.7942 19.9924 43.8672 20.0151C44.1141 20.0957 44.3005 20.2015 44.429 20.3299C44.5549 20.4584 44.6179 20.6121 44.6179 20.7909C44.6179 21 44.5171 21.1813 44.3131 21.3375C44.1091 21.4912 43.8521 21.5692 43.5373 21.5692C43.2728 21.5692 43.0385 21.5088 42.837 21.3854C42.701 21.3048 42.5851 21.1864 42.4869 21.0352H42.4844Z" fill="#575756"/>
<path id="Vector_9" d="M45.8092 18.1461V18.9647H46.3609V19.4307H45.8092V20.7254C45.8092 20.8463 45.8394 20.9294 45.8974 20.9773C45.9578 21.0226 46.041 21.0453 46.1493 21.0453H46.3634V21.5063H46.0132C45.7387 21.5063 45.5397 21.4458 45.4138 21.3224C45.2878 21.2015 45.2248 21.0201 45.2248 20.7783V19.4282H44.7891V18.9622H45.2248V18.1436H45.8092V18.1461Z" fill="#575756"/>
<path id="Vector_10" d="M46.8438 21.5088V18.9647H47.3878V19.3451C47.4735 19.2192 47.5767 19.1234 47.6977 19.0554C47.8437 18.9673 48.015 18.9244 48.2115 18.9244H48.2518V19.4408H48.1914C47.9521 19.4408 47.7606 19.5139 47.6171 19.66C47.4861 19.801 47.4206 20.0252 47.4206 20.3249V21.5088H46.8463H46.8438Z" fill="#575756"/>
<path id="Vector_11" d="M49.4688 21.4106L48.4688 18.9647H49.0682L49.7584 20.7002L50.4436 18.9647H51.038L49.6224 22.4937H49.033L49.4688 21.4106Z" fill="#575756"/>
<path id="Vector_12" d="M53.8529 21.5693C53.4801 21.5693 53.1627 21.4408 52.9008 21.1864C52.6388 20.932 52.5078 20.6146 52.5078 20.2393C52.5078 19.864 52.6388 19.5466 52.9008 19.2897C53.1627 19.0328 53.4801 18.9043 53.8529 18.9043C54.2257 18.9043 54.5481 19.0328 54.8076 19.2897C55.067 19.5466 55.198 19.864 55.198 20.2393C55.198 20.6146 55.067 20.9295 54.8076 21.1864C54.5456 21.4433 54.2282 21.5693 53.8529 21.5693ZM53.8529 21.0907C54.062 21.0907 54.2433 21.0101 54.3945 20.8514C54.5456 20.6902 54.6212 20.4862 54.6212 20.2393C54.6212 19.9925 54.5456 19.7909 54.3945 19.6272C54.2433 19.4635 54.0645 19.3804 53.8529 19.3804C53.6413 19.3804 53.4675 19.4635 53.3164 19.6272C53.1652 19.7909 53.0897 19.995 53.0897 20.2393C53.0897 20.4836 53.1652 20.6902 53.3164 20.8514C53.4675 21.0126 53.6464 21.0907 53.8529 21.0907Z" fill="#575756"/>
<path id="Vector_13" d="M55.8186 18.6952C55.8186 18.4585 55.8866 18.2771 56.0201 18.1537C56.1536 18.0303 56.3576 17.9673 56.6322 17.9673H56.9118V18.4282H56.743C56.6347 18.4282 56.5516 18.4509 56.4911 18.4963C56.4332 18.5416 56.403 18.6247 56.403 18.7481V18.9622H56.9118V19.4282H56.403V21.5063H55.8186V19.4282H55.3828V18.9622H55.8186V18.6927V18.6952Z" fill="#575756"/>
<path id="Vector_14" d="M61.2468 21.5088H58.9219V17.9697H61.2367V18.4634H59.5163V19.4886H61.1964V19.9647H59.5163V21.0151H61.2468V21.5088Z" fill="#575756"/>
<path id="Vector_15" d="M62.9056 18.9018C63.2079 18.9018 63.4648 19.0252 63.6814 19.267V17.9673H64.2608V21.5063H63.7016V21.1864C63.4875 21.4408 63.223 21.5668 62.9056 21.5668C62.5328 21.5668 62.2331 21.4333 62.0013 21.1713C61.7721 20.9068 61.6562 20.597 61.6562 20.2368C61.6562 19.8766 61.7721 19.5643 62.0013 19.2998C62.2306 19.0328 62.5328 18.8993 62.9056 18.8993V18.9018ZM63.6789 20.4005C63.689 20.2897 63.689 20.1814 63.6789 20.0756C63.6588 19.8816 63.5857 19.723 63.4648 19.592C63.3288 19.4484 63.1625 19.3779 62.961 19.3779C62.7369 19.3779 62.5605 19.461 62.4321 19.6247C62.3036 19.7884 62.2381 19.9925 62.2381 20.2368C62.2381 20.4811 62.3011 20.6877 62.4321 20.8489C62.5605 21.0101 62.7369 21.0882 62.961 21.0882C63.16 21.0882 63.3288 21.0177 63.4648 20.8766C63.5857 20.7481 63.6588 20.5895 63.6789 20.398V20.4005Z" fill="#575756"/>
<path id="Vector_16" d="M66.6073 20.2444V18.9648H67.1866V21.5089H66.635V21.1739C66.5644 21.2998 66.4687 21.393 66.3503 21.4585C66.2118 21.5316 66.0682 21.5693 65.9196 21.5693C65.6224 21.5693 65.3831 21.4686 65.2017 21.2645C65.0204 21.0605 64.9297 20.786 64.9297 20.4409V18.9623H65.504V20.2973C65.504 20.5643 65.5493 20.7633 65.64 20.8943C65.7282 21.0253 65.8667 21.0907 66.0481 21.0907C66.1388 21.0907 66.232 21.0605 66.3226 20.9975C66.4133 20.9346 66.4838 20.8514 66.5317 20.7457C66.5871 20.6197 66.6123 20.4535 66.6123 20.2419L66.6073 20.2444Z" fill="#575756"/>
<path id="Vector_17" d="M67.6822 20.2393C67.6822 19.8741 67.8207 19.5592 68.0978 19.2972C68.3724 19.0353 68.7225 18.9043 69.1457 18.9043C69.4782 18.9043 69.788 19.0101 70.0802 19.2242L69.8913 19.6776C69.6369 19.4811 69.3875 19.3829 69.1457 19.3829C68.8862 19.3829 68.6747 19.466 68.5109 19.6323C68.3497 19.7985 68.2666 20 68.2666 20.2418C68.2666 20.4836 68.3472 20.6852 68.5109 20.8489C68.6747 21.0126 68.8837 21.0957 69.1457 21.0957C69.4076 21.0957 69.6444 21 69.9014 20.8061L70.0877 21.2569C69.8081 21.466 69.4933 21.5718 69.1432 21.5718C68.72 21.5718 68.3699 21.4408 68.0953 21.1814C67.8182 20.9194 67.6797 20.6071 67.6797 20.2418L67.6822 20.2393Z" fill="#575756"/>
<path id="Vector_18" d="M71.6992 19.869H72.2987C72.2987 19.7028 72.2357 19.5794 72.1073 19.4962C71.9788 19.4131 71.7924 19.3728 71.5481 19.3728H71.533C71.3037 19.3728 71.0594 19.4257 70.8025 19.534L70.6564 19.0831C70.9234 18.9673 71.2181 18.9093 71.5405 18.9043H71.5506C71.9763 18.9043 72.3037 18.9874 72.533 19.1511C72.7622 19.3149 72.8755 19.5768 72.8755 19.937V21.5113H72.3264V21.2318C72.2181 21.3401 72.0846 21.4232 71.9284 21.4836C71.7723 21.5416 71.6111 21.5718 71.4498 21.5718C71.1451 21.5718 70.8982 21.4912 70.7118 21.33C70.5229 21.1688 70.4297 20.9723 70.4297 20.738C70.4297 20.4786 70.5456 20.262 70.7798 20.0932C70.9964 19.9446 71.3037 19.869 71.7043 19.869H71.6992ZM71.543 21.1134C71.6917 21.1134 71.8403 21.0756 71.9838 21.0051C72.1299 20.932 72.2357 20.8489 72.2987 20.7532V20.3224H71.7874C71.4952 20.3224 71.2937 20.3602 71.1778 20.4333C71.067 20.5189 71.009 20.6197 71.009 20.738C71.009 20.8464 71.0569 20.937 71.1501 21.0076C71.2433 21.0781 71.3743 21.1134 71.5405 21.1134H71.543Z" fill="#575756"/>
<path id="Vector_19" d="M74.2858 18.1461V18.9647H74.8399V19.4307H74.2858V20.7254C74.2858 20.8463 74.316 20.9294 74.3739 20.9773C74.4319 21.0226 74.5175 21.0453 74.6258 21.0453H74.8399V21.5063H74.4898C74.2153 21.5063 74.0163 21.4458 73.8903 21.3224C73.7644 21.2015 73.7014 21.0201 73.7014 20.7783V19.4282H73.2656V18.9622H73.7014V18.1436H74.2858V18.1461Z" fill="#575756"/>
<path id="Vector_20" d="M75.9906 18.2469C75.9906 18.3451 75.9528 18.4307 75.8822 18.5038C75.8092 18.5768 75.721 18.6121 75.6203 18.6121C75.5195 18.6121 75.4314 18.5743 75.3583 18.5038C75.2853 18.4333 75.25 18.3451 75.25 18.2469C75.25 18.1486 75.2853 18.0579 75.3583 17.9849C75.4314 17.9119 75.5195 17.8766 75.6203 17.8766C75.721 17.8766 75.8092 17.9119 75.8822 17.9849C75.9553 18.0579 75.9906 18.1436 75.9906 18.2469ZM75.3356 21.5088V18.9647H75.915V21.5088H75.3356Z" fill="#575756"/>
<path id="Vector_21" d="M77.7826 21.5693C77.4098 21.5693 77.0924 21.4408 76.8304 21.1864C76.5685 20.932 76.4375 20.6146 76.4375 20.2393C76.4375 19.864 76.5685 19.5466 76.8304 19.2897C77.0924 19.0328 77.4098 18.9043 77.7826 18.9043C78.1554 18.9043 78.4753 19.0328 78.7372 19.2897C78.9967 19.5466 79.1277 19.864 79.1277 20.2393C79.1277 20.6146 78.9967 20.9295 78.7372 21.1864C78.4753 21.4433 78.1579 21.5693 77.7826 21.5693ZM77.7826 21.0907C77.9917 21.0907 78.173 21.0101 78.3241 20.8514C78.4753 20.6927 78.5508 20.4862 78.5508 20.2393C78.5508 19.9925 78.4753 19.7909 78.3241 19.6272C78.173 19.4635 77.9942 19.3804 77.7826 19.3804C77.571 19.3804 77.3972 19.4635 77.2461 19.6272C77.0949 19.7909 77.0194 19.995 77.0194 20.2393C77.0194 20.4836 77.0949 20.6902 77.2461 20.8514C77.3972 21.0126 77.576 21.0907 77.7826 21.0907Z" fill="#575756"/>
<path id="Vector_22" d="M80.1993 20.2292V21.5088H79.625V18.9647H80.1792V19.3048C80.2472 19.1864 80.3454 19.0907 80.4739 19.0151C80.6023 18.9421 80.7409 18.9043 80.8895 18.9043C81.1917 18.9043 81.431 19.0076 81.6124 19.2116C81.7938 19.4156 81.8844 19.6902 81.8844 20.0302V21.5088H81.3051V20.1789C81.3051 19.9068 81.2623 19.7078 81.1716 19.5768C81.0834 19.4459 80.9474 19.3804 80.7661 19.3804C80.6703 19.3804 80.5797 19.4106 80.489 19.4736C80.3983 19.5365 80.3303 19.6222 80.2824 19.7305C80.2245 19.8564 80.1968 20.0202 80.1968 20.2267L80.1993 20.2292Z" fill="#575756"/>
</g>
<g id="Group_3">
<path id="Vector_23" d="M20.0679 11.9295C17.8966 10.4534 15.1158 11.0579 13.6548 13.2771C12.4357 15.131 10.5943 15.3602 9.8815 15.3602C7.55908 15.3602 5.96966 13.728 5.49862 12.0353C5.4961 12.0176 5.49107 12.0025 5.48603 11.9874C5.48099 11.9673 5.47595 11.9496 5.47092 11.9295C5.28452 11.2242 5.23918 10.8866 5.23918 10.1385C5.23918 6.09572 9.38779 1.59446 15.3626 1.59446C21.3374 1.59446 24.9797 6.24937 25.879 8.83879C25.8664 8.79345 25.8513 8.74811 25.8336 8.70025C24.1006 3.64232 19.2996 0 13.6472 0C6.53389 0 0.765625 5.76826 0.765625 12.8841C0.765625 19.2418 5.35253 24.6851 11.7153 24.6851C16.7883 24.6851 20.1989 21.8388 21.7631 17.9194C22.6221 15.7758 22.0125 13.2544 20.0654 11.9295H20.0679Z" fill="#003763"/>
<path id="Vector_24" d="M25.9651 9.09063C25.2145 6.5667 21.688 1.59692 15.3656 1.59692C9.3908 1.59692 5.24219 6.09566 5.24219 10.141C5.24219 10.8891 5.28753 11.2266 5.47393 11.9319C5.39584 11.6246 5.35554 11.3148 5.35554 11.0125C5.35554 6.80347 9.56964 3.88408 13.9047 3.88408C19.7712 3.88408 24.5268 8.63974 24.5268 14.5062C24.5268 19.1057 21.8795 23.0856 18.0356 24.9974C22.9928 23.204 26.5319 18.4584 26.5319 12.8841C26.5319 11.5642 26.3555 10.4005 25.9651 9.09063Z" fill="#E4022D"/>
</g>
</g>
<defs>
<clipPath id="clip0_1130_3008">
<rect width="81.1234" height="25" fill="white" transform="translate(0.765625)"/>
</clipPath>
</defs>
</svg>
