<svg width="120" height="120" viewBox="0 0 120 120" fill="none" xmlns="http://www.w3.org/2000/svg">
<path d="M19.5572 91.9942C26.8295 92.9832 30.6717 93.1964 32.4836 92.4346L25.4807 79.088C24.1911 79.442 16.128 80.2181 12.9809 80.8274C9.66988 81.4685 6.43701 81.212 5.15617 82.7351C4.45992 83.563 4.8104 84.0656 5.06467 84.3476C5.31894 84.6296 4.78529 84.87 4.85168 85.3641C4.94517 86.0599 5.25929 86.1256 5.4908 86.5284C5.66075 86.8241 5.14722 86.9446 5.4977 87.4471C5.69013 87.8883 6.54678 88.4698 6.83904 88.6767C8.59071 89.917 12.3005 91.0073 19.5572 91.9942Z" fill="url(#paint0_linear_953_5322)"/>
<path d="M7.78906 65.9033C8.54175 65.9033 8.98379 65.4209 9.71862 65.4209" stroke="#B6B6B6" stroke-width="2.47423" stroke-linecap="round"/>
<path fill-rule="evenodd" clip-rule="evenodd" d="M6.55277 58.9561C6.91242 63.8761 8.56026 68.3852 11.1308 72.1584C10.8569 74.0614 10.7825 76.0259 10.9287 78.0266C11.8454 90.5668 21.1306 100.437 32.7318 102.257C41.4021 108.104 52.0241 111.193 63.263 110.372C77.284 109.347 89.4698 102.44 97.5821 92.2419C107.34 87.9386 113.818 77.6172 112.976 66.0928C112.633 61.4042 111.121 57.0889 108.755 53.428C109.258 50.8704 109.432 48.2061 109.233 45.4841C108.2 31.3588 97.4658 20.2316 83.9331 17.9921C77.8506 11.1185 68.6832 7.05694 58.747 7.78327C51.5037 8.31275 45.0346 11.3001 40.1161 15.8577C38.5038 15.4901 36.8073 15.3524 35.0675 15.4796C25.8493 16.1534 18.9105 24.0065 19.5694 33.0199C19.5924 33.3346 19.6244 33.6465 19.665 33.9555C11.1968 38.7729 5.77788 48.3555 6.55277 58.9561Z" fill="#F3F3F3"/>
<path fill-rule="evenodd" clip-rule="evenodd" d="M6.63871 58.8054C6.99836 63.7255 8.6462 68.2346 11.2167 72.0077C10.9428 73.9108 10.8684 75.8753 11.0147 77.876C11.9312 90.414 21.2132 100.283 32.8115 102.105C41.4821 107.953 52.1046 111.043 63.3443 110.221C77.3639 109.196 89.5487 102.291 97.661 92.0944C107.423 87.793 113.904 77.4694 113.062 65.9422C112.719 61.2536 111.207 56.9382 108.84 53.2773C109.344 50.7197 109.518 48.0555 109.319 45.3335C108.286 31.2082 97.5517 20.081 84.019 17.8414C77.9365 10.9679 68.7691 6.90631 58.8329 7.63264C51.5896 8.16212 45.1205 11.1495 40.202 15.707C38.5898 15.3394 36.8932 15.2018 35.1534 15.329C25.9352 16.0028 18.9965 23.8559 19.6554 32.8692C19.6784 33.1839 19.7103 33.4959 19.751 33.8049C11.2827 38.6223 5.86381 48.2049 6.63871 58.8054Z" fill="#F3F3F3"/>
<path d="M36.8591 13.9238C36.8591 14.5394 36.609 15.4426 36.8948 16.0142C37.002 16.2287 37.5076 16.9012 37.663 16.979" stroke="#B6B6B6" stroke-width="2.47423" stroke-linecap="round"/>
<path d="M84.5235 18.7815C84.2337 18.7453 85.6491 17.4761 85.6491 17.1736" stroke="#B6B6B6" stroke-width="2.47423" stroke-linecap="round"/>
<path d="M22.7056 33.2195C22.3473 33.2195 23.4131 33.4063 23.7061 33.6125C24.0216 33.8346 24.6312 34.1764 24.796 34.5059" stroke="#B6B6B6" stroke-width="2.47423" stroke-linecap="round"/>
<path d="M90.7266 80.8157C91.3279 80.8157 91.4843 81.4127 91.8521 81.7805" stroke="#B6B6B6" stroke-width="2.47423" stroke-linecap="round"/>
<path d="M52.0174 109.299C58.56 105.973 61.8406 103.962 62.8969 102.304L49.5431 95.3154C48.6842 96.3403 42.4959 101.567 40.2549 103.859C37.8972 106.271 35.0929 107.9 34.9065 109.881C34.8052 110.958 35.3794 111.172 35.7489 111.259C36.1185 111.346 35.8165 111.848 36.1523 112.216C36.6252 112.735 36.9208 112.61 37.3404 112.81C37.6485 112.956 37.2948 113.347 37.869 113.561C38.2783 113.814 39.3136 113.805 39.6717 113.809C41.8178 113.832 45.4887 112.617 52.0174 109.299Z" fill="url(#paint1_linear_953_5322)"/>
<ellipse cx="32.2914" cy="78.8022" rx="9.54925" ry="9.77661" fill="white"/>
<ellipse cx="15.1964" cy="80.3189" rx="4.09254" ry="8.86716" transform="rotate(-7.37132 15.1964 80.3189)" fill="white"/>
<circle cx="31.8333" cy="78.5748" r="5.91144" fill="#444444"/>
<ellipse cx="14.5737" cy="80.1711" rx="2.4212" ry="5.91144" transform="rotate(-7.37132 14.5737 80.1711)" fill="#444444"/>
<path d="M26.6708 90.9934L27.4387 93.1399C27.542 93.4285 27.5828 93.7356 27.5586 94.0411C27.4027 96.0056 24.9176 96.7586 23.6975 95.211L22.3261 93.4714L20.7585 91.4013C20.2859 90.7772 20.1696 89.953 20.4511 89.2224C20.9825 87.8433 22.672 87.3358 23.8754 88.1939L25.348 89.2441C25.9572 89.6785 26.4188 90.2889 26.6708 90.9934Z" fill="#FF7171" stroke="#E0E0E0" stroke-width="3.06669" stroke-linecap="round"/>
<defs>
<linearGradient id="paint0_linear_953_5322" x1="26.2059" y1="83.9486" x2="1.44078" y2="85.5573" gradientUnits="userSpaceOnUse">
<stop stop-color="#F3F3F3"/>
<stop offset="1" stop-color="#C5C5C5"/>
</linearGradient>
<linearGradient id="paint1_linear_953_5322" x1="52.9056" y1="98.8993" x2="33.4576" y2="114.316" gradientUnits="userSpaceOnUse">
<stop stop-color="#F3F3F3"/>
<stop offset="1" stop-color="#C5C5C5"/>
</linearGradient>
</defs>
</svg>
