<svg width="181" height="21" viewBox="0 0 181 21" fill="none" xmlns="http://www.w3.org/2000/svg">
<g id="img_spmc" clip-path="url(#clip0_1130_3152)">
<g id="Group">
<path id="Vector" d="M57.3902 13.2082L57.2812 13.7395C56.6613 16.7501 55.1696 16.7501 54.5362 16.7501C52.5473 16.7501 51.5392 14.7748 51.5392 10.8855C51.5392 6.99619 52.5473 5.02088 54.5362 5.02088C55.156 5.02088 56.6 5.02088 57.2471 7.86805L57.3629 8.39934L61.3135 7.6569L61.1909 7.10518C60.6937 4.90509 59.6856 3.2976 58.1939 2.32357C56.8861 1.47214 55.483 1.29504 54.5362 1.29504C53.2761 1.29504 51.471 1.59475 49.993 3.03195C48.3378 4.63945 47.5 7.28227 47.5 10.8923C47.5 14.5024 48.3378 17.1452 49.993 18.7527C51.471 20.1831 53.2761 20.4896 54.5362 20.4896C55.5034 20.4896 56.9406 20.3057 58.262 19.4202C59.7673 18.4053 60.7754 16.7297 61.2454 14.4479L61.3612 13.8961L57.397 13.215L57.3902 13.2082Z" fill="#2271C6"/>
<path id="Vector_2" d="M40.6904 1.46533L38.0271 8.64456L35.0097 1.46533H31.3383L28.75 20.2989H32.8232L34.0357 8.22906L36.4128 12.3295H39.8662L42.0186 8.22906L43.2311 20.2989H47.3043L44.7159 1.46533H40.6904Z" fill="#2271C6"/>
<path id="Vector_3" d="M28.7246 5.25926C27.8731 3.39293 26.4768 2.27586 24.3244 1.73776C22.785 1.34951 21.4704 1.32227 19.6381 1.32227C19.3657 1.32227 19.0864 1.32227 18.7799 1.32227C18.5347 1.32227 15.994 1.3427 15.994 1.3427H15.4219V20.3057H19.4542V5.06173C23.3844 5.09579 24.5083 5.4636 25.0396 6.7782C25.3597 7.57514 24.8489 8.67178 23.9498 9.11452C23.2073 9.48233 22.6692 9.57769 21.2184 9.60494L20.653 9.61856V13.3648H21.2388C23.1596 13.324 24.0656 13.1946 25.4891 12.6633C26.6948 12.2137 27.5666 11.5258 28.2409 10.5109C29.2763 8.95104 29.467 6.894 28.7246 5.26607V5.25926Z" fill="#2271C6"/>
<path id="Vector_4" d="M11.8679 10.8242C10.2331 9.42789 8.63243 9.12138 7.15435 7.90894C6.43235 7.31635 5.93511 6.66246 5.88743 5.95407C5.76483 4.00601 7.26334 3.07284 8.72779 2.82082C10.1378 2.58242 12.5217 3.3453 12.5217 3.3453L12.1131 2.092C10.7235 1.52665 9.0888 1.13159 6.57538 1.39724C4.94746 1.56752 3.11519 2.28953 1.86189 3.98557C0.438305 5.92001 0.724384 8.62414 2.3455 10.3066C3.57836 11.5871 5.89424 12.9766 6.61625 13.5624C7.38594 14.1823 7.78782 15.0473 7.76057 15.7557C7.70608 17.3087 6.6435 17.9217 5.60135 18.2214C4.96108 18.4053 3.7214 18.344 2.89041 18.1397C1.78696 17.8604 0.390625 17.1384 0.390625 17.1384L0.744818 18.8685C2.25695 19.6518 4.11647 20.7144 7.35189 20.4487C9.11604 20.2989 11.139 19.8085 12.4945 18.0648C14.0339 16.0758 14.2995 12.9017 11.8679 10.831V10.8242Z" fill="#109954"/>
</g>
<g id="Group_2">
<g id="Group_3">
<g id="Group_4">
<path id="Vector_5" d="M178.648 16.3278V15.3401H174.541V13.4193H173.438V16.3278H178.648Z" fill="#2271C6"/>
<path id="Vector_6" d="M157.54 9.7684H156.402V8.13367H155.312V12.3499H156.402V10.7492H157.54V9.7684Z" fill="#2271C6"/>
<path id="Vector_7" d="M179.734 10.2316H178.59V8.13367H177.5V14.1073H178.59V11.2192H179.734V10.2316Z" fill="#2271C6"/>
<path id="Vector_8" d="M164.774 11.0353H163.534V8.13367H162.438V16.4095H163.534V12.0298H164.774V11.0353Z" fill="#2271C6"/>
<path id="Vector_9" d="M142.428 12.3772V11.4236H134.812V12.3772H138.068V12.7791H135.896V13.7531H140.173V14.0937H135.746V15.0677H136.073L135.957 16.4163H141.494V15.4355H137.128L137.162 15.0677H141.263V12.7791H139.165V12.3772H142.428Z" fill="#2271C6"/>
<path id="Vector_10" d="M151.033 12.6088V13.5896H155.31V13.9983H150.883V14.9791H151.21L151.087 16.4027H156.632V15.4219H152.266L152.3 14.9791H156.4V12.6088H151.033Z" fill="#2271C6"/>
<path id="Vector_11" d="M134.221 8.08594H133.117V16.3618H134.221V8.08594Z" fill="#2271C6"/>
<path id="Vector_12" d="M148.374 8.13367V10.94H147.639V8.30395H146.562V16.0145H147.639V11.9276H148.374V16.4027H149.457V8.13367H148.374Z" fill="#2271C6"/>
<path id="Vector_13" d="M159.883 11.519C160.128 10.6743 160.06 8.98511 160.06 8.98511H158.984C158.984 8.98511 158.997 10.47 158.813 11.1852C158.725 11.5326 158.623 11.8323 158.371 12.2682C158.037 12.854 157.342 13.4806 157.172 13.6509L157.921 14.407C158.207 14.0937 158.997 13.3376 159.42 12.5815C159.461 12.6224 160.857 14.1413 161.088 14.3729L161.865 13.6441C161.606 13.3921 159.883 11.5121 159.883 11.5121V11.519Z" fill="#2271C6"/>
<path id="Vector_14" d="M139.061 9.31201C139.258 8.80116 139.163 8.02466 139.163 8.02466H138.107C138.107 8.02466 138.128 8.79435 137.998 9.16897C137.903 9.43462 137.413 9.70708 137.099 9.87055C136.711 10.0749 135.941 10.3678 135.648 10.47L136.078 11.2805C136.534 11.1307 138.026 10.6675 138.557 10.1703C138.605 10.1975 140.907 11.1375 141.207 11.2805L141.683 10.4631C141.35 10.3133 139.061 9.31201 139.061 9.31201Z" fill="#2271C6"/>
<path id="Vector_15" d="M176.697 11.6688H173.7V9.72071H176.5V8.73987H172.617V12.6428H176.697V11.6688Z" fill="#2271C6"/>
<path id="Vector_16" d="M170.683 8.13367V9.87739H169.266C169.232 9.71391 169.171 9.55044 169.082 9.40059C168.98 9.21668 168.837 9.0464 168.66 8.89654C168.483 8.75351 168.272 8.63771 168.026 8.54916C167.781 8.46061 167.495 8.41293 167.182 8.41293C166.841 8.41293 166.528 8.46743 166.269 8.5696C166.003 8.67177 165.786 8.81481 165.608 8.97828C165.431 9.14857 165.295 9.3461 165.207 9.55725C165.118 9.76841 165.07 9.99318 165.07 10.2111V10.5449C165.07 10.7629 165.118 10.9808 165.207 11.1988C165.295 11.41 165.431 11.6075 165.608 11.7778C165.786 11.9481 166.003 12.0911 166.269 12.1933C166.535 12.2954 166.841 12.3499 167.182 12.3499C167.495 12.3499 167.781 12.3022 168.026 12.2137C168.272 12.1252 168.49 12.0025 168.66 11.8595C168.837 11.7097 168.98 11.5394 169.082 11.3418C169.164 11.1852 169.225 11.0217 169.259 10.8582H170.669V12.4862H171.759V8.13367H170.669H170.683ZM168.244 10.504C168.244 10.6062 168.224 10.7084 168.176 10.8106C168.129 10.9127 168.067 11.0081 167.979 11.083C167.89 11.1647 167.781 11.2329 167.652 11.2873C167.522 11.3418 167.366 11.3623 167.195 11.3623C167.025 11.3623 166.875 11.335 166.746 11.2873C166.617 11.2329 166.508 11.1647 166.419 11.083C166.33 11.0013 166.262 10.9059 166.221 10.8106C166.174 10.7084 166.153 10.6062 166.153 10.504V10.2588C166.153 10.1567 166.174 10.0477 166.221 9.95231C166.269 9.85014 166.33 9.76159 166.419 9.67986C166.508 9.59812 166.617 9.53682 166.746 9.48233C166.875 9.42783 167.025 9.40059 167.195 9.40059C167.366 9.40059 167.516 9.42783 167.652 9.48233C167.781 9.53682 167.897 9.60493 167.979 9.67986C168.067 9.76159 168.129 9.85014 168.176 9.95231C168.224 10.0545 168.244 10.1567 168.244 10.2588V10.504Z" fill="#2271C6"/>
<path id="Vector_17" d="M170.678 12.8812V13.8212H167.613V12.8812H166.523V16.4095H171.775V12.8812H170.685H170.678ZM170.678 15.4423H167.613V14.7816H170.678V15.4423Z" fill="#2271C6"/>
<path id="Vector_18" d="M136.046 11.2397C136.046 11.2397 136.121 11.2669 136.162 11.2533C136.53 11.1443 138.13 10.6267 138.546 10.1703C138.587 10.1975 140.834 11.1103 141.08 11.2261C141.141 11.2533 141.189 11.2806 141.243 11.2397L141.638 10.5517C141.665 10.5109 141.665 10.4632 141.604 10.4291C141.338 10.2861 139.07 9.32569 139.07 9.32569C139.254 8.90338 139.186 8.11326 139.186 8.11326C139.186 8.07239 139.132 8.03833 139.07 8.03833H138.232C138.164 8.03833 138.11 8.07239 138.11 8.11326C138.11 8.11326 138.123 9.03961 137.946 9.28482C137.769 9.54365 137.558 9.6322 137.177 9.84335C136.754 10.0818 135.896 10.3883 135.712 10.4564C135.678 10.47 135.644 10.4972 135.678 10.5586L136.046 11.2533V11.2397Z" fill="#2271C6"/>
<path id="Vector_19" d="M154.143 12.1456V8.36523H153.06V9.52317H151.31V8.36523H150.227V12.1456H154.143ZM153.06 11.1988H151.31V10.4768H153.06V11.1988Z" fill="#2271C6"/>
<path id="Vector_20" d="M128.029 8.82163V9.83653H130.495C130.481 10.2588 130.447 10.7424 130.352 11.083C130.257 11.444 130.107 11.7778 129.841 12.2341C129.48 12.8472 128.52 13.6918 128.336 13.8621L129.283 14.5773C129.603 14.2503 130.536 13.3444 130.979 12.5611C131.285 12.0639 131.442 11.4508 131.442 11.4508C131.694 10.5994 131.639 8.81482 131.639 8.81482H128.016L128.029 8.82163Z" fill="#2271C6"/>
<path id="Vector_21" d="M142.444 9.01233V9.99998H144.753C144.74 10.4223 144.678 10.9604 144.59 11.301C144.495 11.662 144.345 11.9821 144.059 12.4317C143.704 12.9698 142.901 13.7054 142.717 13.8757L143.657 14.5841C143.977 14.2571 144.706 13.4942 145.155 12.7109C145.462 12.2137 145.632 11.6007 145.632 11.6007C145.884 10.756 145.83 9.01233 145.83 9.01233H142.438H142.444Z" fill="#2271C6"/>
</g>
<path id="Vector_22" d="M120.179 13.4057L120.213 12.0979H122.883V9.00549H118.871V9.98634H121.793V11.117H118.633V12.0979H119.103L119.007 14.3865H123.36V13.4057H120.179Z" fill="#2271C6"/>
<path id="Vector_23" d="M66.6641 13.6031V14.584H70.8803V16.5321H71.9838V13.6031H66.6641Z" fill="#2271C6"/>
<path id="Vector_24" d="M102.429 16.3618V15.3741H98.1034V13.4397H97V16.3618H102.429Z" fill="#2271C6"/>
<path id="Vector_25" d="M117.305 16.3345V15.3469H112.823V13.6781H111.727V16.3345H117.305Z" fill="#2271C6"/>
<path id="Vector_26" d="M70.1858 9.01915H68.4694V8.06555H67.3795V9.01915H65.6562V9.97956H70.1858V9.01915Z" fill="#2271C6"/>
<path id="Vector_27" d="M67.925 13.1128C68.2315 13.1128 68.504 13.0719 68.7356 12.9902C68.9672 12.9085 69.1647 12.7995 69.3145 12.6701C69.4644 12.5406 69.5802 12.384 69.6551 12.2205C69.73 12.0502 69.7709 11.805 69.7709 11.6143C69.7709 11.4236 69.7369 11.2669 69.6619 11.0966C69.587 10.9263 69.4712 10.7697 69.3145 10.6403C69.1647 10.5108 68.9672 10.4019 68.7356 10.3201C68.504 10.2384 68.2315 10.1975 67.925 10.1975C67.6185 10.1975 67.3392 10.2384 67.1145 10.3133C66.8829 10.395 66.6922 10.504 66.5423 10.6334C66.3924 10.7697 66.2767 10.9195 66.2017 11.0898C66.1268 11.2601 66.0859 11.4372 66.0859 11.6075C66.0859 11.7778 66.1268 12.0434 66.2017 12.2137C66.2767 12.384 66.3925 12.5338 66.5491 12.6632C66.699 12.7927 66.8897 12.9016 67.1213 12.9834C67.346 13.0651 67.6253 13.106 67.9318 13.106L67.925 13.1128ZM67.06 11.6552C67.06 11.5938 67.0736 11.5257 67.1076 11.4576C67.1417 11.3895 67.1894 11.3282 67.2575 11.2805C67.3256 11.226 67.421 11.1784 67.53 11.1375C67.6389 11.1034 67.7752 11.083 67.925 11.083C68.0749 11.083 68.2111 11.1034 68.3201 11.1375C68.4291 11.1715 68.5176 11.2192 68.5925 11.2805C68.6607 11.335 68.7083 11.3895 68.7424 11.4576C68.7764 11.5257 68.7901 11.5802 68.7901 11.6552C68.7901 11.7301 68.7764 11.7914 68.7424 11.8527C68.7083 11.9208 68.6607 11.9821 68.5925 12.0366C68.5244 12.0911 68.4291 12.1388 68.3201 12.1796C68.2111 12.2205 68.0749 12.2341 67.925 12.2341C67.7752 12.2341 67.6457 12.2137 67.53 12.1796C67.421 12.1456 67.3256 12.0979 67.2575 12.0366C67.1894 11.9821 67.1417 11.9208 67.1076 11.8527C67.0736 11.7846 67.06 11.7165 67.06 11.6552Z" fill="#2271C6"/>
<path id="Vector_28" d="M73.1248 10.2861H71.9804V8.17456H70.8906V13.3444H71.9804V11.2738H73.1248V10.2861Z" fill="#2271C6"/>
<path id="Vector_29" d="M118.234 10.5858H117.097V8.13367H116V14.332H117.097V11.5666H118.234V10.5858Z" fill="#2271C6"/>
<path id="Vector_30" d="M112.101 10.4972V12.1456H110.453V13.1605H115.643V12.1456H113.164V10.4972H112.101Z" fill="#2271C6"/>
<path id="Vector_31" d="M91.2422 11.7573H92.5295V16.0553H93.6194V8.33801H92.5295V10.7697H91.2422V11.7573Z" fill="#2271C6"/>
<path id="Vector_32" d="M95.2148 8.17456H94.125V16.4504H95.2148V8.17456Z" fill="#2271C6"/>
<path id="Vector_33" d="M73.8828 9.87733H78.4124V10.3677C78.4124 10.899 78.3988 11.4235 78.3715 11.9071C78.3443 12.3907 78.2557 13.0106 78.1468 13.5555L79.2298 13.7258C79.2774 13.4533 79.3387 13.0651 79.3728 12.813C79.4069 12.561 79.4341 12.2886 79.4545 12.0093C79.475 11.73 79.4886 11.4303 79.4954 11.1238C79.5022 10.8105 79.509 10.4563 79.509 10.068V8.89648H73.8828V9.88414V9.87733Z" fill="#2271C6"/>
<path id="Vector_34" d="M111 9.52323H114.092V9.8638C114.092 10.2248 113.983 11.1512 113.874 11.519L114.957 11.6688C115.005 11.4849 115.019 11.3691 115.053 11.2056C115.087 11.0354 115.114 10.8515 115.135 10.6607C115.155 10.47 115.169 10.2725 115.175 10.0613C115.182 9.85017 115.189 9.60496 115.189 9.34613V8.54919H111V9.53004V9.52323Z" fill="#2271C6"/>
<path id="Vector_35" d="M80.5136 14.407H77.5643V11.6279H76.4812V14.407H75.6571V11.6279H74.574V14.407H72.8984V15.381H80.5136V14.407Z" fill="#2271C6"/>
<path id="Vector_36" d="M81.0469 9.05322V14.0937H85.1201V9.05322H81.0469ZM84.0303 13.1128H82.1367V10.0341H84.0303V13.1128Z" fill="#2271C6"/>
<path id="Vector_37" d="M87.2128 8.17456H86.1094V16.4504H87.2128V8.17456Z" fill="#2271C6"/>
<path id="Vector_38" d="M109.947 8.17456H108.844V16.4504H109.947V8.17456Z" fill="#2271C6"/>
<path id="Vector_39" d="M125.002 8.13367H123.898V16.4095H125.002V8.13367Z" fill="#2271C6"/>
<path id="Vector_40" d="M90.2891 11.519C90.5343 10.6743 90.4662 8.98511 90.4662 8.98511H89.39C89.39 8.98511 89.4036 10.47 89.2197 11.1852C89.1311 11.5326 89.029 11.8323 88.7769 12.2682C88.4432 12.854 87.7484 13.4806 87.5781 13.6509L88.3342 14.407C88.6203 14.0937 89.4104 13.3376 89.8327 12.5815C89.8736 12.6224 91.2699 14.1413 91.5015 14.3729L92.278 13.6441C92.0192 13.3921 90.2959 11.5121 90.2959 11.5121L90.2891 11.519Z" fill="#2271C6"/>
<path id="Vector_41" d="M101.329 8.17456V10.1839H99.8853V8.66498H95.9688V12.7723H99.8853V11.1648H101.329V14.155H102.426V8.18137H101.329V8.17456ZM98.7955 11.7914H97.0586V9.63901H98.7955V11.7914Z" fill="#2271C6"/>
<path id="Vector_42" d="M106.094 11.5189C106.223 11.0829 106.264 10.4222 106.278 9.88414H107.912V8.89648H103.471V9.88414H105.174C105.154 10.3337 105.113 10.8514 105.024 11.1919C104.936 11.5393 104.834 11.839 104.582 12.2749C104.248 12.8607 103.553 13.4874 103.383 13.6577L104.139 14.4137C104.425 14.1004 105.215 13.3443 105.637 12.5883C105.671 12.6291 107.068 14.1481 107.306 14.3797L108.083 13.6508C107.824 13.3988 106.101 11.5189 106.101 11.5189H106.094Z" fill="#2271C6"/>
<path id="Vector_43" d="M79.687 3.39291C79.687 3.58363 79.5303 3.7403 79.3396 3.7403C79.1489 3.7403 78.9922 3.58363 78.9922 3.39291C78.9922 3.20219 79.1489 3.04553 79.3396 3.04553C79.5303 3.04553 79.687 3.20219 79.687 3.39291Z" fill="#2271C6"/>
<path id="Vector_44" d="M70.7272 1.60828V4.10806H71.0065C71.313 4.10806 71.4833 4.10125 71.7625 4.08763C72.0418 4.07401 72.4028 4.03314 72.7161 3.97183L72.7911 4.52356C72.6276 4.5508 72.5254 4.57805 72.2802 4.6053C72.1372 4.61892 71.9124 4.63935 71.7557 4.65298C71.5991 4.6666 71.4492 4.6666 71.2653 4.67341C71.0882 4.67341 70.9384 4.67341 70.7136 4.67341H70.0938V1.60828H70.7136H70.7272Z" fill="#2271C6"/>
<path id="Vector_45" d="M88.1617 4.35329C88.0459 4.26474 87.8892 4.18982 87.7053 4.13533C87.5214 4.08083 87.3034 4.05359 87.065 4.05359C86.8266 4.05359 86.6018 4.08083 86.4179 4.13533C86.234 4.18982 86.0842 4.26474 85.9616 4.35329C85.839 4.44184 85.7504 4.55082 85.6891 4.66662C85.6278 4.78241 85.5938 4.90502 85.5938 5.02081C85.5938 5.1366 85.621 5.32051 85.6891 5.43631C85.7504 5.5521 85.839 5.66108 85.9616 5.74963C86.0774 5.83818 86.234 5.9131 86.4179 5.9676C86.6018 6.02209 86.8198 6.04933 87.065 6.04933C87.3102 6.04933 87.5214 6.02209 87.7053 5.9676C87.8892 5.9131 88.0459 5.83818 88.1617 5.74963C88.2843 5.66108 88.3728 5.5521 88.4341 5.43631C88.4954 5.32051 88.5227 5.15704 88.5227 5.02081C88.5227 4.88458 88.4954 4.78241 88.4341 4.66662C88.3728 4.55082 88.2843 4.44184 88.1617 4.35329ZM87.8483 5.20472C87.8211 5.25921 87.7666 5.30008 87.7053 5.34095C87.6372 5.38181 87.5486 5.41587 87.4396 5.44993C87.3307 5.47717 87.2012 5.4908 87.0582 5.4908C86.9152 5.4908 86.7857 5.47717 86.6768 5.44993C86.5678 5.42268 86.4792 5.38863 86.4111 5.34095C86.343 5.30008 86.2953 5.25921 86.2681 5.20472C86.234 5.15704 86.2204 5.10255 86.2204 5.05487C86.2204 5.00719 86.234 4.95951 86.2681 4.90501C86.3021 4.85734 86.3498 4.80966 86.4111 4.76879C86.4792 4.72792 86.5678 4.69386 86.67 4.66662C86.7789 4.63937 86.9015 4.62575 87.0514 4.62575C87.2012 4.62575 87.3307 4.63937 87.4328 4.66662C87.535 4.69386 87.6235 4.72792 87.6985 4.76879C87.7598 4.80966 87.8143 4.85734 87.8415 4.90501C87.8688 4.95269 87.8892 4.99356 87.8892 5.05487C87.8892 5.11617 87.8756 5.15704 87.8415 5.20472H87.8483Z" fill="#2271C6"/>
<path id="Vector_46" d="M93.2632 4.54406C93.1474 4.46233 92.9908 4.40102 92.8068 4.34653C92.6229 4.29885 92.405 4.27161 92.1598 4.27161C91.9146 4.27161 91.6966 4.29885 91.5127 4.34653C91.3288 4.39421 91.1789 4.46233 91.0563 4.54406C90.9337 4.6258 90.8452 4.72116 90.7839 4.82333C90.7226 4.9255 90.6953 5.03448 90.6953 5.13666C90.6953 5.23883 90.7226 5.4023 90.7839 5.50447C90.8452 5.60664 90.9337 5.702 91.0563 5.78374C91.1721 5.86548 91.3288 5.92678 91.5127 5.98127C91.6966 6.02895 91.9146 6.0562 92.1598 6.0562C92.405 6.0562 92.6229 6.02895 92.8068 5.98127C92.9908 5.93359 93.1474 5.86548 93.2632 5.78374C93.3858 5.702 93.4744 5.60664 93.5357 5.50447C93.597 5.4023 93.6242 5.25245 93.6242 5.13666C93.6242 5.02086 93.597 4.9255 93.5357 4.82333C93.4744 4.72116 93.3858 4.6258 93.2632 4.54406ZM92.9567 5.29332C92.9226 5.341 92.875 5.38187 92.8137 5.41592C92.7455 5.44998 92.657 5.48404 92.548 5.51128C92.439 5.53853 92.3096 5.55215 92.1666 5.55215C92.0235 5.55215 91.8941 5.53853 91.7851 5.51128C91.6761 5.48404 91.5876 5.45679 91.5195 5.41592C91.4582 5.38187 91.4037 5.341 91.3765 5.29332C91.3492 5.24564 91.3288 5.20477 91.3288 5.15709C91.3288 5.10941 91.3424 5.06854 91.3765 5.02086C91.4105 4.97318 91.4582 4.93912 91.5195 4.89826C91.5876 4.8642 91.6762 4.83014 91.7783 4.8029C91.8805 4.77565 92.0099 4.76884 92.1598 4.76884C92.3096 4.76884 92.439 4.78246 92.5412 4.8029C92.6434 4.83014 92.7319 4.85739 92.8 4.89826C92.8681 4.93231 92.9158 4.97318 92.9431 5.02086C92.9703 5.06854 92.9908 5.1026 92.9908 5.15709C92.9908 5.21158 92.9771 5.24564 92.9431 5.29332H92.9567Z" fill="#2271C6"/>
<path id="Vector_47" d="M102.06 4.54406C101.937 4.46233 101.788 4.40102 101.604 4.34653C101.42 4.29885 101.202 4.27161 100.957 4.27161C100.711 4.27161 100.493 4.29885 100.31 4.34653C100.126 4.39421 99.9758 4.46233 99.8532 4.54406C99.7306 4.6258 99.642 4.72116 99.5807 4.82333C99.5194 4.9255 99.4922 5.03448 99.4922 5.13666C99.4922 5.23883 99.5194 5.4023 99.5807 5.50447C99.642 5.60664 99.7306 5.702 99.8532 5.78374C99.969 5.86548 100.126 5.92678 100.31 5.98127C100.493 6.02895 100.711 6.0562 100.957 6.0562C101.202 6.0562 101.42 6.02895 101.604 5.98127C101.788 5.93359 101.944 5.86548 102.06 5.78374C102.183 5.702 102.271 5.60664 102.333 5.50447C102.394 5.4023 102.421 5.25245 102.421 5.13666C102.421 5.02086 102.394 4.9255 102.333 4.82333C102.271 4.72116 102.176 4.6258 102.06 4.54406ZM101.747 5.29332C101.713 5.341 101.665 5.38187 101.604 5.41592C101.536 5.44998 101.447 5.48404 101.338 5.51128C101.229 5.53853 101.1 5.55215 100.957 5.55215C100.814 5.55215 100.684 5.53853 100.575 5.51128C100.466 5.48404 100.378 5.45679 100.31 5.41592C100.241 5.38187 100.194 5.341 100.167 5.29332C100.132 5.24564 100.119 5.20477 100.119 5.15709C100.119 5.10941 100.132 5.06854 100.167 5.02086C100.194 4.97318 100.248 4.93912 100.31 4.89826C100.378 4.8642 100.466 4.83014 100.568 4.8029C100.677 4.77565 100.807 4.76884 100.95 4.76884C101.093 4.76884 101.229 4.78246 101.331 4.8029C101.44 4.83014 101.522 4.85739 101.59 4.89826C101.658 4.93231 101.706 4.97318 101.733 5.02086C101.76 5.06854 101.781 5.1026 101.781 5.15709C101.781 5.21158 101.767 5.24564 101.733 5.29332H101.747Z" fill="#2271C6"/>
<path id="Vector_48" d="M100.404 3.92422C100.533 3.87654 100.649 3.81523 100.731 3.74031C100.819 3.66538 100.881 3.57683 100.928 3.48148C100.969 3.38612 100.996 3.24989 100.996 3.1409C100.996 3.03192 100.976 2.94337 100.928 2.84801C100.887 2.75265 100.819 2.66411 100.731 2.58918C100.649 2.51425 100.533 2.45295 100.404 2.40527C100.274 2.35759 100.118 2.33716 99.9474 2.33716C99.7771 2.33716 99.6136 2.35759 99.4842 2.40527C99.3548 2.45295 99.2458 2.51425 99.1573 2.58918C99.0755 2.66411 99.0074 2.75265 98.9597 2.84801C98.9189 2.94337 98.8984 3.04554 98.8984 3.1409C98.8984 3.23626 98.9189 3.38612 98.9597 3.48148C99.0006 3.57683 99.0687 3.66538 99.1573 3.74031C99.2458 3.81523 99.3548 3.87654 99.4842 3.91741C99.6136 3.96509 99.7703 3.98552 99.9474 3.98552C100.124 3.98552 100.274 3.96509 100.404 3.91741V3.92422ZM99.566 3.38612C99.5319 3.35887 99.4978 3.318 99.4842 3.28394C99.4638 3.24308 99.457 3.20902 99.457 3.16815C99.457 3.12728 99.4638 3.09322 99.4842 3.05236C99.5047 3.0183 99.5319 2.97743 99.566 2.95018C99.6068 2.91613 99.6545 2.89569 99.7226 2.86845C99.7839 2.84801 99.8588 2.83439 99.9474 2.83439C100.036 2.83439 100.111 2.84801 100.172 2.86845C100.233 2.88888 100.281 2.91613 100.322 2.95018C100.363 2.97743 100.39 3.0183 100.404 3.05236C100.424 3.08641 100.431 3.12047 100.431 3.16815C100.431 3.21583 100.424 3.24308 100.404 3.28394C100.383 3.318 100.356 3.35206 100.322 3.38612C100.281 3.41336 100.233 3.44061 100.165 3.46785C100.104 3.48829 100.029 3.50191 99.9406 3.50191C99.852 3.50191 99.7839 3.48829 99.7158 3.46785C99.6545 3.44742 99.6 3.42017 99.5591 3.38612H99.566Z" fill="#2271C6"/>
<path id="Vector_49" d="M95.6573 3.90371C95.8344 3.90371 95.9843 3.87646 96.1205 3.83559C96.2499 3.78791 96.3589 3.72661 96.4475 3.65169C96.536 3.57676 96.5973 3.48821 96.645 3.39285C96.6859 3.29749 96.7131 3.16126 96.7131 3.05228C96.7131 2.9433 96.6927 2.85475 96.645 2.75939C96.6041 2.66403 96.536 2.57548 96.4475 2.50056C96.3589 2.42563 96.2499 2.36433 96.1205 2.31665C95.9911 2.26897 95.8344 2.24854 95.6573 2.24854C95.4802 2.24854 95.3236 2.26897 95.1942 2.31665C95.0647 2.36433 94.9558 2.42563 94.8672 2.50056C94.7855 2.57548 94.7174 2.66403 94.6697 2.75939C94.6288 2.85475 94.6016 2.95692 94.6016 3.05228C94.6016 3.14764 94.622 3.29749 94.6697 3.39285C94.7105 3.48821 94.7787 3.57676 94.8672 3.65169C94.9489 3.72661 95.0579 3.78791 95.1873 3.83559C95.3168 3.88327 95.4734 3.90371 95.6505 3.90371H95.6573ZM95.1669 3.07953C95.1669 3.04547 95.1737 3.0046 95.1942 2.97054C95.2146 2.92968 95.2418 2.89562 95.2759 2.86837C95.3168 2.83432 95.3644 2.80707 95.4257 2.78664C95.4871 2.7662 95.562 2.75258 95.6505 2.75258C95.7391 2.75258 95.814 2.7662 95.8753 2.78664C95.9366 2.80707 95.9843 2.83432 96.0251 2.86837C96.0592 2.90243 96.0933 2.92968 96.1069 2.97054C96.1273 3.0046 96.1341 3.03866 96.1341 3.07953C96.1341 3.1204 96.1273 3.15445 96.1069 3.19532C96.0865 3.23619 96.0592 3.27025 96.0251 3.29749C95.9843 3.33155 95.9298 3.35879 95.8685 3.37923C95.8072 3.39966 95.7323 3.41329 95.6437 3.41329C95.5552 3.41329 95.487 3.39966 95.4189 3.37923C95.3576 3.35879 95.3031 3.33155 95.2623 3.29749C95.2282 3.27025 95.1942 3.23619 95.1805 3.19532C95.1601 3.15445 95.1533 3.1204 95.1533 3.07953H95.1669Z" fill="#2271C6"/>
<path id="Vector_50" d="M83.2544 1.59474H82.2804V1.19287H81.6605V1.59474H80.6797V2.13966H83.2544V1.59474Z" fill="#2271C6"/>
<path id="Vector_51" d="M96.9497 1.58107H95.9757V1.1792H95.349V1.58107H94.375V2.12599H96.9497V1.58107Z" fill="#2271C6"/>
<path id="Vector_52" d="M101.224 1.66962H100.25V1.1792H99.6303V1.66962H98.6562V2.22134H101.224V1.66962Z" fill="#2271C6"/>
<path id="Vector_53" d="M98.6087 2.30303H97.9616V1.23364H97.3281V3.94458H97.9616V2.86838H98.6087V2.30303Z" fill="#2271C6"/>
<path id="Vector_54" d="M84.2907 5.87227V5.32054H81.8386V4.60535H81.2188V5.87227H84.2907Z" fill="#2271C6"/>
<path id="Vector_55" d="M84.9085 2.6981H84.2615V1.23364H83.6484V4.83007H84.2615V3.25663H84.9085V2.6981Z" fill="#2271C6"/>
<path id="Vector_56" d="M82.2563 3.87646V3.604C82.3176 3.59038 82.3721 3.58357 82.4266 3.56314C82.556 3.52227 82.6718 3.46778 82.7536 3.40647C82.8421 3.33836 82.9034 3.26343 82.9511 3.1817C82.9988 3.09996 83.0192 2.97735 83.0192 2.882C83.0192 2.78664 82.9988 2.71171 82.9511 2.62316C82.9102 2.53461 82.8421 2.45969 82.7536 2.39838C82.6718 2.33027 82.556 2.28259 82.4266 2.24172C82.2972 2.20085 82.1406 2.18042 81.9703 2.18042C81.8 2.18042 81.6365 2.20085 81.5071 2.24172C81.3777 2.28259 81.2687 2.33027 81.1801 2.39838C81.0984 2.4665 81.0303 2.54142 80.9894 2.62316C80.9486 2.7049 80.9213 2.79345 80.9213 2.882C80.9213 2.97054 80.9417 3.09996 80.9894 3.1817C81.0303 3.26343 81.0984 3.33836 81.187 3.40647C81.2687 3.47459 81.3777 3.52227 81.5071 3.56314C81.5548 3.57676 81.6025 3.59038 81.6501 3.59719V3.86965H80.4922V4.44181H83.4347V3.86965H82.2495L82.2563 3.87646ZM81.5956 3.09315C81.5548 3.0659 81.5275 3.03866 81.5139 3.0046C81.4935 2.97054 81.4867 2.93649 81.4867 2.90243C81.4867 2.86837 81.4935 2.84113 81.5139 2.80707C81.5343 2.77301 81.5616 2.74577 81.5956 2.71852C81.6365 2.69128 81.6842 2.67084 81.7455 2.65041C81.8068 2.62997 81.8817 2.62316 81.9703 2.62316C82.0588 2.62316 82.1337 2.62997 82.195 2.65041C82.2563 2.67084 82.3108 2.69128 82.3449 2.71852C82.3858 2.74577 82.413 2.77301 82.4266 2.80707C82.4471 2.84113 82.4539 2.86837 82.4539 2.90243C82.4539 2.9433 82.4471 2.97054 82.4266 3.0046C82.4062 3.03866 82.3789 3.0659 82.3449 3.09315C82.304 3.12039 82.2563 3.14083 82.1882 3.16126C82.1269 3.1817 82.052 3.18851 81.9635 3.18851C81.8749 3.18851 81.8 3.1817 81.7387 3.16126C81.6774 3.14083 81.6229 3.12039 81.582 3.09315H81.5956Z" fill="#2271C6"/>
<path id="Vector_57" d="M71.8047 3.13403H73.0444V5.91989H73.671V1.23364H73.0444V2.56868H71.8047V3.13403Z" fill="#2271C6"/>
<path id="Vector_58" d="M68.1084 1.32227V2.8957H67.7814C67.7678 2.75947 67.7405 2.63687 67.7065 2.52789C67.6452 2.33717 67.5703 2.1805 67.4681 2.0579C67.3727 1.93529 67.2569 1.83993 67.1343 1.77863C67.0117 1.71733 66.8823 1.68327 66.7529 1.68327C66.6235 1.68327 66.4328 1.71052 66.3101 1.77863C66.1875 1.83993 66.0786 1.93529 65.9764 2.0579C65.881 2.1805 65.8061 2.33717 65.7448 2.52107C65.6835 2.70498 65.6562 2.92976 65.6562 3.18178C65.6562 3.4338 65.6835 3.65177 65.7448 3.84249C65.8061 4.03321 65.881 4.18987 65.9764 4.31247C66.0786 4.43508 66.1875 4.53044 66.3101 4.59174C66.4328 4.65304 66.6167 4.6871 66.7529 4.6871C66.8959 4.6871 67.0049 4.65986 67.1275 4.59174C67.2569 4.53044 67.3659 4.43508 67.4681 4.31247C67.5634 4.18987 67.6384 4.03321 67.6997 3.84249C67.7405 3.71988 67.761 3.59046 67.7746 3.44743H68.1015V5.69519H68.7282V1.32227H68.1015H68.1084ZM67.1956 3.61771C67.1616 3.7335 67.1207 3.82886 67.0662 3.9106C67.0185 3.97872 66.964 4.03321 66.9027 4.07407C66.8414 4.10813 66.7938 4.12857 66.7188 4.12857C66.6507 4.12857 66.5962 4.10813 66.5349 4.07407C66.4736 4.04002 66.4191 3.98553 66.3715 3.9106C66.3238 3.83568 66.2761 3.7335 66.242 3.61771C66.208 3.49511 66.1875 3.35207 66.1875 3.1954C66.1875 3.03874 66.208 2.88889 66.242 2.7731C66.2761 2.6573 66.317 2.55513 66.3715 2.48021C66.4191 2.40528 66.4736 2.35079 66.5349 2.31673C66.5962 2.28267 66.6575 2.26224 66.7188 2.26224C66.7801 2.26224 66.8414 2.28267 66.9027 2.31673C66.964 2.35079 67.0185 2.40528 67.0662 2.48021C67.1207 2.55513 67.1616 2.65049 67.1956 2.7731C67.2297 2.88889 67.2501 3.03193 67.2501 3.20221C67.2501 3.3725 67.2297 3.50873 67.1956 3.63133V3.61771Z" fill="#2271C6"/>
<path id="Vector_59" d="M69.6423 1.23364H69.0156V5.97438H69.6423V1.23364Z" fill="#2271C6"/>
<path id="Vector_60" d="M84.8662 2.11234H86.3443V2.41886C86.3443 2.67088 86.283 3.30434 86.2148 3.55636L86.8347 3.65853C86.8619 3.52912 86.8687 3.45419 86.8892 3.3384C86.9096 3.2226 86.9232 3.09319 86.9369 2.96377C86.9505 2.83435 86.9573 2.69812 86.9641 2.54827C86.9641 2.40523 86.9641 2.23495 86.9641 2.05785V1.51294H84.8594V2.11915L84.8662 2.11234Z" fill="#2271C6"/>
<path id="Vector_61" d="M87.8909 4.05357V3.38605H87.1484V2.83432H87.8909V2.43926H87.1757V1.88754H87.8909V1.23364H88.5039V4.05357H87.8909Z" fill="#2271C6"/>
<path id="Vector_62" d="M101.801 4.23747V3.74024H101.141V3.18171H101.801V2.882H101.141V2.32347H101.801V1.23364H102.421V4.23747H101.801Z" fill="#2271C6"/>
<path id="Vector_63" d="M92.4491 3.59044V3.37248H93.607V2.86162H91.3593V2.6096H93.607V2.09874H91.3593V1.8944H93.607V1.38354H90.6032V1.8944H90.7667V2.09874H90.5692V2.6096H90.7667V3.37248H91.8224V3.59044H89.9766V4.13535H94.295V3.59044H92.4491Z" fill="#2271C6"/>
<path id="Vector_64" d="M97.3423 4.13538V4.59855H95.6735V4.13538H95.0469V6.02214H97.969V4.13538H97.3423ZM97.3423 5.47722H95.6735V5.15028H97.3423V5.47722Z" fill="#2271C6"/>
<path id="Vector_65" d="M77.986 1.23364H77.3594V5.97438H77.986V1.23364Z" fill="#2271C6"/>
<path id="Vector_66" d="M75.9446 3.14766C76.0196 2.89563 76.04 2.52101 76.0468 2.20768H76.9868V1.64233H74.4461V2.20768H75.4201C75.4065 2.46651 75.3861 2.7594 75.3384 2.95694C75.2907 3.15447 75.2294 3.32475 75.0864 3.57677C74.8957 3.91053 74.4938 4.27154 74.3984 4.3669L74.8276 4.80283C74.991 4.61892 75.4474 4.1898 75.6858 3.75387C75.7062 3.78112 76.51 4.64617 76.6394 4.77558L77.0821 4.36009C76.9323 4.21705 75.9446 3.14084 75.9446 3.14084V3.14766Z" fill="#2271C6"/>
</g>
<g id="Group_5">
<path id="Vector_67" d="M67.0113 18.9434C66.7729 18.8685 66.6843 18.8276 66.6503 18.8004C66.6162 18.7799 66.5958 18.7459 66.5958 18.705C66.5958 18.6642 66.5958 18.5484 66.8614 18.5484C66.9704 18.5484 67.168 18.562 67.4472 18.596H67.5017L67.5426 18.1737L67.3859 18.1397C67.1611 18.0988 66.9704 18.0784 66.8206 18.0784C66.5958 18.0784 66.4119 18.1329 66.2825 18.2418C66.1462 18.3508 66.0781 18.5143 66.0781 18.7391C66.0781 18.9162 66.1326 19.0524 66.2348 19.1546C66.337 19.2499 66.5004 19.3317 66.7456 19.3998C66.9159 19.4475 66.9909 19.4883 67.0181 19.502C67.0522 19.5292 67.0658 19.5633 67.0658 19.6041C67.0658 19.6995 67.0385 19.8085 66.8069 19.8085C66.6707 19.8085 66.4664 19.788 66.2075 19.754H66.1531L66.0986 20.1695L66.2552 20.1967C66.48 20.2444 66.6775 20.2716 66.8342 20.2716C67.0522 20.2716 67.2361 20.2172 67.3723 20.0945C67.5153 19.9788 67.5834 19.8017 67.5834 19.5701C67.5834 19.3862 67.5358 19.2499 67.4472 19.1614C67.3587 19.0728 67.2156 18.9979 67.0113 18.9366V18.9434Z" fill="#109954"/>
<path id="Vector_68" d="M68.3462 18.596C68.3462 18.596 68.4484 18.5551 68.5914 18.5551C68.7208 18.5551 68.8775 18.5687 69.0682 18.596L69.1295 18.6096L69.15 18.1737H69.1023C68.4688 18.0102 68.0329 18.0715 67.849 18.3371C67.7332 18.5006 67.6719 18.7799 67.6719 19.1818C67.6719 19.3725 67.6855 19.5291 67.7059 19.6517C67.7264 19.7812 67.774 19.897 67.8354 19.9923C67.8967 20.0945 67.992 20.1694 68.101 20.2103C68.21 20.2512 68.353 20.2784 68.5233 20.2784C68.6936 20.2784 68.8911 20.258 69.1023 20.2103H69.15L69.1363 19.7539H69.075C68.8911 19.788 68.7208 19.8016 68.5642 19.8016C68.4211 19.8016 68.3326 19.7675 68.2849 19.6926C68.2372 19.6109 68.21 19.461 68.21 19.2363C68.21 19.0115 68.2236 18.848 68.2508 18.7595C68.2713 18.6777 68.3053 18.6232 68.3462 18.596Z" fill="#109954"/>
<path id="Vector_69" d="M70.4783 18.9366H69.8448V18.1124H69.3203V20.2444H69.8448V19.4066H70.4783V20.2444H70.9959V18.1124H70.4783V18.9366Z" fill="#109954"/>
<path id="Vector_70" d="M72.0876 18.0784C71.7607 18.0784 71.5291 18.1737 71.3928 18.3576C71.2566 18.5415 71.1953 18.8208 71.1953 19.1818C71.1953 19.5428 71.2634 19.8221 71.3928 19.9992C71.5291 20.1831 71.7607 20.2716 72.0876 20.2716C72.4146 20.2716 72.6461 20.1831 72.7824 19.9992C72.9186 19.8221 72.9799 19.5496 72.9799 19.1818C72.9799 18.814 72.9118 18.5347 72.7824 18.3576C72.6461 18.1737 72.4146 18.0784 72.0876 18.0784ZM72.3669 19.6791C72.3192 19.7676 72.2238 19.8085 72.0876 19.8085C71.9514 19.8085 71.856 19.7676 71.8083 19.6791C71.7538 19.5837 71.7266 19.4202 71.7266 19.1886C71.7266 18.957 71.7538 18.7868 71.8083 18.6846C71.856 18.596 71.9446 18.5484 72.0808 18.5484C72.217 18.5484 72.3056 18.596 72.3533 18.6846C72.4077 18.7868 72.435 18.957 72.435 19.1886C72.435 19.4202 72.4077 19.5905 72.3533 19.6791H72.3669Z" fill="#109954"/>
<path id="Vector_71" d="M73.9704 18.0784C73.6503 18.0784 73.4119 18.1737 73.2757 18.3576C73.1462 18.5415 73.0781 18.8208 73.0781 19.1818C73.0781 19.5428 73.1462 19.8221 73.2757 19.9992C73.4119 20.1831 73.6435 20.2716 73.9704 20.2716C74.2974 20.2716 74.529 20.1831 74.6652 19.9992C74.7946 19.8221 74.8627 19.5496 74.8627 19.1818C74.8627 18.814 74.7946 18.5347 74.6652 18.3576C74.529 18.1737 74.2974 18.0784 73.9704 18.0784ZM74.2497 19.6791C74.202 19.7676 74.1135 19.8085 73.9704 19.8085C73.8274 19.8085 73.7388 19.7676 73.6912 19.6791C73.6367 19.5837 73.6094 19.4202 73.6094 19.1886C73.6094 18.957 73.6367 18.7868 73.6912 18.6846C73.7388 18.596 73.8274 18.5484 73.9704 18.5484C74.1135 18.5484 74.1952 18.596 74.2497 18.6846C74.3042 18.7868 74.3314 18.957 74.3314 19.1886C74.3314 19.4202 74.3042 19.5905 74.2497 19.6791Z" fill="#109954"/>
<path id="Vector_72" d="M75.5792 18.1124H75.0547V20.2444H76.3148V19.7676H75.5792V18.1124Z" fill="#109954"/>
<path id="Vector_73" d="M77.9592 18.1533H77.2031V20.2104H77.6186V19.611H77.9592C78.1976 19.611 78.3815 19.5497 78.5041 19.4202C78.6267 19.2908 78.688 19.1069 78.688 18.8685C78.688 18.3917 78.4428 18.1533 77.9592 18.1533ZM77.9524 19.25H77.6186V18.5075H77.9524C78.0614 18.5075 78.1363 18.5348 78.1908 18.5893C78.2385 18.6437 78.2657 18.7323 78.2657 18.8617C78.2657 19.1205 78.1635 19.25 77.9524 19.25Z" fill="#2271C6"/>
<path id="Vector_74" d="M79.1663 18.1533L78.7031 20.2104H79.1186L79.2004 19.8357H79.9224L80.0041 20.2104H80.4196L79.9564 18.1533H79.1663ZM79.2753 19.4679L79.4864 18.4871H79.6295L79.8406 19.4679H79.2753Z" fill="#2271C6"/>
<path id="Vector_75" d="M82.182 18.8276C82.182 18.3781 81.9368 18.1533 81.4532 18.1533H80.6562V20.2104H81.0717V19.5224H81.4736L81.712 20.2104H82.1684L81.8755 19.4271C82.0798 19.2976 82.182 19.1001 82.182 18.8345V18.8276ZM81.678 19.0729C81.6303 19.1342 81.5554 19.1614 81.46 19.1614H81.0717V18.5075H81.4532C81.5485 18.5075 81.6235 18.5348 81.678 18.5961C81.7325 18.6574 81.7529 18.7323 81.7529 18.8345C81.7529 18.9366 81.7325 19.0116 81.678 19.0729Z" fill="#2271C6"/>
<path id="Vector_76" d="M82.2969 18.5211H82.8486V20.2036H83.2641V18.5211H83.809V18.1533H82.2969V18.5211Z" fill="#2271C6"/>
<path id="Vector_77" d="M84.4467 18.1533H84.0312V20.2104H84.4467V18.1533Z" fill="#2271C6"/>
<path id="Vector_78" d="M85.3582 18.5347C85.4127 18.5007 85.5081 18.4802 85.6443 18.4802C85.7805 18.4802 85.944 18.4939 86.1415 18.5279L86.1552 18.1942C85.9304 18.1397 85.726 18.1124 85.5557 18.1124C85.256 18.1124 85.0449 18.1942 84.9359 18.3508C84.8201 18.5075 84.7656 18.7868 84.7656 19.1818C84.7656 19.3725 84.7792 19.5292 84.7997 19.6518C84.8201 19.7744 84.861 19.8834 84.9223 19.9788C84.9768 20.0741 85.0585 20.1354 85.1607 20.1831C85.2629 20.224 85.3991 20.2444 85.5762 20.2444C85.7533 20.2444 85.944 20.224 86.1552 20.1763V19.8357C85.9576 19.863 85.7805 19.8766 85.6171 19.8766C85.4536 19.8766 85.3378 19.8289 85.2833 19.7404C85.2288 19.6518 85.2016 19.4815 85.2016 19.2431C85.2016 19.0047 85.2152 18.8344 85.2424 18.7391C85.2697 18.6437 85.3105 18.5756 85.3718 18.5415L85.3582 18.5347Z" fill="#2271C6"/>
<path id="Vector_79" d="M87.573 19.5156C87.573 19.754 87.4504 19.8766 87.2052 19.8766C86.96 19.8766 86.8374 19.754 86.8374 19.5156V18.1465H86.4219V19.5088C86.4219 19.7608 86.49 19.9447 86.6194 20.0673C86.7488 20.1831 86.9463 20.2444 87.2052 20.2444C87.464 20.2444 87.6616 20.1831 87.7978 20.0673C87.9272 19.9515 87.9953 19.7608 87.9953 19.5088V18.1465H87.5798V19.5156H87.573Z" fill="#2271C6"/>
<path id="Vector_80" d="M88.7905 18.1533H88.375V20.2036H89.5466V19.8357H88.7905V18.1533Z" fill="#2271C6"/>
<path id="Vector_81" d="M90.0569 18.1533L89.5938 20.2104H90.0092L90.091 19.8357H90.813L90.8947 20.2104H91.3102L90.847 18.1533H90.0569ZM90.1727 19.4679L90.3839 18.4871H90.5269L90.7381 19.4679H90.1727Z" fill="#2271C6"/>
<path id="Vector_82" d="M91.2422 18.5211H91.7939V20.2036H92.2094V18.5211H92.7611V18.1533H91.2422V18.5211Z" fill="#2271C6"/>
<path id="Vector_83" d="M92.9688 20.2036H94.3038V19.8425H93.3911V19.3453H94.1199V18.9911H93.3911V18.5143H94.3038V18.1533H92.9688V20.2036Z" fill="#2271C6"/>
<path id="Vector_84" d="M96.2959 19.6518L95.9349 18.1533H95.2266V20.2036H95.6421V18.6165H95.6897L96.0916 20.115H96.5071L96.909 18.6165H96.9567V20.2036H97.3722V18.1533H96.6638L96.2959 19.6518Z" fill="#2271C6"/>
<path id="Vector_85" d="M98.0647 18.1533L97.6016 20.2104H98.0171L98.0988 19.8357H98.8208L98.9025 20.2104H99.318L98.8549 18.1533H98.0579H98.0647ZM98.1805 19.4679L98.3917 18.4871H98.5347L98.7459 19.4679H98.1805Z" fill="#2271C6"/>
<path id="Vector_86" d="M99.25 18.5211H99.8017V20.2036H100.224V18.5211H100.762V18.1533H99.25V18.5211Z" fill="#2271C6"/>
<path id="Vector_87" d="M100.797 18.5211H101.349V20.2036H101.771V18.5211H102.316V18.1533H100.797V18.5211Z" fill="#2271C6"/>
<path id="Vector_88" d="M102.523 20.2036H103.858V19.8425H102.946V19.3453H103.675V18.9911H102.946V18.5143H103.858V18.1533H102.523V20.2036Z" fill="#2271C6"/>
<path id="Vector_89" d="M105.69 18.8276C105.69 18.3781 105.445 18.1533 104.961 18.1533H104.164V20.2104H104.58V19.5224H104.981L105.22 20.2104H105.676L105.383 19.4271C105.581 19.2976 105.69 19.1001 105.69 18.8345V18.8276ZM105.186 19.0729C105.138 19.1342 105.063 19.1614 104.968 19.1614H104.58V18.5075H104.961C105.056 18.5075 105.131 18.5348 105.186 18.5961C105.233 18.6574 105.261 18.7323 105.261 18.8345C105.261 18.9366 105.233 19.0116 105.186 19.0729Z" fill="#2271C6"/>
<path id="Vector_90" d="M107.123 18.5347C107.177 18.5007 107.273 18.4802 107.402 18.4802C107.532 18.4802 107.702 18.4939 107.899 18.5279L107.913 18.1942C107.681 18.1397 107.484 18.1124 107.314 18.1124C107.014 18.1124 106.81 18.1942 106.694 18.3508C106.585 18.5075 106.523 18.7868 106.523 19.1818C106.523 19.3725 106.537 19.5292 106.557 19.6518C106.585 19.7744 106.619 19.8834 106.68 19.9788C106.735 20.0741 106.823 20.1354 106.925 20.1831C107.027 20.224 107.164 20.2444 107.334 20.2444C107.504 20.2444 107.702 20.224 107.913 20.1763L107.899 19.8357C107.715 19.863 107.538 19.8766 107.368 19.8766C107.198 19.8766 107.089 19.8289 107.034 19.7404C106.98 19.6518 106.953 19.4815 106.953 19.2431C106.953 19.0047 106.966 18.8344 106.993 18.7391C107.021 18.6437 107.062 18.5756 107.123 18.5415V18.5347Z" fill="#2271C6"/>
<path id="Vector_91" d="M108.203 20.2036H109.538V19.8425H108.619V19.3453H109.354V18.9911H108.619V18.5143H109.538V18.1533H108.203V20.2036Z" fill="#2271C6"/>
<path id="Vector_92" d="M111.069 19.8425H111.042L110.544 18.1533H109.836V20.2036H110.258V18.5143H110.285L110.803 20.2036H111.491V18.1533H111.069V19.8425Z" fill="#2271C6"/>
<path id="Vector_93" d="M111.711 18.5211H112.256V20.2036H112.678V18.5211H113.216V18.1533H111.711V18.5211Z" fill="#2271C6"/>
<path id="Vector_94" d="M113.438 20.2036H114.766V19.8425H113.853V19.3453H114.582V18.9911H113.853V18.5143H114.766V18.1533H113.438V20.2036Z" fill="#2271C6"/>
<path id="Vector_95" d="M116.589 18.8276C116.589 18.3781 116.351 18.1533 115.867 18.1533H115.07V20.2104H115.486V19.5224H115.888L116.126 20.2104H116.582L116.29 19.4271C116.487 19.2976 116.589 19.1001 116.589 18.8345V18.8276ZM116.092 19.0729C116.044 19.1342 115.969 19.1614 115.874 19.1614H115.486V18.5075H115.867C115.963 18.5075 116.038 18.5348 116.092 18.5961C116.14 18.6574 116.167 18.7323 116.167 18.8345C116.167 18.9366 116.14 19.0116 116.092 19.0729Z" fill="#2271C6"/>
<path id="Vector_96" d="M118.184 18.0784C118.014 18.0784 117.898 18.1192 117.837 18.201C117.769 18.2827 117.742 18.4326 117.742 18.6573V18.7255H117.578V19.0728H117.742V20.2444H118.15V19.0728H118.518V18.7255H118.15V18.6642C118.15 18.5824 118.164 18.5279 118.184 18.5007C118.205 18.4666 118.246 18.453 118.307 18.453C118.368 18.453 118.443 18.453 118.532 18.4598V18.126L118.47 18.1192C118.355 18.0988 118.259 18.0852 118.191 18.0852L118.184 18.0784Z" fill="#2271C6"/>
<path id="Vector_97" d="M119.319 18.6846C119.067 18.6846 118.89 18.7527 118.781 18.8889C118.672 19.032 118.617 19.2227 118.617 19.4747C118.617 20.006 118.849 20.2716 119.319 20.2716C119.789 20.2716 120.014 20.006 120.014 19.4747C120.014 19.2227 119.959 19.032 119.85 18.8889C119.741 18.7527 119.564 18.6846 119.312 18.6846H119.319ZM119.537 19.8221C119.496 19.897 119.421 19.9311 119.312 19.9311C119.203 19.9311 119.128 19.8902 119.087 19.8221C119.046 19.7472 119.026 19.6314 119.026 19.4747C119.026 19.318 119.046 19.209 119.087 19.1341C119.128 19.0592 119.203 19.0251 119.312 19.0251C119.421 19.0251 119.496 19.0592 119.537 19.1341C119.578 19.2022 119.598 19.318 119.598 19.4747C119.598 19.6314 119.578 19.7472 119.537 19.8221Z" fill="#2271C6"/>
<path id="Vector_98" d="M120.668 18.7255H120.266V20.2444H120.674V19.2295L120.736 19.2091C120.851 19.175 120.994 19.1341 121.158 19.1001V18.6914C121.008 18.7187 120.845 18.7868 120.674 18.8889V18.7323L120.668 18.7255Z" fill="#2271C6"/>
<path id="Vector_99" d="M122.008 20.2376H123.343V19.8766H122.423V19.3794H123.159V19.0252H122.423V18.5415H123.343V18.1805H122.008V20.2376Z" fill="#2271C6"/>
<path id="Vector_100" d="M124.873 19.8766H124.846L124.349 18.1805H123.641V20.2376H124.056V18.5415H124.09L124.608 20.2376H125.296V18.1805H124.873V19.8766Z" fill="#2271C6"/>
<path id="Vector_101" d="M125.695 20.2376H127.03V19.8766H126.111V19.3794H126.846V19.0252H126.111V18.5415H127.03V18.1805H125.695V20.2376Z" fill="#2271C6"/>
<path id="Vector_102" d="M128.861 18.8548C128.861 18.3985 128.615 18.1737 128.132 18.1737H127.328V20.2376H127.75V19.5428H128.152L128.391 20.2376H128.847L128.554 19.4474C128.759 19.318 128.854 19.1205 128.854 18.8548H128.861ZM128.363 19.1001C128.316 19.1614 128.241 19.1886 128.145 19.1886H127.757V18.5347H128.139C128.234 18.5347 128.309 18.562 128.363 18.6233C128.418 18.6846 128.438 18.7595 128.438 18.8617C128.438 18.9638 128.411 19.0388 128.363 19.1001Z" fill="#2271C6"/>
<path id="Vector_103" d="M129.698 18.5688C129.759 18.5347 129.868 18.5143 130.025 18.5143C130.182 18.5143 130.379 18.5279 130.617 18.5552L130.631 18.2282L130.522 18.2078C130.304 18.1669 130.1 18.1465 129.909 18.1465C129.609 18.1465 129.398 18.2282 129.269 18.3917C129.139 18.5552 129.078 18.8276 129.078 19.2023C129.078 19.5769 129.139 19.8493 129.262 20.0196C129.385 20.1899 129.603 20.2785 129.923 20.2785C130.1 20.2785 130.338 20.258 130.624 20.2103V19.141H130.025V19.502H130.216V19.9038L129.964 19.9175C129.78 19.9175 129.657 19.8698 129.596 19.7744C129.534 19.6791 129.507 19.5156 129.507 19.2772C129.507 19.0388 129.521 18.8685 129.548 18.7731C129.575 18.6778 129.623 18.6097 129.684 18.5688H129.698Z" fill="#2271C6"/>
<path id="Vector_104" d="M131.548 18.9979L131.166 18.1805H130.703L131.343 19.4066V20.2376H131.759V19.4066L132.392 18.1805H131.929L131.548 18.9979Z" fill="#2271C6"/>
<path id="Vector_105" d="M134.882 19.1001H134.487C134.487 19.1477 134.48 19.2159 134.467 19.3044C134.453 19.3929 134.446 19.4474 134.433 19.4747L134.133 19.175C134.29 19.066 134.399 18.9706 134.46 18.8889C134.521 18.8072 134.548 18.6914 134.548 18.5483C134.548 18.4053 134.494 18.2895 134.385 18.201C134.276 18.1192 134.126 18.0715 133.935 18.0715C133.745 18.0715 133.588 18.1124 133.472 18.1941C133.363 18.2759 133.302 18.3917 133.302 18.5279C133.302 18.6301 133.316 18.7118 133.336 18.7731C133.363 18.8344 133.418 18.9161 133.499 19.0183C133.35 19.0728 133.241 19.1545 133.172 19.2431C133.104 19.3385 133.07 19.4679 133.07 19.6313C133.07 19.8357 133.132 19.9992 133.261 20.1013C133.384 20.2103 133.595 20.258 133.888 20.258C134.01 20.258 134.126 20.2308 134.235 20.1831C134.344 20.1354 134.439 20.0673 134.508 19.9924L134.828 20.258L135.059 19.9924L134.719 19.6926C134.794 19.5156 134.841 19.3112 134.875 19.0728L134.882 19.1001ZM133.929 18.4257C134.072 18.4257 134.133 18.487 134.133 18.6164C134.133 18.6846 134.119 18.7391 134.085 18.7867C134.051 18.8344 133.99 18.8889 133.908 18.9502L133.86 18.8957C133.772 18.7935 133.724 18.7118 133.724 18.6301C133.724 18.4938 133.792 18.4257 133.929 18.4257ZM134.078 19.8766C134.003 19.897 133.922 19.9106 133.84 19.9106C133.608 19.9106 133.486 19.8153 133.486 19.6109C133.486 19.4542 133.561 19.3385 133.711 19.2635L134.235 19.788C134.208 19.8221 134.153 19.8561 134.072 19.8766H134.078Z" fill="#2271C6"/>
<path id="Vector_106" d="M135.898 20.2376H137.233V19.8766H136.314V19.3794H137.05V19.0252H136.314V18.5415H137.233V18.1805H135.898V20.2376Z" fill="#2271C6"/>
<path id="Vector_107" d="M138.772 19.8766H138.745L138.247 18.1805H137.539V20.2376H137.961V18.5415H137.989L138.506 20.2376H139.194V18.1805H138.772V19.8766Z" fill="#2271C6"/>
<path id="Vector_108" d="M140.354 19.8766H140.211L139.857 18.1805H139.414L139.898 20.2376H140.667L141.151 18.1805H140.708L140.354 19.8766Z" fill="#2271C6"/>
<path id="Vector_109" d="M141.797 18.1805H141.375V20.2444H141.797V18.1805Z" fill="#2271C6"/>
<path id="Vector_110" d="M143.728 18.8548C143.728 18.3985 143.483 18.1737 142.999 18.1737H142.195V20.2376H142.618V19.5428H143.019L143.258 20.2376H143.714L143.421 19.4474C143.619 19.318 143.728 19.1205 143.728 18.8548ZM143.231 19.1001C143.183 19.1614 143.108 19.1886 143.013 19.1886H142.624V18.5347H143.006C143.101 18.5347 143.176 18.562 143.231 18.6233C143.285 18.6846 143.306 18.7595 143.306 18.8617C143.306 18.9638 143.278 19.0388 143.231 19.1001Z" fill="#2271C6"/>
<path id="Vector_111" d="M144.804 18.1396C144.49 18.1396 144.265 18.2282 144.143 18.4053C144.013 18.5824 143.945 18.8548 143.945 19.2159C143.945 19.5769 144.013 19.8493 144.143 20.0196C144.272 20.1899 144.49 20.2784 144.804 20.2784C145.117 20.2784 145.342 20.1967 145.464 20.0196C145.594 19.8493 145.662 19.5837 145.662 19.2159C145.662 18.848 145.594 18.5824 145.464 18.4053C145.335 18.2282 145.117 18.1396 144.804 18.1396ZM145.137 19.754C145.076 19.8561 144.967 19.9106 144.804 19.9106C144.64 19.9106 144.531 19.8561 144.47 19.754C144.408 19.645 144.381 19.4679 144.381 19.2159C144.381 18.9638 144.408 18.7867 144.47 18.6709C144.531 18.562 144.64 18.5007 144.804 18.5007C144.967 18.5007 145.076 18.5551 145.137 18.6709C145.199 18.7867 145.226 18.9706 145.226 19.2159C145.226 19.4611 145.199 19.645 145.137 19.754Z" fill="#2271C6"/>
<path id="Vector_112" d="M147.208 19.8766H147.174L146.677 18.1805H145.969V20.2376H146.391V18.5415H146.418L146.936 20.2376H147.624V18.1805H147.208V19.8766Z" fill="#2271C6"/>
<path id="Vector_113" d="M149.1 19.6791L148.739 18.1805H148.023V20.2376H148.446V18.6437H148.487L148.895 20.149H149.311L149.719 18.6437H149.76V20.2376H150.183V18.1805H149.467L149.1 19.6791Z" fill="#2271C6"/>
<path id="Vector_114" d="M150.586 20.2376H151.921V19.8766H151.001V19.3794H151.737V19.0252H151.001V18.5415H151.921V18.1805H150.586V20.2376Z" fill="#2271C6"/>
<path id="Vector_115" d="M153.452 19.8766H153.424L152.927 18.1805H152.219V20.2376H152.641V18.5415H152.668L153.186 20.2376H153.874V18.1805H153.452V19.8766Z" fill="#2271C6"/>
<path id="Vector_116" d="M154.094 18.5484H154.645V20.2376H155.061V18.5484H155.606V18.1805H154.094V18.5484Z" fill="#2271C6"/>
<path id="Vector_117" d="M157.638 19.0183H156.875V18.1805H156.453V20.2376H156.875V19.3862H157.638V20.2376H158.061V18.1805H157.638V19.0183Z" fill="#2271C6"/>
<path id="Vector_118" d="M158.752 18.1805L158.289 20.2444H158.711L158.793 19.8698H159.515L159.597 20.2444H160.012L159.549 18.1805H158.752ZM158.868 19.502L159.079 18.5211H159.222L159.433 19.502H158.868Z" fill="#2271C6"/>
<path id="Vector_119" d="M161.775 18.8548C161.775 18.3985 161.53 18.1737 161.046 18.1737H160.242V20.2376H160.664V19.5428H161.066L161.305 20.2376H161.768L161.475 19.4474C161.679 19.318 161.782 19.1205 161.782 18.8548H161.775ZM161.278 19.1001C161.23 19.1614 161.155 19.1886 161.053 19.1886H160.664V18.5347H161.046C161.141 18.5347 161.216 18.562 161.271 18.6233C161.325 18.6846 161.352 18.7595 161.352 18.8617C161.352 18.9638 161.325 19.0388 161.278 19.1001Z" fill="#2271C6"/>
<path id="Vector_120" d="M163.154 19.6791L162.793 18.1805H162.078V20.2376H162.5V18.6437H162.541L162.95 20.149H163.365L163.767 18.6437H163.815V20.2376H164.231V18.1805H163.522L163.154 19.6791Z" fill="#2271C6"/>
<path id="Vector_121" d="M165.398 18.1396C165.085 18.1396 164.867 18.2282 164.738 18.4053C164.608 18.5824 164.547 18.8548 164.547 19.2159C164.547 19.5769 164.608 19.8493 164.738 20.0196C164.867 20.1899 165.085 20.2784 165.398 20.2784C165.712 20.2784 165.936 20.1967 166.059 20.0196C166.188 19.8493 166.25 19.5837 166.25 19.2159C166.25 18.848 166.182 18.5824 166.059 18.4053C165.93 18.2282 165.712 18.1396 165.398 18.1396ZM165.732 19.754C165.671 19.8561 165.562 19.9106 165.398 19.9106C165.235 19.9106 165.126 19.8561 165.065 19.754C165.003 19.645 164.976 19.4679 164.976 19.2159C164.976 18.9638 165.003 18.7867 165.065 18.6709C165.126 18.562 165.235 18.5007 165.398 18.5007C165.562 18.5007 165.671 18.5551 165.732 18.6709C165.793 18.7867 165.821 18.9706 165.821 19.2159C165.821 19.4611 165.793 19.645 165.732 19.754Z" fill="#2271C6"/>
<path id="Vector_122" d="M167.803 19.8766H167.769L167.272 18.1805H166.57V20.2376H166.986V18.5415H167.02L167.531 20.2376H168.219V18.1805H167.803V19.8766Z" fill="#2271C6"/>
<path id="Vector_123" d="M169.048 18.1805H168.633V20.2444H169.048V18.1805Z" fill="#2271C6"/>
<path id="Vector_124" d="M169.352 18.5415H170.21V18.596L169.352 19.8766V20.2376H170.714V19.8766H169.856V19.8221L170.714 18.5415V18.1805H169.352V18.5415Z" fill="#2271C6"/>
<path id="Vector_125" d="M171.315 18.1805L170.852 20.2444H171.267L171.349 19.8698H172.071L172.153 20.2444H172.575L172.112 18.1805H171.315ZM171.431 19.502L171.642 18.5211H171.785L171.996 19.502H171.431Z" fill="#2271C6"/>
<path id="Vector_126" d="M172.508 18.5484H173.06V20.2376H173.475V18.5484H174.027V18.1805H172.508V18.5484Z" fill="#2271C6"/>
<path id="Vector_127" d="M174.657 18.1805H174.234V20.2444H174.657V18.1805Z" fill="#2271C6"/>
<path id="Vector_128" d="M175.828 18.1396C175.515 18.1396 175.29 18.2282 175.167 18.4053C175.038 18.5824 174.977 18.8548 174.977 19.2159C174.977 19.5769 175.045 19.8493 175.167 20.0196C175.297 20.1899 175.515 20.2784 175.828 20.2784C176.141 20.2784 176.366 20.1967 176.489 20.0196C176.618 19.8493 176.679 19.5837 176.679 19.2159C176.679 18.848 176.618 18.5824 176.489 18.4053C176.359 18.2282 176.141 18.1396 175.828 18.1396ZM176.162 19.754C176.1 19.8561 175.991 19.9106 175.828 19.9106C175.665 19.9106 175.556 19.8561 175.494 19.754C175.433 19.645 175.406 19.4679 175.406 19.2159C175.406 18.9638 175.433 18.7867 175.494 18.6709C175.556 18.562 175.665 18.5007 175.828 18.5007C175.991 18.5007 176.1 18.5551 176.162 18.6709C176.223 18.7867 176.25 18.9706 176.25 19.2159C176.25 19.4611 176.223 19.645 176.162 19.754Z" fill="#2271C6"/>
<path id="Vector_129" d="M178.225 18.1805V19.8766H178.198L177.701 18.1805H176.992V20.2376H177.415V18.5415H177.442L177.959 20.2376H178.647V18.1805H178.225Z" fill="#2271C6"/>
</g>
</g>
</g>
<defs>
<clipPath id="clip0_1130_3152">
<rect width="180" height="20" fill="white" transform="translate(0.304688 0.63501)"/>
</clipPath>
</defs>
</svg>
