<svg width="150" height="151" viewBox="0 0 150 151" fill="none" xmlns="http://www.w3.org/2000/svg">
<g clip-path="url(#clip0_1283_5732)">
<circle cx="115.818" cy="42.2543" r="13.0122" transform="rotate(23.1501 115.818 42.2543)" fill="#2A7CFF"/>
<circle cx="35.9113" cy="59.9774" r="13.0122" transform="rotate(23.1501 35.9113 59.9774)" fill="#2A7CFF"/>
<path d="M102.835 68.9366C102.835 68.9366 108.244 67.3181 110.43 71.3981C113.328 76.8044 105.98 83.6466 98.1089 92.8606M108.798 80.1343C115.536 79.0844 120.979 85.3425 106.374 101.112M113.598 91.621C118.153 90.1617 123.738 93.5983 115.492 107.369C110.947 114.958 101.322 125.17 92.0414 132.676C83.3388 139.716 71.566 138.532 62.1293 132.513V132.513L58.6803 130.226C52.9423 126.422 48.581 118.448 46.7744 111.805V111.805C46.7359 111.664 46.7591 111.744 46.724 111.602C45.9659 108.531 36.4165 69.7816 35.422 62.2946C35.3341 61.6335 35.4908 60.9828 35.9191 60.4717C38.2643 57.6726 43.008 57.6251 47.1109 63.1933C55.5687 74.6717 53.3959 87.1085 65.4473 82.8269C75.0884 79.4015 92.8597 59.168 106.043 46.7223C108.914 44.0117 113.345 38.8375 117.526 43.7696C121.185 48.0852 117.343 51.5537 110.99 59.0579L89.179 84.3255" stroke="white" stroke-width="2" stroke-linecap="round"/>
<path d="M96.9119 28.4158C88.7518 25.3184 66.002 23.0002 48.6393 38.612" stroke="#2A7CFF" stroke-width="2" stroke-linecap="round" stroke-linejoin="round"/>
<path d="M92.2644 32.4268L97.7578 28.3604L93.6914 22.8669" stroke="#2A7CFF" stroke-width="2" stroke-linecap="round" stroke-linejoin="round"/>
<path d="M48.5523 32.4409L47.875 39.2419L54.6761 39.9193" stroke="#2A7CFF" stroke-width="2" stroke-linecap="round" stroke-linejoin="round"/>
</g>
<defs>
<clipPath id="clip0_1283_5732">
<rect width="128.36" height="139.634" fill="white" transform="translate(10.8203 5.68323)"/>
</clipPath>
</defs>
</svg>
