<svg width="120" height="120" viewBox="0 0 120 120" fill="none" xmlns="http://www.w3.org/2000/svg">
<path d="M7.78906 65.9033C8.54175 65.9033 8.98379 65.4209 9.71862 65.4209" stroke="#B6B6B6" stroke-width="2.47423" stroke-linecap="round"/>
<path fill-rule="evenodd" clip-rule="evenodd" d="M6.55277 58.9561C6.91242 63.8761 8.56026 68.3852 11.1308 72.1584C10.8569 74.0614 10.7825 76.0259 10.9287 78.0266C11.8454 90.5668 21.1306 100.437 32.7318 102.257C41.4021 108.104 52.0241 111.193 63.263 110.372C77.284 109.347 89.4698 102.44 97.5821 92.2419C107.34 87.9386 113.818 77.6172 112.976 66.0928C112.633 61.4042 111.121 57.0889 108.755 53.428C109.258 50.8704 109.432 48.2061 109.233 45.4841C108.2 31.3588 97.4658 20.2316 83.9331 17.9921C77.8506 11.1185 68.6832 7.05694 58.747 7.78327C51.5037 8.31275 45.0346 11.3001 40.1161 15.8577C38.5038 15.4901 36.8073 15.3524 35.0675 15.4796C25.8493 16.1534 18.9105 24.0065 19.5694 33.0199C19.5924 33.3346 19.6244 33.6465 19.665 33.9555C11.1968 38.7729 5.77788 48.3555 6.55277 58.9561Z" fill="#F3F3F3"/>
<ellipse cx="46.3227" cy="42.8547" rx="9.54925" ry="9.77661" fill="white"/>
<ellipse cx="66.3383" cy="44.219" rx="9.54925" ry="9.77661" fill="white"/>
<circle cx="46.3255" cy="42.6273" r="5.91144" fill="#444444"/>
<circle cx="65.8802" cy="43.9915" r="5.91144" fill="#444444"/>
<path d="M36.8591 13.9238C36.8591 14.5394 36.609 15.4426 36.8948 16.0142C37.002 16.2287 37.5076 16.9012 37.663 16.979" stroke="#B6B6B6" stroke-width="2.47423" stroke-linecap="round"/>
<path d="M84.5235 18.7815C84.2337 18.7453 85.6491 17.4761 85.6491 17.1736" stroke="#B6B6B6" stroke-width="2.47423" stroke-linecap="round"/>
<path d="M22.7056 33.2195C22.3473 33.2195 23.4131 33.4063 23.7061 33.6125C24.0216 33.8346 24.6312 34.1764 24.796 34.5059" stroke="#B6B6B6" stroke-width="2.47423" stroke-linecap="round"/>
<path d="M90.7266 80.8157C91.3279 80.8157 91.4843 81.4127 91.8521 81.7805" stroke="#B6B6B6" stroke-width="2.47423" stroke-linecap="round"/>
<path d="M55.3606 42.6516C55.3606 50.3826 49.1937 56.6344 41.6051 56.6344C34.0166 56.6344 27.8497 50.3826 27.8497 42.6516C27.8497 34.9206 34.0166 28.6687 41.6051 28.6687C49.1937 28.6687 55.3606 34.9206 55.3606 42.6516Z" stroke="#8E8E8E" stroke-width="1.13682"/>
<path d="M84.9153 44.4704C84.9153 52.2014 78.7483 58.4533 71.1598 58.4533C63.5713 58.4533 57.4043 52.2014 57.4043 44.4704C57.4043 36.7395 63.5713 30.4876 71.1598 30.4876C78.7483 30.4876 84.9153 36.7395 84.9153 44.4704Z" stroke="#8E8E8E" stroke-width="1.13682"/>
<path d="M55.25 42.8792H57.0689" stroke="#8E8E8E" stroke-width="1.13682"/>
<path d="M49.5703 56.9751C49.5703 57.9603 50.6162 60.0218 54.7997 60.3855C58.9831 60.7493 60.4837 58.2635 60.7111 56.9751" stroke="#E7E7E7" stroke-width="3.06669" stroke-linecap="round"/>
<path d="M36.002 67.7304C34.2905 74.8673 33.0978 78.5259 31.7317 79.9389L21.8268 68.5782C22.6237 67.5043 26.267 60.2696 27.9746 57.5567C29.7712 54.7025 30.7028 51.5962 32.5863 50.9538C33.6102 50.6046 33.9517 51.1133 34.1225 51.4524C34.2933 51.7916 34.7106 51.3812 35.1471 51.622C35.7619 51.9611 35.7094 52.2777 36.001 52.6394C36.2151 52.9049 36.5133 52.4698 36.8549 52.9785C37.1964 53.3176 37.4282 54.3267 37.5153 54.6741C38.037 56.756 37.71 60.6088 36.002 67.7304Z" fill="url(#paint0_linear_953_2857)"/>
<path d="M78.5995 69.5495C80.3111 76.6864 81.5037 80.345 82.8699 81.758L92.7748 70.3973C91.9778 69.3234 88.3346 62.0887 86.6269 59.3758C84.8304 56.5216 83.8988 53.4153 82.0153 52.7729C80.9914 52.4237 80.6498 52.9324 80.4791 53.2715C80.3083 53.6107 79.8909 53.2003 79.4544 53.4411C78.8397 53.7802 78.8922 54.0968 78.6006 54.4585C78.3865 54.724 78.0882 54.2889 77.7467 54.7976C77.4051 55.1367 77.1733 56.1458 77.0863 56.4932C76.5645 58.5751 76.8916 62.4279 78.5995 69.5495Z" fill="url(#paint1_linear_953_2857)"/>
<defs>
<linearGradient id="paint0_linear_953_2857" x1="26.0949" y1="71.0144" x2="36.5624" y2="48.5126" gradientUnits="userSpaceOnUse">
<stop stop-color="#F3F3F3"/>
<stop offset="1" stop-color="#C5C5C5"/>
</linearGradient>
<linearGradient id="paint1_linear_953_2857" x1="88.5067" y1="72.8334" x2="78.0391" y2="50.3317" gradientUnits="userSpaceOnUse">
<stop stop-color="#F3F3F3"/>
<stop offset="1" stop-color="#C5C5C5"/>
</linearGradient>
</defs>
</svg>
