<svg width="120" height="120" viewBox="0 0 120 120" fill="none" xmlns="http://www.w3.org/2000/svg">
<path d="M49.568 55.6149C49.899 54.6886 50.8624 54.139 51.8263 54.3266C52.7901 54.5141 53.4597 55.3815 53.3956 56.3597L53.2272 58.9328C53.2101 59.1945 53.1697 59.4544 53.1066 59.7095L52.8647 60.6868C52.5903 61.7952 51.4076 62.4273 50.3372 62.0377C50.2242 61.9966 50.1156 61.9449 50.0127 61.8832L48.085 60.7285L48.5612 58.4328L49.4206 56.0274L49.568 55.6149Z" stroke="#E4E4E4"/>
<path d="M69.7562 64.5124L69.7696 64.507L69.7833 64.5024L71.6194 63.8817L71.7951 61.52L71.6308 58.971L71.6026 58.5339C71.5393 57.5523 70.7643 56.7588 69.786 56.6739C68.8078 56.5889 67.9254 57.2386 67.7178 58.1966L67.2213 60.4878C67.1365 60.8787 67.1067 61.2802 67.1325 61.6807L67.2109 62.897C67.2924 64.161 68.59 64.9845 69.7562 64.5124Z" stroke="#E4E4E4"/>
<mask id="path-4-inside-1_588_2080" fill="white">
<path fill-rule="evenodd" clip-rule="evenodd" d="M12.6516 59.6367C12.9704 63.9978 14.431 67.9945 16.7095 71.3389C16.4668 73.0256 16.4009 74.7667 16.5305 76.54C17.343 87.6547 25.5724 96.4031 35.8548 98.0164C43.5397 103.199 52.9547 105.937 62.9165 105.209C75.344 104.301 86.1449 98.1787 93.3352 89.1398C101.985 85.326 107.728 76.1772 106.981 65.9619C106.677 61.8044 105.335 57.978 103.237 54.7322C103.682 52.4667 103.836 50.1069 103.66 47.6959C102.744 35.1757 93.2295 25.3129 81.2344 23.3283C75.8431 17.2363 67.7179 13.6366 58.9113 14.2804C52.4915 14.7496 46.7578 17.3973 42.3984 21.4365C40.9704 21.1112 39.4677 20.9895 37.9269 21.1022C29.7564 21.6994 23.6062 28.6599 24.1902 36.6489C24.2106 36.9274 24.2388 37.2034 24.2748 37.4768C16.7683 41.7465 11.9647 50.2404 12.6516 59.6367Z"/>
</mask>
<path fill-rule="evenodd" clip-rule="evenodd" d="M12.6516 59.6367C12.9704 63.9978 14.431 67.9945 16.7095 71.3389C16.4668 73.0256 16.4009 74.7667 16.5305 76.54C17.343 87.6547 25.5724 96.4031 35.8548 98.0164C43.5397 103.199 52.9547 105.937 62.9165 105.209C75.344 104.301 86.1449 98.1787 93.3352 89.1398C101.985 85.326 107.728 76.1772 106.981 65.9619C106.677 61.8044 105.335 57.978 103.237 54.7322C103.682 52.4667 103.836 50.1069 103.66 47.6959C102.744 35.1757 93.2295 25.3129 81.2344 23.3283C75.8431 17.2363 67.7179 13.6366 58.9113 14.2804C52.4915 14.7496 46.7578 17.3973 42.3984 21.4365C40.9704 21.1112 39.4677 20.9895 37.9269 21.1022C29.7564 21.6994 23.6062 28.6599 24.1902 36.6489C24.2106 36.9274 24.2388 37.2034 24.2748 37.4768C16.7683 41.7465 11.9647 50.2404 12.6516 59.6367Z" fill="#8E979B" fill-opacity="0.2"/>
<path d="M16.7095 71.3389L17.2522 71.417L17.2825 71.2062L17.1626 71.0302L16.7095 71.3389ZM35.8548 98.0164L36.1613 97.5618L36.0602 97.4937L35.9398 97.4748L35.8548 98.0164ZM93.3352 89.1398L93.114 88.6381L92.9903 88.6927L92.9061 88.7985L93.3352 89.1398ZM103.237 54.7322L102.699 54.6264L102.656 54.8438L102.776 55.0299L103.237 54.7322ZM81.2344 23.3283L80.8238 23.6916L80.9528 23.8374L81.1449 23.8692L81.2344 23.3283ZM42.3984 21.4365L42.2766 21.9711L42.5588 22.0353L42.771 21.8387L42.3984 21.4365ZM24.2748 37.4768L24.5459 37.9534L24.8665 37.7711L24.8184 37.4054L24.2748 37.4768ZM17.1626 71.0302C16.5917 70.1921 16.0732 69.3121 15.6127 68.3948L14.6328 68.8868C15.1152 69.8476 15.6582 70.7696 16.2564 71.6476L17.1626 71.0302ZM13.6168 62.6278C13.4149 61.6412 13.2739 60.6296 13.1984 59.5967L12.1048 59.6767C12.1837 60.7566 12.3312 61.815 12.5425 62.8476L13.6168 62.6278ZM13.1984 59.5967C13.1456 58.8742 13.126 58.1572 13.1382 57.4475L12.0419 57.4285C12.029 58.1712 12.0496 58.9212 12.1048 59.6767L13.1984 59.5967ZM13.6048 53.181C13.8942 51.7616 14.3129 50.388 14.8483 49.0746L13.8329 48.6607C13.272 50.0365 12.8335 51.4754 12.5304 52.9619L13.6048 53.181ZM16.8315 45.2701C17.6122 44.0632 18.5027 42.9359 19.4896 41.9041L18.6971 41.1462C17.6623 42.2281 16.7289 43.4099 15.9109 44.6746L16.8315 45.2701ZM22.7356 39.1041C23.3189 38.692 23.9229 38.3078 24.5459 37.9534L24.0037 37.0003C23.3494 37.3725 22.7152 37.776 22.1028 38.2086L22.7356 39.1041ZM24.8184 37.4054C24.8097 37.3393 24.8015 37.2731 24.7937 37.2068L23.7046 37.3339C23.713 37.4056 23.7218 37.477 23.7312 37.5483L24.8184 37.4054ZM24.753 36.8085C24.7472 36.7421 24.7419 36.6756 24.737 36.609L23.6434 36.6889C23.6487 36.7608 23.6544 36.8326 23.6607 36.9042L24.753 36.8085ZM24.737 36.609C24.6915 35.9859 24.6885 35.3695 24.7257 34.7627L23.6312 34.6956C23.5911 35.3513 23.5943 36.0167 23.6434 36.6889L24.737 36.609ZM25.4452 31.1534C25.8491 29.9829 26.4082 28.8774 27.1006 27.8623L26.1947 27.2444C25.4484 28.3387 24.8449 29.5315 24.4087 30.7957L25.4452 31.1534ZM29.5572 25.112C30.4829 24.3131 31.5167 23.6279 32.6369 23.0808L32.1557 22.0955C30.9501 22.6843 29.8374 23.4218 28.8408 24.2819L29.5572 25.112ZM36.1325 21.899C36.73 21.7788 37.3422 21.6946 37.9669 21.649L37.8869 20.5554C37.2164 20.6044 36.5587 20.6948 35.9164 20.824L36.1325 21.899ZM37.9669 21.649C38.3307 21.6224 38.6922 21.6093 39.051 21.6094L39.0511 20.5129C38.6657 20.5128 38.2775 20.5268 37.8869 20.5554L37.9669 21.649ZM41.2117 21.7702C41.571 21.8241 41.9262 21.8912 42.2766 21.9711L42.5201 20.9019C42.143 20.816 41.7609 20.7438 41.3743 20.6858L41.2117 21.7702ZM42.771 21.8387C43.3195 21.3305 43.8901 20.8448 44.4815 20.3832L43.8069 19.5188C43.1911 19.9994 42.5969 20.5052 42.0258 21.0343L42.771 21.8387ZM48.2401 17.9311C49.5477 17.228 50.924 16.6296 52.3583 16.1482L52.0094 15.1087C50.5158 15.61 49.0825 16.2332 47.7208 16.9654L48.2401 17.9311ZM56.7187 15.0832C57.4523 14.9681 58.1969 14.8823 58.9512 14.8272L58.8713 13.7336C58.0867 13.7909 57.3121 13.8802 56.5487 14L56.7187 15.0832ZM58.9512 14.8272C59.6351 14.7772 60.3146 14.7533 60.9889 14.7546L60.9911 13.6581C60.2895 13.6567 59.5825 13.6816 58.8713 13.7336L58.9512 14.8272ZM65.0487 15.0718C66.4044 15.2828 67.7284 15.5963 69.0117 16.0046L69.3442 14.9597C68.0077 14.5345 66.6289 14.208 65.2173 13.9884L65.0487 15.0718ZM72.7855 17.5334C74.0064 18.1409 75.1749 18.8397 76.281 19.6214L76.9138 18.726C75.762 17.912 74.5454 17.1843 73.274 16.5517L72.7855 17.5334ZM79.4158 22.2195C79.9038 22.6918 80.3735 23.1829 80.8238 23.6916L81.6449 22.965C81.1759 22.435 80.6866 21.9235 80.1784 21.4316L79.4158 22.2195ZM81.1449 23.8692C81.8679 23.9888 82.5817 24.1377 83.2849 24.3145L83.5523 23.2511C82.82 23.0669 82.0767 22.912 81.3238 22.7874L81.1449 23.8692ZM87.4184 25.7253C88.761 26.3109 90.047 27.0044 91.2646 27.7953L91.8619 26.8757C90.5941 26.0522 89.2549 25.3301 87.8569 24.7202L87.4184 25.7253ZM94.7192 30.4679C95.7941 31.4513 96.7872 32.5229 97.6861 33.6723L98.5498 32.9968C97.6132 31.7993 96.5788 30.683 95.4593 29.6589L94.7192 30.4679ZM100.078 37.3243C100.766 38.5964 101.351 39.9335 101.821 41.3257L102.86 40.9747C102.369 39.523 101.76 38.1289 101.043 36.8028L100.078 37.3243ZM102.863 45.5647C102.976 46.2783 103.059 47.0024 103.113 47.7359L104.207 47.656C104.151 46.892 104.063 46.1375 103.946 45.3938L102.863 45.5647ZM103.113 47.7359C103.155 48.3158 103.178 48.8925 103.182 49.4656L104.279 49.4579C104.275 48.8608 104.251 48.2599 104.207 47.656L103.113 47.7359ZM102.975 52.9184C102.902 53.4932 102.81 54.0628 102.699 54.6264L103.775 54.838C103.89 54.2504 103.987 53.6565 104.063 53.0572L102.975 52.9184ZM102.776 55.0299C103.302 55.8429 103.779 56.6932 104.203 57.5768L105.192 57.1025C104.748 56.177 104.248 55.2862 103.697 54.4345L102.776 55.0299ZM106.043 63.1067C106.231 64.0502 106.362 65.0164 106.434 66.0019L107.528 65.9219C107.453 64.8915 107.315 63.8807 107.119 62.8932L106.043 63.1067ZM106.434 66.0019C106.492 66.7871 106.51 67.5657 106.491 68.3357L107.587 68.3633C107.607 67.5575 107.588 66.743 107.528 65.9219L106.434 66.0019ZM105.911 72.9584C105.56 74.4919 105.057 75.9689 104.419 77.3705L105.417 77.8248C106.086 76.3564 106.612 74.8092 106.98 73.2031L105.911 72.9584ZM102.07 81.3917C101.151 82.6511 100.106 83.8106 98.9536 84.8498L99.688 85.6641C100.897 84.574 101.992 83.3582 102.956 82.0383L102.07 81.3917ZM95.1911 87.5855C94.5203 87.972 93.8273 88.3237 93.114 88.6381L93.5564 89.6414C94.3058 89.311 95.0339 88.9415 95.7384 88.5357L95.1911 87.5855ZM92.9061 88.7985C92.4527 89.3684 91.9848 89.9267 91.5028 90.4725L92.3248 91.1983C92.8192 90.6383 93.2992 90.0657 93.7643 89.4811L92.9061 88.7985ZM88.4481 93.5938C87.3788 94.5796 86.2579 95.5115 85.0892 96.385L85.7457 97.2633C86.9446 96.3672 88.0945 95.4112 89.1913 94.4L88.4481 93.5938ZM81.461 98.8151C80.2157 99.5589 78.9277 100.241 77.601 100.857L78.0627 101.851C79.424 101.22 80.7456 100.52 82.0233 99.7565L81.461 98.8151ZM73.5501 102.487C72.1828 102.956 70.7821 103.357 69.3517 103.687L69.5981 104.756C71.0657 104.417 72.5029 104.005 73.9059 103.524L73.5501 102.487ZM65.051 104.448C64.3322 104.537 63.6072 104.609 62.8765 104.662L62.9565 105.756C63.7057 105.701 64.4491 105.628 65.1864 105.536L65.051 104.448ZM62.8765 104.662C62.0911 104.72 61.3091 104.755 60.5313 104.77L60.5514 105.866C61.3492 105.851 62.1511 105.815 62.9565 105.756L62.8765 104.662ZM55.8429 104.597C54.272 104.452 52.7237 104.22 51.2032 103.905L50.9812 104.979C52.5415 105.302 54.1301 105.54 55.7418 105.689L55.8429 104.597ZM46.6694 102.7C45.1758 102.212 43.7168 101.643 42.2981 100.997L41.8439 101.995C43.2994 102.658 44.7964 103.242 46.3289 103.742L46.6694 102.7ZM38.1425 98.8198C37.4701 98.4185 36.8095 97.999 36.1613 97.5618L35.5482 98.4709C36.2131 98.9193 36.8908 99.3497 37.5805 99.7613L38.1425 98.8198ZM35.9398 97.4748C35.311 97.3761 34.6901 97.2501 34.0784 97.0979L33.8136 98.1619C34.4565 98.3219 35.109 98.4543 35.7698 98.558L35.9398 97.4748ZM30.4896 95.862C29.3297 95.3455 28.2183 94.7298 27.1664 94.0244L26.5557 94.9351C27.6592 95.6751 28.8256 96.3214 30.0436 96.8637L30.4896 95.862ZM24.2008 91.6496C23.2844 90.7798 22.4377 89.8311 21.6715 88.8129L20.7953 89.4723C21.5981 90.5391 22.4854 91.5333 23.446 92.4449L24.2008 91.6496ZM19.6446 85.5973C19.0645 84.4827 18.5707 83.3114 18.1729 82.092L17.1304 82.4321C17.547 83.709 18.0643 84.9359 18.6719 86.1034L19.6446 85.5973ZM17.2916 78.3923C17.1958 77.7703 17.124 77.1393 17.0773 76.5001L15.9837 76.58C16.0325 77.2483 16.1076 77.9084 16.2079 78.5592L17.2916 78.3923ZM17.0773 76.5001C17.0461 76.0737 17.0265 75.6493 17.0182 75.2272L15.9219 75.2488C15.9306 75.6904 15.9511 76.1342 15.9837 76.58L17.0773 76.5001ZM17.1053 72.682C17.1429 72.2571 17.192 71.8353 17.2522 71.417L16.1669 71.2608C16.1038 71.6988 16.0524 72.1404 16.013 72.5852L17.1053 72.682ZM16.7095 71.3389L17.7949 71.4951L17.8555 71.0735L17.6157 70.7215L16.7095 71.3389ZM35.8548 98.0164L36.4679 97.1073L36.2657 96.9709L36.0248 96.9331L35.8548 98.0164ZM93.3352 89.1398L92.8928 88.1365L92.6454 88.2455L92.4771 88.4572L93.3352 89.1398ZM103.237 54.7322L102.161 54.5206L102.075 54.9554L102.316 55.3276L103.237 54.7322ZM81.2344 23.3283L80.4132 24.055L80.6712 24.3466L81.0554 24.4101L81.2344 23.3283ZM42.3984 21.4365L42.1549 22.5056L42.7191 22.6341L43.1436 22.2408L42.3984 21.4365ZM24.2748 37.4768L24.8169 38.43L25.4581 38.0653L25.3619 37.3339L24.2748 37.4768ZM17.6157 70.7215C17.0584 69.9034 16.5523 69.0443 16.1027 68.1488L14.1428 69.1328C14.6361 70.1154 15.1915 71.0583 15.8033 71.9563L17.6157 70.7215ZM14.1539 62.5178C13.9567 61.5544 13.819 60.5661 13.7452 59.5568L11.558 59.7167C11.6387 60.8202 11.7894 61.9019 12.0054 62.9576L14.1539 62.5178ZM13.7452 59.5568C13.6936 58.8507 13.6744 58.1502 13.6864 57.4569L11.4937 57.419C11.4806 58.1782 11.5016 58.9447 11.558 59.7167L13.7452 59.5568ZM14.142 53.2906C14.4246 51.9048 14.8333 50.5637 15.356 49.2816L13.3252 48.4537C12.7516 49.8608 12.3032 51.3323 11.9932 52.8524L14.142 53.2906ZM17.2919 45.5679C18.0539 44.3899 18.9229 43.2897 19.8858 42.283L18.3009 40.7673C17.2421 41.8743 16.2873 43.0832 15.4505 44.3768L17.2919 45.5679ZM23.0519 39.5519C23.6207 39.15 24.2096 38.7754 24.8169 38.43L23.7327 36.5237C23.0626 36.9048 22.4133 37.3179 21.7865 37.7608L23.0519 39.5519ZM25.3619 37.3339C25.3536 37.2705 25.3457 37.2069 25.3383 37.1432L23.1601 37.3975C23.1687 37.4718 23.1779 37.5459 23.1876 37.6198L25.3619 37.3339ZM25.2992 36.7607C25.2936 36.6969 25.2885 36.633 25.2838 36.569L23.0966 36.7289C23.1021 36.8034 23.108 36.8778 23.1145 36.952L25.2992 36.7607ZM25.2838 36.569C25.2401 35.9704 25.2372 35.3786 25.2729 34.7962L23.084 34.6621C23.0423 35.3422 23.0457 36.0322 23.0966 36.7289L25.2838 36.569ZM25.9635 31.3322C26.3512 30.2086 26.8881 29.1468 27.5535 28.1712L25.7418 26.9355C24.9685 28.0693 24.3428 29.3058 23.8904 30.6169L25.9635 31.3322ZM29.9154 25.5271C30.8057 24.7587 31.8 24.0997 32.8775 23.5735L31.9151 21.6029C30.6668 22.2125 29.5146 22.9762 28.4826 23.8668L29.9154 25.5271ZM36.2406 22.4365C36.8156 22.3208 37.4051 22.2397 38.0069 22.1957L37.847 20.0086C37.1535 20.0593 36.4731 20.1528 35.8083 20.2865L36.2406 22.4365ZM38.0069 22.1957C38.3573 22.1701 38.7055 22.1576 39.0509 22.1576L39.0512 19.9646C38.6525 19.9645 38.2508 19.979 37.847 20.0086L38.0069 22.1957ZM41.1304 22.3124C41.476 22.3643 41.8177 22.4288 42.1549 22.5056L42.6419 20.3674C42.2514 20.2784 41.8558 20.2037 41.4557 20.1437L41.1304 22.3124ZM43.1436 22.2408C43.6808 21.7431 44.2396 21.2675 44.8189 20.8154L43.4696 19.0866C42.8415 19.5768 42.2356 20.0925 41.6531 20.6322L43.1436 22.2408ZM48.4998 18.414C49.7803 17.7254 51.1281 17.1394 52.5328 16.6679L51.8349 14.5889C50.3117 15.1002 48.85 15.7357 47.4612 16.4825L48.4998 18.414ZM56.8037 15.6249C57.5224 15.5121 58.2519 15.428 58.9912 15.374L58.8313 13.1868C58.0317 13.2452 57.242 13.3362 56.4637 13.4584L56.8037 15.6249ZM58.9912 15.374C59.6614 15.325 60.3272 15.3016 60.9878 15.3029L60.9922 13.1099C60.2769 13.1084 59.5562 13.1338 58.8313 13.1868L58.9912 15.374ZM64.9644 15.6136C66.2921 15.8202 67.5888 16.1272 68.8455 16.527L69.5104 14.4372C68.1474 14.0036 66.7412 13.6706 65.3016 13.4466L64.9644 15.6136ZM72.5413 18.0242C73.737 18.6192 74.8813 19.3036 75.9646 20.0692L77.2302 18.2782C76.0556 17.4481 74.8148 16.706 73.5183 16.0609L72.5413 18.0242ZM79.0345 22.6135C79.5124 23.076 79.9723 23.5568 80.4132 24.055L82.0555 22.6016C81.5771 22.061 81.078 21.5393 80.5596 21.0376L79.0345 22.6135ZM81.0554 24.4101C81.7635 24.5273 82.4625 24.673 83.1511 24.8462L83.686 22.7194C82.9392 22.5316 82.1811 22.3735 81.4133 22.2465L81.0554 24.4101ZM87.1992 26.2278C88.514 26.8014 89.7735 27.4805 90.9659 28.2551L92.1606 26.416C90.8676 25.5761 89.5019 24.8397 88.0761 24.2177L87.1992 26.2278ZM94.3491 30.8724C95.4018 31.8355 96.3741 32.8848 97.2542 34.01L98.9817 32.659C98.0263 31.4375 96.9712 30.2989 95.8294 29.2544L94.3491 30.8724ZM99.5958 37.5851C100.269 38.8301 100.841 40.1388 101.302 41.5013L103.379 40.7992C102.879 39.3178 102.256 37.8952 101.525 36.5421L99.5958 37.5851ZM102.321 45.6501C102.432 46.3487 102.514 47.0576 102.566 47.7759L104.753 47.616C104.696 46.8368 104.607 46.0672 104.488 45.3084L102.321 45.6501ZM102.566 47.7759C102.608 48.3437 102.63 48.9084 102.634 49.4694L104.827 49.4541C104.823 48.8449 104.798 48.232 104.753 47.616L102.566 47.7759ZM102.432 52.849C102.36 53.4116 102.269 53.969 102.161 54.5206L104.313 54.9438C104.431 54.3442 104.529 53.7381 104.607 53.1265L102.432 52.849ZM102.316 55.3276C102.829 56.1212 103.295 56.9513 103.709 57.8139L105.686 56.8654C105.232 55.9189 104.721 55.0079 104.158 54.1368L102.316 55.3276ZM105.506 63.2135C105.688 64.1349 105.817 65.0788 105.887 66.0418L108.075 65.882C107.998 64.829 107.857 63.7959 107.657 62.7864L105.506 63.2135ZM105.887 66.0418C105.944 66.8092 105.961 67.5699 105.942 68.322L108.135 68.377C108.155 67.5533 108.136 66.7209 108.075 65.882L105.887 66.0418ZM105.376 72.8361C105.034 74.3332 104.543 75.7752 103.92 77.1434L105.916 78.0519C106.6 76.5501 107.138 74.9678 107.514 73.3254L105.376 72.8361ZM101.627 81.0684C100.73 82.2976 99.7105 83.4289 98.5865 84.4426L100.055 86.0712C101.292 84.9557 102.413 83.7117 103.398 82.3616L101.627 81.0684ZM94.9174 87.1105C94.2635 87.4872 93.588 87.83 92.8928 88.1365L93.7776 90.1431C94.5451 89.8047 95.2908 89.4263 96.0121 89.0107L94.9174 87.1105ZM92.4771 88.4572C92.0295 89.0198 91.5676 89.5708 91.0918 90.1097L92.7358 91.5611C93.2364 90.9942 93.7224 90.4144 94.1933 89.8224L92.4771 88.4572ZM88.0764 93.1907C87.021 94.1638 85.9145 95.0837 84.761 95.9458L86.0739 97.7024C87.2879 96.7951 88.4523 95.827 89.5629 94.8031L88.0764 93.1907ZM81.1799 98.3445C79.9508 99.0786 78.6796 99.7517 77.3702 100.359L78.2935 102.349C79.6722 101.709 81.0105 101 82.3044 100.227L81.1799 98.3445ZM73.3722 101.968C72.0227 102.431 70.6403 102.827 69.2285 103.153L69.7213 105.29C71.2075 104.947 72.6629 104.53 74.0838 104.042L73.3722 101.968ZM64.9833 103.904C64.2737 103.992 63.558 104.063 62.8366 104.116L62.9964 106.303C63.7549 106.247 64.5076 106.173 65.2541 106.08L64.9833 103.904ZM62.8366 104.116C62.0611 104.172 61.2891 104.208 60.5212 104.222L60.5615 106.414C61.3692 106.399 62.1811 106.362 62.9964 106.303L62.8366 104.116ZM55.8934 104.051C54.343 103.908 52.8149 103.679 51.3142 103.368L50.8702 105.516C52.4503 105.843 54.0592 106.084 55.6913 106.235L55.8934 104.051ZM46.8396 102.179C45.3655 101.697 43.9255 101.136 42.5253 100.498L41.6168 102.494C43.0907 103.165 44.6067 103.757 46.1587 104.264L46.8396 102.179ZM38.4235 98.349C37.7598 97.9529 37.1077 97.5388 36.4679 97.1073L35.2417 98.9255C35.9149 99.3795 36.6012 99.8153 37.2996 100.232L38.4235 98.349ZM36.0248 96.9331C35.412 96.837 34.8069 96.7142 34.2108 96.5658L33.6812 98.694C34.3396 98.8578 35.008 98.9935 35.6848 99.0996L36.0248 96.9331ZM30.7127 95.3612C29.5818 94.8576 28.4979 94.2572 27.4718 93.5691L26.2504 95.3905C27.3796 96.1477 28.5736 96.8093 29.8206 97.3646L30.7127 95.3612ZM24.5783 91.2519C23.6839 90.4031 22.8575 89.4772 22.1095 88.4833L20.3573 89.802C21.1784 90.893 22.0859 91.91 23.0686 92.8426L24.5783 91.2519ZM20.1309 85.3442C19.5647 84.2561 19.0825 83.1125 18.6941 81.9219L16.6092 82.6021C17.0352 83.9079 17.5641 85.1625 18.1855 86.3565L20.1309 85.3442ZM17.8335 78.3089C17.7399 77.7013 17.6697 77.0847 17.6241 76.4601L15.4369 76.62C15.4868 77.3029 15.5636 77.9775 15.666 78.6427L17.8335 78.3089ZM17.6241 76.4601C17.5936 76.0435 17.5745 75.6288 17.5664 75.2164L15.3738 75.2596C15.3826 75.7109 15.4036 76.1645 15.4369 76.62L17.6241 76.4601ZM17.6514 72.7304C17.6881 72.3154 17.7361 71.9036 17.7949 71.4951L15.6242 71.1827C15.5597 71.6306 15.5072 72.0821 15.4669 72.5368L17.6514 72.7304Z" fill="#E4E4E4" mask="url(#path-4-inside-1_588_2080)"/>
<path d="M52.3816 67.3033L64.1259 68.7475C64.4109 68.7825 64.6818 68.6144 64.777 68.3435C65.3357 66.7527 64.7373 64.9859 63.327 64.0619L61.9189 63.1395C60.4244 62.1604 58.5628 61.9226 56.8701 62.4945L54.2902 63.3662C52.8548 63.8512 51.8806 65.1878 51.8582 66.7027C51.8537 67.0072 52.0794 67.2662 52.3816 67.3033Z" fill="#FF7171" stroke="#ECECEC" stroke-width="2.95359" stroke-linecap="round"/>
</svg>
