<svg width="64" height="40" viewBox="0 0 64 40" fill="none" xmlns="http://www.w3.org/2000/svg">
<rect width="64" height="40" rx="10" fill="#23B169"/>
<path d="M25.9531 13.625C25.9453 17.2656 23.5469 19.8203 19.4375 20.9688L18.7344 19.6094C21.8984 18.75 23.7734 17.0938 24.0938 15.0312H19.5V13.625H25.9531ZM21.1719 26.7031V21.2969H30.4688V26.7031H21.1719ZM22.875 25.3281H28.75V22.6719H22.875V25.3281ZM26.0156 17.6562V16.2344H28.7344V12.7812H30.4688V20.7344H28.7344V17.6562H26.0156ZM36.875 15.3281C36.8828 16.9062 37.7578 18.4688 39.6094 19.2031L38.6719 20.5312C37.4297 20.0312 36.5547 19.1094 36.0547 17.9844C35.5312 19.25 34.6094 20.3281 33.2656 20.9062L32.3438 19.5625C34.2891 18.7109 35.1953 16.9219 35.2031 15.3281V13.6094H36.875V15.3281ZM34.875 23.3906V22H44.5469V26.8906H42.8125V23.3906H34.875ZM39.8594 21.25V13.0156H41.4844V16.2969H42.8906V12.7812H44.5469V21.3281H42.8906V17.7344H41.4844V21.25H39.8594Z" fill="white"/>
</svg>
