<svg width="120" height="120" viewBox="0 0 120 120" fill="none" xmlns="http://www.w3.org/2000/svg">
<path d="M7.78906 65.9033C8.54175 65.9033 8.98379 65.4209 9.71862 65.4209" stroke="#B6B6B6" stroke-width="2.47423" stroke-linecap="round"/>
<path fill-rule="evenodd" clip-rule="evenodd" d="M6.55277 58.9561C6.91242 63.8761 8.56026 68.3852 11.1308 72.1584C10.8569 74.0614 10.7825 76.0259 10.9287 78.0266C11.8454 90.5668 21.1306 100.437 32.7318 102.257C41.4021 108.104 52.0241 111.193 63.263 110.372C77.284 109.347 89.4698 102.44 97.5821 92.2419C107.34 87.9386 113.818 77.6172 112.976 66.0928C112.633 61.4042 111.121 57.0889 108.755 53.428C109.258 50.8704 109.432 48.2061 109.233 45.4841C108.2 31.3588 97.4658 20.2316 83.9331 17.9921C77.8506 11.1185 68.6832 7.05694 58.747 7.78327C51.5037 8.31275 45.0346 11.3001 40.1161 15.8577C38.5038 15.4901 36.8073 15.3524 35.0675 15.4796C25.8493 16.1534 18.9105 24.0065 19.5694 33.0199C19.5924 33.3346 19.6244 33.6465 19.665 33.9555C11.1968 38.7729 5.77788 48.3555 6.55277 58.9561Z" fill="#F3F3F3"/>
<ellipse cx="46.3227" cy="42.8547" rx="9.54925" ry="9.77661" fill="white"/>
<ellipse cx="66.3383" cy="44.219" rx="9.54925" ry="9.77661" fill="white"/>
<circle cx="46.3255" cy="42.6273" r="5.91144" fill="#444444"/>
<circle cx="65.8802" cy="43.9915" r="5.91144" fill="#444444"/>
<path d="M36.8591 13.9238C36.8591 14.5394 36.609 15.4426 36.8948 16.0142C37.002 16.2287 37.5076 16.9012 37.663 16.979" stroke="#B6B6B6" stroke-width="2.47423" stroke-linecap="round"/>
<path d="M84.5235 18.7815C84.2337 18.7453 85.6491 17.4761 85.6491 17.1736" stroke="#B6B6B6" stroke-width="2.47423" stroke-linecap="round"/>
<path d="M22.7056 33.2195C22.3473 33.2195 23.4131 33.4063 23.7061 33.6125C24.0216 33.8346 24.6312 34.1764 24.796 34.5059" stroke="#B6B6B6" stroke-width="2.47423" stroke-linecap="round"/>
<path d="M88 66C88.6014 66 88.7578 66.597 89.1256 66.9648" stroke="#B6B6B6" stroke-width="2.47423" stroke-linecap="round"/>
<path d="M61.2335 53.8552L50.1583 52.1616C49.4466 52.0528 48.7731 52.5165 48.6208 53.2202L48.4256 54.1226C47.8469 56.7972 48.9309 59.5577 51.1748 61.1238C52.8846 62.3172 55.0481 62.6584 57.0423 62.0493L57.2217 61.9945C60.1271 61.1071 62.1584 58.4857 62.2924 55.4508L62.3052 55.1605C62.3337 54.5155 61.8716 53.9528 61.2335 53.8552Z" fill="#FF7171" stroke="#E0E0E0" stroke-width="3.06669" stroke-linecap="round"/>
<path d="M10.9041 51.3737C15.5452 57.0592 18.2083 59.8369 20.0526 60.5164L24.0411 45.9815C22.8568 45.3602 16.4332 40.4254 13.7169 38.7233C10.8591 36.9326 8.67093 34.539 6.69531 34.7783C5.62138 34.9084 5.53463 35.5149 5.52807 35.8946C5.52152 36.2742 4.96735 36.0858 4.67873 36.4923C4.27226 37.0647 4.45705 37.3271 4.3514 37.7795C4.27384 38.1117 3.81627 37.8493 3.72952 38.4558C3.56913 38.9096 3.79854 39.9193 3.87097 40.27C4.3051 42.3719 6.2729 45.7004 10.9041 51.3737Z" fill="url(#paint0_linear_953_6753)"/>
<path d="M105.174 35.894C103.462 43.0308 102.27 46.6895 100.904 48.1025L90.9986 36.7418C91.7956 35.6679 95.4388 28.4331 97.1465 25.7202C98.9431 22.8661 99.8746 19.7598 101.758 19.1174C102.782 18.7682 103.124 19.2769 103.294 19.616C103.465 19.9551 103.883 19.5448 104.319 19.7856C104.934 20.1247 104.881 20.4413 105.173 20.803C105.387 21.0685 105.685 20.6334 106.027 21.1421C106.368 21.4812 106.6 22.4903 106.687 22.8376C107.209 24.9195 106.882 28.7724 105.174 35.894Z" fill="url(#paint1_linear_953_6753)"/>
<defs>
<linearGradient id="paint0_linear_953_6753" x1="21.2544" y1="50.0294" x2="2.05353" y2="34.306" gradientUnits="userSpaceOnUse">
<stop stop-color="#F3F3F3"/>
<stop offset="1" stop-color="#C5C5C5"/>
</linearGradient>
<linearGradient id="paint1_linear_953_6753" x1="95.2667" y1="39.1779" x2="105.734" y2="16.6762" gradientUnits="userSpaceOnUse">
<stop stop-color="#F3F3F3"/>
<stop offset="1" stop-color="#C5C5C5"/>
</linearGradient>
</defs>
</svg>
