<svg width="120" height="120" viewBox="0 0 120 120" fill="none" xmlns="http://www.w3.org/2000/svg">
<mask id="path-2-inside-1_855_2643" fill="white">
<path fill-rule="evenodd" clip-rule="evenodd" d="M13.1516 59.6367C13.4704 63.9978 14.931 67.9945 17.2095 71.3389C16.9668 73.0256 16.9009 74.7667 17.0305 76.54C17.843 87.6547 26.0724 96.4031 36.3548 98.0164C44.0397 103.199 53.4547 105.937 63.4165 105.209C75.844 104.301 86.6449 98.1787 93.8352 89.1398C102.485 85.326 108.228 76.1772 107.481 65.9619C107.177 61.8044 105.835 57.978 103.737 54.7322C104.182 52.4667 104.336 50.1069 104.16 47.6959C103.244 35.1757 93.7295 25.3129 81.7344 23.3283C76.3431 17.2363 68.2179 13.6366 59.4113 14.2804C52.9915 14.7496 47.2578 17.3973 42.8984 21.4365C41.4704 21.1112 39.9677 20.9895 38.4269 21.1022C30.2564 21.6994 24.1062 28.6599 24.6902 36.6489C24.7106 36.9274 24.7388 37.2034 24.7748 37.4768C17.2683 41.7465 12.4647 50.2404 13.1516 59.6367Z"/>
</mask>
<path fill-rule="evenodd" clip-rule="evenodd" d="M13.1516 59.6367C13.4704 63.9978 14.931 67.9945 17.2095 71.3389C16.9668 73.0256 16.9009 74.7667 17.0305 76.54C17.843 87.6547 26.0724 96.4031 36.3548 98.0164C44.0397 103.199 53.4547 105.937 63.4165 105.209C75.844 104.301 86.6449 98.1787 93.8352 89.1398C102.485 85.326 108.228 76.1772 107.481 65.9619C107.177 61.8044 105.835 57.978 103.737 54.7322C104.182 52.4667 104.336 50.1069 104.16 47.6959C103.244 35.1757 93.7295 25.3129 81.7344 23.3283C76.3431 17.2363 68.2179 13.6366 59.4113 14.2804C52.9915 14.7496 47.2578 17.3973 42.8984 21.4365C41.4704 21.1112 39.9677 20.9895 38.4269 21.1022C30.2564 21.6994 24.1062 28.6599 24.6902 36.6489C24.7106 36.9274 24.7388 37.2034 24.7748 37.4768C17.2683 41.7465 12.4647 50.2404 13.1516 59.6367Z" fill="white" fill-opacity="0.68"/>
<path d="M17.2095 71.3389L17.7522 71.417L17.7825 71.2062L17.6626 71.0302L17.2095 71.3389ZM36.3548 98.0164L36.6613 97.5618L36.5602 97.4937L36.4398 97.4748L36.3548 98.0164ZM93.8352 89.1398L93.614 88.6381L93.4903 88.6927L93.4061 88.7985L93.8352 89.1398ZM103.737 54.7322L103.199 54.6264L103.156 54.8438L103.276 55.0299L103.737 54.7322ZM81.7344 23.3283L81.3238 23.6916L81.4528 23.8374L81.6449 23.8692L81.7344 23.3283ZM42.8984 21.4365L42.7766 21.9711L43.0588 22.0353L43.271 21.8387L42.8984 21.4365ZM24.7748 37.4768L25.0459 37.9534L25.3665 37.7711L25.3184 37.4054L24.7748 37.4768ZM17.6626 71.0302C17.0917 70.1921 16.5732 69.3121 16.1127 68.3948L15.1328 68.8868C15.6152 69.8476 16.1582 70.7696 16.7564 71.6476L17.6626 71.0302ZM14.1168 62.6278C13.9149 61.6412 13.7739 60.6296 13.6984 59.5967L12.6048 59.6767C12.6837 60.7566 12.8312 61.815 13.0425 62.8476L14.1168 62.6278ZM13.6984 59.5967C13.6456 58.8742 13.626 58.1572 13.6382 57.4475L12.5419 57.4285C12.529 58.1712 12.5496 58.9212 12.6048 59.6767L13.6984 59.5967ZM14.1048 53.181C14.3942 51.7616 14.8129 50.388 15.3483 49.0746L14.3329 48.6607C13.772 50.0365 13.3335 51.4754 13.0304 52.9619L14.1048 53.181ZM17.3315 45.2701C18.1122 44.0632 19.0027 42.9359 19.9896 41.9041L19.1971 41.1462C18.1623 42.2281 17.2289 43.4099 16.4109 44.6746L17.3315 45.2701ZM23.2356 39.1041C23.8189 38.692 24.4229 38.3078 25.0459 37.9534L24.5037 37.0003C23.8494 37.3725 23.2152 37.776 22.6028 38.2086L23.2356 39.1041ZM25.3184 37.4054C25.3097 37.3393 25.3015 37.2731 25.2937 37.2068L24.2046 37.3339C24.213 37.4056 24.2218 37.477 24.2312 37.5483L25.3184 37.4054ZM25.253 36.8085C25.2472 36.7421 25.2419 36.6756 25.237 36.609L24.1434 36.6889C24.1487 36.7608 24.1544 36.8326 24.1607 36.9042L25.253 36.8085ZM25.237 36.609C25.1915 35.9859 25.1885 35.3695 25.2257 34.7627L24.1312 34.6956C24.0911 35.3513 24.0943 36.0167 24.1434 36.6889L25.237 36.609ZM25.9452 31.1534C26.3491 29.9829 26.9082 28.8774 27.6006 27.8623L26.6947 27.2444C25.9484 28.3387 25.3449 29.5315 24.9087 30.7957L25.9452 31.1534ZM30.0572 25.112C30.9829 24.3131 32.0167 23.6279 33.1369 23.0808L32.6557 22.0955C31.4501 22.6843 30.3374 23.4218 29.3408 24.2819L30.0572 25.112ZM36.6325 21.899C37.23 21.7788 37.8422 21.6946 38.4669 21.649L38.3869 20.5554C37.7164 20.6044 37.0587 20.6948 36.4164 20.824L36.6325 21.899ZM38.4669 21.649C38.8307 21.6224 39.1922 21.6093 39.551 21.6094L39.5511 20.5129C39.1657 20.5128 38.7775 20.5268 38.3869 20.5554L38.4669 21.649ZM41.7117 21.7702C42.071 21.8241 42.4262 21.8912 42.7766 21.9711L43.0201 20.9019C42.643 20.816 42.2609 20.7438 41.8743 20.6858L41.7117 21.7702ZM43.271 21.8387C43.8195 21.3305 44.3901 20.8448 44.9815 20.3832L44.3069 19.5188C43.6911 19.9994 43.0969 20.5052 42.5258 21.0343L43.271 21.8387ZM48.7401 17.9311C50.0477 17.228 51.424 16.6296 52.8583 16.1482L52.5094 15.1087C51.0158 15.61 49.5825 16.2332 48.2208 16.9654L48.7401 17.9311ZM57.2187 15.0832C57.9523 14.9681 58.6969 14.8823 59.4512 14.8272L59.3713 13.7336C58.5867 13.7909 57.8121 13.8802 57.0487 14L57.2187 15.0832ZM59.4512 14.8272C60.1351 14.7772 60.8146 14.7533 61.4889 14.7546L61.4911 13.6581C60.7895 13.6567 60.0825 13.6816 59.3713 13.7336L59.4512 14.8272ZM65.5487 15.0718C66.9044 15.2828 68.2284 15.5963 69.5117 16.0046L69.8442 14.9597C68.5077 14.5345 67.1289 14.208 65.7173 13.9884L65.5487 15.0718ZM73.2855 17.5334C74.5064 18.1409 75.6749 18.8397 76.781 19.6214L77.4138 18.726C76.262 17.912 75.0454 17.1843 73.774 16.5517L73.2855 17.5334ZM79.9158 22.2195C80.4038 22.6918 80.8735 23.1829 81.3238 23.6916L82.1449 22.965C81.6759 22.435 81.1866 21.9235 80.6784 21.4316L79.9158 22.2195ZM81.6449 23.8692C82.3679 23.9888 83.0817 24.1377 83.7849 24.3145L84.0523 23.2511C83.32 23.0669 82.5767 22.912 81.8238 22.7874L81.6449 23.8692ZM87.9184 25.7253C89.261 26.3109 90.547 27.0044 91.7646 27.7953L92.3619 26.8757C91.0941 26.0522 89.7549 25.3301 88.3569 24.7202L87.9184 25.7253ZM95.2192 30.4679C96.2941 31.4513 97.2872 32.5229 98.1861 33.6723L99.0498 32.9968C98.1132 31.7993 97.0788 30.683 95.9593 29.6589L95.2192 30.4679ZM100.578 37.3243C101.266 38.5964 101.851 39.9335 102.321 41.3257L103.36 40.9747C102.869 39.523 102.26 38.1289 101.543 36.8028L100.578 37.3243ZM103.363 45.5647C103.476 46.2783 103.559 47.0024 103.613 47.7359L104.707 47.656C104.651 46.892 104.563 46.1375 104.446 45.3938L103.363 45.5647ZM103.613 47.7359C103.655 48.3158 103.678 48.8925 103.682 49.4656L104.779 49.4579C104.775 48.8608 104.751 48.2599 104.707 47.656L103.613 47.7359ZM103.475 52.9184C103.402 53.4932 103.31 54.0628 103.199 54.6264L104.275 54.838C104.39 54.2504 104.487 53.6565 104.563 53.0572L103.475 52.9184ZM103.276 55.0299C103.802 55.8429 104.279 56.6932 104.703 57.5768L105.692 57.1025C105.248 56.177 104.748 55.2862 104.197 54.4345L103.276 55.0299ZM106.543 63.1067C106.731 64.0502 106.862 65.0164 106.934 66.0019L108.028 65.9219C107.953 64.8915 107.815 63.8807 107.619 62.8932L106.543 63.1067ZM106.934 66.0019C106.992 66.7871 107.01 67.5657 106.991 68.3357L108.087 68.3633C108.107 67.5575 108.088 66.743 108.028 65.9219L106.934 66.0019ZM106.411 72.9584C106.06 74.4919 105.557 75.9689 104.919 77.3705L105.917 77.8248C106.586 76.3564 107.112 74.8092 107.48 73.2031L106.411 72.9584ZM102.57 81.3917C101.651 82.6511 100.606 83.8106 99.4536 84.8498L100.188 85.6641C101.397 84.574 102.492 83.3582 103.456 82.0383L102.57 81.3917ZM95.6911 87.5855C95.0203 87.972 94.3273 88.3237 93.614 88.6381L94.0564 89.6414C94.8058 89.311 95.5339 88.9415 96.2384 88.5357L95.6911 87.5855ZM93.4061 88.7985C92.9527 89.3684 92.4848 89.9267 92.0028 90.4725L92.8248 91.1983C93.3192 90.6383 93.7992 90.0657 94.2643 89.4811L93.4061 88.7985ZM88.9481 93.5938C87.8788 94.5796 86.7579 95.5115 85.5892 96.385L86.2457 97.2633C87.4446 96.3672 88.5945 95.4112 89.6913 94.4L88.9481 93.5938ZM81.961 98.8151C80.7157 99.5589 79.4277 100.241 78.101 100.857L78.5627 101.851C79.924 101.22 81.2456 100.52 82.5233 99.7565L81.961 98.8151ZM74.0501 102.487C72.6828 102.956 71.2821 103.357 69.8517 103.687L70.0981 104.756C71.5657 104.417 73.0029 104.005 74.4059 103.524L74.0501 102.487ZM65.551 104.448C64.8322 104.537 64.1072 104.609 63.3765 104.662L63.4565 105.756C64.2057 105.701 64.9491 105.628 65.6864 105.536L65.551 104.448ZM63.3765 104.662C62.5911 104.72 61.8091 104.755 61.0313 104.77L61.0514 105.866C61.8492 105.851 62.6511 105.815 63.4565 105.756L63.3765 104.662ZM56.3429 104.597C54.772 104.452 53.2237 104.22 51.7032 103.905L51.4812 104.979C53.0415 105.302 54.6301 105.54 56.2418 105.689L56.3429 104.597ZM47.1694 102.7C45.6758 102.212 44.2168 101.643 42.7981 100.997L42.3439 101.995C43.7994 102.658 45.2964 103.242 46.8289 103.742L47.1694 102.7ZM38.6425 98.8198C37.9701 98.4185 37.3095 97.999 36.6613 97.5618L36.0482 98.4709C36.7131 98.9193 37.3908 99.3497 38.0805 99.7613L38.6425 98.8198ZM36.4398 97.4748C35.811 97.3761 35.1901 97.2501 34.5784 97.0979L34.3136 98.1619C34.9565 98.3219 35.609 98.4543 36.2698 98.558L36.4398 97.4748ZM30.9896 95.862C29.8297 95.3455 28.7183 94.7298 27.6664 94.0244L27.0557 94.9351C28.1592 95.6751 29.3256 96.3214 30.5436 96.8637L30.9896 95.862ZM24.7008 91.6496C23.7844 90.7798 22.9377 89.8311 22.1715 88.8129L21.2953 89.4723C22.0981 90.5391 22.9854 91.5333 23.946 92.4449L24.7008 91.6496ZM20.1446 85.5973C19.5645 84.4827 19.0707 83.3114 18.6729 82.092L17.6304 82.4321C18.047 83.709 18.5643 84.9359 19.1719 86.1034L20.1446 85.5973ZM17.7916 78.3923C17.6958 77.7703 17.624 77.1393 17.5773 76.5001L16.4837 76.58C16.5325 77.2483 16.6076 77.9084 16.7079 78.5592L17.7916 78.3923ZM17.5773 76.5001C17.5461 76.0737 17.5265 75.6493 17.5182 75.2272L16.4219 75.2488C16.4306 75.6904 16.4511 76.1342 16.4837 76.58L17.5773 76.5001ZM17.6053 72.682C17.6429 72.2571 17.692 71.8353 17.7522 71.417L16.6669 71.2608C16.6038 71.6988 16.5524 72.1404 16.513 72.5852L17.6053 72.682ZM17.2095 71.3389L18.2949 71.4951L18.3555 71.0735L18.1157 70.7215L17.2095 71.3389ZM36.3548 98.0164L36.9679 97.1073L36.7657 96.9709L36.5248 96.9331L36.3548 98.0164ZM93.8352 89.1398L93.3928 88.1365L93.1454 88.2455L92.9771 88.4572L93.8352 89.1398ZM103.737 54.7322L102.661 54.5206L102.575 54.9554L102.816 55.3276L103.737 54.7322ZM81.7344 23.3283L80.9132 24.055L81.1712 24.3466L81.5554 24.4101L81.7344 23.3283ZM42.8984 21.4365L42.6549 22.5056L43.2191 22.6341L43.6436 22.2408L42.8984 21.4365ZM24.7748 37.4768L25.3169 38.43L25.9581 38.0653L25.8619 37.3339L24.7748 37.4768ZM18.1157 70.7215C17.5584 69.9034 17.0523 69.0443 16.6027 68.1488L14.6428 69.1328C15.1361 70.1154 15.6915 71.0583 16.3033 71.9563L18.1157 70.7215ZM14.6539 62.5178C14.4567 61.5544 14.319 60.5661 14.2452 59.5568L12.058 59.7167C12.1387 60.8202 12.2894 61.9019 12.5054 62.9576L14.6539 62.5178ZM14.2452 59.5568C14.1936 58.8507 14.1744 58.1502 14.1864 57.4569L11.9937 57.419C11.9806 58.1782 12.0016 58.9447 12.058 59.7167L14.2452 59.5568ZM14.642 53.2906C14.9246 51.9048 15.3333 50.5637 15.856 49.2816L13.8252 48.4537C13.2516 49.8608 12.8032 51.3323 12.4932 52.8524L14.642 53.2906ZM17.7919 45.5679C18.5539 44.3899 19.4229 43.2897 20.3858 42.283L18.8009 40.7673C17.7421 41.8743 16.7873 43.0832 15.9505 44.3768L17.7919 45.5679ZM23.5519 39.5519C24.1207 39.15 24.7096 38.7754 25.3169 38.43L24.2327 36.5237C23.5626 36.9048 22.9133 37.3179 22.2865 37.7608L23.5519 39.5519ZM25.8619 37.3339C25.8536 37.2705 25.8457 37.2069 25.8383 37.1432L23.6601 37.3975C23.6687 37.4718 23.6779 37.5459 23.6876 37.6198L25.8619 37.3339ZM25.7992 36.7607C25.7936 36.6969 25.7885 36.633 25.7838 36.569L23.5966 36.7289C23.6021 36.8034 23.608 36.8778 23.6145 36.952L25.7992 36.7607ZM25.7838 36.569C25.7401 35.9704 25.7372 35.3786 25.7729 34.7962L23.584 34.6621C23.5423 35.3422 23.5457 36.0322 23.5966 36.7289L25.7838 36.569ZM26.4635 31.3322C26.8512 30.2086 27.3881 29.1468 28.0535 28.1712L26.2418 26.9355C25.4685 28.0693 24.8428 29.3058 24.3904 30.6169L26.4635 31.3322ZM30.4154 25.5271C31.3057 24.7587 32.3 24.0997 33.3775 23.5735L32.4151 21.6029C31.1668 22.2125 30.0146 22.9762 28.9826 23.8668L30.4154 25.5271ZM36.7406 22.4365C37.3156 22.3208 37.9051 22.2397 38.5069 22.1957L38.347 20.0086C37.6535 20.0593 36.9731 20.1528 36.3083 20.2865L36.7406 22.4365ZM38.5069 22.1957C38.8573 22.1701 39.2055 22.1576 39.5509 22.1576L39.5512 19.9646C39.1525 19.9645 38.7508 19.979 38.347 20.0086L38.5069 22.1957ZM41.6304 22.3124C41.976 22.3643 42.3177 22.4288 42.6549 22.5056L43.1419 20.3674C42.7514 20.2784 42.3558 20.2037 41.9557 20.1437L41.6304 22.3124ZM43.6436 22.2408C44.1808 21.7431 44.7396 21.2675 45.3189 20.8154L43.9696 19.0866C43.3415 19.5768 42.7356 20.0925 42.1531 20.6322L43.6436 22.2408ZM48.9998 18.414C50.2803 17.7254 51.6281 17.1394 53.0328 16.6679L52.3349 14.5889C50.8117 15.1002 49.35 15.7357 47.9612 16.4825L48.9998 18.414ZM57.3037 15.6249C58.0224 15.5121 58.7519 15.428 59.4912 15.374L59.3313 13.1868C58.5317 13.2452 57.742 13.3362 56.9637 13.4584L57.3037 15.6249ZM59.4912 15.374C60.1614 15.325 60.8272 15.3016 61.4878 15.3029L61.4922 13.1099C60.7769 13.1084 60.0562 13.1338 59.3313 13.1868L59.4912 15.374ZM65.4644 15.6136C66.7921 15.8202 68.0888 16.1272 69.3455 16.527L70.0104 14.4372C68.6474 14.0036 67.2412 13.6706 65.8016 13.4466L65.4644 15.6136ZM73.0413 18.0242C74.237 18.6192 75.3813 19.3036 76.4646 20.0692L77.7302 18.2782C76.5556 17.4481 75.3148 16.706 74.0183 16.0609L73.0413 18.0242ZM79.5345 22.6135C80.0124 23.076 80.4723 23.5568 80.9132 24.055L82.5555 22.6016C82.0771 22.061 81.578 21.5393 81.0596 21.0376L79.5345 22.6135ZM81.5554 24.4101C82.2635 24.5273 82.9625 24.673 83.6511 24.8462L84.186 22.7194C83.4392 22.5316 82.6811 22.3735 81.9133 22.2465L81.5554 24.4101ZM87.6992 26.2278C89.014 26.8014 90.2735 27.4805 91.4659 28.2551L92.6606 26.416C91.3676 25.5761 90.0019 24.8397 88.5761 24.2177L87.6992 26.2278ZM94.8491 30.8724C95.9018 31.8355 96.8741 32.8848 97.7542 34.01L99.4817 32.659C98.5263 31.4375 97.4712 30.2989 96.3294 29.2544L94.8491 30.8724ZM100.096 37.5851C100.769 38.8301 101.341 40.1388 101.802 41.5013L103.879 40.7992C103.379 39.3178 102.756 37.8952 102.025 36.5421L100.096 37.5851ZM102.821 45.6501C102.932 46.3487 103.014 47.0576 103.066 47.7759L105.253 47.616C105.196 46.8368 105.107 46.0672 104.988 45.3084L102.821 45.6501ZM103.066 47.7759C103.108 48.3437 103.13 48.9084 103.134 49.4694L105.327 49.4541C105.323 48.8449 105.298 48.232 105.253 47.616L103.066 47.7759ZM102.932 52.849C102.86 53.4116 102.769 53.969 102.661 54.5206L104.813 54.9438C104.931 54.3442 105.029 53.7381 105.107 53.1265L102.932 52.849ZM102.816 55.3276C103.329 56.1212 103.795 56.9513 104.209 57.8139L106.186 56.8654C105.732 55.9189 105.221 55.0079 104.658 54.1368L102.816 55.3276ZM106.006 63.2135C106.188 64.1349 106.317 65.0788 106.387 66.0418L108.575 65.882C108.498 64.829 108.357 63.7959 108.157 62.7864L106.006 63.2135ZM106.387 66.0418C106.444 66.8092 106.461 67.5699 106.442 68.322L108.635 68.377C108.655 67.5533 108.636 66.7209 108.575 65.882L106.387 66.0418ZM105.876 72.8361C105.534 74.3332 105.043 75.7752 104.42 77.1434L106.416 78.0519C107.1 76.5501 107.638 74.9678 108.014 73.3254L105.876 72.8361ZM102.127 81.0684C101.23 82.2976 100.211 83.4289 99.0865 84.4426L100.555 86.0712C101.792 84.9557 102.913 83.7117 103.898 82.3616L102.127 81.0684ZM95.4174 87.1105C94.7635 87.4872 94.088 87.83 93.3928 88.1365L94.2776 90.1431C95.0451 89.8047 95.7908 89.4263 96.5121 89.0107L95.4174 87.1105ZM92.9771 88.4572C92.5295 89.0198 92.0676 89.5708 91.5918 90.1097L93.2358 91.5611C93.7364 90.9942 94.2224 90.4144 94.6933 89.8224L92.9771 88.4572ZM88.5764 93.1907C87.521 94.1638 86.4145 95.0837 85.261 95.9458L86.5739 97.7024C87.7879 96.7951 88.9523 95.827 90.0629 94.8031L88.5764 93.1907ZM81.6799 98.3445C80.4508 99.0786 79.1796 99.7517 77.8702 100.359L78.7935 102.349C80.1722 101.709 81.5105 101 82.8044 100.227L81.6799 98.3445ZM73.8722 101.968C72.5227 102.431 71.1403 102.827 69.7285 103.153L70.2213 105.29C71.7075 104.947 73.1629 104.53 74.5838 104.042L73.8722 101.968ZM65.4833 103.904C64.7737 103.992 64.058 104.063 63.3366 104.116L63.4964 106.303C64.2549 106.247 65.0076 106.173 65.7541 106.08L65.4833 103.904ZM63.3366 104.116C62.5611 104.172 61.7891 104.208 61.0212 104.222L61.0615 106.414C61.8692 106.399 62.6811 106.362 63.4964 106.303L63.3366 104.116ZM56.3934 104.051C54.843 103.908 53.3149 103.679 51.8142 103.368L51.3702 105.516C52.9503 105.843 54.5592 106.084 56.1913 106.235L56.3934 104.051ZM47.3396 102.179C45.8655 101.697 44.4255 101.136 43.0253 100.498L42.1168 102.494C43.5907 103.165 45.1067 103.757 46.6587 104.264L47.3396 102.179ZM38.9235 98.349C38.2598 97.9529 37.6077 97.5388 36.9679 97.1073L35.7417 98.9255C36.4149 99.3795 37.1012 99.8153 37.7996 100.232L38.9235 98.349ZM36.5248 96.9331C35.912 96.837 35.3069 96.7142 34.7108 96.5658L34.1812 98.694C34.8396 98.8578 35.508 98.9935 36.1848 99.0996L36.5248 96.9331ZM31.2127 95.3612C30.0818 94.8576 28.9979 94.2572 27.9718 93.5691L26.7504 95.3905C27.8796 96.1477 29.0736 96.8093 30.3206 97.3646L31.2127 95.3612ZM25.0783 91.2519C24.1839 90.4031 23.3575 89.4772 22.6095 88.4833L20.8573 89.802C21.6784 90.893 22.5859 91.91 23.5686 92.8426L25.0783 91.2519ZM20.6309 85.3442C20.0647 84.2561 19.5825 83.1125 19.1941 81.9219L17.1092 82.6021C17.5352 83.9079 18.0641 85.1625 18.6855 86.3565L20.6309 85.3442ZM18.3335 78.3089C18.2399 77.7013 18.1697 77.0847 18.1241 76.4601L15.9369 76.62C15.9868 77.3029 16.0636 77.9775 16.166 78.6427L18.3335 78.3089ZM18.1241 76.4601C18.0936 76.0435 18.0745 75.6288 18.0664 75.2164L15.8738 75.2596C15.8826 75.7109 15.9036 76.1645 15.9369 76.62L18.1241 76.4601ZM18.1514 72.7304C18.1881 72.3154 18.2361 71.9036 18.2949 71.4951L16.1242 71.1827C16.0597 71.6306 16.0072 72.0821 15.9669 72.5368L18.1514 72.7304Z" fill="#B6B6B6" mask="url(#path-2-inside-1_855_2643)"/>
</svg>
