<svg width="125" height="25" viewBox="0 0 125 25" fill="none" xmlns="http://www.w3.org/2000/svg">
<g id="img_ministry_of_science_and_ict" clip-path="url(#clip0_1116_2847)">
<g id="Group">
<path id="Vector" d="M39.6637 10.6392V11.7547H33.0938V10.6392H35.1581V7.33632H36.4069V10.6392H39.6637ZM37.7917 9.46731V4.36166H33.4681V3.25642H39.0277V9.46475H37.7917V9.46731ZM41.6946 12.7574H40.4355V2.70508H41.6946V6.94141H42.9871V8.12358H41.6946V12.7548V12.7574Z" fill="#575556"/>
<path id="Vector_2" d="M49.2209 3.33598V4.41814H43.3203V3.33598H45.6359V2.50256H46.9643V3.33598H49.2209ZM43.7409 9.33147H51.7058V12.6677H50.4569V10.4367H43.7409V9.33147ZM48.6439 6.75172C48.6439 7.04405 48.5824 7.32357 48.4567 7.58514C48.3311 7.8467 48.167 8.07749 47.9644 8.27239C47.7438 8.45958 47.4951 8.61345 47.2156 8.72884C46.9361 8.84424 46.6335 8.90322 46.3078 8.90322C45.9821 8.90322 45.677 8.84424 45.3949 8.72884C45.1102 8.61345 44.8641 8.45958 44.6512 8.27239C44.4384 8.07749 44.2717 7.8467 44.146 7.58514C44.0204 7.32101 43.9588 7.04405 43.9588 6.75172C43.9588 6.45938 44.0204 6.18243 44.146 5.92343C44.2717 5.66443 44.4384 5.4362 44.6512 5.24131C44.8641 5.05411 45.1102 4.90025 45.3949 4.78485C45.6795 4.66945 45.9821 4.61047 46.3078 4.61047C46.6335 4.61047 46.9361 4.66945 47.2156 4.78485C47.4951 4.90025 47.7438 5.05411 47.9644 5.24131C48.1695 5.4362 48.3336 5.66443 48.4567 5.92343C48.5824 6.18243 48.6439 6.45938 48.6439 6.75172ZM47.4412 6.74146C47.4412 6.44143 47.3284 6.18499 47.1053 5.96959C46.8822 5.75674 46.6155 5.64904 46.3052 5.64904C45.9949 5.64904 45.7308 5.75674 45.5103 5.96959C45.2897 6.18499 45.182 6.44143 45.182 6.74146C45.182 7.04149 45.2923 7.30049 45.5103 7.51846C45.7283 7.73643 45.9949 7.84414 46.3052 7.84414C46.6155 7.84414 46.8822 7.73643 47.1053 7.51846C47.3284 7.30049 47.4412 7.04149 47.4412 6.74146ZM51.7058 8.76987H50.4569V2.70515H51.7058V5.05924H53.1572V6.28757H51.7058V8.76731V8.76987Z" fill="#575556"/>
<path id="Vector_3" d="M58.8421 11.4393H57.583V4.45141H53.7031V3.32565H58.8421V11.4393ZM61.3731 2.70508H62.6322V12.7574H61.3731V2.70508Z" fill="#575556"/>
<path id="Vector_4" d="M68.0236 8.40842V7.63141H64.0078V6.60567H73.3113V7.63141H69.2827V8.40842H72.5625V10.9548H65.9926V11.5626H72.6984V12.5883H64.7566V9.97268H71.3137V9.39826H64.7566V8.40585H68.0236V8.40842ZM68.6596 3.89L65.1207 6.38L64.372 5.51325L68.6596 2.5155L72.9472 5.51325L72.1984 6.38L68.6596 3.89Z" fill="#575556"/>
<path id="Vector_5" d="M74.2107 4.06932V2.99998H80.019V4.06932H77.5444L80.119 7.19015L79.2445 7.91074L77.1572 5.33099L75.1031 8.07999L74.1953 7.3594L76.7699 4.06932H74.2056H74.2107ZM82.2551 10.6161C82.2551 10.9546 82.1859 11.2726 82.0448 11.5675C81.9038 11.865 81.7166 12.124 81.4832 12.3497C81.2473 12.5753 80.9704 12.7523 80.6498 12.8856C80.3293 13.0164 79.9857 13.0831 79.6241 13.0831C79.2625 13.0831 78.9291 13.0164 78.6035 12.8856C78.2778 12.7548 77.9983 12.5753 77.7649 12.3497C77.5316 12.124 77.3444 11.8624 77.2033 11.5675C77.0623 11.2701 76.993 10.9521 76.993 10.6161C76.993 10.2802 77.0623 9.95967 77.2033 9.66477C77.3444 9.3673 77.5316 9.1083 77.7649 8.88264C77.9983 8.65697 78.2803 8.48003 78.6035 8.34668C78.9291 8.2159 79.2702 8.14923 79.6241 8.14923C79.978 8.14923 80.3293 8.2159 80.6498 8.34668C80.9704 8.47747 81.2499 8.65697 81.4832 8.88264C81.7166 9.1083 81.9038 9.36986 82.0448 9.66477C82.1859 9.96223 82.2551 10.2802 82.2551 10.6161ZM81.0191 10.6059C81.0191 10.2315 80.8806 9.90838 80.6062 9.63656C80.3293 9.3673 79.9985 9.23139 79.6138 9.23139C79.2292 9.23139 78.9112 9.3673 78.6394 9.63656C78.3675 9.90582 78.2316 10.2289 78.2316 10.6059C78.2316 10.9829 78.3675 11.3137 78.6394 11.5803C78.9112 11.847 79.2369 11.9804 79.6138 11.9804C79.9908 11.9804 80.3293 11.847 80.6062 11.5803C80.8832 11.3137 81.0191 10.988 81.0191 10.6059ZM81.8576 8.03639V5.86181H79.9754V4.77965H81.8576V2.70508H83.1167V8.03639H81.8576Z" fill="#575556"/>
<path id="Vector_6" d="M91.8059 4.67705V3.1333H93.0547V8.88004H89.7749V10.9085H93.8035V12.0137H84.5V10.9085H88.5158V8.88004H85.2488V3.1333H86.4848V4.67705H91.8059ZM91.8059 7.78763V5.75921H86.4848V7.78763H91.8059Z" fill="#575556"/>
<path id="Vector_7" d="M95.491 6.88765V2.80774H103.287V3.82323H96.7398V4.35405H103.24V5.33364H96.7398V5.8978H103.32V6.89021H100.017V7.5313H104.046V8.55705H94.7422V7.5313H98.758V6.89021H95.491V6.88765ZM101.869 10.9881C101.869 11.2881 101.807 11.5727 101.681 11.8394C101.556 12.1061 101.384 12.3421 101.166 12.5446C100.933 12.7472 100.666 12.9088 100.366 13.0293C100.066 13.1498 99.7427 13.2088 99.3965 13.2088C99.0503 13.2088 98.7349 13.1498 98.4323 13.0293C98.1297 12.9088 97.8656 12.7472 97.6374 12.5446C97.4091 12.3421 97.2348 12.1061 97.1091 11.8394C96.9834 11.5727 96.9219 11.2881 96.9219 10.9881C96.9219 10.688 96.9834 10.3957 97.1091 10.1316C97.2348 9.86744 97.4091 9.63152 97.6374 9.42124C97.863 9.21865 98.1297 9.05966 98.4323 8.9417C98.7349 8.82631 99.0555 8.76732 99.3965 8.76732C99.7376 8.76732 100.068 8.82631 100.366 8.9417C100.666 9.05966 100.93 9.21865 101.166 9.42124C101.386 9.63152 101.558 9.86744 101.681 10.1316C101.807 10.3957 101.869 10.6803 101.869 10.9881ZM100.62 10.9778C100.62 10.647 100.499 10.3649 100.256 10.1316C100.015 9.89821 99.7273 9.78281 99.394 9.78281C99.0606 9.78281 98.7708 9.89821 98.5272 10.1316C98.281 10.3649 98.1579 10.647 98.1579 10.9778C98.1579 11.3086 98.281 11.5933 98.5272 11.8292C98.7734 12.0651 99.0631 12.1831 99.394 12.1831C99.7248 12.1831 100.015 12.0651 100.256 11.8292C100.497 11.5933 100.62 11.3086 100.62 10.9778Z" fill="#575556"/>
<path id="Vector_8" d="M108.036 2.6488L111.224 7.77754L110.203 8.40837L108.036 4.80287L105.88 8.48786L104.836 7.85703L108.036 2.65137V2.6488ZM105.664 12.5549V9.19563H106.913V11.4497H113.96V12.5549H105.667H105.664ZM112.609 9.14178V2.70522H113.868V9.13921H112.609V9.14178Z" fill="#575556"/>
<path id="Vector_9" d="M115.242 9.06208H124.546V10.1673H120.517V12.7599H119.258V10.1673H115.242V9.06208ZM117.23 4.14876H122.551V2.87427H123.799V7.7081H115.994V2.87427H117.23V4.14876ZM122.551 5.23092H117.23V6.61824H122.551V5.23092Z" fill="#575556"/>
</g>
<g id="Group_2">
<path id="Vector_10" d="M36.8619 16.8224V20.6612H36.2414V17.5712L35.231 20.6612H34.6309L33.6206 17.5712V20.6612H33V16.8224H33.9539L34.931 19.815L35.908 16.8224H36.8619Z" fill="#575556"/>
<path id="Vector_11" d="M38.339 17.043C38.339 17.1456 38.298 17.2379 38.2185 17.3148C38.139 17.3943 38.0441 17.4328 37.9339 17.4328C37.8236 17.4328 37.7287 17.3943 37.6492 17.3148C37.5697 17.2353 37.5312 17.1456 37.5312 17.043C37.5312 16.9327 37.5697 16.8378 37.6492 16.7583C37.7287 16.6788 37.8236 16.6404 37.9339 16.6404C38.0441 16.6404 38.139 16.6788 38.2185 16.7583C38.298 16.8378 38.339 16.9327 38.339 17.043ZM37.6236 20.6639V17.9046H38.257V20.6639H37.6236Z" fill="#575556"/>
<path id="Vector_12" d="M39.6335 19.2739V20.6613H39.0078V17.902H39.613V18.2713C39.6874 18.1431 39.7951 18.0379 39.9335 17.9584C40.0746 17.8789 40.2259 17.8379 40.3874 17.8379C40.7157 17.8379 40.9798 17.9482 41.1773 18.1713C41.3747 18.3944 41.4747 18.6893 41.4747 19.0611V20.6638H40.8413V19.2201C40.8413 18.9252 40.7926 18.7098 40.6977 18.5662C40.6003 18.4251 40.4541 18.3533 40.2541 18.3533C40.1515 18.3533 40.0489 18.3867 39.9515 18.4559C39.8541 18.5251 39.7797 18.6175 39.7258 18.7329C39.6617 18.8688 39.631 19.0483 39.631 19.2739H39.6335Z" fill="#575556"/>
<path id="Vector_13" d="M42.925 17.043C42.925 17.1456 42.8839 17.2379 42.8044 17.3148C42.7249 17.3943 42.6301 17.4328 42.5198 17.4328C42.4095 17.4328 42.3146 17.3943 42.2351 17.3148C42.1557 17.2353 42.1172 17.1456 42.1172 17.043C42.1172 16.9327 42.1557 16.8378 42.2351 16.7583C42.3146 16.6788 42.4095 16.6404 42.5198 16.6404C42.6301 16.6404 42.7249 16.6788 42.8044 16.7583C42.8839 16.8378 42.925 16.9327 42.925 17.043ZM42.2095 20.6639V17.9046H42.8429V20.6639H42.2095Z" fill="#575556"/>
<path id="Vector_14" d="M43.3516 20.1511L43.7465 19.7485C43.8567 19.8998 43.9798 20.0177 44.1132 20.1023C44.2414 20.1793 44.3824 20.2177 44.5286 20.2177C44.6748 20.2177 44.7876 20.1895 44.8851 20.1331C44.9825 20.0767 45.0312 19.9998 45.0312 19.9049C45.0312 19.81 44.9851 19.7356 44.8902 19.6818C44.7953 19.6279 44.685 19.5792 44.5543 19.5305C44.403 19.4818 44.2465 19.4305 44.0875 19.3715C43.8721 19.2946 43.7157 19.1946 43.6157 19.074C43.5157 18.9535 43.467 18.815 43.467 18.6612C43.467 18.4329 43.5747 18.2406 43.7875 18.0791C44.0029 17.9201 44.2542 17.8406 44.5466 17.8406C44.8568 17.8406 45.1107 17.9149 45.3056 18.0611C45.4056 18.138 45.4851 18.2329 45.5441 18.3483L45.1569 18.7227C45.1056 18.6355 45.044 18.5637 44.9748 18.5073C44.8517 18.4022 44.7004 18.3483 44.5132 18.3483C44.4055 18.3483 44.3132 18.374 44.2337 18.4278C44.1542 18.4817 44.1157 18.5432 44.1157 18.6176C44.1157 18.6996 44.1593 18.7663 44.2491 18.8202C44.3388 18.874 44.4696 18.9279 44.644 18.9792C44.7081 18.9971 44.7799 19.0202 44.8594 19.0458C45.1287 19.133 45.3338 19.2484 45.4723 19.3869C45.6108 19.5254 45.68 19.6946 45.68 19.8895C45.68 20.1177 45.5697 20.3152 45.3466 20.4819C45.1235 20.6486 44.8415 20.7332 44.4978 20.7332C44.2106 20.7332 43.9542 20.6665 43.7337 20.5357C43.5849 20.4485 43.4593 20.3203 43.3516 20.1562V20.1511Z" fill="#575556"/>
<path id="Vector_15" d="M46.9879 17.0175V17.9047H47.5931V18.4125H46.9879V19.8177C46.9879 19.9511 47.0213 20.0408 47.0854 20.0896C47.1495 20.1383 47.2418 20.1639 47.3598 20.1639H47.5931V20.6665H47.211C46.911 20.6665 46.693 20.5999 46.5571 20.4691C46.4212 20.3357 46.352 20.1409 46.352 19.8793V18.415H45.875V17.9073H46.352V17.02H46.9905L46.9879 17.0175Z" fill="#575556"/>
<path id="Vector_16" d="M48.0938 20.6638V17.9046H48.6861V18.3174C48.7784 18.1815 48.8913 18.0764 49.0246 18.0046C49.1836 17.9097 49.3708 17.861 49.5836 17.861H49.6272V18.4226H49.5606C49.299 18.4226 49.0887 18.5021 48.9349 18.6585C48.7913 18.8123 48.7195 19.0534 48.7195 19.3791V20.6638H48.0938Z" fill="#575556"/>
<path id="Vector_17" d="M50.944 20.5587L49.8516 17.902H50.5055L51.2594 19.7868L52.0082 17.902H52.657L51.1081 21.7357H50.4644L50.9414 20.5561L50.944 20.5587Z" fill="#575556"/>
<path id="Vector_18" d="M55.7219 20.7305C55.3142 20.7305 54.968 20.592 54.6808 20.3151C54.3936 20.0381 54.25 19.6945 54.25 19.2868C54.25 18.879 54.3936 18.5354 54.6808 18.2559C54.968 17.9764 55.3142 17.8379 55.7219 17.8379C56.1297 17.8379 56.481 17.9764 56.7656 18.2559C57.0503 18.5354 57.1939 18.879 57.1939 19.2868C57.1939 19.6945 57.0503 20.0381 56.7656 20.3151C56.481 20.592 56.1322 20.7305 55.7219 20.7305ZM55.7219 20.2125C55.9502 20.2125 56.1476 20.1253 56.3118 19.9509C56.4759 19.7766 56.5579 19.556 56.5579 19.2868C56.5579 19.0175 56.4759 18.8021 56.3118 18.6226C56.1476 18.4456 55.9502 18.3559 55.7219 18.3559C55.4937 18.3559 55.3014 18.4456 55.1373 18.6226C54.9732 18.8021 54.8911 19.0226 54.8911 19.2868C54.8911 19.5509 54.9732 19.7766 55.1373 19.9509C55.3014 20.1253 55.4963 20.2125 55.7219 20.2125Z" fill="#575556"/>
<path id="Vector_19" d="M57.8754 17.3533C57.8754 17.0917 57.9472 16.8968 58.0934 16.7635C58.2396 16.6302 58.4627 16.566 58.7627 16.566H59.0678V17.0687H58.8858C58.7678 17.0687 58.6755 17.0943 58.6114 17.143C58.5473 17.1917 58.5139 17.2841 58.5139 17.4148V17.9046H59.0678V18.4124H58.5139V20.6665H57.8754V18.4124H57.3984V17.9046H57.8754V17.3533Z" fill="#575556"/>
<path id="Vector_20" d="M61.0208 19.887L61.449 19.4561C61.5644 19.6998 61.708 19.8767 61.8824 19.9895C62.0721 20.1152 62.2619 20.1767 62.4542 20.1767C62.6568 20.1767 62.8312 20.1229 62.9748 20.0177C63.1184 19.9152 63.1902 19.7792 63.1902 19.61C63.1902 19.4587 63.1184 19.3382 62.9722 19.2433C62.8261 19.1484 62.6671 19.0689 62.4978 19.0048C62.3286 18.9433 62.1491 18.874 61.9644 18.7997C61.6695 18.692 61.4567 18.5535 61.3285 18.3817C61.2003 18.2099 61.1362 18.0278 61.1362 17.8355C61.1362 17.538 61.2644 17.2841 61.5182 17.0713C61.7747 16.861 62.085 16.7533 62.4568 16.7533C62.844 16.7533 63.162 16.8533 63.4056 17.0508C63.5313 17.1456 63.6185 17.2533 63.6672 17.3713L63.28 17.779C63.2466 17.7124 63.1851 17.638 63.0979 17.5534C62.9081 17.3841 62.685 17.2995 62.426 17.2995C62.2645 17.2995 62.1209 17.3457 61.9952 17.4354C61.8721 17.5252 61.8106 17.6457 61.8106 17.797C61.8106 18.0252 62.0619 18.2278 62.5645 18.4022C62.6568 18.433 62.7543 18.4637 62.8517 18.5022C63.1876 18.6304 63.4415 18.7817 63.6082 18.9561C63.7774 19.1305 63.8595 19.3459 63.8595 19.6023C63.8595 19.9075 63.7287 20.169 63.4646 20.3896C63.2056 20.6127 62.8722 20.7255 62.4594 20.7255C62.0824 20.7255 61.7695 20.6409 61.5208 20.4716C61.2798 20.3075 61.1131 20.1101 61.0156 19.8818L61.0208 19.887Z" fill="#575556"/>
<path id="Vector_21" d="M64.2344 19.2869C64.2344 18.8894 64.3857 18.5483 64.6857 18.2637C64.9883 17.9791 65.3678 17.8354 65.832 17.8354C66.1935 17.8354 66.5346 17.9508 66.8526 18.1816L66.6474 18.6714C66.3705 18.4586 66.0987 18.3509 65.832 18.3509C65.5473 18.3509 65.3165 18.4406 65.1396 18.6201C64.9627 18.7997 64.8729 19.0202 64.8729 19.2818C64.8729 19.5433 64.9627 19.7613 65.1396 19.9408C65.3165 20.1203 65.5473 20.2075 65.832 20.2075C66.1012 20.2075 66.3782 20.1023 66.6577 19.8946L66.8628 20.3844C66.5551 20.6127 66.2115 20.7255 65.832 20.7255C65.3704 20.7255 64.9883 20.5844 64.6857 20.3024C64.3831 20.0203 64.2344 19.6792 64.2344 19.2843V19.2869Z" fill="#575556"/>
<path id="Vector_22" d="M68.1437 17.043C68.1437 17.1456 68.1027 17.2379 68.0232 17.3148C67.9437 17.3943 67.8488 17.4328 67.7385 17.4328C67.6283 17.4328 67.5334 17.3943 67.4539 17.3148C67.3744 17.2353 67.3359 17.1456 67.3359 17.043C67.3359 16.9327 67.3744 16.8378 67.4539 16.7583C67.5334 16.6788 67.6283 16.6404 67.7385 16.6404C67.8488 16.6404 67.9437 16.6788 68.0232 16.7583C68.1027 16.8378 68.1437 16.9327 68.1437 17.043ZM67.4283 20.6639V17.9046H68.0616V20.6639H67.4283Z" fill="#575556"/>
<path id="Vector_23" d="M69.284 19.5613C69.3199 19.7305 69.3994 19.869 69.5225 19.9741C69.6995 20.1357 69.9354 20.2177 70.2277 20.2177C70.5355 20.2177 70.8201 20.1049 71.0868 19.8818L71.2766 20.3434C70.9765 20.5998 70.6226 20.7281 70.2123 20.7281C69.7431 20.7281 69.361 20.5947 69.0661 20.3306C68.7712 20.0664 68.625 19.7203 68.625 19.2894C68.625 18.8586 68.7558 18.5201 69.0148 18.2457C69.2763 17.9714 69.6174 17.8354 70.038 17.8354C70.4585 17.8354 70.7919 17.9714 71.056 18.2432C71.3202 18.515 71.4535 18.8509 71.4535 19.251C71.4535 19.3612 71.4432 19.4638 71.4253 19.5587H69.284V19.5613ZM69.2738 19.0663H70.815C70.8073 18.8868 70.7329 18.7227 70.5867 18.574C70.4431 18.4253 70.2585 18.3509 70.038 18.3509C69.8174 18.3509 69.62 18.4329 69.4712 18.5945C69.3635 18.715 69.2969 18.874 69.2712 19.0689L69.2738 19.0663Z" fill="#575556"/>
<path id="Vector_24" d="M72.6179 19.2739V20.6613H71.9922V17.902H72.5974V18.2713C72.6717 18.1431 72.7795 18.0379 72.9179 17.9584C73.059 17.8789 73.2103 17.8379 73.3718 17.8379C73.7001 17.8379 73.9642 17.9482 74.1616 18.1713C74.3591 18.3944 74.4591 18.6893 74.4591 19.0611V20.6638H73.8257V19.2201C73.8257 18.9252 73.777 18.7098 73.6821 18.5662C73.5847 18.4251 73.4385 18.3533 73.2385 18.3533C73.1359 18.3533 73.0333 18.3867 72.9359 18.4559C72.8384 18.5251 72.7641 18.6175 72.7102 18.7329C72.6461 18.8688 72.6153 19.0483 72.6153 19.2739H72.6179Z" fill="#575556"/>
<path id="Vector_25" d="M74.9844 19.2869C74.9844 18.8894 75.1357 18.5483 75.4357 18.2637C75.7383 17.9791 76.1178 17.8354 76.582 17.8354C76.9435 17.8354 77.2846 17.9508 77.6026 18.1816L77.3974 18.6714C77.1205 18.4586 76.8487 18.3509 76.582 18.3509C76.2973 18.3509 76.0665 18.4406 75.8896 18.6201C75.7127 18.7997 75.6229 19.0202 75.6229 19.2818C75.6229 19.5433 75.7127 19.7613 75.8896 19.9408C76.0665 20.1203 76.2973 20.2075 76.582 20.2075C76.8512 20.2075 77.1282 20.1023 77.4077 19.8946L77.6128 20.3844C77.3051 20.6127 76.9615 20.7255 76.582 20.7255C76.1204 20.7255 75.7383 20.5844 75.4357 20.3024C75.1331 20.0203 74.9844 19.6792 74.9844 19.2843V19.2869Z" fill="#575556"/>
<path id="Vector_26" d="M78.6356 19.5613C78.6715 19.7305 78.751 19.869 78.8741 19.9741C79.051 20.1357 79.287 20.2177 79.5793 20.2177C79.887 20.2177 80.1717 20.1049 80.4383 19.8818L80.6281 20.3434C80.3281 20.5998 79.9742 20.7281 79.5639 20.7281C79.0946 20.7281 78.7125 20.5947 78.4176 20.3306C78.1227 20.0664 77.9766 19.7203 77.9766 19.2894C77.9766 18.8586 78.1073 18.5201 78.3663 18.2457C78.6279 17.9714 78.969 17.8354 79.3895 17.8354C79.8101 17.8354 80.1434 17.9714 80.4076 18.2432C80.6717 18.515 80.8051 18.8509 80.8051 19.251C80.8051 19.3612 80.7948 19.4638 80.7768 19.5587H78.6356V19.5613ZM78.6228 19.0663H80.164C80.1563 18.8868 80.0819 18.7227 79.9357 18.574C79.7921 18.4253 79.6075 18.3509 79.387 18.3509C79.1664 18.3509 78.969 18.4329 78.8202 18.5945C78.7125 18.715 78.6459 18.874 78.6202 19.0689L78.6228 19.0663Z" fill="#575556"/>
<path id="Vector_27" d="M84.0643 18.8842H84.7182C84.7182 18.7046 84.649 18.5687 84.508 18.479C84.3669 18.3892 84.1643 18.3431 83.8976 18.3431H83.8823C83.6309 18.3431 83.3643 18.4021 83.0847 18.52L82.9232 18.0302C83.2155 17.9046 83.5361 17.8405 83.8874 17.8379H83.8976C84.3644 17.8379 84.7208 17.9276 84.9721 18.1046C85.2209 18.2841 85.3465 18.5662 85.3465 18.956V20.6638H84.7464V20.3612C84.6285 20.4792 84.4823 20.5689 84.3105 20.633C84.1387 20.6972 83.9643 20.7305 83.7874 20.7305C83.454 20.7305 83.1848 20.6433 82.9796 20.4689C82.7745 20.2946 82.6719 20.0817 82.6719 19.8278C82.6719 19.5458 82.8001 19.3124 83.054 19.1278C83.2899 18.9662 83.6284 18.8842 84.0643 18.8842ZM83.8925 20.233C84.0541 20.233 84.2156 20.1945 84.3746 20.115C84.5336 20.0356 84.649 19.9458 84.7182 19.8432V19.3739H84.1592C83.8412 19.3739 83.6181 19.415 83.4925 19.4945C83.3694 19.5868 83.3104 19.6971 83.3104 19.8253C83.3104 19.9432 83.3617 20.0407 83.4668 20.1176C83.572 20.1945 83.713 20.233 83.8951 20.233H83.8925Z" fill="#575556"/>
<path id="Vector_28" d="M86.696 19.2739V20.6613H86.0703V17.902H86.6755V18.2713C86.7499 18.1431 86.8576 18.0379 86.996 17.9584C87.1371 17.8789 87.2884 17.8379 87.4499 17.8379C87.7782 17.8379 88.0423 17.9482 88.2398 18.1713C88.4372 18.3944 88.5372 18.6893 88.5372 19.0611V20.6638H87.9038V19.2201C87.9038 18.9252 87.8551 18.7098 87.7602 18.5662C87.6628 18.4251 87.5166 18.3533 87.3166 18.3533C87.214 18.3533 87.1114 18.3867 87.014 18.4559C86.9166 18.5251 86.8422 18.6175 86.7883 18.7329C86.7242 18.8688 86.6935 19.0483 86.6935 19.2739H86.696Z" fill="#575556"/>
<path id="Vector_29" d="M90.4189 17.8378C90.7472 17.8378 91.0318 17.9712 91.2677 18.2353V16.571H91.9011V20.6638H91.2908V20.3176C91.0575 20.592 90.7677 20.7304 90.4189 20.7304C90.0112 20.7304 89.683 20.5868 89.4316 20.2996C89.1803 20.0124 89.0547 19.6765 89.0547 19.2867C89.0547 18.8969 89.1803 18.5584 89.4316 18.2712C89.683 17.984 90.0112 17.8378 90.4189 17.8378ZM91.26 19.4611C91.2703 19.3406 91.2703 19.2226 91.26 19.1072C91.237 18.8969 91.16 18.7225 91.0267 18.5841C90.878 18.4302 90.6959 18.3533 90.4779 18.3533C90.2343 18.3533 90.042 18.443 89.9009 18.62C89.7599 18.7995 89.6907 19.02 89.6907 19.2841C89.6907 19.5483 89.7599 19.7739 89.9009 19.9483C90.042 20.1227 90.2343 20.2099 90.4779 20.2099C90.6959 20.2099 90.878 20.1329 91.0267 19.9791C91.16 19.8406 91.237 19.6662 91.26 19.4611Z" fill="#575556"/>
<path id="Vector_30" d="M94.2891 20.6639V16.8251H94.9378V20.6639H94.2891Z" fill="#575556"/>
<path id="Vector_31" d="M97.5914 20.1893C97.994 20.1893 98.3633 20.0611 98.6941 19.8046L98.9608 20.2739C98.6171 20.5791 98.1607 20.7304 97.5914 20.7304C97.0221 20.7304 96.5605 20.5406 96.1733 20.1611C95.7861 19.7816 95.5938 19.3097 95.5938 18.7481C95.5938 18.1865 95.7861 17.7096 96.1733 17.33C96.5605 16.9505 97.0324 16.7607 97.5914 16.7607C98.1504 16.7607 98.6018 16.9146 98.9403 17.2223L98.6787 17.6916C98.3504 17.43 97.9863 17.2993 97.5914 17.2993C97.2221 17.2993 96.9041 17.4352 96.6426 17.707C96.3759 17.9891 96.2425 18.3378 96.2425 18.7481C96.2425 19.1584 96.3759 19.5046 96.6426 19.7841C96.9041 20.056 97.2221 20.1919 97.5914 20.1919V20.1893Z" fill="#575556"/>
<path id="Vector_32" d="M101.104 17.3635V20.6638H100.456V17.3635H99.2734V16.8224H102.287V17.3635H101.104Z" fill="#575556"/>
</g>
<g id="Group_3">
<path id="Vector_33" d="M19.4166 11.932C17.2446 10.4549 14.4648 11.0575 13.0057 13.2757C11.7851 15.1298 9.94384 15.3606 9.23094 15.3606C6.90763 15.3606 5.31772 13.727 4.84588 12.0371C4.84075 12.0192 4.83818 12.0064 4.83306 11.991C4.82793 11.973 4.82023 11.9525 4.81767 11.9346C4.63304 11.2294 4.58688 10.8934 4.58688 10.1421C4.58688 6.09806 8.73346 1.5976 14.711 1.5976C20.6885 1.5976 24.3274 6.25449 25.23 8.8445C25.2146 8.79834 25.1993 8.75474 25.1864 8.70602C23.4504 3.6414 18.6499 0 12.998 0C5.88445 0 0.117188 5.76726 0.117188 12.8834C0.117188 19.243 4.70227 24.6871 11.0645 24.6871C16.1393 24.6871 19.55 21.8407 21.1142 17.9198C21.9733 15.776 21.3655 13.2552 19.414 11.9294L19.4166 11.932Z" fill="#003763"/>
<path id="Vector_34" d="M25.3086 9.0933C24.5572 6.5674 21.0312 1.59509 14.7101 1.59509C8.73508 1.59509 4.58594 6.09555 4.58594 10.1396C4.58594 10.8884 4.6321 11.2268 4.81673 11.932C4.7398 11.6243 4.69877 11.314 4.69877 11.014C4.69877 6.80332 8.91459 3.88507 13.2484 3.88507C19.1156 3.88507 23.8725 8.64197 23.8725 14.5067C23.8725 19.1046 21.2261 23.0845 17.3796 24.9975C22.3365 23.205 25.8753 18.4584 25.8753 12.8834C25.8753 11.5653 25.6984 10.4011 25.3086 9.0933Z" fill="#E4022D"/>
</g>
</g>
<defs>
<clipPath id="clip0_1116_2847">
<rect width="124.423" height="25" fill="white" transform="translate(0.117188)"/>
</clipPath>
</defs>
</svg>
