<svg width="120" height="120" viewBox="0 0 120 120" fill="none" xmlns="http://www.w3.org/2000/svg">
<path d="M7.78906 65.9033C8.54175 65.9033 8.98379 65.4209 9.71862 65.4209" stroke="#B6B6B6" stroke-width="2.47423" stroke-linecap="round"/>
<path fill-rule="evenodd" clip-rule="evenodd" d="M6.4434 58.8059C6.80305 63.726 8.45089 68.2351 11.0214 72.0082C10.7475 73.9112 10.6731 75.8757 10.8194 77.8765C11.736 90.4167 21.0212 100.287 32.6225 102.107C41.2927 107.954 51.9147 111.043 63.1536 110.222C77.1746 109.197 89.3604 102.29 97.4727 92.0917C107.231 87.7884 113.709 77.4671 112.866 65.9427C112.524 61.2541 111.011 56.9387 108.645 53.2778C109.149 50.7202 109.322 48.056 109.123 45.3339C108.091 31.2087 97.3564 20.0815 83.8237 17.8419C77.7412 10.9684 68.5738 6.9068 58.6376 7.63313C51.3943 8.16261 44.9252 11.15 40.0067 15.7075C38.3945 15.3399 36.6979 15.2023 34.9581 15.3295C25.7399 16.0033 18.8012 23.8564 19.46 32.8697C19.483 33.1844 19.515 33.4964 19.5557 33.8054C11.0874 38.6227 5.6685 48.2054 6.4434 58.8059Z" fill="#F3F3F3"/>
<ellipse cx="44.7401" cy="56.0191" rx="9.54925" ry="9.77661" transform="rotate(8.06131 44.7401 56.0191)" fill="white"/>
<ellipse cx="64.6776" cy="57.8336" rx="9.54925" ry="9.77661" transform="rotate(8.06131 64.6776 57.8336)" fill="white"/>
<circle cx="44.7741" cy="55.7943" r="5.91144" transform="rotate(8.06131 44.7741 55.7943)" fill="#444444"/>
<circle cx="64.2584" cy="57.5441" r="5.91144" transform="rotate(8.06131 64.2584 57.5441)" fill="#444444"/>
<path d="M36.8591 13.9238C36.8591 14.5394 36.609 15.4426 36.8948 16.0142C37.002 16.2287 37.5076 16.9012 37.663 16.979" stroke="#B6B6B6" stroke-width="2.47423" stroke-linecap="round"/>
<path d="M84.5235 18.7815C84.2337 18.7453 85.6491 17.4761 85.6491 17.1736" stroke="#B6B6B6" stroke-width="2.47423" stroke-linecap="round"/>
<path d="M22.7056 33.2195C22.3473 33.2195 23.4131 33.4063 23.7061 33.6125C24.0216 33.8346 24.6312 34.1764 24.796 34.5059" stroke="#B6B6B6" stroke-width="2.47423" stroke-linecap="round"/>
<path d="M89 74C89.6014 74 89.7578 74.597 90.1256 74.9648" stroke="#B6B6B6" stroke-width="2.47423" stroke-linecap="round"/>
<path d="M51.6862 70.9932L55.1644 71.3548C55.9295 71.4344 56.6096 70.8673 56.669 70.1004L56.9041 67.0629C56.9947 65.8924 56.429 64.7681 55.435 64.1432C54.613 63.6265 53.5978 63.5167 52.684 63.8447C51.4245 64.2967 50.583 65.4921 50.5846 66.8303L50.5879 69.7762C50.5886 70.4031 51.0626 70.9283 51.6862 70.9932Z" fill="#FF7171" stroke="#E0E0E0" stroke-width="3.06669" stroke-linecap="round"/>
<path d="M59.1281 84.2937C61.5204 91.232 63.0606 94.7585 64.5568 96.033L73.319 83.7695C72.4221 82.7775 68.0977 75.9281 66.1362 73.3927C64.0725 70.7253 62.8455 67.7233 60.9088 67.2657C59.856 67.017 59.5651 67.5563 59.4279 67.9103C59.2906 68.2643 58.8356 67.8961 58.4244 68.1779C57.8452 68.5748 57.9281 68.8849 57.6727 69.273C57.4852 69.5579 57.1464 69.1537 56.8555 69.6929C56.5483 70.0634 56.415 71.0902 56.3618 71.4443C56.0434 73.5669 56.7408 77.3701 59.1281 84.2937Z" fill="url(#paint0_linear_953_7321)"/>
<path d="M43.3242 82.6607C38.3511 88.0581 35.5265 90.6714 33.6448 91.2393L30.5336 76.4917C31.7529 75.9424 38.4604 71.4011 41.2738 69.8646C44.2337 68.2481 46.5612 65.9898 48.5189 66.347C49.5831 66.5411 49.6334 67.1518 49.6172 67.5311C49.601 67.9105 50.1655 67.7556 50.4293 68.1786C50.8007 68.7744 50.6006 69.0252 50.6789 69.4831C50.7365 69.8193 51.2089 69.5848 51.2592 70.1954C51.3921 70.658 51.1027 71.6521 51.0094 71.9979C50.4502 74.07 48.2867 77.2747 43.3242 82.6607Z" fill="url(#paint1_linear_953_7321)"/>
<path d="M93.2881 48.0531C93.1004 48.8582 92.6733 49.4568 92.0068 49.8491C91.3662 50.2473 90.6304 50.3496 89.7994 50.1558C88.9684 49.962 88.3407 49.5418 87.9165 48.8952C87.5182 48.2546 87.4129 47.5318 87.6007 46.7268C87.7884 45.9217 88.2026 45.32 88.8431 44.9217C89.5096 44.5295 90.2584 44.4303 91.0894 44.6241C91.9205 44.8179 92.5351 45.2351 92.9334 45.8756C93.3576 46.5222 93.4759 47.248 93.2881 48.0531ZM94.9505 39.6921C94.8051 40.3154 94.4663 40.7703 93.9339 41.0569C93.4276 41.3495 92.7459 41.3959 91.8889 41.1961C91.0319 40.9962 90.428 40.65 90.0774 40.1575C89.7527 39.6711 89.663 39.1162 89.8084 38.4929L90.3807 36.0387C90.6169 35.0259 90.9116 34.2321 91.2647 33.6572C91.6498 33.0625 92.1614 32.6889 92.7994 32.5365C94.9071 32.0696 96.4765 31.5046 97.5074 30.8414C98.5383 30.1782 99.1749 29.3272 99.4171 28.2884C99.508 27.8988 99.5469 27.4972 99.5339 27.0834C99.5208 26.6696 99.4208 26.2766 99.2338 25.9044C99.0727 25.5383 98.7926 25.2128 98.3936 24.9281C97.9945 24.6433 97.4573 24.4222 96.7821 24.2648C95.951 24.071 95.1434 24.129 94.3591 24.439C93.581 24.7231 92.8937 25.439 92.2974 26.587C92.0404 27.102 91.6578 27.4509 91.1497 27.6337C90.6676 27.8224 90.1408 27.8502 89.5695 27.7169C88.9981 27.5837 88.5311 27.2968 88.1683 26.8562C87.8056 26.4157 87.706 25.8448 87.8695 25.1436C88.1299 24.0269 88.5838 23.0785 89.2312 22.2985C89.8787 21.5185 90.6616 20.9206 91.58 20.505C92.5044 20.0634 93.5224 19.8079 94.6339 19.7386C95.7774 19.6493 96.9594 19.7469 98.18 20.0316C100.907 20.6675 102.794 21.7922 103.842 23.4056C104.889 25.0191 105.129 27.0464 104.559 29.4876C103.826 32.63 101.29 34.8177 96.9497 36.0509C96.7116 36.1323 96.4996 36.2198 96.3135 36.3133C96.1594 36.3869 96.0222 36.5055 95.9019 36.6691C95.7876 36.8068 95.6743 36.9994 95.5618 37.247C95.4752 37.5006 95.3835 37.8352 95.2866 38.2507L94.9505 39.6921Z" fill="#98D8F1"/>
<path d="M69 49L62 46" stroke="#E0E0E0" stroke-width="3.06669" stroke-linecap="round"/>
<defs>
<linearGradient id="paint0_linear_953_7321" x1="69.3059" y1="86.6061" x2="56.7156" y2="65.2196" gradientUnits="userSpaceOnUse">
<stop stop-color="#F3F3F3"/>
<stop offset="1" stop-color="#C5C5C5"/>
</linearGradient>
<linearGradient id="paint1_linear_953_7321" x1="33.073" y1="80.6992" x2="53.1807" y2="66.1534" gradientUnits="userSpaceOnUse">
<stop stop-color="#F3F3F3"/>
<stop offset="1" stop-color="#C5C5C5"/>
</linearGradient>
</defs>
</svg>
