<svg width="185" height="26" viewBox="0 0 185 26" fill="none" xmlns="http://www.w3.org/2000/svg">
<path d="M6.727 21.411C6.665 21.597 6.634 21.7727 6.634 21.938C6.634 22.1033 6.67533 22.2377 6.758 22.341C6.84067 22.4443 7.02667 22.496 7.316 22.496H7.936C11.2013 22.496 14.0223 22.465 16.399 22.403C18.7757 22.341 20.8423 22.2583 22.599 22.155C23.0743 22.1137 23.467 22.186 23.777 22.372C24.1077 22.5787 24.273 22.961 24.273 23.519C24.273 24.015 24.1387 24.356 23.87 24.542C23.622 24.728 23.1983 24.8417 22.599 24.883C21.6897 24.945 20.7287 24.9967 19.716 25.038C18.724 25.1 17.639 25.1413 16.461 25.162C15.283 25.1827 13.981 25.193 12.555 25.193C11.1497 25.2137 9.58933 25.224 7.874 25.224H5.27C4.75333 25.224 4.31933 25.162 3.968 25.038C3.63733 24.914 3.35833 24.7383 3.131 24.511C2.92433 24.3043 2.76933 24.0563 2.666 23.767C2.58333 23.4777 2.542 23.1677 2.542 22.837C2.542 22.217 2.67633 21.7003 2.945 21.287C2.46967 21.0803 2.232 20.667 2.232 20.047C2.232 19.5303 2.387 19.179 2.697 18.993C3.007 18.7863 3.41 18.683 3.906 18.683H19.654C19.6953 18.5177 19.716 18.3937 19.716 18.311C19.716 18.1457 19.6747 17.9803 19.592 17.815C19.5093 17.6497 19.3233 17.567 19.034 17.567H4.061C3.565 17.567 3.162 17.474 2.852 17.288C2.542 17.0813 2.387 16.7197 2.387 16.203C2.387 15.6863 2.542 15.335 2.852 15.149C3.162 14.9423 3.565 14.839 4.061 14.839H21.08C21.5967 14.839 22.0203 14.901 22.351 15.025C22.7023 15.149 22.9813 15.3247 23.188 15.552C23.4153 15.7587 23.5703 16.0067 23.653 16.296C23.7563 16.5853 23.808 16.8953 23.808 17.226C23.808 17.846 23.653 18.3833 23.343 18.838C23.8597 19.024 24.118 19.427 24.118 20.047C24.118 20.5637 23.963 20.9253 23.653 21.132C23.343 21.318 22.94 21.411 22.444 21.411H6.727ZM18.755 5.539C18.817 5.229 18.848 4.857 18.848 4.423V4.082H5.084C4.588 4.082 4.185 3.96833 3.875 3.741C3.565 3.51367 3.41 3.121 3.41 2.563C3.41 2.005 3.565 1.61233 3.875 1.385C4.185 1.15767 4.588 1.044 5.084 1.044H22.196C22.692 1.044 23.095 1.15767 23.405 1.385C23.715 1.61233 23.87 2.005 23.87 2.563C23.87 2.97633 23.7873 3.29667 23.622 3.524C23.4567 3.75133 23.2293 3.90633 22.94 3.989V4.423C22.94 5.12567 22.8573 5.818 22.692 6.5C22.5267 7.16133 22.2993 7.76067 22.01 8.298C21.7207 8.81467 21.359 9.23833 20.925 9.569C20.491 9.879 20.0157 10.034 19.499 10.034C18.9823 10.034 18.569 9.89967 18.259 9.631C17.949 9.36233 17.794 9.03167 17.794 8.639V8.577H5.084C4.588 8.577 4.185 8.46333 3.875 8.236C3.565 8.00867 3.41 7.616 3.41 7.058C3.41 6.5 3.565 6.10733 3.875 5.88C4.185 5.65267 4.588 5.539 5.084 5.539H18.755ZM2.604 13.754C2.108 13.754 1.705 13.6403 1.395 13.413C1.085 13.1857 0.93 12.7723 0.93 12.173C0.93 11.5737 1.085 11.1603 1.395 10.933C1.705 10.7057 2.108 10.592 2.604 10.592H23.746C24.242 10.592 24.645 10.7057 24.955 10.933C25.265 11.1603 25.42 11.5737 25.42 12.173C25.42 12.7723 25.265 13.1857 24.955 13.413C24.645 13.6403 24.242 13.754 23.746 13.754H2.604ZM39.2339 1.044C39.9159 1.044 40.4739 1.106 40.9079 1.23C41.3419 1.33333 41.6829 1.48833 41.9309 1.695C42.1789 1.90167 42.3546 2.16 42.4579 2.47C42.5612 2.78 42.6129 3.13133 42.6129 3.524C42.6129 4.49533 42.4062 5.353 41.9929 6.097C42.2822 6.20033 42.5096 6.376 42.6749 6.624C42.8402 6.85133 42.9229 7.17167 42.9229 7.585C42.9229 8.18433 42.7679 8.59767 42.4579 8.825C42.1479 9.05233 41.7449 9.166 41.2489 9.166H32.7859C32.4552 9.64133 32.2899 10.096 32.2899 10.53C32.2899 10.8193 32.3829 11.0053 32.5689 11.088C32.7756 11.1707 33.0029 11.212 33.2509 11.212C33.9949 11.212 34.6872 11.2017 35.3279 11.181C35.9892 11.1397 36.6196 11.088 37.2189 11.026C37.8389 10.9433 38.4382 10.84 39.0169 10.716C39.6162 10.592 40.2156 10.4473 40.8149 10.282C41.4556 10.096 42.0136 10.1063 42.4889 10.313C42.9849 10.499 43.2329 10.9227 43.2329 11.584C43.2329 11.9353 43.1502 12.266 42.9849 12.576C42.8402 12.886 42.4786 13.1237 41.8999 13.289C40.7219 13.6403 39.3682 13.909 37.8389 14.095C36.3302 14.281 34.5322 14.374 32.4449 14.374C30.9569 14.374 29.8719 14.1673 29.1899 13.754C28.5286 13.3407 28.1979 12.638 28.1979 11.646C28.1979 10.716 28.4356 9.879 28.9109 9.135C28.5596 9.073 28.2702 8.92833 28.0429 8.701C27.8362 8.453 27.7329 8.081 27.7329 7.585C27.7329 6.98567 27.8879 6.57233 28.1979 6.345C28.5079 6.11767 28.9109 6.004 29.4069 6.004H38.1799C38.4072 5.61133 38.5209 5.23933 38.5209 4.888C38.5209 4.59867 38.4486 4.41267 38.3039 4.33C38.1799 4.24733 37.9939 4.206 37.7459 4.206H29.5619C29.0659 4.206 28.6629 4.09233 28.3529 3.865C28.0429 3.63767 27.8879 3.22433 27.8879 2.625C27.8879 2.02567 28.0429 1.61233 28.3529 1.385C28.6629 1.15767 29.0659 1.044 29.5619 1.044H39.2339ZM37.9629 22.062C39.9469 22.062 41.8276 21.9483 43.6049 21.721C45.3822 21.473 47.2629 21.1733 49.2469 20.822C49.5156 20.7807 49.7842 20.7703 50.0529 20.791C50.3216 20.8117 50.5592 20.884 50.7659 21.008C50.9932 21.1113 51.1689 21.2663 51.2929 21.473C51.4376 21.659 51.5099 21.907 51.5099 22.217C51.5099 22.589 51.4066 22.93 51.1999 23.24C50.9932 23.5707 50.6522 23.7877 50.1769 23.891C47.9862 24.3457 45.8266 24.6763 43.6979 24.883C41.5899 25.1103 39.3476 25.224 36.9709 25.224C36.0616 25.224 35.2039 25.1723 34.3979 25.069C33.6126 24.9657 32.9202 24.7693 32.3209 24.48C31.7216 24.2113 31.2359 23.8187 30.8639 23.302C30.5126 22.7853 30.3162 22.124 30.2749 21.318C30.2336 20.4087 30.3059 19.613 30.4919 18.931C30.6986 18.249 31.0086 17.536 31.4219 16.792C31.6492 16.3787 31.9386 16.079 32.2899 15.893C32.6412 15.707 33.0029 15.614 33.3749 15.614C33.8709 15.614 34.3359 15.769 34.7699 16.079C35.2039 16.3683 35.4106 16.761 35.3899 17.257C35.3899 17.505 35.3382 17.7323 35.2349 17.939C35.1316 18.125 35.0076 18.3317 34.8629 18.559C34.7389 18.7863 34.6252 19.0447 34.5219 19.334C34.4186 19.6027 34.3669 19.954 34.3669 20.388C34.3669 21.0493 34.6356 21.4937 35.1729 21.721C35.7309 21.9483 36.6609 22.062 37.9629 22.062ZM50.8899 16.265C50.8899 16.761 50.7142 17.164 50.3629 17.474C50.0322 17.784 49.5259 17.939 48.8439 17.939C48.1619 17.939 47.6452 17.784 47.2939 17.474C46.9632 17.164 46.7979 16.761 46.7979 16.265V2.067C46.7979 1.571 46.9632 1.168 47.2939 0.857999C47.6452 0.547999 48.1619 0.392999 48.8439 0.392999C49.5259 0.392999 50.0322 0.547999 50.3629 0.857999C50.7142 1.168 50.8899 1.571 50.8899 2.067V16.265ZM60.9528 13.32C61.6968 13.32 62.4201 13.1753 63.1228 12.886C62.3994 12.018 61.8311 11.0157 61.4178 9.879C61.0251 8.72167 60.8288 7.45067 60.8288 6.066C60.8288 4.53667 61.2421 3.31733 62.0688 2.408C62.9161 1.49867 64.1768 1.044 65.8508 1.044C67.5248 1.044 68.7751 1.49867 69.6018 2.408C70.4491 3.31733 70.8728 4.53667 70.8728 6.066C70.8728 7.45067 70.6661 8.72167 70.2528 9.879C69.8601 11.0157 69.3021 12.018 68.5788 12.886C69.2814 13.1753 70.0048 13.32 70.7488 13.32C71.5134 13.3407 72.2368 13.2373 72.9188 13.01C73.6008 12.762 74.1898 12.39 74.6858 11.894C74.8718 11.708 75.0681 11.5737 75.2748 11.491C75.4814 11.3877 75.7294 11.336 76.0188 11.336C76.4734 11.336 76.8351 11.4703 77.1038 11.739C77.3724 12.0077 77.5068 12.3693 77.5068 12.824C77.5068 13.4233 77.2898 13.9503 76.8558 14.405C76.4218 14.8597 75.8844 15.242 75.2438 15.552C74.6031 15.862 73.9004 16.0997 73.1358 16.265C72.3918 16.4097 71.6994 16.482 71.0588 16.482C70.0874 16.482 69.1678 16.3683 68.2998 16.141C67.4318 15.9137 66.6154 15.5933 65.8508 15.18C65.0861 15.5933 64.2594 15.9137 63.3708 16.141C62.5028 16.3683 61.5934 16.482 60.6428 16.482C60.0021 16.482 59.2994 16.4097 58.5348 16.265C57.7908 16.0997 57.0984 15.862 56.4578 15.552C55.8171 15.242 55.2798 14.8597 54.8458 14.405C54.4118 13.9503 54.1948 13.4233 54.1948 12.824C54.1948 12.3693 54.3291 12.0077 54.5978 11.739C54.8664 11.4703 55.2281 11.336 55.6828 11.336C55.9721 11.336 56.2201 11.3877 56.4268 11.491C56.6334 11.5737 56.8298 11.708 57.0158 11.894C57.5118 12.39 58.1008 12.762 58.7828 13.01C59.4648 13.2373 60.1881 13.3407 60.9528 13.32ZM55.2798 24.604C54.7838 24.604 54.3808 24.4903 54.0708 24.263C53.7608 24.0357 53.6058 23.6223 53.6058 23.023C53.6058 22.4237 53.7608 22.0103 54.0708 21.783C54.3808 21.5557 54.7838 21.442 55.2798 21.442H76.4218C76.9178 21.442 77.3208 21.5557 77.6308 21.783C77.9408 22.0103 78.0958 22.4237 78.0958 23.023C78.0958 23.6223 77.9408 24.0357 77.6308 24.263C77.3208 24.4903 76.9178 24.604 76.4218 24.604H55.2798ZM65.8508 4.206C65.4994 4.206 65.2204 4.34033 65.0138 4.609C64.8071 4.87767 64.7038 5.40467 64.7038 6.19C64.7038 7.09933 64.8071 7.91567 65.0138 8.639C65.2204 9.36233 65.4994 10.003 65.8508 10.561C66.2021 10.003 66.4811 9.36233 66.6878 8.639C66.8944 7.91567 66.9978 7.09933 66.9978 6.19C66.9978 5.40467 66.8944 4.87767 66.6878 4.609C66.4811 4.34033 66.2021 4.206 65.8508 4.206ZM85.7407 21.411C85.6787 21.597 85.6477 21.7727 85.6477 21.938C85.6477 22.1033 85.689 22.2377 85.7717 22.341C85.8543 22.4443 86.0403 22.496 86.3297 22.496H86.9497C90.215 22.496 93.036 22.465 95.4127 22.403C97.7893 22.341 99.856 22.2583 101.613 22.155C102.088 22.1137 102.481 22.186 102.791 22.372C103.121 22.5787 103.287 22.961 103.287 23.519C103.287 24.015 103.152 24.356 102.884 24.542C102.636 24.728 102.212 24.8417 101.613 24.883C100.703 24.945 99.7423 24.9967 98.7297 25.038C97.7377 25.1 96.6527 25.1413 95.4747 25.162C94.2967 25.1827 92.9947 25.193 91.5687 25.193C90.1633 25.2137 88.603 25.224 86.8877 25.224H84.2837C83.767 25.224 83.333 25.162 82.9817 25.038C82.651 24.914 82.372 24.7383 82.1447 24.511C81.938 24.3043 81.783 24.0563 81.6797 23.767C81.597 23.4777 81.5557 23.1677 81.5557 22.837C81.5557 22.217 81.69 21.7003 81.9587 21.287C81.4833 21.0803 81.2457 20.667 81.2457 20.047C81.2457 19.5303 81.4007 19.179 81.7107 18.993C82.0207 18.7863 82.4237 18.683 82.9197 18.683H98.6677C98.709 18.5177 98.7297 18.3937 98.7297 18.311C98.7297 18.1457 98.6883 17.9803 98.6057 17.815C98.523 17.6497 98.337 17.567 98.0477 17.567H83.0747C82.5787 17.567 82.1757 17.474 81.8657 17.288C81.5557 17.0813 81.4007 16.7197 81.4007 16.203C81.4007 15.6863 81.5557 15.335 81.8657 15.149C82.1757 14.9423 82.5787 14.839 83.0747 14.839H90.1427V13.599H81.6177C81.1217 13.599 80.7187 13.4853 80.4087 13.258C80.0987 13.0307 79.9437 12.6173 79.9437 12.018C79.9437 11.4187 80.0987 11.0053 80.4087 10.778C80.7187 10.5507 81.1217 10.437 81.6177 10.437H102.76C103.256 10.437 103.659 10.5507 103.969 10.778C104.279 11.0053 104.434 11.4187 104.434 12.018C104.434 12.6173 104.279 13.0307 103.969 13.258C103.659 13.4853 103.256 13.599 102.76 13.599H94.2347V14.839H100.094C100.61 14.839 101.034 14.901 101.365 15.025C101.716 15.149 101.995 15.3247 102.202 15.552C102.429 15.7587 102.584 16.0067 102.667 16.296C102.77 16.5853 102.822 16.8953 102.822 17.226C102.822 17.846 102.667 18.3833 102.357 18.838C102.873 19.024 103.132 19.427 103.132 20.047C103.132 20.5637 102.977 20.9253 102.667 21.132C102.357 21.318 101.954 21.411 101.458 21.411H85.7407ZM97.7687 5.539C97.8307 5.229 97.8617 4.857 97.8617 4.423V4.082H84.0977C83.6017 4.082 83.1987 3.96833 82.8887 3.741C82.5787 3.51367 82.4237 3.121 82.4237 2.563C82.4237 2.005 82.5787 1.61233 82.8887 1.385C83.1987 1.15767 83.6017 1.044 84.0977 1.044H101.21C101.706 1.044 102.109 1.15767 102.419 1.385C102.729 1.61233 102.884 2.005 102.884 2.563C102.884 2.97633 102.801 3.29667 102.636 3.524C102.47 3.75133 102.243 3.90633 101.954 3.989V4.423C101.954 5.12567 101.871 5.818 101.706 6.5C101.54 7.16133 101.313 7.76067 101.024 8.298C100.734 8.81467 100.373 9.23833 99.9387 9.569C99.5047 9.879 99.0293 10.034 98.5127 10.034C97.996 10.034 97.5827 9.89967 97.2727 9.631C96.9627 9.36233 96.8077 9.03167 96.8077 8.639V8.577H84.0977C83.6017 8.577 83.1987 8.46333 82.8887 8.236C82.5787 8.00867 82.4237 7.616 82.4237 7.058C82.4237 6.5 82.5787 6.10733 82.8887 5.88C83.1987 5.65267 83.6017 5.539 84.0977 5.539H97.7687ZM122.123 2.935C122.123 3.369 122.04 3.69967 121.875 3.927C121.709 4.15433 121.482 4.31967 121.193 4.423V5.322C121.193 6.97533 120.945 8.64933 120.449 10.344C119.973 12.0387 119.25 13.6713 118.279 15.242C117.328 16.8127 116.15 18.2903 114.745 19.675C113.339 21.0597 111.707 22.279 109.847 23.333C109.371 23.6017 108.855 23.736 108.297 23.736C107.759 23.736 107.325 23.5293 106.995 23.116C106.685 22.7027 106.53 22.2583 106.53 21.783C106.53 21.4937 106.602 21.2043 106.747 20.915C106.912 20.6257 107.181 20.3777 107.553 20.171C109.227 19.2617 110.663 18.2387 111.862 17.102C113.081 15.9447 114.073 14.7253 114.838 13.444C115.623 12.142 116.191 10.809 116.543 9.445C116.915 8.06033 117.101 6.686 117.101 5.322V4.516H108.421C107.925 4.516 107.522 4.40233 107.212 4.175C106.902 3.94767 106.747 3.53433 106.747 2.935C106.747 2.33567 106.902 1.92233 107.212 1.695C107.522 1.46767 107.925 1.354 108.421 1.354H120.449C120.945 1.354 121.348 1.46767 121.658 1.695C121.968 1.92233 122.123 2.33567 122.123 2.935ZM128.974 10.22H131.268C131.764 10.22 132.167 10.3337 132.477 10.561C132.787 10.7883 132.942 11.2017 132.942 11.801C132.942 12.4003 132.787 12.8137 132.477 13.041C132.167 13.2683 131.764 13.382 131.268 13.382H128.974V23.55C128.974 24.046 128.798 24.449 128.447 24.759C128.116 25.069 127.61 25.224 126.928 25.224C126.246 25.224 125.729 25.069 125.378 24.759C125.047 24.449 124.882 24.046 124.882 23.55V2.067C124.882 1.571 125.047 1.168 125.378 0.857999C125.729 0.547999 126.246 0.392999 126.928 0.392999C127.61 0.392999 128.116 0.547999 128.447 0.857999C128.798 1.168 128.974 1.571 128.974 2.067V10.22ZM142.138 23.922C141.249 23.922 140.34 23.7877 139.41 23.519C138.48 23.2503 137.632 22.775 136.868 22.093C136.103 21.411 135.473 20.481 134.977 19.303C134.501 18.1043 134.264 16.5853 134.264 14.746C134.264 13.5473 134.377 12.4313 134.605 11.398C134.853 10.3647 135.173 9.414 135.566 8.546C135.979 7.678 136.454 6.903 136.992 6.221C137.529 5.51833 138.097 4.888 138.697 4.33C138.345 4.082 138.056 3.82367 137.829 3.555C137.622 3.28633 137.519 2.97633 137.519 2.625C137.519 2.191 137.653 1.819 137.922 1.509C138.211 1.199 138.624 1.044 139.162 1.044C139.492 1.044 139.916 1.12667 140.433 1.292C140.949 1.43667 141.518 1.65367 142.138 1.943C142.758 1.65367 143.326 1.43667 143.843 1.292C144.359 1.12667 144.783 1.044 145.114 1.044C145.651 1.044 146.054 1.199 146.323 1.509C146.612 1.819 146.757 2.191 146.757 2.625C146.757 2.97633 146.643 3.28633 146.416 3.555C146.209 3.82367 145.93 4.082 145.579 4.33C146.157 4.888 146.715 5.51833 147.253 6.221C147.79 6.903 148.265 7.678 148.679 8.546C149.092 9.414 149.412 10.3647 149.64 11.398C149.888 12.4313 150.012 13.5473 150.012 14.746C150.012 16.5853 149.764 18.1043 149.268 19.303C148.792 20.481 148.172 21.411 147.408 22.093C146.643 22.775 145.796 23.2503 144.866 23.519C143.936 23.7877 143.026 23.922 142.138 23.922ZM157.483 23.55C157.483 24.046 157.307 24.449 156.956 24.759C156.625 25.069 156.119 25.224 155.437 25.224C154.755 25.224 154.238 25.069 153.887 24.759C153.556 24.449 153.391 24.046 153.391 23.55V2.067C153.391 1.571 153.556 1.168 153.887 0.857999C154.238 0.547999 154.755 0.392999 155.437 0.392999C156.119 0.392999 156.625 0.547999 156.956 0.857999C157.307 1.168 157.483 1.571 157.483 2.067V23.55ZM145.92 14.746C145.92 13.6093 145.816 12.607 145.61 11.739C145.403 10.871 145.124 10.1063 144.773 9.445C144.421 8.763 144.018 8.18433 143.564 7.709C143.109 7.23367 142.634 6.81 142.138 6.438C141.642 6.81 141.166 7.23367 140.712 7.709C140.257 8.18433 139.854 8.763 139.503 9.445C139.151 10.1063 138.872 10.871 138.666 11.739C138.459 12.607 138.356 13.6093 138.356 14.746C138.356 15.924 138.459 16.8953 138.666 17.66C138.872 18.4247 139.141 19.0447 139.472 19.52C139.823 19.9747 140.226 20.295 140.681 20.481C141.156 20.667 141.642 20.76 142.138 20.76C142.634 20.76 143.109 20.667 143.564 20.481C144.039 20.295 144.442 19.9747 144.773 19.52C145.124 19.0447 145.403 18.4247 145.61 17.66C145.816 16.8953 145.92 15.924 145.92 14.746ZM167.298 4.516C166.988 5.508 166.74 6.52067 166.554 7.554C166.388 8.58733 166.306 9.64133 166.306 10.716C166.306 11.274 166.368 11.7287 166.492 12.08C166.636 12.4107 166.843 12.669 167.112 12.855C167.401 13.041 167.773 13.165 168.228 13.227C168.682 13.289 169.24 13.32 169.902 13.32C170.935 13.32 171.917 13.2787 172.847 13.196C173.797 13.0927 174.717 12.9687 175.606 12.824C176.515 12.6587 177.404 12.483 178.272 12.297C179.14 12.0903 180.008 11.8837 180.876 11.677C181.144 11.615 181.413 11.5943 181.682 11.615C181.95 11.615 182.188 11.677 182.395 11.801C182.622 11.9043 182.798 12.0593 182.922 12.266C183.066 12.452 183.139 12.7 183.139 13.01C183.139 13.382 183.035 13.723 182.829 14.033C182.622 14.343 182.281 14.56 181.806 14.684C179.842 15.2213 177.776 15.6553 175.606 15.986C173.456 16.3167 171.224 16.482 168.91 16.482C168 16.482 167.132 16.4303 166.306 16.327C165.5 16.203 164.787 15.9757 164.167 15.645C163.567 15.2937 163.092 14.808 162.741 14.188C162.389 13.5473 162.214 12.7 162.214 11.646C162.214 10.344 162.307 9.11433 162.493 7.957C162.679 6.779 162.937 5.632 163.268 4.516C162.772 4.516 162.369 4.40233 162.059 4.175C161.749 3.94767 161.594 3.53433 161.594 2.935C161.594 2.33567 161.749 1.92233 162.059 1.695C162.369 1.46767 162.772 1.354 163.268 1.354H181.155C181.651 1.354 182.054 1.46767 182.364 1.695C182.674 1.92233 182.829 2.33567 182.829 2.935C182.829 3.53433 182.674 3.94767 182.364 4.175C182.054 4.40233 181.651 4.516 181.155 4.516H167.298ZM161.873 24.604C161.377 24.604 160.974 24.4903 160.664 24.263C160.354 24.0357 160.199 23.6223 160.199 23.023C160.199 22.4237 160.354 22.0103 160.664 21.783C160.974 21.5557 161.377 21.442 161.873 21.442H183.015C183.511 21.442 183.914 21.5557 184.224 21.783C184.534 22.0103 184.689 22.4237 184.689 23.023C184.689 23.6223 184.534 24.0357 184.224 24.263C183.914 24.4903 183.511 24.604 183.015 24.604H161.873Z" fill="#2076FF"/>
</svg>
