<svg width="39" height="38" viewBox="0 0 39 38" fill="none" xmlns="http://www.w3.org/2000/svg">
<path d="M0.45 18.7231C0.45 15.8898 0.916667 13.3231 1.85 11.0231C2.81667 8.72309 4.15 6.77309 5.85 5.1731C7.55 3.53976 9.56667 2.28976 11.9 1.42309C14.2333 0.556428 16.7833 0.123095 19.55 0.123095C22.3167 0.123095 24.8667 0.556428 27.2 1.42309C29.5333 2.28976 31.55 3.53976 33.25 5.1731C34.95 6.77309 36.2667 8.72309 37.2 11.0231C38.1667 13.3231 38.65 15.8898 38.65 18.7231C38.65 21.5564 38.1667 24.1231 37.2 26.4231C36.2667 28.7231 34.95 30.6898 33.25 32.3231C31.55 33.9231 29.5333 35.1564 27.2 36.0231C24.8667 36.8898 22.3167 37.3231 19.55 37.3231C16.7833 37.3231 14.2333 36.8898 11.9 36.0231C9.56667 35.1564 7.55 33.9231 5.85 32.3231C4.15 30.6898 2.81667 28.7231 1.85 26.4231C0.916667 24.1231 0.45 21.5564 0.45 18.7231ZM8.55 18.7231C8.55 20.3898 8.8 21.9231 9.3 23.3231C9.83333 24.6898 10.5833 25.8898 11.55 26.9231C12.5167 27.9231 13.6667 28.7064 15 29.2731C16.3667 29.8398 17.8833 30.1231 19.55 30.1231C21.2167 30.1231 22.7167 29.8398 24.05 29.2731C25.4167 28.7064 26.5833 27.9231 27.55 26.9231C28.5167 25.8898 29.25 24.6898 29.75 23.3231C30.2833 21.9231 30.55 20.3898 30.55 18.7231C30.55 17.0898 30.2833 15.5731 29.75 14.1731C29.25 12.7731 28.5167 11.5731 27.55 10.5731C26.5833 9.53976 25.4167 8.73976 24.05 8.1731C22.7167 7.60643 21.2167 7.32309 19.55 7.32309C17.8833 7.32309 16.3667 7.60643 15 8.1731C13.6667 8.73976 12.5167 9.53976 11.55 10.5731C10.5833 11.5731 9.83333 12.7731 9.3 14.1731C8.8 15.5731 8.55 17.0898 8.55 18.7231Z" fill="#23B169"/>
</svg>
