<svg width="121" height="26" viewBox="0 0 121 26" fill="none" xmlns="http://www.w3.org/2000/svg">
<g id="img_korea_educational" clip-path="url(#clip0_1130_3094)">
<path id="Vector" d="M4.82124 15.6467C4.82124 15.6824 4.81474 15.7149 4.81149 15.7506C4.70753 18.7624 7.88496 21.2315 11.5757 21.29C15.2665 21.3485 18.7461 18.9736 19.0125 15.9651C19.0125 15.9293 19.0125 15.8968 19.0157 15.8611C19.0839 14.7792 20.0586 13.915 21.3972 13.9345C22.726 13.954 23.5869 14.8409 23.5349 15.9163C23.5349 15.9163 23.5349 15.9261 23.5349 15.9293V15.9358C23.5349 15.9358 23.5349 15.9456 23.5349 15.9488C23.2523 20.2179 19.5843 23.7754 14.7759 24.8931C13.2002 25.218 10.757 25.5981 7.94669 24.7859C3.27801 23.5188 0.0583413 19.854 0.302009 15.5849V15.572C0.302009 15.572 0.302009 15.5687 0.302009 15.5655V15.5492C0.383232 14.4738 1.35141 13.6259 2.68021 13.6453C4.01876 13.6648 4.88622 14.5615 4.81799 15.6467" fill="#02ADD1"/>
<path id="Vector_2" d="M5.53243 8.82076C5.27901 10.338 3.843 11.3614 2.32576 11.108C0.808515 10.8546 -0.21489 9.41856 0.0385245 7.90132C0.291939 6.38408 1.72796 5.36067 3.2452 5.61409C4.76244 5.8675 5.78584 7.30352 5.53243 8.82076Z" fill="#F4A21C"/>
<path id="Vector_3" d="M15.9184 2.24504C15.743 3.29443 14.752 4.0027 13.7026 3.82401C12.6532 3.64856 11.945 2.65765 12.1204 1.60825C12.2959 0.562102 13.2868 -0.146159 14.3362 0.0260328C15.3856 0.201474 16.0938 1.19564 15.9184 2.24179" fill="#FFC72A"/>
<path id="Vector_4" d="M12.8573 6.24434L19.1342 2.38464C19.1342 2.38464 22.4871 0.292346 20.6774 3.74269C19.5208 5.85448 16.3076 8.69727 16.6033 9.49975C16.8989 10.299 19.1569 15.0749 18.1758 14.8572C17.1946 14.6395 14.0204 12.4465 14.0204 12.4465C14.0204 12.4465 12.7956 11.1145 12.7858 12.453C12.7761 13.7916 12.357 15.9748 11.8859 16.0593C11.418 16.1405 9.81632 14.1587 8.86439 7.98901C7.91896 1.86482 8.73118 -1.15342 10.008 1.15331C11.2848 3.46003 12.8573 6.24434 12.8573 6.24434Z" fill="#9AC73C"/>
<path id="Vector_5" d="M28.5446 5.16257C28.3691 5.16257 28.2392 5.10084 28.158 4.98063C28.0735 4.86042 28.0312 4.71422 28.0312 4.54852C28.0312 4.38283 28.0735 4.23663 28.158 4.11317C28.2392 3.99296 28.3691 3.93123 28.5446 3.93123H30.4484V3.37242C30.4484 3.16124 30.5232 3.00204 30.6726 2.90458C30.8221 2.80711 30.991 2.75513 31.1794 2.75513C31.3679 2.75513 31.5401 2.80711 31.6863 2.90458C31.8357 3.00204 31.9072 3.15799 31.9072 3.37242V3.93123H33.6973C33.8728 3.93123 34.0027 3.98971 34.084 4.11317C34.1684 4.23663 34.2107 4.37958 34.2107 4.54852C34.2107 4.71747 34.1684 4.86042 34.084 4.98063C33.9995 5.10409 33.8728 5.16257 33.6973 5.16257H28.5446ZM31.1762 5.64016C31.9592 5.64016 32.5732 5.81235 33.0183 6.15998C33.4634 6.50437 33.6843 6.97871 33.6843 7.57975C33.6843 8.1808 33.4634 8.65189 33.0183 8.99953C32.5732 9.34716 31.9592 9.5161 31.1762 9.5161C30.3932 9.5161 29.7792 9.34391 29.3373 8.99953C28.8922 8.65189 28.6713 8.1808 28.6713 7.57975C28.6713 6.97871 28.8955 6.50437 29.3373 6.15998C29.7824 5.81235 30.3965 5.64016 31.1762 5.64016ZM30.5492 13.2686C30.1853 13.2686 29.9319 13.2004 29.7922 13.0639C29.6525 12.9275 29.581 12.6805 29.581 12.3232V10.6012C29.581 10.3901 29.6557 10.2341 29.8019 10.1334C29.9514 10.0359 30.1235 9.9872 30.3217 9.9872C30.5199 9.9872 30.6791 10.0359 30.8286 10.1334C30.978 10.2341 31.0527 10.3901 31.0527 10.6012V11.7643C31.0527 11.9398 31.1405 12.0275 31.3126 12.0275H36.069C36.2445 12.0275 36.3744 12.0892 36.4589 12.2094C36.5434 12.3297 36.5824 12.4791 36.5824 12.6545C36.5824 12.83 36.5401 12.9664 36.4589 13.0867C36.3744 13.2069 36.2445 13.2686 36.069 13.2686H30.5492ZM31.1762 8.40173C31.5856 8.40173 31.8877 8.32375 32.0826 8.16781C32.2776 8.01511 32.3718 7.81693 32.3718 7.57975C32.3718 7.34258 32.2743 7.14765 32.0826 6.9917C31.8877 6.83576 31.5856 6.75778 31.1762 6.75778C30.7668 6.75778 30.4647 6.83576 30.2697 6.9917C30.0748 7.1444 29.9773 7.34258 29.9773 7.57975C29.9773 7.81693 30.0748 8.01186 30.2697 8.16781C30.4647 8.32375 30.7668 8.40173 31.1762 8.40173ZM36.3322 5.75712H37.4141C37.5895 5.75712 37.7195 5.81885 37.8007 5.93906C37.8852 6.05927 37.9274 6.20872 37.9274 6.38416C37.9274 6.5596 37.8852 6.70905 37.8007 6.82926C37.7162 6.94947 37.5863 7.0112 37.4141 7.0112H36.3322V10.0554C36.3322 10.2699 36.2575 10.4258 36.108 10.5233C35.9586 10.624 35.7929 10.6727 35.611 10.6727C35.4193 10.6727 35.2503 10.624 35.1041 10.5233C34.9579 10.4258 34.8799 10.2699 34.8799 10.0554V3.39516C34.8799 3.18398 34.9547 3.02804 35.1041 2.92732C35.2503 2.8266 35.4225 2.77787 35.611 2.77787C35.7994 2.77787 35.9586 2.8266 36.108 2.92732C36.2575 3.02479 36.3322 3.18073 36.3322 3.39516V5.75712Z" fill="#5A5757"/>
<path id="Vector_6" d="M42.5643 10.351V8.1612H38.971C38.7956 8.1612 38.6689 8.09947 38.5844 7.97926C38.4999 7.85905 38.4609 7.7161 38.4609 7.55691C38.4609 7.38796 38.5032 7.24501 38.5844 7.12155C38.6689 7.00134 38.7956 6.93961 38.971 6.93961H47.5904C47.7658 6.93961 47.8958 7.00134 47.977 7.12155C48.0615 7.24501 48.1037 7.38796 48.1037 7.55691C48.1037 7.72585 48.0615 7.85905 47.977 7.97926C47.8925 8.10272 47.7658 8.1612 47.5904 8.1612H43.9971V10.351H42.5611H42.5643ZM40.0691 10.9098C39.8937 10.9098 39.7638 10.848 39.6825 10.7278C39.5981 10.6076 39.5558 10.4614 39.5558 10.2957C39.5558 10.13 39.5981 9.99359 39.6825 9.87338C39.767 9.74992 39.897 9.69144 40.0691 9.69144H45.9074C46.2713 9.69144 46.5247 9.75966 46.6644 9.89612C46.8041 10.0326 46.8756 10.2795 46.8756 10.6369V12.9046C46.8756 13.1158 46.8009 13.2717 46.6514 13.3724C46.502 13.4732 46.333 13.5219 46.1446 13.5219C45.9562 13.5219 45.784 13.4732 45.6378 13.3724C45.4883 13.275 45.4136 13.1158 45.4136 12.9046V11.1697C45.4136 10.9942 45.3259 10.9065 45.1504 10.9065H40.0659L40.0691 10.9098ZM40.1146 4.45745C39.9392 4.45745 39.8092 4.39572 39.728 4.27551C39.6435 4.15205 39.6046 4.00585 39.6046 3.83041C39.6046 3.65497 39.6468 3.50877 39.728 3.38531C39.8125 3.2651 39.9392 3.20337 40.1146 3.20337H45.7937C46.1576 3.20337 46.411 3.2716 46.554 3.40805C46.6937 3.5445 46.7651 3.79467 46.7651 4.1488V4.92529C46.7651 5.1852 46.7521 5.44836 46.7197 5.71802C46.6904 5.98768 46.6514 6.24435 46.606 6.49451C46.5605 6.74143 46.5085 6.96885 46.4468 7.18003C46.385 7.38796 46.3298 7.5634 46.2778 7.69986L44.988 7.42695C45.2089 6.61472 45.3194 5.81224 45.3194 5.01951V4.72386C45.3194 4.54842 45.2317 4.46395 45.0562 4.46395H40.1179L40.1146 4.45745Z" fill="#5A5757"/>
<path id="Vector_7" d="M53.3467 10.5914V7.59267C53.3467 7.39448 53.4182 7.24828 53.5644 7.15406C53.7074 7.05984 53.8666 7.01111 54.042 7.01111C54.2174 7.01111 54.3766 7.05984 54.5228 7.15406C54.6658 7.24828 54.7373 7.39448 54.7373 7.59267V10.5914H57.9764C58.1519 10.5914 58.2818 10.6531 58.363 10.7733C58.4475 10.8968 58.4898 11.0365 58.4898 11.1957C58.4898 11.3549 58.4475 11.5076 58.363 11.6278C58.2786 11.748 58.1519 11.8097 57.9764 11.8097H49.3571C49.1816 11.8097 49.0517 11.748 48.9705 11.6278C48.886 11.5043 48.8438 11.3614 48.8438 11.1957C48.8438 11.03 48.886 10.8968 48.9705 10.7733C49.0549 10.6531 49.1849 10.5914 49.3571 10.5914H50.9295V7.59267C50.9295 7.39448 51.001 7.24828 51.144 7.15406C51.2869 7.05984 51.4494 7.01111 51.6248 7.01111C51.8003 7.01111 51.9595 7.05984 52.1024 7.15406C52.2454 7.24828 52.3201 7.39448 52.3201 7.59267V10.5914H53.3467ZM50.4487 4.76287C50.2733 4.76287 50.1466 4.70439 50.0621 4.58093C49.9776 4.45747 49.9354 4.31127 49.9354 4.13583C49.9354 3.96039 49.9776 3.81094 50.0621 3.69073C50.1466 3.57052 50.2733 3.50879 50.4487 3.50879H56.378C56.7418 3.50879 56.9953 3.57702 57.1382 3.71347C57.2779 3.84992 57.3494 4.09684 57.3494 4.45422V5.48088C57.3494 6.17939 57.3234 6.79993 57.2747 7.33925C57.2259 7.87857 57.1447 8.38865 57.0407 8.86624C56.9953 9.07092 56.888 9.21387 56.7159 9.28859C56.5437 9.36332 56.3552 9.38281 56.1505 9.34383C55.9751 9.30809 55.8321 9.23011 55.7217 9.1164C55.6112 9.00269 55.5755 8.84349 55.6145 8.63881C55.7119 8.16122 55.7867 7.66089 55.8321 7.14432C55.8776 6.62774 55.9004 6.06243 55.9004 5.44514V5.02278C55.9004 4.85059 55.8127 4.75962 55.6372 4.75962H50.4487V4.76287Z" fill="#5A5757"/>
<path id="Vector_8" d="M68.3612 7.6934C68.5366 7.6934 68.6633 7.75188 68.7413 7.87209C68.8225 7.98905 68.8615 8.13201 68.8615 8.30095C68.8615 8.46014 68.8225 8.59985 68.7413 8.71681C68.6633 8.83377 68.5366 8.89225 68.3612 8.89225H66.1617V10.455H64.7711V8.89225H63.3124V10.455H61.9218V8.89225H59.7191C59.5436 8.89225 59.4169 8.83377 59.339 8.71681C59.2577 8.59985 59.2188 8.46014 59.2188 8.30095C59.2188 8.13525 59.2577 7.9923 59.339 7.87209C59.4169 7.75513 59.5436 7.6934 59.7191 7.6934H68.3612ZM66.1714 11.3907C66.1714 11.2152 66.0837 11.1275 65.9082 11.1275H60.8107C60.6353 11.1275 60.5086 11.069 60.4306 10.9521C60.3494 10.8318 60.3104 10.6889 60.3104 10.5232C60.3104 10.3575 60.3494 10.2146 60.4306 10.0943C60.5118 9.97738 60.6385 9.91891 60.8107 9.91891H66.662C67.0259 9.91891 67.2793 9.98713 67.419 10.1236C67.5587 10.26 67.6302 10.507 67.6302 10.8676V12.9306C67.6302 13.1418 67.5554 13.2978 67.406 13.3985C67.2565 13.496 67.0876 13.5479 66.8992 13.5479C66.7107 13.5479 66.5385 13.4992 66.3923 13.3985C66.2429 13.301 66.1682 13.1418 66.1682 12.9306V11.3939L66.1714 11.3907ZM60.4696 5.04879C60.4696 4.69791 60.5508 4.39576 60.7132 4.13585C60.8757 3.87594 61.1129 3.66151 61.4215 3.49257C61.7302 3.32037 62.1038 3.19692 62.5456 3.11569C62.9875 3.03447 63.4846 2.99548 64.0401 2.99548C64.5957 2.99548 65.0928 3.03447 65.5346 3.11569C65.9765 3.19692 66.3501 3.32037 66.6587 3.49257C66.9674 3.66476 67.2013 3.87919 67.3638 4.13585C67.5262 4.39251 67.6107 4.69791 67.6107 5.04879C67.6107 5.39967 67.5295 5.71157 67.3638 5.96498C67.2013 6.22165 66.9641 6.43283 66.6587 6.60502C66.3501 6.77721 65.9765 6.90067 65.5346 6.97864C65.0928 7.05987 64.5957 7.09885 64.0401 7.09885C63.4846 7.09885 62.9875 7.05987 62.5456 6.97864C62.1038 6.90067 61.7302 6.77396 61.4215 6.60502C61.1129 6.43283 60.8757 6.22165 60.7132 5.96498C60.5508 5.71157 60.4696 5.40617 60.4696 5.04879ZM66.1584 5.04879C66.1584 4.77588 65.996 4.56146 65.6678 4.40551C65.3397 4.24956 64.7971 4.17159 64.0369 4.17159C63.2766 4.17159 62.7341 4.24956 62.4059 4.40551C62.0778 4.56146 61.9153 4.77588 61.9153 5.04879C61.9153 5.3217 62.0778 5.53613 62.4059 5.69208C62.7341 5.84802 63.2766 5.926 64.0369 5.926C64.7971 5.926 65.3397 5.84802 65.6678 5.69208C65.996 5.53613 66.1584 5.3217 66.1584 5.04879Z" fill="#5A5757"/>
<path id="Vector_9" d="M75.7244 9.98718C75.3605 10.0197 74.9576 10.0457 74.5158 10.0684C74.0739 10.0911 73.6126 10.1139 73.1285 10.1301C72.6476 10.1496 72.1441 10.1626 71.6242 10.1691C71.1044 10.1756 70.5813 10.1821 70.055 10.1821C69.8796 10.1821 69.7529 10.1236 69.6749 10.0067C69.5937 9.88972 69.5547 9.75326 69.5547 9.60056C69.5547 9.44786 69.5937 9.31466 69.6749 9.19445C69.7529 9.07749 69.8828 9.01901 70.055 9.01901H71.1434C71.504 9.01901 71.8679 9.01576 72.2318 9.00601V7.70645H73.6451V8.97028C73.9797 8.95403 74.3111 8.93779 74.636 8.92154C74.9641 8.90205 75.289 8.87606 75.6171 8.84682C75.7926 8.83057 75.9225 8.87281 76.0103 8.97028C76.098 9.07099 76.15 9.1977 76.1662 9.36014C76.1825 9.51284 76.1532 9.65255 76.085 9.776C76.0168 9.90271 75.8933 9.97094 75.7211 9.98718M70.3182 4.79868C70.1525 4.79868 70.029 4.7402 69.9543 4.62649C69.8763 4.51277 69.8406 4.37957 69.8406 4.22687C69.8406 4.07417 69.8796 3.93122 69.9543 3.81426C70.029 3.70055 70.1525 3.64207 70.3182 3.64207H72.209V3.19697C72.209 2.99878 72.2805 2.85258 72.4267 2.75187C72.5729 2.6544 72.7419 2.60242 72.94 2.60242C73.1382 2.60242 73.2974 2.65115 73.4469 2.75187C73.5931 2.84933 73.6678 2.99878 73.6678 3.19697V3.64207H75.445C75.6139 3.64207 75.7309 3.70055 75.8088 3.81426C75.8836 3.92797 75.9225 4.06767 75.9225 4.22687C75.9225 4.38607 75.8836 4.51277 75.8088 4.62649C75.7309 4.7402 75.6107 4.79868 75.445 4.79868H70.3149H70.3182ZM72.9433 5.1853C73.71 5.1853 74.3143 5.3185 74.7497 5.58491C75.185 5.85132 75.406 6.2347 75.406 6.73828C75.406 7.24186 75.1883 7.62198 74.7497 7.88839C74.3111 8.1548 73.71 8.288 72.9433 8.288C72.1766 8.288 71.5723 8.1548 71.1369 7.88839C70.7016 7.62198 70.4806 7.23861 70.4806 6.73828C70.4806 6.23794 70.6983 5.85132 71.1369 5.58491C71.5755 5.3185 72.1766 5.1853 72.9433 5.1853ZM72.0076 13.2946C71.6437 13.2946 71.3903 13.2263 71.2506 13.0899C71.1109 12.9534 71.0394 12.7065 71.0394 12.3491V11.1535C71.0394 10.9424 71.1142 10.7864 71.2636 10.6857C71.4131 10.5882 71.5755 10.5395 71.7607 10.5395C71.9459 10.5395 72.1083 10.5882 72.2545 10.6857C72.404 10.7864 72.4787 10.9424 72.4787 11.1535V11.8586C72.4787 12.034 72.5664 12.1217 72.7419 12.1217H77.8037C77.9726 12.1217 78.0928 12.1802 78.1675 12.3004C78.2423 12.4174 78.2813 12.5571 78.2813 12.7163C78.2813 12.8755 78.2423 13.0022 78.1675 13.1224C78.0928 13.2393 77.9694 13.3011 77.8037 13.3011H72.0109L72.0076 13.2946ZM72.9433 7.23861C73.71 7.23861 74.0934 7.07291 74.0934 6.73503C74.0934 6.39714 73.71 6.2347 72.9433 6.2347C72.1766 6.2347 71.7899 6.40364 71.7899 6.73503C71.7899 7.06642 72.1733 7.23861 72.9433 7.23861ZM78.0278 6.09499H78.9505C79.1325 6.09499 79.2657 6.15672 79.3501 6.28018C79.4314 6.40364 79.4769 6.54984 79.4769 6.72528C79.4769 6.90072 79.4346 7.05017 79.3501 7.17688C79.2657 7.30034 79.1325 7.36532 78.9505 7.36532H78.0278V10.2958C78.0278 10.5005 77.9564 10.6532 77.8102 10.7539C77.6672 10.8514 77.4983 10.9001 77.3098 10.9001C77.1214 10.9001 76.9525 10.8514 76.8063 10.7539C76.66 10.6532 76.5886 10.5005 76.5886 10.2958V3.3854C76.5886 3.18072 76.66 3.02802 76.8063 2.93056C76.9492 2.83309 77.1181 2.78111 77.3098 2.78111C77.5015 2.78111 77.6672 2.82984 77.8102 2.93056C77.9531 3.02802 78.0278 3.18072 78.0278 3.3854V6.09824V6.09499Z" fill="#5A5757"/>
<path id="Vector_10" d="M80.958 4.60372C80.7826 4.60372 80.6526 4.54524 80.5681 4.42178C80.4837 4.30157 80.4414 4.15537 80.4414 3.98643C80.4414 3.81748 80.4837 3.66153 80.5681 3.54132C80.6526 3.42112 80.7826 3.35939 80.958 3.35939H84.2524C84.6163 3.35939 84.8697 3.42761 85.0094 3.56407C85.1491 3.70052 85.2206 3.94744 85.2206 4.30482V5.17228C85.2206 5.59788 85.1751 5.95526 85.0841 6.24766C84.9931 6.54007 84.808 6.81622 84.5253 7.07614C84.2426 7.3328 83.8463 7.60571 83.3297 7.88511C82.8131 8.16777 82.1276 8.5089 81.2764 8.91177C81.0945 8.99624 80.9223 8.99624 80.7631 8.91177C80.6006 8.8273 80.4869 8.71034 80.4187 8.56089C80.3797 8.49266 80.357 8.41469 80.344 8.33021C80.331 8.24899 80.3342 8.16452 80.3505 8.08655C80.3667 8.00857 80.3992 7.93385 80.4479 7.86562C80.4967 7.79739 80.5714 7.73891 80.6721 7.69343C81.4323 7.34255 82.0204 7.05664 82.4395 6.83247C82.8586 6.60829 83.164 6.41011 83.3622 6.24117C83.5604 6.06897 83.6773 5.90328 83.7163 5.74084C83.7553 5.57839 83.7748 5.37371 83.7748 5.13004V4.86688C83.7748 4.69144 83.6871 4.60372 83.5116 4.60372H80.958ZM81.9164 11.342C81.9164 10.6044 82.2218 10.0521 82.8326 9.68501C83.4434 9.31463 84.2881 9.12945 85.357 9.12945C86.4259 9.12945 87.2706 9.31463 87.8814 9.68501C88.4922 10.0521 88.8009 10.6077 88.8009 11.342C88.8009 12.0762 88.4955 12.6415 87.8814 13.0054C87.2706 13.3693 86.4292 13.5512 85.357 13.5512C84.2849 13.5512 83.4434 13.3693 82.8326 13.0054C82.2218 12.6415 81.9164 12.086 81.9164 11.342ZM87.3551 11.342C87.3551 11.0301 87.2024 10.7766 86.8937 10.585C86.5851 10.39 86.075 10.2926 85.3603 10.2926C84.6455 10.2926 84.1257 10.39 83.8203 10.585C83.5149 10.7799 83.3654 11.0301 83.3654 11.342C83.3654 11.6538 83.5149 11.9073 83.8203 12.1022C84.1257 12.2939 84.6358 12.3913 85.3603 12.3913C86.0848 12.3913 86.5851 12.2939 86.8937 12.1022C87.2024 11.9073 87.3551 11.6538 87.3551 11.342ZM88.7684 8.44718C88.7684 8.65835 88.6936 8.8143 88.5474 8.91502C88.398 9.01573 88.2323 9.06447 88.0504 9.06447C87.8684 9.06447 87.7027 9.01573 87.5565 8.91502C87.4071 8.81755 87.3324 8.6616 87.3324 8.44718V7.68368H86.0555C85.8801 7.68368 85.7534 7.62195 85.6722 7.50174C85.5909 7.37828 85.5519 7.23208 85.5519 7.05664C85.5519 6.8812 85.5909 6.74475 85.6722 6.62454C85.7534 6.50433 85.8801 6.4426 86.0555 6.4426H87.3324V5.5394H86.1465C85.9711 5.5394 85.8444 5.48092 85.7631 5.35746C85.6819 5.23725 85.6429 5.0878 85.6429 4.91561C85.6429 4.74342 85.6819 4.60372 85.7631 4.48026C85.8411 4.36005 85.9711 4.29832 86.1465 4.29832H87.3324V3.39512C87.3324 3.18395 87.4071 3.028 87.5565 2.92728C87.7027 2.82657 87.8684 2.77783 88.0504 2.77783C88.2323 2.77783 88.398 2.82657 88.5474 2.92728C88.6936 3.02475 88.7684 3.1807 88.7684 3.39512V8.44718Z" fill="#5A5757"/>
<path id="Vector_11" d="M90.8571 11.813C90.6816 11.813 90.5517 11.7513 90.4672 11.6311C90.3827 11.5076 90.3438 11.3647 90.3438 11.1957C90.3438 11.0268 90.3827 10.8839 90.4672 10.7636C90.5517 10.6434 90.6816 10.5817 90.8571 10.5817H94.4374V8.0703H95.8961V10.5817H99.4764C99.6519 10.5817 99.7818 10.6402 99.8663 10.7636C99.9508 10.8871 99.9898 11.0301 99.9898 11.1957C99.9898 11.3614 99.9508 11.5076 99.8663 11.6311C99.7818 11.7513 99.6519 11.813 99.4764 11.813H90.8571ZM92.5433 8.76557C92.1794 8.76557 91.926 8.69734 91.7863 8.56088C91.6433 8.42443 91.5751 8.17751 91.5751 7.82013V3.87596C91.5751 3.67128 91.6498 3.51533 91.8025 3.41461C91.9552 3.31065 92.1209 3.25867 92.3028 3.25867C92.4848 3.25867 92.6537 3.31065 92.8032 3.41461C92.9559 3.51533 93.0338 3.67128 93.0338 3.87596V4.98059H97.2964V3.87596C97.2964 3.67128 97.3711 3.51533 97.5238 3.41461C97.6765 3.31065 97.8422 3.25867 98.0242 3.25867C98.2061 3.25867 98.375 3.31065 98.5277 3.41461C98.6804 3.51533 98.7552 3.67128 98.7552 3.87596V7.82013C98.7552 8.17751 98.6837 8.42443 98.544 8.56088C98.4043 8.69734 98.1509 8.76557 97.787 8.76557H92.54H92.5433ZM97.0365 7.54722C97.2119 7.54722 97.2997 7.4595 97.2997 7.28406V6.20218H93.0371V7.28406C93.0371 7.4595 93.1216 7.54722 93.297 7.54722H97.0365Z" fill="#5A5757"/>
<path id="Vector_12" d="M106.271 8.90201V10.5784H109.851C110.027 10.5784 110.154 10.6402 110.238 10.7604C110.323 10.8838 110.365 11.0268 110.365 11.1925C110.365 11.3582 110.323 11.5044 110.238 11.6278C110.154 11.7481 110.027 11.8098 109.851 11.8098H101.232C101.057 11.8098 100.927 11.7481 100.842 11.6278C100.758 11.5044 100.719 11.3614 100.719 11.1925C100.719 11.0235 100.761 10.8806 100.842 10.7604C100.927 10.6402 101.057 10.5784 101.232 10.5784H104.812V8.90201H106.271ZM101.996 5.13003C101.82 5.13003 101.693 5.0683 101.609 4.94809C101.524 4.82788 101.482 4.68168 101.482 4.51599C101.482 4.35029 101.524 4.20409 101.609 4.08388C101.693 3.96042 101.823 3.90194 101.996 3.90194H104.799V3.25216C104.799 3.03773 104.874 2.88179 105.02 2.77782C105.17 2.67386 105.342 2.62512 105.54 2.62512C105.738 2.62512 105.911 2.6771 106.06 2.77782C106.209 2.88179 106.281 3.03773 106.281 3.25216V3.90194H109.085C109.26 3.90194 109.39 3.96042 109.471 4.08388C109.556 4.20409 109.598 4.35029 109.598 4.51599C109.598 4.68168 109.556 4.82788 109.471 4.94809C109.387 5.07155 109.257 5.13003 109.085 5.13003H101.992H101.996ZM102.337 7.62519C102.337 6.97216 102.623 6.47833 103.191 6.15019C103.763 5.8188 104.546 5.6531 105.54 5.6531C106.034 5.6531 106.479 5.69534 106.875 5.77981C107.269 5.86103 107.606 5.98449 107.883 6.15019C108.159 6.31263 108.373 6.51731 108.523 6.76423C108.669 7.01115 108.744 7.29705 108.744 7.62519C108.744 7.95333 108.669 8.23923 108.523 8.48615C108.373 8.73307 108.159 8.93775 107.883 9.10344C107.606 9.26589 107.269 9.38935 106.875 9.47382C106.479 9.55504 106.034 9.59728 105.54 9.59728C104.546 9.59728 103.763 9.43158 103.191 9.10019C102.623 8.76881 102.337 8.27822 102.337 7.62194M107.343 7.62519C107.343 7.36853 107.207 7.16385 106.937 7.01115C106.667 6.85845 106.203 6.78372 105.54 6.78372C104.877 6.78372 104.413 6.85845 104.143 7.01115C103.873 7.16385 103.74 7.36853 103.74 7.62519C103.74 7.88185 103.877 8.08978 104.143 8.24248C104.413 8.39518 104.881 8.46991 105.54 8.46991C106.2 8.46991 106.667 8.39518 106.937 8.24248C107.207 8.08978 107.343 7.8851 107.343 7.62519Z" fill="#5A5757"/>
<path id="Vector_13" d="M111.722 8.65186C111.547 8.65186 111.42 8.59338 111.339 8.47317C111.258 8.35621 111.219 8.21325 111.219 8.04431C111.219 7.87537 111.258 7.73567 111.339 7.61546C111.42 7.49849 111.547 7.44001 111.722 7.44001C112.642 7.44001 113.607 7.42377 114.617 7.39453C115.628 7.36529 116.618 7.29056 117.58 7.17685C117.756 7.15411 117.889 7.19635 117.98 7.30356C118.071 7.41077 118.126 7.54723 118.139 7.71292C118.155 7.87212 118.126 8.01507 118.058 8.14178C117.989 8.26849 117.869 8.33996 117.694 8.3627C117.359 8.40819 116.989 8.44718 116.586 8.48291C116.183 8.51865 115.757 8.54464 115.309 8.57063V9.67526C115.309 9.87345 115.238 10.0164 115.098 10.1041C114.958 10.1918 114.786 10.2341 114.578 10.2341C114.37 10.2341 114.211 10.1918 114.071 10.1041C113.932 10.0164 113.86 9.87345 113.86 9.67526V8.62587C113.496 8.64211 113.132 8.65186 112.775 8.65186H111.716H111.722ZM114.685 6.89745C113.756 6.89745 113.061 6.71876 112.6 6.36138C112.135 6.004 111.904 5.52641 111.904 4.92536C111.904 4.32431 112.135 3.84672 112.6 3.48934C113.061 3.13196 113.759 2.95327 114.685 2.95327C115.611 2.95327 116.307 3.13196 116.771 3.48934C117.236 3.84672 117.466 4.32431 117.466 4.92536C117.466 5.52641 117.232 6.004 116.771 6.36138C116.307 6.71876 115.611 6.89745 114.685 6.89745ZM119.77 12.06C119.945 12.06 120.075 12.1217 120.16 12.2419C120.241 12.3621 120.283 12.5083 120.283 12.674C120.283 12.8397 120.241 12.9859 120.16 13.1094C120.075 13.2296 119.945 13.2913 119.77 13.2913H113.808C113.444 13.2913 113.191 13.2231 113.051 13.0866C112.911 12.9502 112.84 12.7032 112.84 12.3459V11.0138C112.84 10.7994 112.911 10.6467 113.061 10.546C113.21 10.4485 113.383 10.3965 113.581 10.3965C113.779 10.3965 113.941 10.4453 114.088 10.546C114.237 10.6434 114.308 10.7994 114.308 11.0138V11.8C114.308 11.9755 114.396 12.0632 114.572 12.0632H119.77V12.06ZM114.685 5.75708C115.173 5.75708 115.53 5.68236 115.757 5.53291C115.985 5.38346 116.099 5.18202 116.099 4.92211C116.099 4.6622 115.985 4.46077 115.757 4.31132C115.53 4.16187 115.173 4.08714 114.685 4.08714C114.198 4.08714 113.841 4.16187 113.613 4.31132C113.386 4.45752 113.272 4.66545 113.272 4.92211C113.272 5.17877 113.386 5.38346 113.613 5.53291C113.844 5.68236 114.198 5.75708 114.685 5.75708ZM118.584 10.0424H117.044C116.878 10.0424 116.755 9.98391 116.674 9.8702C116.592 9.75648 116.553 9.61678 116.553 9.45759C116.553 9.29839 116.592 9.16194 116.674 9.04822C116.752 8.93451 116.875 8.87603 117.044 8.87603H118.584V3.39512C118.584 3.18395 118.659 3.028 118.805 2.92728C118.954 2.82657 119.123 2.77783 119.312 2.77783C119.5 2.77783 119.659 2.82657 119.809 2.92728C119.955 3.02475 120.03 3.1807 120.03 3.39512V10.2828C120.03 10.4972 119.955 10.6532 119.809 10.7507C119.659 10.8481 119.494 10.8969 119.312 10.8969C119.12 10.8969 118.951 10.8481 118.805 10.7507C118.656 10.6499 118.584 10.4972 118.584 10.2828V10.0456V10.0424Z" fill="#5A5757"/>
<path id="Vector_14" d="M33.4842 19.3375C33.3542 19.4707 33.1561 19.5747 32.8864 19.5747C32.6167 19.5747 32.4218 19.4707 32.2919 19.3375C32.1002 19.1393 32.0547 18.8892 32.0547 18.5513C32.0547 18.2134 32.1002 17.9632 32.2919 17.765C32.4218 17.6318 32.6135 17.5311 32.8864 17.5311C33.1593 17.5311 33.3542 17.6318 33.4842 17.765C33.6726 17.9632 33.7214 18.2134 33.7214 18.5513C33.7214 18.8892 33.6726 19.1426 33.4842 19.3375ZM33.1788 17.999C33.1041 17.9242 33.0001 17.8853 32.8832 17.8853C32.7662 17.8853 32.6655 17.9242 32.5908 17.999C32.4673 18.1224 32.4543 18.3304 32.4543 18.548C32.4543 18.7657 32.4705 18.9736 32.5908 19.0971C32.6655 19.1686 32.7662 19.2141 32.8832 19.2141C33.0001 19.2141 33.1041 19.1718 33.1788 19.0971C33.3023 18.9736 33.3153 18.7657 33.3153 18.548C33.3153 18.3304 33.299 18.1224 33.1788 17.999Z" fill="#727172"/>
<path id="Vector_15" d="M35.367 18.0184C35.276 17.9274 35.2046 17.8852 35.0681 17.8852C34.8504 17.8852 34.6685 18.0574 34.6685 18.3336V19.5487H34.2656V17.5506H34.6587V17.7683C34.7627 17.6253 34.9674 17.5278 35.1916 17.5278C35.3832 17.5278 35.5294 17.5798 35.6692 17.7163L35.367 18.0217V18.0184Z" fill="#727172"/>
<path id="Vector_16" d="M36.1652 18.665C36.1652 19.0062 36.3472 19.2238 36.6753 19.2238C36.8995 19.2238 37.0197 19.1589 37.1594 19.0192L37.4161 19.2596C37.2114 19.4643 37.0197 19.5715 36.6656 19.5715C36.1652 19.5715 35.7656 19.3083 35.7656 18.5448C35.7656 17.8983 36.1003 17.5247 36.6136 17.5247C37.1497 17.5247 37.4616 17.9178 37.4616 18.4863V18.6618H36.1652V18.665ZM37.01 18.116C36.9482 17.9665 36.8053 17.8625 36.6168 17.8625C36.4284 17.8625 36.2822 17.9665 36.2205 18.116C36.1815 18.2069 36.1717 18.2654 36.1685 18.3889H37.0684C37.0652 18.2687 37.0522 18.2069 37.0132 18.116" fill="#727172"/>
<path id="Vector_17" d="M39.0686 19.5487V19.3667C38.9224 19.5129 38.7859 19.5714 38.5358 19.5714C38.2856 19.5714 38.1232 19.5129 37.9997 19.3927C37.899 19.2855 37.8438 19.1328 37.8438 18.9638C37.8438 18.6292 38.0777 18.3888 38.5358 18.3888H39.0621V18.2458C39.0621 17.9957 38.9354 17.8722 38.6235 17.8722C38.4026 17.8722 38.2953 17.9242 38.1849 18.0639L37.9217 17.8137C38.1102 17.5928 38.3083 17.5278 38.6397 17.5278C39.1888 17.5278 39.465 17.7585 39.465 18.2134V19.5519H39.0718L39.0686 19.5487ZM39.0588 18.6649H38.591C38.3538 18.6649 38.2336 18.7722 38.2336 18.9541C38.2336 19.136 38.3473 19.2368 38.6007 19.2368C38.7534 19.2368 38.8704 19.2238 38.9744 19.123C39.0329 19.0646 39.0621 18.9703 39.0621 18.8274V18.6649H39.0588Z" fill="#727172"/>
<path id="Vector_18" d="M41.0781 19.5486V16.7416H42.8715V17.1249H41.5005V17.9437H42.6701V18.3238H41.5005V19.1685H42.8715V19.5486H41.0781Z" fill="#727172"/>
<path id="Vector_19" d="M44.5568 19.5487V19.3343C44.4074 19.5162 44.2449 19.5715 44.0273 19.5715C43.8258 19.5715 43.6471 19.5032 43.5367 19.3928C43.3352 19.1913 43.3125 18.8469 43.3125 18.5448C43.3125 18.2426 43.3352 17.9015 43.5367 17.7001C43.6471 17.5896 43.8193 17.5246 44.0208 17.5246C44.2319 17.5246 44.3976 17.5766 44.5438 17.7488V16.7384H44.9467V19.5455H44.5536L44.5568 19.5487ZM44.1345 17.8853C43.7706 17.8853 43.7154 18.1939 43.7154 18.5448C43.7154 18.8957 43.7706 19.2108 44.1345 19.2108C44.4984 19.2108 44.5471 18.8989 44.5471 18.5448C44.5471 18.1907 44.4951 17.8853 44.1345 17.8853Z" fill="#727172"/>
<path id="Vector_20" d="M46.7984 19.5487V19.3473C46.6619 19.4967 46.467 19.5714 46.2656 19.5714C46.0641 19.5714 45.892 19.5032 45.7717 19.3895C45.619 19.24 45.5703 19.0516 45.5703 18.8242V17.5474H45.9732V18.7657C45.9732 19.0776 46.1519 19.2108 46.376 19.2108C46.6002 19.2108 46.7887 19.0743 46.7887 18.7657V17.5474H47.1915V19.5454H46.7984V19.5487Z" fill="#727172"/>
<path id="Vector_21" d="M48.6168 19.5747C48.1684 19.5747 47.7266 19.2985 47.7266 18.5513C47.7266 17.804 48.1684 17.5311 48.6168 17.5311C48.8929 17.5311 49.0846 17.6124 49.273 17.8105L48.9969 18.0802C48.8702 17.9405 48.7727 17.8918 48.6135 17.8918C48.4543 17.8918 48.3276 17.9535 48.2431 18.0704C48.1554 18.1809 48.1229 18.3239 48.1229 18.5545C48.1229 18.7852 48.1554 18.9314 48.2431 19.0419C48.3276 19.1556 48.4608 19.2173 48.6135 19.2173C48.7662 19.2173 48.8702 19.1686 48.9969 19.0289L49.273 19.292C49.0846 19.4935 48.8897 19.5779 48.6168 19.5779" fill="#727172"/>
<path id="Vector_22" d="M50.7873 19.5487V19.3667C50.6411 19.5129 50.5047 19.5714 50.2545 19.5714C50.0043 19.5714 49.8387 19.5129 49.7184 19.3927C49.6145 19.2855 49.5625 19.1328 49.5625 18.9638C49.5625 18.6292 49.7932 18.3888 50.2513 18.3888H50.7776V18.2458C50.7776 17.9957 50.6509 17.8722 50.339 17.8722C50.1181 17.8722 50.0108 17.9242 49.9004 18.0639L49.634 17.8137C49.8224 17.5928 50.0206 17.5278 50.352 17.5278C50.901 17.5278 51.1772 17.7585 51.1772 18.2134V19.5519H50.7841L50.7873 19.5487ZM50.7808 18.6649H50.313C50.0758 18.6649 49.9524 18.7722 49.9524 18.9541C49.9524 19.136 50.0661 19.2368 50.3195 19.2368C50.4722 19.2368 50.5892 19.2238 50.6964 19.123C50.7548 19.0646 50.7808 18.9703 50.7808 18.8274V18.6649Z" fill="#727172"/>
<path id="Vector_23" d="M52.4015 19.5486C52.0279 19.5486 51.8524 19.279 51.8524 18.9931V17.8917H51.625V17.5863H51.8524V16.9788H52.2553V17.5863H52.6419V17.8917H52.2553V18.9736C52.2553 19.1198 52.3268 19.2043 52.4762 19.2043H52.6419V19.5486H52.4015Z" fill="#727172"/>
<path id="Vector_24" d="M53.1406 16.7319H53.5662V17.1575H53.1406V16.7319ZM53.1536 17.5507H53.5565V19.5487H53.1536V17.5507Z" fill="#727172"/>
<path id="Vector_25" d="M55.5265 19.3375C55.3966 19.4707 55.1984 19.5747 54.9255 19.5747C54.6526 19.5747 54.4609 19.4707 54.3309 19.3375C54.1425 19.1393 54.0938 18.8892 54.0938 18.5513C54.0938 18.2134 54.1392 17.9632 54.3309 17.765C54.4609 17.6318 54.6526 17.5311 54.9255 17.5311C55.1984 17.5311 55.3933 17.6318 55.5265 17.765C55.715 17.9632 55.7637 18.2134 55.7637 18.5513C55.7637 18.8892 55.715 19.1426 55.5265 19.3375ZM55.2211 17.999C55.1464 17.9242 55.0424 17.8853 54.9255 17.8853C54.8085 17.8853 54.7078 17.9242 54.6331 17.999C54.5096 18.1224 54.4934 18.3304 54.4934 18.548C54.4934 18.7657 54.5096 18.9736 54.6331 19.0971C54.7078 19.1686 54.8053 19.2141 54.9255 19.2141C55.0457 19.2141 55.1464 19.1718 55.2211 19.0971C55.3446 18.9736 55.3608 18.7657 55.3608 18.548C55.3608 18.3304 55.3446 18.1224 55.2211 17.999Z" fill="#727172"/>
<path id="Vector_26" d="M57.5308 19.5487V18.3303C57.5308 18.0184 57.3554 17.8852 57.128 17.8852C56.9006 17.8852 56.7154 18.0217 56.7154 18.3303V19.5487H56.3125V17.5506H56.7089V17.752C56.8453 17.6026 57.0403 17.5278 57.2417 17.5278C57.4431 17.5278 57.6153 17.5928 57.7355 17.7065C57.8882 17.856 57.937 18.0444 57.937 18.2718V19.5487H57.5341H57.5308Z" fill="#727172"/>
<path id="Vector_27" d="M59.6265 19.5487V19.3667C59.4803 19.5129 59.3439 19.5714 59.0937 19.5714C58.8435 19.5714 58.6778 19.5129 58.5576 19.3927C58.4537 19.2855 58.3984 19.1328 58.3984 18.9638C58.3984 18.6292 58.6324 18.3888 59.0872 18.3888H59.6168V18.2458C59.6168 17.9957 59.4901 17.8722 59.1814 17.8722C58.9605 17.8722 58.8533 17.9242 58.7428 18.0639L58.4797 17.8137C58.6681 17.5928 58.8663 17.5278 59.1977 17.5278C59.7467 17.5278 60.0229 17.7585 60.0229 18.2134V19.5519H59.6298L59.6265 19.5487ZM59.62 18.6649H59.1522C58.915 18.6649 58.7916 18.7722 58.7916 18.9541C58.7916 19.136 58.9053 19.2368 59.1587 19.2368C59.3114 19.2368 59.4251 19.2238 59.5323 19.123C59.5908 19.0646 59.62 18.9703 59.62 18.8274V18.6649Z" fill="#727172"/>
<path id="Vector_28" d="M61.1741 19.5486C60.7907 19.5486 60.625 19.292 60.625 18.9963V16.7416H61.0279V18.9736C61.0279 19.1263 61.0831 19.2042 61.2455 19.2042H61.4242V19.5486H61.1773H61.1741Z" fill="#727172"/>
<path id="Vector_29" d="M62.8594 19.5486V16.7416H64.6528V17.1249H63.285V17.9437H64.4513V18.3238H63.285V19.1685H64.6528V19.5486H62.8594Z" fill="#727172"/>
<path id="Vector_30" d="M66.4137 19.5487V18.3303C66.4137 18.0184 66.235 17.8852 66.0108 17.8852C65.7866 17.8852 65.5949 18.0217 65.5949 18.3303V19.5487H65.1953V17.5506H65.5884V17.752C65.7249 17.6026 65.9198 17.5278 66.1212 17.5278C66.3227 17.5278 66.4949 17.5928 66.6151 17.7065C66.7678 17.856 66.8165 18.0444 66.8165 18.2718V19.5487H66.4137Z" fill="#727172"/>
<path id="Vector_31" d="M68.2108 19.5486H67.8827L67.1484 17.5505H67.574L68.0484 18.9573L68.5162 17.5505H68.9418L68.2108 19.5486Z" fill="#727172"/>
<path id="Vector_32" d="M69.2812 16.7319H69.7069V17.1575H69.2812V16.7319ZM69.2942 17.5507H69.6971V19.5487H69.2942V17.5507Z" fill="#727172"/>
<path id="Vector_33" d="M71.4341 18.0184C71.3431 17.9274 71.2716 17.8852 71.1352 17.8852C70.9175 17.8852 70.7388 18.0574 70.7388 18.3336V19.5487H70.3359V17.5506H70.7291V17.7683C70.833 17.6253 71.0377 17.5278 71.2619 17.5278C71.4568 17.5278 71.603 17.5798 71.7395 17.7163L71.4341 18.0217V18.0184Z" fill="#727172"/>
<path id="Vector_34" d="M73.2765 19.3375C73.1466 19.4707 72.9484 19.5747 72.6755 19.5747C72.4026 19.5747 72.2109 19.4707 72.0809 19.3375C71.8925 19.1393 71.8438 18.8892 71.8438 18.5513C71.8438 18.2134 71.8925 17.9632 72.0809 17.765C72.2109 17.6318 72.4026 17.5311 72.6755 17.5311C72.9484 17.5311 73.1433 17.6318 73.2765 17.765C73.465 17.9632 73.5104 18.2134 73.5104 18.5513C73.5104 18.8892 73.465 19.1426 73.2765 19.3375ZM72.9711 17.999C72.8931 17.9242 72.7924 17.8853 72.6755 17.8853C72.5585 17.8853 72.4578 17.9242 72.3831 17.999C72.2596 18.1224 72.2434 18.3304 72.2434 18.548C72.2434 18.7657 72.2596 18.9736 72.3831 19.0971C72.4578 19.1686 72.5553 19.2141 72.6755 19.2141C72.7957 19.2141 72.8964 19.1718 72.9711 19.0971C73.0913 18.9736 73.1076 18.7657 73.1076 18.548C73.1076 18.3304 73.0913 18.1224 72.9711 17.999Z" fill="#727172"/>
<path id="Vector_35" d="M75.273 19.5487V18.3303C75.273 18.0184 75.0976 17.8852 74.8702 17.8852C74.6427 17.8852 74.4575 18.0217 74.4575 18.3303V19.5487H74.0547V17.5506H74.4511V17.752C74.5875 17.6026 74.7824 17.5278 74.9839 17.5278C75.1853 17.5278 75.3575 17.5928 75.4777 17.7065C75.6304 17.856 75.6791 18.0444 75.6791 18.2718V19.5487H75.2763H75.273Z" fill="#727172"/>
<path id="Vector_36" d="M78.729 19.5487V18.3303C78.729 18.0184 78.5535 17.8852 78.3261 17.8852C78.0987 17.8852 77.9103 18.0217 77.9103 18.3108V19.5487H77.5074V18.3303C77.5074 18.0184 77.3287 17.8852 77.1045 17.8852C76.8804 17.8852 76.6919 18.0217 76.6919 18.3303V19.5487H76.2891V17.5506H76.6854V17.752C76.8186 17.6058 77.0168 17.5278 77.2182 17.5278C77.4652 17.5278 77.6601 17.6253 77.7868 17.817C77.9492 17.6221 78.1507 17.5278 78.4138 17.5278C78.6185 17.5278 78.8005 17.5928 78.9174 17.7065C79.0734 17.856 79.1319 18.0444 79.1319 18.2718V19.5487H78.729Z" fill="#727172"/>
<path id="Vector_37" d="M80.0481 18.665C80.0481 19.0062 80.23 19.2238 80.5581 19.2238C80.7823 19.2238 80.9025 19.1589 81.0422 19.0192L81.2989 19.2596C81.0942 19.4643 80.8993 19.5715 80.5484 19.5715C80.048 19.5715 79.6484 19.3083 79.6484 18.5448C79.6484 17.8983 79.9831 17.5247 80.4964 17.5247C81.0097 17.5247 81.3444 17.9178 81.3444 18.4863V18.6618H80.0481V18.665ZM80.8928 18.116C80.831 17.9665 80.6881 17.8625 80.4996 17.8625C80.3112 17.8625 80.165 17.9665 80.1033 18.116C80.0643 18.2069 80.0545 18.2654 80.0513 18.3889H80.948C80.9448 18.2687 80.9318 18.2069 80.8928 18.116Z" fill="#727172"/>
<path id="Vector_38" d="M83.1012 19.5487V18.3303C83.1012 18.0184 82.9257 17.8852 82.7015 17.8852C82.4774 17.8852 82.2857 18.0217 82.2857 18.3303V19.5487H81.8828V17.5506H82.2792V17.752C82.4156 17.6026 82.6106 17.5278 82.812 17.5278C83.0134 17.5278 83.1856 17.5928 83.3026 17.7065C83.4585 17.856 83.504 18.0444 83.504 18.2718V19.5487H83.1012Z" fill="#727172"/>
<path id="Vector_39" d="M84.7172 19.5486C84.3436 19.5486 84.1682 19.279 84.1682 18.9931V17.8917H83.9375V17.5863H84.1682V16.9788H84.571V17.5863H84.9577V17.8917H84.571V18.9736C84.571 19.1198 84.6425 19.2043 84.792 19.2043H84.9577V19.5486H84.7172Z" fill="#727172"/>
<path id="Vector_40" d="M86.1149 19.5747C85.7868 19.5747 85.5106 19.5195 85.2734 19.2855L85.5366 19.0224C85.699 19.1881 85.9135 19.2336 86.1117 19.2336C86.3553 19.2336 86.5503 19.1458 86.5503 18.9574C86.5503 18.8242 86.4755 18.7365 86.2806 18.7202L85.9622 18.6942C85.5886 18.6617 85.3709 18.4928 85.3709 18.1419C85.3709 17.7521 85.7055 17.5311 86.1246 17.5311C86.4235 17.5311 86.6802 17.5929 86.8654 17.7553L86.6152 18.012C86.4885 17.9048 86.3098 17.8658 86.1214 17.8658C85.881 17.8658 85.7575 17.973 85.7575 18.1224C85.7575 18.2426 85.8193 18.3304 86.0337 18.3531L86.3488 18.3791C86.7224 18.4083 86.9434 18.587 86.9434 18.9444C86.9434 19.3603 86.586 19.5779 86.1117 19.5779" fill="#727172"/>
<path id="Vector_41" d="M89.4999 18.444H88.8631V19.5486H88.4375V16.7416H89.5031C90.0522 16.7416 90.4031 17.1022 90.4031 17.5928C90.4031 18.0834 90.0522 18.444 89.5031 18.444M89.4771 17.1249H88.8631V18.0574H89.4771C89.7728 18.0574 89.9742 17.8884 89.9742 17.5928C89.9742 17.2971 89.7728 17.1249 89.4771 17.1249Z" fill="#727172"/>
<path id="Vector_42" d="M91.9686 18.0184C91.8776 17.9274 91.8061 17.8852 91.6697 17.8852C91.452 17.8852 91.2701 18.0574 91.2701 18.3336V19.5487H90.8672V17.5506H91.2603V17.7683C91.3643 17.6253 91.569 17.5278 91.7931 17.5278C91.9848 17.5278 92.131 17.5798 92.2675 17.7163L91.9653 18.0217L91.9686 18.0184Z" fill="#727172"/>
<path id="Vector_43" d="M93.8045 19.3375C93.6746 19.4707 93.4764 19.5747 93.2067 19.5747C92.9371 19.5747 92.7421 19.4707 92.6122 19.3375C92.4237 19.1393 92.375 18.8892 92.375 18.5513C92.375 18.2134 92.4237 17.9632 92.6122 17.765C92.7421 17.6318 92.9338 17.5311 93.2067 17.5311C93.4796 17.5311 93.6746 17.6318 93.8045 17.765C93.993 17.9632 94.0384 18.2134 94.0384 18.5513C94.0384 18.8892 93.993 19.1426 93.8045 19.3375ZM93.5024 17.999C93.4276 17.9242 93.3237 17.8853 93.2067 17.8853C93.0898 17.8853 92.989 17.9242 92.9143 17.999C92.7941 18.1224 92.7779 18.3304 92.7779 18.548C92.7779 18.7657 92.7941 18.9736 92.9143 19.0971C92.989 19.1686 93.0865 19.2141 93.2067 19.2141C93.3269 19.2141 93.4276 19.1718 93.5024 19.0971C93.6258 18.9736 93.6388 18.7657 93.6388 18.548C93.6388 18.3304 93.6226 18.1224 93.5024 17.999Z" fill="#727172"/>
<path id="Vector_44" d="M95.1827 19.5486C94.8091 19.5486 94.6337 19.279 94.6337 18.9931V17.8917H94.4062V17.5863H94.6337V16.9788H95.0365V17.5863H95.4232V17.8917H95.0365V18.9736C95.0365 19.1198 95.108 19.2043 95.2575 19.2043H95.4232V19.5486H95.1827Z" fill="#727172"/>
<path id="Vector_45" d="M96.2121 18.665C96.2121 19.0062 96.3941 19.2238 96.7222 19.2238C96.9464 19.2238 97.0633 19.1589 97.2063 19.0192L97.4629 19.2596C97.2583 19.4643 97.0633 19.5715 96.7124 19.5715C96.2121 19.5715 95.8125 19.3083 95.8125 18.5448C95.8125 17.8983 96.1471 17.5247 96.6605 17.5247C97.1738 17.5247 97.5084 17.9178 97.5084 18.4863V18.6618H96.2121V18.665ZM97.0568 18.116C96.9951 17.9665 96.8521 17.8625 96.6637 17.8625C96.4753 17.8625 96.3291 17.9665 96.2673 18.116C96.2284 18.2069 96.2186 18.2654 96.2154 18.3889H97.1153C97.1121 18.2687 97.0991 18.2069 97.0601 18.116" fill="#727172"/>
<path id="Vector_46" d="M98.8355 19.5747C98.3872 19.5747 97.9453 19.2985 97.9453 18.5513C97.9453 17.804 98.3872 17.5311 98.8355 17.5311C99.1117 17.5311 99.3034 17.6124 99.495 17.8105L99.2189 18.0802C99.0922 17.9405 98.9947 17.8918 98.8355 17.8918C98.6763 17.8918 98.5529 17.9535 98.4651 18.0704C98.3774 18.1809 98.3482 18.3239 98.3482 18.5545C98.3482 18.7852 98.3807 18.9314 98.4651 19.0419C98.5529 19.1556 98.6828 19.2173 98.8355 19.2173C98.9882 19.2173 99.0922 19.1686 99.2189 19.0289L99.495 19.292C99.3066 19.4935 99.1117 19.5779 98.8355 19.5779" fill="#727172"/>
<path id="Vector_47" d="M100.55 19.5486C100.176 19.5486 100.004 19.279 100.004 18.9931V17.8917H99.7734V17.5863H100.004V16.9788H100.404V17.5863H100.79V17.8917H100.404V18.9736C100.404 19.1198 100.475 19.2043 100.625 19.2043H100.79V19.5486H100.55Z" fill="#727172"/>
<path id="Vector_48" d="M101.297 16.7319H101.722V17.1575H101.297V16.7319ZM101.307 17.5507H101.709V19.5487H101.307V17.5507Z" fill="#727172"/>
<path id="Vector_49" d="M103.68 19.3375C103.55 19.4707 103.351 19.5747 103.082 19.5747C102.812 19.5747 102.614 19.4707 102.487 19.3375C102.299 19.1393 102.25 18.8892 102.25 18.5513C102.25 18.2134 102.299 17.9632 102.487 17.765C102.617 17.6318 102.812 17.5311 103.082 17.5311C103.351 17.5311 103.55 17.6318 103.68 17.765C103.868 17.9632 103.917 18.2134 103.917 18.5513C103.917 18.8892 103.871 19.1426 103.68 19.3375ZM103.377 17.999C103.299 17.9242 103.199 17.8853 103.082 17.8853C102.965 17.8853 102.864 17.9242 102.789 17.999C102.669 18.1224 102.653 18.3304 102.653 18.548C102.653 18.7657 102.669 18.9736 102.789 19.0971C102.864 19.1686 102.965 19.2141 103.082 19.2141C103.199 19.2141 103.303 19.1718 103.377 19.0971C103.498 18.9736 103.514 18.7657 103.514 18.548C103.514 18.3304 103.498 18.1224 103.377 17.999Z" fill="#727172"/>
<path id="Vector_50" d="M105.683 19.5487V18.3303C105.683 18.0184 105.504 17.8852 105.28 17.8852C105.055 17.8852 104.864 18.0217 104.864 18.3303V19.5487H104.461V17.5506H104.854V17.752C104.991 17.6026 105.185 17.5278 105.387 17.5278C105.588 17.5278 105.76 17.5928 105.881 17.7065C106.033 17.856 106.082 18.0444 106.082 18.2718V19.5487H105.679H105.683Z" fill="#727172"/>
<path id="Vector_51" d="M109.317 19.5486L109.122 18.9833H108.014L107.822 19.5486H107.367L108.397 16.7416H108.738L109.768 19.5486H109.317ZM108.576 17.3784L108.14 18.6227H109.005L108.579 17.3784H108.576Z" fill="#727172"/>
<path id="Vector_52" d="M110.787 20.3804C110.485 20.3804 110.29 20.3089 110.082 20.1172L110.339 19.8605C110.465 19.9775 110.576 20.036 110.771 20.036C111.109 20.036 111.242 19.7956 111.242 19.5292V19.2725C111.096 19.4447 110.93 19.4999 110.725 19.4999C110.521 19.4999 110.358 19.4349 110.248 19.3245C110.056 19.1328 110.023 18.8501 110.023 18.5123C110.023 18.1744 110.056 17.895 110.248 17.7C110.358 17.5896 110.527 17.5278 110.728 17.5278C110.943 17.5278 111.102 17.5831 111.252 17.765V17.5506H111.641V19.5357C111.641 20.0262 111.317 20.3804 110.784 20.3804M110.832 17.8852C110.472 17.8852 110.423 18.1971 110.423 18.5123C110.423 18.8274 110.472 19.1393 110.832 19.1393C111.193 19.1393 111.239 18.8274 111.239 18.5123C111.239 18.1971 111.193 17.8852 110.832 17.8852Z" fill="#727172"/>
<path id="Vector_53" d="M112.579 18.665C112.579 19.0062 112.761 19.2238 113.089 19.2238C113.314 19.2238 113.434 19.1589 113.573 19.0192L113.83 19.2596C113.625 19.4643 113.431 19.5715 113.08 19.5715C112.579 19.5715 112.18 19.3083 112.18 18.5448C112.18 17.8983 112.514 17.5247 113.028 17.5247C113.541 17.5247 113.876 17.9178 113.876 18.4863V18.6618H112.576L112.579 18.665ZM113.424 18.116C113.362 17.9665 113.219 17.8625 113.031 17.8625C112.842 17.8625 112.696 17.9665 112.635 18.116C112.596 18.2069 112.586 18.2654 112.583 18.3889H113.483C113.476 18.2687 113.466 18.2069 113.427 18.116" fill="#727172"/>
<path id="Vector_54" d="M115.628 19.5487V18.3303C115.628 18.0184 115.449 17.8852 115.225 17.8852C115.001 17.8852 114.809 18.0217 114.809 18.3303V19.5487H114.406V17.5506H114.799V17.752C114.936 17.6026 115.131 17.5278 115.332 17.5278C115.534 17.5278 115.706 17.5928 115.826 17.7065C115.979 17.856 116.027 18.0444 116.027 18.2718V19.5487H115.628Z" fill="#727172"/>
<path id="Vector_55" d="M117.437 19.5747C116.989 19.5747 116.547 19.2985 116.547 18.5513C116.547 17.804 116.989 17.5311 117.437 17.5311C117.713 17.5311 117.905 17.6124 118.097 17.8105L117.82 18.0802C117.694 17.9405 117.596 17.8918 117.437 17.8918C117.278 17.8918 117.154 17.9535 117.067 18.0704C116.979 18.1809 116.95 18.3239 116.95 18.5545C116.95 18.7852 116.982 18.9314 117.067 19.0419C117.154 19.1556 117.284 19.2173 117.437 19.2173C117.59 19.2173 117.694 19.1686 117.82 19.0289L118.097 19.292C117.908 19.4935 117.713 19.5779 117.437 19.5779" fill="#727172"/>
<path id="Vector_56" d="M119.19 19.9482C119.151 20.0587 119.102 20.1367 119.043 20.1951C118.933 20.3056 118.787 20.3413 118.634 20.3413H118.472V19.9775H118.572C118.741 19.9775 118.803 19.9255 118.861 19.763L118.972 19.4544L118.273 17.5505H118.699L119.177 18.9573L119.641 17.5505H120.07L119.186 19.9482H119.19Z" fill="#727172"/>
<path id="Vector_57" d="M31.2799 19.5486L30.4937 18.1646L30.0194 18.7332V19.5486H29.5938V16.7416H30.0194V18.1549L31.1662 16.7416H31.686L30.7764 17.843L31.7803 19.5486H31.2799Z" fill="#727172"/>
</g>
<defs>
<clipPath id="clip0_1130_3094">
<rect width="120.284" height="25.27" fill="white"/>
</clipPath>
</defs>
</svg>
