<svg width="120" height="120" viewBox="0 0 120 120" fill="none" xmlns="http://www.w3.org/2000/svg">
<path d="M7.78906 65.9033C8.54175 65.9033 8.98379 65.4209 9.71862 65.4209" stroke="#B6B6B6" stroke-width="2.47423" stroke-linecap="round"/>
<path fill-rule="evenodd" clip-rule="evenodd" d="M6.44337 58.806C6.80298 63.7255 8.45051 68.2342 11.0205 72.0071C10.7465 73.9104 10.6721 75.8752 10.8184 77.8763C11.7351 90.4169 21.0207 100.287 32.6224 102.107C41.2927 107.954 51.9147 111.043 63.1537 110.222C77.1731 109.197 89.3577 102.291 97.47 92.0953C107.233 87.794 113.714 77.4703 112.872 65.9428C112.529 61.2511 111.014 56.9332 108.646 53.2707C109.148 50.7153 109.321 48.0536 109.122 45.3342C108.09 31.212 97.3602 20.0866 83.8317 17.8436C77.7492 10.969 68.5811 6.90675 58.6441 7.63314C51.4002 8.16267 44.9306 11.1505 40.0119 15.7087C38.3985 15.3404 36.7006 15.2024 34.9594 15.3297C25.7412 16.0035 18.8024 23.8566 19.4613 32.87C19.4843 33.1844 19.5162 33.4961 19.5568 33.8048C11.0879 38.6219 5.66844 48.205 6.44337 58.806Z" fill="url(#paint0_linear_1257_19887)"/>
<path d="M36.8591 13.9238C36.8591 14.5394 36.609 15.4426 36.8948 16.0142C37.002 16.2287 37.5076 16.9012 37.663 16.979" stroke="#B6B6B6" stroke-width="2.47423" stroke-linecap="round"/>
<path d="M84.5235 18.7818C84.2337 18.7456 85.6491 17.4763 85.6491 17.1738" stroke="#B6B6B6" stroke-width="2.47423" stroke-linecap="round"/>
<path d="M100.039 43.5126C99.7822 43.3738 101.562 42.7044 101.671 42.4225" stroke="#B6B6B6" stroke-width="2.47423" stroke-linecap="round"/>
<path d="M22.7056 33.2197C22.3473 33.2197 23.4131 33.4066 23.7061 33.6128C24.0216 33.8348 24.6312 34.1766 24.796 34.5061" stroke="#A5A5A5" stroke-width="2.47423" stroke-linecap="round"/>
<path d="M88 66C88.6014 66 88.7578 66.597 89.1256 66.9648" stroke="#B6B6B6" stroke-width="2.47423" stroke-linecap="round"/>
<path d="M65.8557 51.667C65.0239 54.2146 65.1385 56.8703 63.0525 58.6414C60.9359 60.4386 56.6063 61.3265 54.0812 60.502C49.0678 58.8652 46.6725 52.4266 48.3484 47.2938C50.0243 42.161 55.447 39.327 60.4605 40.9639C65.4739 42.6007 67.5315 46.5342 65.8557 51.667Z" fill="white"/>
<path d="M66 40C63.2 42.4 55.8333 42 52.5 41.5L59 36.5C62.5 36.6667 68.8 37.6 66 40Z" fill="#C2C2C2"/>
<path d="M84.5682 60.4061C84.1124 63.4131 81.8696 66.5815 79.4125 67.6644C77.3486 68.574 74.9746 68.7585 72.6859 68.0112C70.0243 67.1422 68.2362 64.5048 67.1858 62.0944C66.2576 59.9644 65.8564 58.1615 66.6426 55.7536C67.4288 53.3457 69.4157 50.2917 71.3759 49.2611C73.5941 48.0948 76.7751 47.8681 79.4366 48.7371C84.45 50.374 86.2441 55.2733 84.5682 60.4061Z" fill="white"/>
<path d="M63.213 53.3388C62.6723 54.995 60.7418 56.0123 59.4738 56.7364C58.3658 57.3692 57.2931 56.7588 55.8458 56.2863C54.1788 55.742 52.6629 55.3095 52.0102 53.8206C51.4477 52.5375 50.8613 50.8956 51.3304 49.4591C51.8782 47.7813 53.5805 46.6704 55.0826 46.0215C56.3591 45.47 57.9894 44.8887 59.4151 45.3542C62.5187 46.3675 64.2263 50.2352 63.213 53.3388Z" fill="#444444"/>
<path d="M80.6195 61.1271C80.0985 62.7226 79.3965 64.0872 77.9946 64.7614C76.6697 65.3987 75.2066 65.2387 73.6986 64.7463C72.3554 64.3077 71.1758 63.7408 70.4658 62.6389C69.5353 61.1948 69.2389 59.3593 69.8137 57.599C70.2827 56.1624 71.7177 55.2054 72.9289 54.5015C74.3345 53.6846 75.6009 53.27 77.2679 53.8143C78.7045 54.2833 79.8392 55.2503 80.5431 56.4615C81.36 57.8671 81.1637 59.4601 80.6195 61.1271Z" fill="#444444"/>
<path d="M31.4426 85.3805C26.1177 80.3298 23.5455 77.4676 23.0049 75.578L37.796 72.6804C38.3275 73.9075 42.7714 80.6801 44.267 83.5154C45.8405 86.4983 48.0649 88.8583 47.6794 90.8106C47.4699 91.8719 46.8586 91.9134 46.4795 91.8917C46.1004 91.87 46.2471 92.4367 45.8203 92.6943C45.2193 93.0571 44.9713 92.8533 44.5123 92.9251C44.1753 92.9778 44.403 93.4536 43.7917 93.495C43.3272 93.6212 42.3374 93.3174 41.9931 93.2191C39.9292 92.63 36.7561 90.4204 31.4426 85.3805Z" fill="url(#paint1_linear_1257_19887)"/>
<path d="M64.2311 95.9037C71.4536 94.6 75.1741 93.617 76.6624 92.3332L61.3358 82.4109C60.2184 83.1456 57.3349 85.7609 54.5295 87.3118C51.578 88.9434 48.4237 89.6971 47.6755 91.5412C47.2688 92.5436 47.7572 92.9134 48.0861 93.1032C48.415 93.2929 47.9816 93.6863 48.1972 94.1358C48.5009 94.7688 48.82 94.7343 49.1645 95.046C49.4174 95.2749 48.9661 95.5479 49.4546 95.9178C49.7738 96.278 50.7681 96.5667 51.11 96.6734C53.1589 97.3125 57.0241 97.2046 64.2311 95.9037Z" fill="url(#paint2_linear_1257_19887)"/>
<path d="M63.1346 61.3692C64.1617 61.7045 64.9406 64.158 65.5055 66.3238C65.7396 67.2215 64.687 67.9599 63.8905 67.4842C61.1807 65.866 59.9876 65.6314 58.6196 64.9333C58.0473 64.6414 57.9892 63.881 58.5057 63.499C60.1434 62.2876 62.4251 61.1375 63.1346 61.3692Z" fill="#FF7171" stroke="#E0E0E0" stroke-width="3.06669" stroke-linecap="round"/>
<path d="M53.5727 57.5853L53.7288 57.7835C54.0309 58.167 54.1792 58.6493 54.1448 59.1362C54.0891 59.9238 53.5668 60.6013 52.8193 60.8555L52.4771 60.972C51.9636 61.1466 51.4073 61.1501 50.8917 60.9817L50.2601 60.7755L49.6004 60.5601C48.9698 60.3542 48.7006 59.6105 49.0533 59.0486C49.2919 58.6685 49.2539 58.1771 48.9597 57.8381L47.6792 56.3627C47.5894 56.2592 47.5126 56.1451 47.4506 56.0229L47.4099 55.9428C47.1076 55.3474 47.2202 54.6255 47.6894 54.1504C48.4221 53.5733 49.4995 53.8108 49.9218 54.6424L50.066 54.9264C50.4759 55.7338 51.1898 56.3453 52.0506 56.6263L52.3301 56.7176C52.8208 56.8778 53.2532 57.1797 53.5727 57.5853Z" fill="#5FB2FF"/>
<path d="M51.5 41C53 42 59 44 63.5 41" stroke="#E0E0E0" stroke-width="3" stroke-linecap="round"/>
<defs>
<linearGradient id="paint0_linear_1257_19887" x1="55.6718" y1="7.85041" x2="63.1551" y2="110.222" gradientUnits="userSpaceOnUse">
<stop stop-color="#AFAFAF"/>
<stop offset="1" stop-color="#F3F3F3"/>
</linearGradient>
<linearGradient id="paint1_linear_1257_19887" x1="33.5522" y1="75.1586" x2="47.8055" y2="95.4747" gradientUnits="userSpaceOnUse">
<stop stop-color="#D9D9D9"/>
<stop offset="1" stop-color="white"/>
</linearGradient>
<linearGradient id="paint2_linear_1257_19887" x1="50" y1="79.4998" x2="44.9753" y2="95.471" gradientUnits="userSpaceOnUse">
<stop stop-color="#E1E1E1"/>
<stop offset="1" stop-color="white"/>
</linearGradient>
</defs>
</svg>
