<svg width="120" height="120" viewBox="0 0 120 120" fill="none" xmlns="http://www.w3.org/2000/svg">
<path d="M7.78906 65.9033C8.54175 65.9033 8.98379 65.4209 9.71862 65.4209" stroke="#B6B6B6" stroke-width="2.47423" stroke-linecap="round"/>
<path fill-rule="evenodd" clip-rule="evenodd" d="M6.55277 58.9561C6.91242 63.8761 8.56026 68.3852 11.1308 72.1584C10.8569 74.0614 10.7825 76.0259 10.9287 78.0266C11.8454 90.5668 21.1306 100.437 32.7318 102.257C41.4021 108.104 52.0241 111.193 63.263 110.372C77.284 109.347 89.4698 102.44 97.5821 92.2419C107.34 87.9386 113.818 77.6172 112.976 66.0928C112.633 61.4042 111.121 57.0889 108.755 53.428C109.258 50.8704 109.432 48.2061 109.233 45.4841C108.2 31.3588 97.4658 20.2316 83.9331 17.9921C77.8506 11.1185 68.6832 7.05694 58.747 7.78327C51.5037 8.31275 45.0346 11.3001 40.1161 15.8577C38.5038 15.4901 36.8073 15.3524 35.0675 15.4796C25.8493 16.1534 18.9105 24.0065 19.5694 33.0199C19.5924 33.3346 19.6244 33.6465 19.665 33.9555C11.1968 38.7729 5.77788 48.3555 6.55277 58.9561Z" fill="#F3F3F3"/>
<ellipse cx="48.5493" cy="56.7766" rx="9.54925" ry="9.77661" fill="white"/>
<ellipse cx="68.5649" cy="58.1409" rx="9.54925" ry="9.77661" fill="white"/>
<circle cx="49.9114" cy="53.9114" r="5.91144" fill="#444444"/>
<circle cx="67.9114" cy="54.9114" r="5.91144" fill="#444444"/>
<path d="M36.8591 13.9238C36.8591 14.5394 36.609 15.4426 36.8948 16.0142C37.002 16.2287 37.5076 16.9012 37.663 16.979" stroke="#B6B6B6" stroke-width="2.47423" stroke-linecap="round"/>
<path d="M84.5235 18.7815C84.2337 18.7453 85.6491 17.4761 85.6491 17.1736" stroke="#B6B6B6" stroke-width="2.47423" stroke-linecap="round"/>
<path d="M22.7056 33.2195C22.3473 33.2195 23.4131 33.4063 23.7061 33.6125C24.0216 33.8346 24.6312 34.1764 24.796 34.5059" stroke="#B6B6B6" stroke-width="2.47423" stroke-linecap="round"/>
<path d="M90.7266 80.8157C91.3279 80.8157 91.4843 81.4127 91.8521 81.7805" stroke="#B6B6B6" stroke-width="2.47423" stroke-linecap="round"/>
<path d="M38.5162 67.4783C39.5323 66.5386 41.3986 67.7674 42.0952 68.0119C41.2272 64.7415 42.7648 64.1351 43.2304 64.2684C46.1593 65.1069 44.7142 69.2798 45.3089 71.6969C45.3403 71.8244 45.4204 71.9041 45.3174 71.9855C45.2352 72.0504 45.0308 71.9763 44.9269 71.9628C44.216 71.8704 43.8809 71.8926 43.3078 71.8702C42.4627 71.8371 41.271 71.8227 40.4393 71.6426C39.5896 71.4586 38.8445 71.1902 38.0995 70.7443C36.7622 69.9438 37.7007 68.2324 38.5162 67.4783Z" fill="#FF7171"/>
<path d="M87.084 50.1855C88.1273 51.0949 87.1058 53.0823 86.9375 53.8011C90.0958 52.5872 90.8637 54.0508 90.7812 54.5281C90.2617 57.5301 85.9579 56.541 83.6186 57.3916C83.4952 57.4365 83.4245 57.5247 83.3326 57.431C83.2592 57.3563 83.3109 57.1451 83.3132 57.0404C83.3288 56.3237 83.2708 55.9928 83.2316 55.4207C83.1737 54.5769 83.0603 53.3906 83.1501 52.5443C83.2418 51.6798 83.4288 50.9102 83.7922 50.1216C84.4445 48.7062 86.2467 49.4556 87.084 50.1855Z" fill="#FF7171"/>
<path d="M55.6227 64.7759L57.1136 64.9889C57.3791 65.0268 57.6489 65.0228 57.9131 64.977L58.3196 64.9065C60.2365 64.5743 61.7071 66.5772 60.8162 68.3066C60.6819 68.5674 60.5 68.8008 60.28 68.9948L59.7815 69.4344C58.2395 70.7941 55.9138 70.7491 54.4256 69.3307L53.7333 68.6709C53.1559 68.1207 52.9093 67.308 53.0833 66.5297C53.3423 65.3719 54.4482 64.6081 55.6227 64.7759Z" fill="#FF7171" stroke="#E0E0E0" stroke-width="3.06669" stroke-linecap="round"/>
<path d="M63.7064 68.9162C59.1886 69.7559 58.7549 77.1624 58.0232 79.5017C51.0412 70.7004 46.3754 73.5893 45.806 75.0932C42.2246 84.5535 56.1999 88.9891 61.4531 95.3696C61.7302 95.7061 61.7834 96.0776 62.2044 95.9649C62.5404 95.875 62.749 95.1839 62.9192 94.8807C64.0841 92.805 64.8084 91.957 65.8861 90.3872C67.4755 88.0722 69.8022 84.8715 70.9736 82.3004C72.1704 79.6735 72.9348 77.1574 73.2266 74.2894C73.7503 69.1414 67.3324 68.2424 63.7064 68.9162Z" fill="#FF7171"/>
<path d="M75.8753 87.762C83.1887 88.3773 87.0368 88.3935 88.8072 87.5399L81.1301 74.5694C79.8604 74.989 71.8476 76.1769 68.7358 76.9466C65.462 77.7564 62.2202 77.6658 61.019 79.2524C60.3661 80.1149 60.7419 80.5989 61.0102 80.8675C61.2786 81.1361 60.758 81.4035 60.8496 81.8936C60.9786 82.5837 61.2956 82.6332 61.5475 83.0237C61.7323 83.3103 61.2256 83.4569 61.6014 83.9408C61.8162 84.3716 62.7015 84.9084 63.0039 85.1001C64.8168 86.249 68.5775 87.148 75.8753 87.762Z" fill="url(#paint0_linear_953_6819)"/>
<path d="M39.3338 86.2508C32.556 83.4355 29.1311 81.6811 27.9511 80.1092L40.7311 72.1191C41.666 73.0753 48.236 77.8135 50.6457 79.9275C53.181 82.1515 56.1016 83.5611 56.439 85.5224C56.6225 86.5885 56.0663 86.8456 55.7045 86.9608C55.3427 87.076 55.6821 87.5528 55.3755 87.9459C54.9437 88.4995 54.6394 88.3977 54.2363 88.6287C53.9403 88.7983 54.3229 89.1613 53.7668 89.4184C53.378 89.7022 52.345 89.7721 51.9883 89.8033C49.8502 89.9903 46.0971 89.06 39.3338 86.2508Z" fill="url(#paint1_linear_953_6819)"/>
<defs>
<linearGradient id="paint0_linear_953_6819" x1="82.1033" y1="79.3865" x2="57.453" y2="82.2612" gradientUnits="userSpaceOnUse">
<stop stop-color="#F3F3F3"/>
<stop offset="1" stop-color="#C5C5C5"/>
</linearGradient>
<linearGradient id="paint1_linear_953_6819" x1="37.6526" y1="75.9498" x2="58.2229" y2="89.8336" gradientUnits="userSpaceOnUse">
<stop stop-color="#F3F3F3"/>
<stop offset="1" stop-color="#C5C5C5"/>
</linearGradient>
</defs>
</svg>
