<svg width="120" height="120" viewBox="0 0 120 120" fill="none" xmlns="http://www.w3.org/2000/svg">
<path d="M7.78906 65.9033C8.54175 65.9033 8.98379 65.4209 9.71862 65.4209" stroke="#B6B6B6" stroke-width="2.47423" stroke-linecap="round"/>
<path fill-rule="evenodd" clip-rule="evenodd" d="M6.55277 58.9561C6.91242 63.8761 8.56026 68.3852 11.1308 72.1584C10.8569 74.0614 10.7825 76.0259 10.9287 78.0266C11.8454 90.5668 21.1306 100.437 32.7318 102.257C41.4021 108.104 52.0241 111.193 63.263 110.372C77.284 109.347 89.4698 102.44 97.5821 92.2419C107.34 87.9386 113.818 77.6172 112.976 66.0928C112.633 61.4042 111.121 57.0889 108.755 53.428C109.258 50.8704 109.432 48.2061 109.233 45.4841C108.2 31.3588 97.4658 20.2316 83.9331 17.9921C77.8506 11.1185 68.6832 7.05694 58.747 7.78327C51.5037 8.31275 45.0346 11.3001 40.1161 15.8577C38.5038 15.4901 36.8073 15.3524 35.0675 15.4796C25.8493 16.1534 18.9105 24.0065 19.5694 33.0199C19.5924 33.3346 19.6244 33.6465 19.665 33.9555C11.1968 38.7729 5.77788 48.3555 6.55277 58.9561Z" fill="url(#paint0_linear_953_6782)"/>
<g clip-path="url(#clip0_953_6782)">
<ellipse cx="66.3383" cy="49.219" rx="9.54925" ry="9.77661" fill="white"/>
<path d="M72 49C72 49.7879 71.8448 50.5681 71.5433 51.2961C71.2417 52.0241 70.7998 52.6855 70.2426 53.2426C69.6855 53.7998 69.0241 54.2417 68.2961 54.5433C67.5681 54.8448 66.7879 55 66 55C65.2121 55 64.4319 54.8448 63.7039 54.5433C62.9759 54.2417 62.3145 53.7998 61.7574 53.2426C61.2002 52.6855 60.7583 52.0241 60.4567 51.2961C60.1552 50.5681 60 49.7879 60 49L66 49H72Z" fill="#444444"/>
</g>
<g clip-path="url(#clip1_953_6782)">
<ellipse cx="45.3383" cy="49.219" rx="9.54925" ry="9.77661" fill="white"/>
<path d="M52 49C52 49.7879 51.8448 50.5681 51.5433 51.2961C51.2417 52.0241 50.7998 52.6855 50.2426 53.2426C49.6855 53.7998 49.0241 54.2417 48.2961 54.5433C47.5681 54.8448 46.7879 55 46 55C45.2121 55 44.4319 54.8448 43.7039 54.5433C42.9759 54.2417 42.3145 53.7998 41.7574 53.2426C41.2002 52.6855 40.7583 52.0241 40.4567 51.2961C40.1552 50.5681 40 49.7879 40 49L46 49H52Z" fill="#444444"/>
</g>
<path d="M36.8591 13.9238C36.8591 14.5394 36.609 15.4426 36.8948 16.0142C37.002 16.2287 37.5076 16.9012 37.663 16.979" stroke="#B6B6B6" stroke-width="2.47423" stroke-linecap="round"/>
<path d="M84.5235 18.7815C84.2337 18.7453 85.6491 17.4761 85.6491 17.1736" stroke="#B6B6B6" stroke-width="2.47423" stroke-linecap="round"/>
<path d="M22.7056 33.2195C22.3473 33.2195 23.4131 33.4063 23.7061 33.6125C24.0216 33.8346 24.6312 34.1764 24.796 34.5059" stroke="#B6B6B6" stroke-width="2.47423" stroke-linecap="round"/>
<path d="M88 66C88.6014 66 88.7578 66.597 89.1256 66.9648" stroke="#B6B6B6" stroke-width="2.47423" stroke-linecap="round"/>
<path d="M92.2898 93.6484C92.6157 86.3164 92.4798 82.4707 91.5569 80.7354L78.8999 88.9189C79.3693 90.1712 80.8729 98.1307 81.765 101.21C82.7035 104.449 82.741 107.692 84.3739 108.829C85.2615 109.448 85.7303 109.053 85.9881 108.774C86.2458 108.496 86.5337 109.005 87.0197 108.894C87.7042 108.738 87.7411 108.419 88.1213 108.152C88.4004 107.956 88.5669 108.457 89.0356 108.062C89.4575 107.831 89.959 106.925 90.1386 106.615C91.215 104.758 91.9646 100.965 92.2898 93.6484Z" fill="url(#paint1_linear_953_6782)"/>
<path d="M17.6842 89.3172C17.5896 81.9786 17.8468 78.1391 18.8239 76.4337L31.2166 85.0124C30.7079 86.2491 28.954 94.1573 27.9653 97.2066C26.9251 100.415 26.7854 103.655 25.1174 104.74C24.2107 105.33 23.7547 104.921 23.5058 104.634C23.2569 104.348 22.9532 104.848 22.4709 104.722C21.7917 104.544 21.7648 104.224 21.3932 103.945C21.1205 103.741 20.9383 104.236 20.4822 103.826C20.0678 103.582 19.5952 102.66 19.4254 102.345C18.4081 100.455 17.7785 96.6402 17.6842 89.3172Z" fill="url(#paint2_linear_953_6782)"/>
<path d="M16.8404 47.5666L15.3678 34.6502L19.2615 41.6388L26.7866 39.7357L26.8053 55.1791L23.829 43.673L16.8404 47.5666Z" fill="#FFDC84"/>
<path d="M93.7308 23.518L109.13 12.669L102.362 22.3476L108.54 30.2708L89.2488 41.1L102.126 29.3884L93.7308 23.518Z" fill="#FFDC84"/>
<path d="M55 49L48 46" stroke="#E0E0E0" stroke-width="3.06669" stroke-linecap="round"/>
<path d="M61.1406 66.4463C61.1406 65.461 60.0948 63.3996 55.9113 63.0358C51.7278 62.6721 50.2272 65.1579 49.9998 66.4463" stroke="#E7E7E7" stroke-width="3.06669" stroke-linecap="round"/>
<defs>
<linearGradient id="paint0_linear_953_6782" x1="55.7786" y1="8.00026" x2="63.2619" y2="110.372" gradientUnits="userSpaceOnUse">
<stop stop-color="#BDBDBD"/>
<stop offset="1" stop-color="#F3F3F3"/>
</linearGradient>
<linearGradient id="paint1_linear_953_6782" x1="83.6748" y1="87.7562" x2="87.5212" y2="112.274" gradientUnits="userSpaceOnUse">
<stop stop-color="#E6E6E6"/>
<stop offset="1" stop-color="#DCDCDC"/>
</linearGradient>
<linearGradient id="paint2_linear_953_6782" x1="26.4807" y1="83.6996" x2="21.863" y2="108.084" gradientUnits="userSpaceOnUse">
<stop stop-color="#E2E2E2"/>
<stop offset="1" stop-color="#E4E4E4"/>
</linearGradient>
<clipPath id="clip0_953_6782">
<rect width="24" height="10" fill="white" transform="translate(55 49)"/>
</clipPath>
<clipPath id="clip1_953_6782">
<rect width="24" height="10" fill="white" transform="translate(34 49)"/>
</clipPath>
</defs>
</svg>
