<svg width="16" height="16" viewBox="0 0 16 16" fill="none" xmlns="http://www.w3.org/2000/svg">
<path d="M9.77237 9.95826V2.28157C9.77237 1.82953 9.5928 1.396 9.27316 1.07636C8.95352 0.75672 8.51999 0.577148 8.06795 0.577148C7.61591 0.577148 7.18239 0.75672 6.86275 1.07636C6.54311 1.396 6.36353 1.82953 6.36353 2.28157V9.95826C5.81626 10.3239 5.4011 10.8559 5.17935 11.4756C4.95761 12.0953 4.94104 12.7699 5.1321 13.3997C5.32315 14.0296 5.7117 14.5813 6.24036 14.9734C6.76902 15.3655 7.40976 15.5771 8.06795 15.5771C8.72614 15.5771 9.36688 15.3655 9.89554 14.9734C10.4242 14.5813 10.8127 14.0296 11.0038 13.3997C11.1949 12.7699 11.1783 12.0953 10.9565 11.4756C10.7348 10.8559 10.3196 10.3239 9.77237 9.95826Z" fill="#FFA26D"/>
</svg>
