<svg width="112" height="116" viewBox="0 0 112 116" fill="none" xmlns="http://www.w3.org/2000/svg">
<g id="Frame 1321316647">
<g id="Group 1321316643">
<path id="Union" fill-rule="evenodd" clip-rule="evenodd" d="M6.30465 61.9019C6.65105 66.6407 8.2382 70.9836 10.714 74.6176C10.4503 76.4504 10.3786 78.3423 10.5195 80.2691C11.4023 92.3461 20.344 101.852 31.5164 103.606C39.8671 109.238 50.0978 112.213 60.9227 111.422C74.4254 110.435 86.161 103.783 93.9741 93.9631C103.376 89.8201 109.618 79.8775 108.806 68.7758C108.476 64.2591 107.019 60.1021 104.739 56.5756C105.224 54.113 105.391 51.5478 105.199 48.927C104.205 35.3228 93.8663 24.6062 80.833 22.449C74.9748 15.8289 66.1455 11.9172 56.5758 12.6167C49.5999 13.1267 43.3695 16.0037 38.6325 20.3928C37.0804 20.0392 35.447 19.9068 33.7722 20.0292C24.8939 20.6782 18.2111 28.2416 18.8457 36.9226C18.8678 37.2248 18.8984 37.5243 18.9374 37.821C10.7791 42.46 5.55821 51.6906 6.30465 61.9019Z" fill="#F3F3F3"/>
<path id="Vector 210" d="M16.1418 57.2192C10.2544 48.5021 1.05664 27.4546 11.3642 13.0021M92.4478 62.8417C103.893 63.9493 113.492 49.9199 94.2938 46.5971" stroke="#E4E4E4" stroke-width="7.38397" stroke-linecap="round"/>
<circle id="Ellipse 6066" cx="88.0536" cy="46.2112" r="7.32336" transform="rotate(7.31791 88.0536 46.2112)" fill="#E4E4E4"/>
<circle id="Ellipse 6065" cx="14.7838" cy="8.91805" r="7.32336" transform="rotate(-15.4581 14.7838 8.91805)" fill="#E4E4E4"/>
<g id="Group 1321316651">
<path id="Rectangle 17717" d="M43.5609 41.6949C43.9759 40.5334 45.184 39.8442 46.3927 40.0794C47.6013 40.3146 48.4409 41.4023 48.3606 42.6289L48.1922 45.202C48.1731 45.4931 48.1282 45.7823 48.058 46.066L47.8161 47.0433C47.4697 48.4427 45.9766 49.2407 44.6252 48.7488C44.4826 48.6969 44.3454 48.6316 44.2155 48.5538L41.9877 47.2193L42.5423 44.5456L43.4135 42.1074L43.5609 41.6949Z" fill="#121212"/>
<path id="Rectangle 17718" d="M66.5659 44.7501C66.4865 43.5192 65.5147 42.5242 64.288 42.4177C63.0613 42.3112 61.9548 43.1259 61.6944 44.3272L61.1979 46.6183C61.1034 47.0545 61.07 47.5025 61.0989 47.9494L61.1773 49.1657C61.2809 50.7725 62.9304 51.8194 64.413 51.2193L66.5581 50.4941L66.7607 47.771L66.5941 45.1872L66.5659 44.7501Z" fill="#121212"/>
</g>
<path id="Vector 211" d="M58.9781 54.9407L48.5211 53.3416C47.8491 53.2388 47.2132 53.6767 47.0694 54.3412L46.885 55.1932C46.3387 57.7185 47.3622 60.3249 49.4809 61.8036C51.0953 62.9304 53.138 63.2526 55.0208 62.6775L55.1903 62.6257C57.9335 61.7878 59.8514 59.3128 59.9779 56.4473L59.99 56.1731C60.0169 55.5642 59.5806 55.0328 58.9781 54.9407Z" fill="#FF7171" stroke="#ECECEC" stroke-width="2.95359" stroke-linecap="round"/>
<path id="Vector 213" d="M26.0674 7.36766C22.6172 7.8443 22.4001 8.52331 20.2598 9.18794C20.025 9.26086 18.734 9.20034 18.6267 9.35824C18.5474 9.47511 20.1002 10.41 20.2092 10.4954C21.3369 11.379 20.4788 11.3215 21.6112 12.1995C21.8193 12.3608 24.1476 13.4206 23.9471 13.468" stroke="#E4E4E4" stroke-width="5.16878" stroke-linecap="round"/>
<path id="Vector 214" d="M78.6938 47.7521C82.1404 47.2496 82.3523 46.569 84.4876 45.8884C84.7219 45.8137 86.0133 45.8646 86.1194 45.7059C86.1979 45.5884 84.6381 44.6652 84.5285 44.5806C83.3942 43.7055 84.2527 43.7566 83.1138 42.887C82.9045 42.7273 80.5682 41.6849 80.7684 41.636" stroke="#E4E4E4" stroke-width="5.16878" stroke-linecap="round"/>
</g>
<path id="Vector 215" d="M35.496 18.5303C35.496 19.1231 35.2551 19.9931 35.5304 20.5435C35.6337 20.7501 36.1206 21.3979 36.2703 21.4727" stroke="#B6B6B6" stroke-width="2.38298" stroke-linecap="round"/>
<path id="Vector 216" d="M81.4049 23.2088C81.1258 23.1739 82.4889 21.9515 82.4889 21.6602" stroke="#B6B6B6" stroke-width="2.38298" stroke-linecap="round"/>
<path id="Vector 217" d="M21.867 37.1143C21.5219 37.1143 22.5484 37.2942 22.8306 37.4928C23.1345 37.7067 23.7216 38.0359 23.8802 38.3532" stroke="#B6B6B6" stroke-width="2.38298" stroke-linecap="round"/>
<path id="Vector 218" d="M87.375 82.9551C87.9542 82.9551 88.1048 83.53 88.4591 83.8843" stroke="#B6B6B6" stroke-width="2.38298" stroke-linecap="round"/>
<path id="Vector 219" d="M7.49609 68.5925C8.22102 68.5925 8.64676 68.1279 9.35449 68.1279" stroke="#B6B6B6" stroke-width="2.38298" stroke-linecap="round"/>
</g>
</svg>
