<svg width="120" height="120" viewBox="0 0 120 120" fill="none" xmlns="http://www.w3.org/2000/svg">
<path d="M7.78906 65.9033C8.54175 65.9033 8.98379 65.4209 9.71862 65.4209" stroke="#B6B6B6" stroke-width="2.47423" stroke-linecap="round"/>
<path fill-rule="evenodd" clip-rule="evenodd" d="M6.55274 58.9564C6.91235 63.8759 8.55988 68.3846 11.1299 72.1575C10.8559 74.0608 10.7815 76.0256 10.9277 78.0267C11.8444 90.5673 21.1301 100.438 32.7318 102.257C41.4021 108.104 52.0241 111.194 63.2631 110.372C77.2825 109.347 89.4671 102.442 97.5794 92.2457C107.342 87.9444 113.824 77.6207 112.981 66.0932C112.638 61.4015 111.124 57.0836 108.755 53.4211C109.257 50.8657 109.431 48.204 109.232 45.4845C108.199 31.3624 97.4695 20.237 83.9411 17.994C77.8586 11.1194 68.6905 7.05714 58.7535 7.78353C51.5096 8.31306 45.04 11.3009 40.1213 15.859C38.5079 15.4908 36.81 15.3528 35.0688 15.4801C25.8505 16.1539 18.9118 24.007 19.5707 33.0204C19.5937 33.3348 19.6256 33.6464 19.6662 33.9552C11.1973 38.7723 5.77781 48.3554 6.55274 58.9564Z" fill="url(#paint0_linear_1257_19857)"/>
<path d="M36.8591 13.9238C36.8591 14.5394 36.609 15.4426 36.8948 16.0142C37.002 16.2287 37.5076 16.9012 37.663 16.979" stroke="#B6B6B6" stroke-width="2.47423" stroke-linecap="round"/>
<circle cx="59.5" cy="46.5" r="13.5" fill="#BBBBBB"/>
<path d="M84.5235 18.7818C84.2337 18.7456 85.6491 17.4763 85.6491 17.1738" stroke="#B6B6B6" stroke-width="2.47423" stroke-linecap="round"/>
<path d="M100.039 43.5126C99.7822 43.3738 101.562 42.7044 101.671 42.4225" stroke="#B6B6B6" stroke-width="2.47423" stroke-linecap="round"/>
<path d="M22.7056 33.2197C22.3473 33.2197 23.4131 33.4066 23.7061 33.6128C24.0216 33.8348 24.6312 34.1766 24.796 34.5061" stroke="#B6B6B6" stroke-width="2.47423" stroke-linecap="round"/>
<path d="M88 66C88.6014 66 88.7578 66.597 89.1256 66.9648" stroke="#B6B6B6" stroke-width="2.47423" stroke-linecap="round"/>
<path d="M56.4398 55.9266L56.5398 55.8738C57.6506 55.2881 58.9689 55.2454 60.1153 55.758C61.6197 56.4308 62.573 57.9412 62.533 59.5887L62.5016 60.8828C62.5011 60.9042 62.4929 60.9247 62.4784 60.9405L62.238 61.2028C60.1142 63.5199 56.4667 63.5367 54.3217 61.2393C54.31 61.2269 54.3025 61.2112 54.3001 61.1943L54.18 60.3707C53.9162 58.5602 54.8215 56.7799 56.4398 55.9266Z" fill="#FF7171" stroke="#E0E0E0" stroke-width="3.06669" stroke-linecap="round"/>
<ellipse cx="49.5493" cy="46.7766" rx="9.54925" ry="9.77661" fill="white"/>
<ellipse cx="69.5649" cy="48.1409" rx="9.54925" ry="9.77661" fill="white"/>
<circle cx="49.9114" cy="46.9114" r="5.91144" fill="#444444"/>
<circle cx="68.9114" cy="47.9114" r="5.91144" fill="#444444"/>
<path d="M75.7215 66.954C81.0464 72.0047 83.6185 74.8668 84.1592 76.7565L69.3681 79.6541C68.8365 78.4269 64.3927 71.6544 62.8971 68.8191C61.3236 65.8361 59.0992 63.4762 59.4847 61.5238C59.6942 60.4625 60.3055 60.4211 60.6846 60.4428C61.0637 60.4644 60.917 59.8978 61.3437 59.6402C61.9448 59.2774 62.1927 59.4811 62.6518 59.4094C62.9887 59.3567 62.7611 58.8809 63.3724 58.8395C63.8368 58.7132 64.8266 59.017 65.171 59.1153C67.2348 59.7044 70.4079 61.9141 75.7215 66.954Z" fill="url(#paint1_linear_1257_19857)"/>
<path d="M42.8628 69.1764C39.0265 75.4331 37.2828 78.8635 37.2497 80.8287L54.8577 76C55.0535 74.6771 55.0221 70.7845 55.7329 67.6586C56.4807 64.3701 58.0185 61.5149 57.1409 59.7288C56.6638 58.7579 56.0626 58.8761 55.7021 58.9951C55.3415 59.1142 55.3366 58.5289 54.8577 58.3905C54.1832 58.1956 53.9964 58.4566 53.5345 58.5061C53.1954 58.5425 53.2921 58.024 52.6909 58.1421C52.2096 58.1404 51.3322 58.69 51.025 58.8741C49.1839 59.9773 46.6909 62.9329 42.8628 69.1764Z" fill="url(#paint2_linear_1257_19857)"/>
<path d="M19 13.7817C19.9665 16.622 20.9325 19.4608 21.8993 22.3019" stroke="#0FA215" stroke-width="4" stroke-linecap="round"/>
<path d="M27.1797 13.2168C28.0786 16.4269 28.9772 19.6353 29.8764 22.8463" stroke="#0FA215" stroke-width="4" stroke-linecap="round"/>
<path d="M30.2597 29.0458C29.9144 29.0779 29.2252 28.7363 29.7881 29.2166C30.1748 29.5466 30.4896 29.5204 30.7501 29.1245C31.0336 28.6938 30.6427 28.231 30.1848 28.3255C29.6965 28.4262 29.6725 29.0522 29.7534 29.4445" stroke="#0FA215" stroke-width="4" stroke-linecap="round"/>
<path d="M23.567 28.2506C23.2283 28.3254 22.502 28.0722 23.1202 28.4788C23.545 28.7581 23.854 28.693 24.0633 28.2678C24.291 27.8052 23.8457 27.3946 23.403 27.5452C22.9311 27.7058 22.985 28.33 23.1141 28.7092" stroke="#0FA215" stroke-width="4" stroke-linecap="round"/>
<defs>
<linearGradient id="paint0_linear_1257_19857" x1="55.7812" y1="8.0008" x2="63.2644" y2="110.372" gradientUnits="userSpaceOnUse">
<stop stop-color="#BDBDBD"/>
<stop offset="1" stop-color="#F3F3F3"/>
</linearGradient>
<linearGradient id="paint1_linear_1257_19857" x1="73.6119" y1="77.1758" x2="59.3586" y2="56.8598" gradientUnits="userSpaceOnUse">
<stop stop-color="#E4E4E4"/>
<stop offset="1" stop-color="white"/>
</linearGradient>
<linearGradient id="paint2_linear_1257_19857" x1="56.5" y1="72" x2="56.0202" y2="55.1418" gradientUnits="userSpaceOnUse">
<stop stop-color="#E2E2E2"/>
<stop offset="1" stop-color="white"/>
</linearGradient>
</defs>
</svg>
