<svg width="304" height="235" viewBox="0 0 304 235" fill="none" xmlns="http://www.w3.org/2000/svg">
<ellipse cx="147" cy="207.5" rx="123" ry="10.5" fill="#879CBD" fill-opacity="0.52"/>
<path d="M95.0312 142.283C96.277 142.283 97.0086 141.484 98.2249 141.484" stroke="#B6B6B6" stroke-width="4.09508" stroke-linecap="round"/>
<path fill-rule="evenodd" clip-rule="evenodd" d="M88.8084 106.01C89.4039 114.157 92.1336 121.623 96.3916 127.87C95.9392 131.017 95.8165 134.265 96.0584 137.574C97.5757 158.331 112.947 174.669 132.151 177.678C146.501 187.356 164.081 192.469 182.682 191.109C205.891 189.412 226.062 177.978 239.488 161.097C255.633 153.972 266.35 136.892 264.956 117.822C264.389 110.068 261.889 102.93 257.978 96.874C258.813 92.6365 259.102 88.222 258.772 83.7118C257.063 60.3287 239.29 41.9096 216.886 38.2077C206.819 26.8335 191.648 20.1128 175.204 21.3148C163.217 22.1911 152.511 27.1347 144.37 34.6766C141.704 34.0693 138.898 33.8421 136.021 34.0524C120.764 35.1676 109.28 48.1652 110.37 63.0832C110.408 63.6006 110.46 64.1136 110.527 64.6217C96.5018 72.5918 87.5254 88.4576 88.8084 106.01Z" fill="#2A7CFF"/>
<ellipse cx="150.805" cy="112.235" rx="15.8049" ry="16.1812" fill="white"/>
<ellipse cx="190.039" cy="114.868" rx="15.8049" ry="16.1812" fill="white"/>
<circle cx="150.807" cy="111.947" r="9.784" fill="#444444"/>
<circle cx="190.245" cy="114.56" r="9.784" fill="#444444"/>
<path d="M139.019 31.478C139.019 32.4968 138.605 33.9918 139.078 34.9378C139.256 35.2928 140.093 36.4059 140.35 36.5346" stroke="white" stroke-width="4.09508" stroke-linecap="round"/>
<path d="M217.893 39.5178C217.413 39.4578 219.756 37.3571 219.756 36.8564" stroke="white" stroke-width="4.09508" stroke-linecap="round"/>
<path d="M115.581 63.4146C114.988 63.4146 116.752 63.7238 117.237 64.0651C117.76 64.4326 118.768 64.9983 119.041 65.5436" stroke="white" stroke-width="4.09508" stroke-linecap="round"/>
<path d="M240 138C240.995 138 241.254 138.988 241.863 139.597" stroke="white" stroke-width="4.09508" stroke-linecap="round"/>
<path d="M175.081 131.796L163.958 130.796C163.243 130.732 162.602 131.235 162.494 131.944L162.355 132.854C161.945 135.551 163.194 138.23 165.523 139.649C167.298 140.731 169.472 140.936 171.418 140.207L171.593 140.142C174.429 139.079 176.287 136.346 176.233 133.318L176.228 133.028C176.216 132.385 175.722 131.854 175.081 131.796Z" fill="#FF7171" stroke="#2770E4" stroke-width="5.07566" stroke-linecap="round"/>
<path d="M242.257 121.794C237.047 130.84 233.862 135.35 231.156 136.725L218.853 117.21C220.517 116.068 228.91 107.671 232.614 104.66C236.511 101.493 239.083 97.6316 242.372 97.5178C244.16 97.456 244.545 98.2885 244.709 98.8204C244.872 99.3523 245.692 98.9614 246.322 99.4668C247.21 100.179 247.017 100.589 247.37 101.201C247.629 101.65 248.263 101.177 248.647 102.009C249.089 102.611 249.125 104.081 249.15 104.591C249.295 107.643 247.456 112.768 242.257 121.794Z" fill="url(#paint0_linear_953_7532)"/>
<path d="M101.299 144.822C111.811 144.213 117.28 143.455 119.622 141.884L106.087 125.018C104.369 125.871 93.2287 129.184 88.9649 130.908C84.4791 132.722 79.8563 133.251 78.4719 135.748C77.7194 137.105 78.3513 137.717 78.7869 138.044C79.2226 138.371 78.5373 138.856 78.7668 139.534C79.09 140.488 79.5504 140.494 79.9873 140.997C80.308 141.367 79.618 141.678 80.2499 142.289C80.6423 142.857 82.0086 143.44 82.4771 143.651C85.285 144.916 90.8089 145.43 101.299 144.822Z" fill="#2A7CFF"/>
<rect x="93.7812" y="190.594" width="4.38294" height="78.8929" rx="2.19147" transform="rotate(176.652 93.7812 190.594)" fill="#E79C6E"/>
<path d="M72.626 180.635L106.542 178.553L110.921 205.519L70.9006 207.976L72.626 180.635Z" fill="#757575"/>
<rect x="70.0938" y="178.072" width="39.4164" height="10.8735" rx="1.89904" transform="rotate(-3.51414 70.0938 178.072)" fill="#E79C6E"/>
<rect x="77.3281" y="196.012" width="1.35919" height="11.5531" transform="rotate(-3.51414 77.3281 196.012)" fill="#A4A4A4"/>
<rect x="83.4219" y="195.636" width="1.35919" height="11.5531" transform="rotate(-3.51414 83.4219 195.636)" fill="#A4A4A4"/>
<rect x="89.5156" y="195.258" width="1.35919" height="11.5531" transform="rotate(-3.51414 89.5156 195.258)" fill="#A4A4A4"/>
<rect x="95.6172" y="194.884" width="1.35919" height="11.5531" transform="rotate(-3.51414 95.6172 194.884)" fill="#A4A4A4"/>
<rect x="101.727" y="194.51" width="1.35919" height="11.5531" transform="rotate(-3.51414 101.727 194.51)" fill="#A4A4A4"/>
<path d="M11.7943 124.102C11.7943 122.263 10.9069 120.487 10.6515 118.668C11.9159 120.381 12.955 122.92 15.0771 123.325C16.2882 123.556 17.715 123.339 18.952 123.339C20.3841 123.339 21.4999 121.88 22.8133 121.574C24.0091 121.295 21.8025 122.664 21.6159 122.972C20.8741 124.195 20.7548 125.363 20.7548 126.785C20.7548 128.901 21.109 130.287 21.8312 132.237C21.9884 132.661 22.1275 133.031 22.2875 133.379C22.829 134.054 23.3015 134.74 23.661 135.4C24.0717 136.155 23.3457 134.979 23.1766 134.779C22.7712 134.3 22.5093 133.861 22.2875 133.379C20.9841 131.754 19.2812 130.189 17.7949 129.186C16.4472 128.277 13.7787 127.937 12.2787 128.678C11.2722 129.175 10.3626 129.753 9.386 130.33C8.67473 130.75 8.13261 131.56 7.43514 131.926C6.17494 132.587 8.01981 130.239 8.35003 129.892C9.09995 129.105 10.0329 128.143 10.5296 127.152C11.133 125.949 11.7943 125.52 11.7943 124.102Z" fill="#FEDE7E"/>
<path d="M10.5834 117.746C10.5834 119.892 11.7943 121.954 11.7943 124.102C11.7943 125.52 11.133 125.949 10.5296 127.152C10.0329 128.143 9.09995 129.105 8.35003 129.892C8.01981 130.239 6.17494 132.587 7.43514 131.926C8.13261 131.56 8.67473 130.75 9.386 130.33C10.3626 129.753 11.2722 129.175 12.2787 128.678C13.7787 127.937 16.4472 128.277 17.7949 129.186C19.8987 130.606 22.4364 133.151 23.661 135.4C24.0717 136.155 23.3457 134.979 23.1766 134.779C22.4789 133.955 22.2064 133.25 21.8312 132.237C21.109 130.287 20.7548 128.901 20.7548 126.785C20.7548 125.363 20.8741 124.195 21.6159 122.972C21.8025 122.664 24.0091 121.295 22.8133 121.574C21.4999 121.88 20.3841 123.339 18.952 123.339C17.715 123.339 16.2882 123.556 15.0771 123.325C12.6556 122.863 11.6443 119.622 10.0991 118" stroke="#FFDF8C" stroke-width="3.35702" stroke-linecap="round"/>
<path opacity="0.6" d="M44.7669 67.6927C44.9577 67.331 45.2837 65.1071 45.5298 62.8638C45.8218 60.2028 46.7075 59.9532 46.6587 62.6297C46.6258 64.4323 46.894 65.3824 47.1702 67.2133C47.5045 69.4293 49.5293 72.3583 50.9572 74.014C51.9499 75.1652 52.8346 76.6251 54.295 77.1616C55.7514 77.6966 57.6996 76.7874 59.1537 76.504C59.8507 76.3682 60.585 76.0041 61.3013 76.1296C62.1255 76.274 62.6171 76.5019 61.4863 76.478C57.4419 76.3924 54.8859 79.3534 52.056 81.7939C49.2868 84.182 49.3305 88.7313 49.8376 92.0189C50.1993 94.3634 50.7101 101.396 49.9938 99.134C49.0983 96.307 48.5597 93.1513 47.8522 90.1985C47.2066 87.5043 44.6153 85.6504 42.773 83.7734C41.634 82.613 40.9123 81.6723 39.5155 80.8797C37.8856 79.9548 35.5948 80.027 33.5031 80.5298C32.6372 81.1439 31.7464 81.6617 30.8406 82.0116C30.3646 82.1954 29.3203 82.3796 28.9396 82.6196C28.8955 82.6508 28.8781 82.663 28.8968 82.649C28.9099 82.6391 28.9242 82.6293 28.9396 82.6196C29.1697 82.4567 30.1262 81.7765 30.4866 81.6011C31.3528 81.1796 32.4003 80.7948 33.5031 80.5298C35.6137 79.0329 37.5773 76.9634 39.2542 75.356C41.3064 73.389 43.4503 70.1885 44.7669 67.6927Z" fill="#FEDE7E" stroke="#FFDF8C" stroke-width="3.35702" stroke-linecap="round"/>
<defs>
<linearGradient id="paint0_linear_953_7532" x1="237.843" y1="96.2229" x2="222.063" y2="123.538" gradientUnits="userSpaceOnUse">
<stop stop-color="#9CC2FF"/>
<stop offset="1" stop-color="#2A7CFF"/>
</linearGradient>
</defs>
</svg>
