<svg width="95" height="92" viewBox="0 0 95 92" fill="none" xmlns="http://www.w3.org/2000/svg">
<g id="Union">
<mask id="path-1-inside-1_407_8108" fill="white">
<path fill-rule="evenodd" clip-rule="evenodd" d="M0.151581 45.6367C0.47037 49.9978 1.93103 53.9945 4.20952 57.3389C3.96678 59.0256 3.90086 60.7667 4.03049 62.54C4.84296 73.6547 13.0724 82.4031 23.3548 84.0164C31.0397 89.1992 40.4547 91.9375 50.4165 91.2093C62.844 90.3009 73.6449 84.1787 80.8352 75.1398C89.4852 71.326 95.2278 62.1772 94.4811 51.9619C94.1772 47.8044 92.8355 43.978 90.7368 40.7322C91.1824 38.4667 91.336 36.1069 91.1597 33.6959C90.2445 21.1757 80.7295 11.3129 68.7344 9.3283C63.3431 3.23629 55.2179 -0.363401 46.4113 0.280357C39.9915 0.74964 34.2578 3.39728 29.8984 7.43649C28.4704 7.11123 26.9677 6.98952 25.4269 7.10216C17.2564 7.69942 11.1062 14.6599 11.6902 22.6489C11.7106 22.9274 11.7388 23.2034 11.7748 23.4768C4.2683 27.7465 -0.53528 36.2404 0.151581 45.6367Z"/>
</mask>
<path fill-rule="evenodd" clip-rule="evenodd" d="M0.151581 45.6367C0.47037 49.9978 1.93103 53.9945 4.20952 57.3389C3.96678 59.0256 3.90086 60.7667 4.03049 62.54C4.84296 73.6547 13.0724 82.4031 23.3548 84.0164C31.0397 89.1992 40.4547 91.9375 50.4165 91.2093C62.844 90.3009 73.6449 84.1787 80.8352 75.1398C89.4852 71.326 95.2278 62.1772 94.4811 51.9619C94.1772 47.8044 92.8355 43.978 90.7368 40.7322C91.1824 38.4667 91.336 36.1069 91.1597 33.6959C90.2445 21.1757 80.7295 11.3129 68.7344 9.3283C63.3431 3.23629 55.2179 -0.363401 46.4113 0.280357C39.9915 0.74964 34.2578 3.39728 29.8984 7.43649C28.4704 7.11123 26.9677 6.98952 25.4269 7.10216C17.2564 7.69942 11.1062 14.6599 11.6902 22.6489C11.7106 22.9274 11.7388 23.2034 11.7748 23.4768C4.2683 27.7465 -0.53528 36.2404 0.151581 45.6367Z" fill="white" fill-opacity="0.68"/>
<path d="M4.20952 57.3389L4.75219 57.417L4.78252 57.2062L4.66262 57.0302L4.20952 57.3389ZM23.3548 84.0164L23.6613 83.5618L23.5602 83.4937L23.4398 83.4748L23.3548 84.0164ZM80.8352 75.1398L80.614 74.6381L80.4903 74.6927L80.4061 74.7985L80.8352 75.1398ZM90.7368 40.7322L90.1988 40.6264L90.1561 40.8438L90.2764 41.0299L90.7368 40.7322ZM68.7344 9.3283L68.3238 9.69164L68.4528 9.83742L68.6449 9.8692L68.7344 9.3283ZM29.8984 7.43649L29.7766 7.97106L30.0588 8.03532L30.271 7.83865L29.8984 7.43649ZM11.7748 23.4768L12.0459 23.9534L12.3665 23.7711L12.3184 23.4054L11.7748 23.4768ZM4.66262 57.0302C4.09165 56.1921 3.57325 55.3121 3.11275 54.3948L2.1328 54.8868C2.61517 55.8476 3.15824 56.7696 3.75643 57.6476L4.66262 57.0302ZM1.11677 48.6278C0.914864 47.6412 0.773878 46.6296 0.698378 45.5967L-0.395216 45.6767C-0.316272 46.7566 -0.168809 47.815 0.0425275 48.8476L1.11677 48.6278ZM0.698378 45.5967C0.64556 44.8742 0.625959 44.1572 0.638223 43.4475L-0.458125 43.4285C-0.470959 44.1712 -0.450442 44.9212 -0.395216 45.6767L0.698378 45.5967ZM1.10482 39.181C1.39424 37.7616 1.81287 36.388 2.3483 35.0746L1.33292 34.6607C0.772014 36.0365 0.333534 37.4754 0.030415 38.9619L1.10482 39.181ZM4.33155 31.2701C5.11224 30.0632 6.00274 28.9359 6.98955 27.9041L6.19712 27.1462C5.16234 28.2281 4.22894 29.4099 3.41086 30.6746L4.33155 31.2701ZM10.2356 25.1041C10.8189 24.692 11.4229 24.3078 12.0459 23.9534L11.5037 23.0003C10.8494 23.3725 10.2152 23.776 9.60283 24.2086L10.2356 25.1041ZM12.3184 23.4054C12.3097 23.3393 12.3015 23.2731 12.2937 23.2068L11.2046 23.3339C11.213 23.4056 11.2218 23.477 11.2312 23.5483L12.3184 23.4054ZM12.253 22.8085C12.2472 22.7421 12.2419 22.6756 12.237 22.609L11.1434 22.6889C11.1487 22.7608 11.1544 22.8326 11.1607 22.9042L12.253 22.8085ZM12.237 22.609C12.1915 21.9859 12.1885 21.3695 12.2257 20.7627L11.1312 20.6956C11.0911 21.3513 11.0943 22.0167 11.1434 22.6889L12.237 22.609ZM12.9452 17.1534C13.3491 15.9829 13.9082 14.8774 14.6006 13.8623L13.6947 13.2444C12.9484 14.3387 12.3449 15.5315 11.9087 16.7957L12.9452 17.1534ZM17.0572 11.112C17.9829 10.3131 19.0167 9.62787 20.1369 9.08081L19.6557 8.09552C18.4501 8.68428 17.3374 9.42184 16.3408 10.2819L17.0572 11.112ZM23.6325 7.89896C24.23 7.77883 24.8422 7.69462 25.4669 7.64895L25.3869 6.55536C24.7164 6.60438 24.0587 6.69481 23.4164 6.82397L23.6325 7.89896ZM25.4669 7.64895C25.8307 7.62236 26.1922 7.60931 26.551 7.60937L26.5511 6.51286C26.1657 6.5128 25.7775 6.52681 25.3869 6.55536L25.4669 7.64895ZM28.7117 7.77023C29.071 7.82412 29.4262 7.89123 29.7766 7.97106L30.0201 6.90193C29.643 6.81602 29.2609 6.74382 28.8743 6.68585L28.7117 7.77023ZM30.271 7.83865C30.8195 7.33049 31.3901 6.8448 31.9815 6.38323L31.3069 5.51881C30.6911 5.99944 30.0969 6.50518 29.5258 7.03433L30.271 7.83865ZM35.7401 3.93113C37.0477 3.22802 38.424 2.62963 39.8583 2.14817L39.5094 1.10866C38.0158 1.61001 36.5825 2.23317 35.2208 2.96538L35.7401 3.93113ZM44.2187 1.08325C44.9523 0.968109 45.6969 0.882297 46.4512 0.827154L46.3713 -0.26644C45.5867 -0.209091 44.8121 -0.119825 44.0487 -7.54445e-06L44.2187 1.08325ZM46.4512 0.827154C47.1351 0.777165 47.8146 0.753282 48.4889 0.754638L48.4911 -0.341872C47.7895 -0.343283 47.0825 -0.318429 46.3713 -0.26644L46.4512 0.827154ZM52.5487 1.07185C53.9044 1.28277 55.2284 1.59627 56.5117 2.00455L56.8442 0.959652C55.5077 0.534457 54.1289 0.207998 52.7173 -0.0116278L52.5487 1.07185ZM60.2855 3.53338C61.5064 4.14092 62.6749 4.83973 63.781 5.62144L64.4138 4.72597C63.262 3.91198 62.0454 3.18432 60.774 2.5517L60.2855 3.53338ZM66.9158 8.21953C67.4038 8.6918 67.8735 9.18286 68.3238 9.69164L69.1449 8.96496C68.6759 8.43496 68.1866 7.92347 67.6784 7.43159L66.9158 8.21953ZM68.6449 9.8692C69.3679 9.98882 70.0817 10.1377 70.7849 10.3145L71.0523 9.25111C70.32 9.06694 69.5767 8.91196 68.8238 8.7874L68.6449 9.8692ZM74.9184 11.7253C76.261 12.3109 77.547 13.0044 78.7646 13.7953L79.3619 12.8757C78.0941 12.0522 76.7549 11.3301 75.3569 10.7202L74.9184 11.7253ZM82.2192 16.4679C83.2941 17.4513 84.2872 18.5229 85.1861 19.6723L86.0498 18.9968C85.1132 17.7993 84.0788 16.683 82.9593 15.6589L82.2192 16.4679ZM87.5781 23.3243C88.2658 24.5964 88.8507 25.9335 89.3212 27.3257L90.36 26.9747C89.8694 25.523 89.2596 24.1289 88.5426 22.8028L87.5781 23.3243ZM90.363 31.5647C90.4756 32.2783 90.5593 33.0024 90.6129 33.7359L91.7065 33.656C91.6507 32.892 91.5634 32.1375 91.4461 31.3938L90.363 31.5647ZM90.6129 33.7359C90.6553 34.3158 90.6782 34.8925 90.6822 35.4656L91.7787 35.4579C91.7745 34.8608 91.7507 34.2599 91.7065 33.656L90.6129 33.7359ZM90.4754 38.9184C90.4021 39.4932 90.3097 40.0628 90.1988 40.6264L91.2747 40.838C91.3903 40.2504 91.4866 39.6565 91.5631 39.0572L90.4754 38.9184ZM90.2764 41.0299C90.802 41.8429 91.2791 42.6932 91.703 43.5768L92.6916 43.1025C92.2476 42.177 91.7479 41.2862 91.1972 40.4345L90.2764 41.0299ZM93.5433 49.1067C93.7306 50.0502 93.8622 51.0164 93.9343 52.0019L95.0279 51.9219C94.9525 50.8915 94.8148 49.8807 94.6188 48.8932L93.5433 49.1067ZM93.9343 52.0019C93.9917 52.7871 94.0098 53.5657 93.9905 54.3357L95.0867 54.3633C95.1069 53.5575 95.0879 52.743 95.0279 51.9219L93.9343 52.0019ZM93.4108 58.9584C93.0598 60.4919 92.5573 61.9689 91.9193 63.3705L92.9173 63.8248C93.5857 62.3564 94.112 60.8092 94.4797 59.2031L93.4108 58.9584ZM89.57 67.3917C88.6505 68.6511 87.6059 69.8106 86.4536 70.8498L87.188 71.6641C88.3968 70.574 89.4919 69.3582 90.4556 68.0383L89.57 67.3917ZM82.6911 73.5855C82.0203 73.972 81.3273 74.3237 80.614 74.6381L81.0564 75.6414C81.8058 75.311 82.5339 74.9415 83.2384 74.5357L82.6911 73.5855ZM80.4061 74.7985C79.9527 75.3684 79.4848 75.9267 79.0028 76.4725L79.8248 77.1983C80.3192 76.6383 80.7992 76.0657 81.2643 75.4811L80.4061 74.7985ZM75.9481 79.5938C74.8788 80.5796 73.7579 81.5115 72.5892 82.385L73.2457 83.2633C74.4446 82.3672 75.5945 81.4112 76.6913 80.4L75.9481 79.5938ZM68.961 84.8151C67.7157 85.5589 66.4277 86.241 65.101 86.8568L65.5627 87.8514C66.924 87.2195 68.2456 86.5197 69.5233 85.7565L68.961 84.8151ZM61.0501 88.4866C59.6828 88.9557 58.2821 89.3573 56.8517 89.6872L57.0981 90.7556C58.5657 90.4172 60.0029 90.0051 61.4059 89.5238L61.0501 88.4866ZM52.551 90.448C51.8322 90.5374 51.1072 90.6091 50.3765 90.6625L50.4565 91.7561C51.2057 91.7013 51.9491 91.6278 52.6864 91.5361L52.551 90.448ZM50.3765 90.6625C49.5911 90.7199 48.8091 90.7555 48.0313 90.7698L48.0514 91.8661C48.8492 91.8515 49.6511 91.815 50.4565 91.7561L50.3765 90.6625ZM43.3429 90.5971C41.772 90.4517 40.2237 90.2196 38.7032 89.9052L38.4812 90.979C40.0415 91.3016 41.6301 91.5398 43.2418 91.6889L43.3429 90.5971ZM34.1694 88.7001C32.6758 88.2122 31.2168 87.643 29.7981 86.9973L29.3439 87.9953C30.7994 88.6578 32.2964 89.2418 33.8289 89.7424L34.1694 88.7001ZM25.6425 84.8198C24.9701 84.4185 24.3095 83.999 23.6613 83.5618L23.0482 84.4709C23.7131 84.9193 24.3908 85.3497 25.0805 85.7613L25.6425 84.8198ZM23.4398 83.4748C22.811 83.3761 22.1901 83.2501 21.5784 83.0979L21.3136 84.1619C21.9565 84.3219 22.609 84.4543 23.2698 84.558L23.4398 83.4748ZM17.9896 81.862C16.8297 81.3455 15.7183 80.7298 14.6664 80.0244L14.0557 80.9351C15.1592 81.6751 16.3256 82.3214 17.5436 82.8637L17.9896 81.862ZM11.7008 77.6496C10.7844 76.7798 9.9377 75.8311 9.17147 74.8129L8.29534 75.4723C9.09814 76.5391 9.98543 77.5333 10.946 78.4449L11.7008 77.6496ZM7.14456 71.5973C6.56454 70.4827 6.07069 69.3114 5.67286 68.092L4.63043 68.4321C5.04703 69.709 5.56428 70.9359 6.17187 72.1034L7.14456 71.5973ZM4.79161 64.3923C4.69581 63.7703 4.62401 63.1393 4.57728 62.5001L3.48369 62.58C3.53254 63.2483 3.60764 63.9084 3.70788 64.5592L4.79161 64.3923ZM4.57728 62.5001C4.54612 62.0737 4.52652 61.6493 4.5182 61.2272L3.42191 61.2488C3.4306 61.6904 3.4511 62.1342 3.48369 62.58L4.57728 62.5001ZM4.60527 58.682C4.64291 58.2571 4.69198 57.8353 4.75219 57.417L3.66686 57.2608C3.60382 57.6988 3.55244 58.1404 3.51303 58.5852L4.60527 58.682ZM4.20952 57.3389L5.29485 57.4951L5.35552 57.0735L5.11571 56.7215L4.20952 57.3389ZM23.3548 84.0164L23.9679 83.1073L23.7657 82.9709L23.5248 82.9331L23.3548 84.0164ZM80.8352 75.1398L80.3928 74.1365L80.1454 74.2455L79.9771 74.4572L80.8352 75.1398ZM90.7368 40.7322L89.6609 40.5206L89.5753 40.9554L89.816 41.3276L90.7368 40.7322ZM68.7344 9.3283L67.9132 10.055L68.1712 10.3466L68.5554 10.4101L68.7344 9.3283ZM29.8984 7.43649L29.6549 8.50562L30.2191 8.63414L30.6436 8.24082L29.8984 7.43649ZM11.7748 23.4768L12.3169 24.43L12.9581 24.0653L12.8619 23.3339L11.7748 23.4768ZM5.11571 56.7215C4.55836 55.9034 4.05228 55.0443 3.60273 54.1488L1.64282 55.1328C2.13613 56.1154 2.69154 57.0583 3.30333 57.9563L5.11571 56.7215ZM1.65389 48.5178C1.4567 47.5544 1.31895 46.5661 1.24517 45.5568L-0.942013 45.7167C-0.861347 46.8202 -0.710645 47.9019 -0.494594 48.9576L1.65389 48.5178ZM1.24517 45.5568C1.19356 44.8507 1.17442 44.1502 1.1864 43.4569L-1.0063 43.419C-1.01942 44.1782 -0.998444 44.9447 -0.942013 45.7167L1.24517 45.5568ZM1.64202 39.2906C1.9246 37.9048 2.3333 36.5637 2.85598 35.2816L0.825239 34.4537C0.251585 35.8608 -0.196822 37.3323 -0.506786 38.8524L1.64202 39.2906ZM4.79189 31.5679C5.55389 30.3899 6.42294 29.2897 7.38576 28.283L5.80091 26.7673C4.74214 27.8743 3.78729 29.0832 2.95051 30.3768L4.79189 31.5679ZM10.5519 25.5519C11.1207 25.15 11.7096 24.7754 12.3169 24.43L11.2327 22.5237C10.5626 22.9048 9.91331 23.3179 9.28646 23.7608L10.5519 25.5519ZM12.8619 23.3339C12.8536 23.2705 12.8457 23.2069 12.8383 23.1432L10.6601 23.3975C10.6687 23.4718 10.6779 23.5459 10.6876 23.6198L12.8619 23.3339ZM12.7992 22.7607C12.7936 22.6969 12.7885 22.633 12.7838 22.569L10.5966 22.7289C10.6021 22.8034 10.608 22.8778 10.6145 22.952L12.7992 22.7607ZM12.7838 22.569C12.7401 21.9704 12.7372 21.3786 12.7729 20.7962L10.584 20.6621C10.5423 21.3422 10.5457 22.0322 10.5966 22.7289L12.7838 22.569ZM13.4635 17.3322C13.8512 16.2086 14.3881 15.1468 15.0535 14.1712L13.2418 12.9355C12.4685 14.0693 11.8428 15.3058 11.3904 16.6169L13.4635 17.3322ZM17.4154 11.5271C18.3057 10.7587 19.3 10.0997 20.3775 9.57346L19.4151 7.60287C18.1668 8.21249 17.0146 8.97621 15.9826 9.86683L17.4154 11.5271ZM23.7406 8.43646C24.3156 8.32084 24.9051 8.23974 25.5069 8.19575L25.347 6.00856C24.6535 6.05926 23.9731 6.1528 23.3083 6.28647L23.7406 8.43646ZM25.5069 8.19575C25.8573 8.17013 26.2055 8.15757 26.5509 8.15763L26.5512 5.96461C26.1525 5.96454 25.7508 5.97904 25.347 6.00856L25.5069 8.19575ZM28.6304 8.31242C28.976 8.36427 29.3177 8.42883 29.6549 8.50562L30.1419 6.36736C29.7514 6.27842 29.3558 6.20367 28.9557 6.14366L28.6304 8.31242ZM30.6436 8.24082C31.1808 7.74314 31.7396 7.26748 32.3189 6.81543L30.9696 5.0866C30.3415 5.57676 29.7356 6.09252 29.1531 6.63216L30.6436 8.24082ZM35.9998 4.41401C37.2803 3.72545 38.6281 3.13943 40.0328 2.66792L39.3349 0.588902C37.8117 1.1002 36.35 1.73574 34.9612 2.48251L35.9998 4.41401ZM44.3037 1.62487C45.0224 1.51208 45.7519 1.42799 46.4912 1.37395L46.3313 -0.813237C45.5317 -0.754785 44.742 -0.663793 43.9637 -0.541634L44.3037 1.62487ZM46.4912 1.37395C47.1614 1.32496 47.8272 1.30156 48.4878 1.30289L48.4922 -0.890126C47.7769 -0.891565 47.0562 -0.866226 46.3313 -0.813237L46.4912 1.37395ZM52.4644 1.61359C53.7921 1.82015 55.0888 2.12717 56.3455 2.52701L57.0104 0.4372C55.6474 0.00355241 54.2412 -0.329387 52.8016 -0.553366L52.4644 1.61359ZM60.0413 4.02423C61.237 4.61921 62.3813 5.3036 63.4646 6.06917L64.7302 4.27823C63.5556 3.44811 62.3148 2.70603 61.0183 2.06086L60.0413 4.02423ZM66.5345 8.6135C67.0124 9.07596 67.4723 9.55681 67.9132 10.055L69.5555 8.60162C69.0771 8.061 68.578 7.5393 68.0596 7.03762L66.5345 8.6135ZM68.5554 10.4101C69.2635 10.5273 69.9625 10.673 70.6511 10.8462L71.186 8.71941C70.4392 8.53158 69.6811 8.37352 68.9133 8.24649L68.5554 10.4101ZM74.6992 12.2278C76.014 12.8014 77.2735 13.4805 78.4659 14.2551L79.6606 12.416C78.3676 11.5761 77.0019 10.8397 75.5761 10.2177L74.6992 12.2278ZM81.8491 16.8724C82.9018 17.8355 83.8741 18.8848 84.7542 20.01L86.4817 18.659C85.5263 17.4375 84.4712 16.2989 83.3294 15.2544L81.8491 16.8724ZM87.0958 23.5851C87.7689 24.8301 88.3414 26.1388 88.8018 27.5013L90.8794 26.7992C90.3788 25.3178 89.7564 23.8952 89.0249 22.5421L87.0958 23.5851ZM89.8214 31.6501C89.9316 32.3487 90.0136 33.0576 90.0661 33.7759L92.2533 33.616C92.1963 32.8368 92.1074 32.0672 91.9877 31.3084L89.8214 31.6501ZM90.0661 33.7759C90.1076 34.3437 90.1301 34.9084 90.134 35.4694L92.3269 35.4541C92.3227 34.8449 92.2983 34.232 92.2533 33.616L90.0661 33.7759ZM89.9316 38.849C89.8598 39.4116 89.7694 39.969 89.6609 40.5206L91.8127 40.9438C91.9306 40.3442 92.0289 39.7381 92.1069 39.1265L89.9316 38.849ZM89.816 41.3276C90.3291 42.1212 90.7949 42.9513 91.2086 43.8139L93.1859 42.8654C92.7319 41.9189 92.2208 41.0079 91.6576 40.1368L89.816 41.3276ZM93.0055 49.2135C93.1884 50.1349 93.3171 51.0788 93.3875 52.0418L95.5747 51.882C95.4977 50.829 95.357 49.7959 95.1565 48.7864L93.0055 49.2135ZM93.3875 52.0418C93.4436 52.8092 93.4613 53.5699 93.4424 54.322L95.6348 54.377C95.6554 53.5533 95.636 52.7209 95.5747 51.882L93.3875 52.0418ZM92.8764 58.8361C92.5337 60.3332 92.0431 61.7752 91.4203 63.1434L93.4163 64.0519C94.0999 62.5501 94.6382 60.9678 95.0141 59.3254L92.8764 58.8361ZM89.1272 67.0684C88.2298 68.2976 87.2105 69.4289 86.0865 70.4426L87.5551 72.0712C88.7922 70.9557 89.9127 69.7117 90.8984 68.3616L89.1272 67.0684ZM82.4174 73.1105C81.7635 73.4872 81.088 73.83 80.3928 74.1365L81.2776 76.1431C82.0451 75.8047 82.7908 75.4263 83.5121 75.0107L82.4174 73.1105ZM79.9771 74.4572C79.5295 75.0198 79.0676 75.5708 78.5918 76.1097L80.2358 77.5611C80.7364 76.9942 81.2224 76.4144 81.6933 75.8224L79.9771 74.4572ZM75.5764 79.1907C74.521 80.1638 73.4145 81.0837 72.261 81.9458L73.5739 83.7024C74.7879 82.7951 75.9523 81.827 77.0629 80.8031L75.5764 79.1907ZM68.6799 84.3445C67.4508 85.0786 66.1796 85.7517 64.8702 86.3595L65.7935 88.3487C67.1722 87.7088 68.5105 87 69.8044 86.2272L68.6799 84.3445ZM60.8722 87.968C59.5227 88.431 58.1403 88.8273 56.7285 89.1529L57.2213 91.2899C58.7075 90.9471 60.1629 90.5298 61.5838 90.0424L60.8722 87.968ZM52.4833 89.9039C51.7737 89.9922 51.058 90.063 50.3366 90.1157L50.4964 92.3029C51.2549 92.2474 52.0076 92.173 52.7541 92.0802L52.4833 89.9039ZM50.3366 90.1157C49.5611 90.1724 48.7891 90.2075 48.0212 90.2216L48.0615 92.4143C48.8692 92.3994 49.6811 92.3625 50.4964 92.3029L50.3366 90.1157ZM43.3934 90.0511C41.843 89.9077 40.3149 89.6786 38.8142 89.3683L38.3702 91.5159C39.9503 91.8426 41.5592 92.0838 43.1913 92.2348L43.3934 90.0511ZM34.3396 88.1789C32.8655 87.6974 31.4255 87.1356 30.0253 86.4983L29.1168 88.4943C30.5907 89.1652 32.1067 89.7566 33.6587 90.2636L34.3396 88.1789ZM25.9235 84.349C25.2598 83.9529 24.6077 83.5388 23.9679 83.1073L22.7417 84.9255C23.4149 85.3795 24.1012 85.8153 24.7996 86.2321L25.9235 84.349ZM23.5248 82.9331C22.912 82.837 22.3069 82.7142 21.7108 82.5658L21.1812 84.694C21.8396 84.8578 22.508 84.9935 23.1848 85.0996L23.5248 82.9331ZM18.2127 81.3612C17.0818 80.8576 15.9979 80.2572 14.9718 79.5691L13.7504 81.3905C14.8796 82.1477 16.0736 82.8093 17.3206 83.3646L18.2127 81.3612ZM12.0783 77.2519C11.1839 76.4031 10.3575 75.4772 9.60954 74.4833L7.85727 75.802C8.67836 76.893 9.58593 77.91 10.5686 78.8426L12.0783 77.2519ZM7.6309 71.3442C7.06467 70.2561 6.58251 69.1125 6.19408 67.9219L4.10921 68.6021C4.53521 69.9079 5.06415 71.1625 5.68553 72.3565L7.6309 71.3442ZM5.33348 64.3089C5.2399 63.7013 5.16974 63.0847 5.12408 62.4601L2.93689 62.62C2.98681 63.3029 3.06355 63.9775 3.16601 64.6427L5.33348 64.3089ZM5.12408 62.4601C5.09362 62.0435 5.07448 61.6288 5.06635 61.2164L2.87376 61.2596C2.88264 61.7109 2.9036 62.1645 2.93689 62.62L5.12408 62.4601ZM5.15138 58.7304C5.18814 58.3154 5.23607 57.9036 5.29485 57.4951L3.12419 57.1827C3.05974 57.6306 3.0072 58.0821 2.96692 58.5368L5.15138 58.7304Z" fill="#B6B6B6" mask="url(#path-1-inside-1_407_8108)"/>
</g>
</svg>
