<svg width="15" height="15" viewBox="0 0 15 15" fill="none" xmlns="http://www.w3.org/2000/svg">
<path d="M3.36719 1.8125L2.6869 4.04446L4.91887 4.72475" fill="#949494"/>
<path d="M3.36719 1.8125L2.6869 4.04446L4.91887 4.72475" stroke="#949494" stroke-width="1.2" stroke-linecap="round" stroke-linejoin="round"/>
<path d="M2.54688 9.25042C2.9251 10.324 3.64199 11.2455 4.58951 11.8762C5.53703 12.5069 6.66386 12.8126 7.80021 12.7472C8.93656 12.6818 10.0209 12.2489 10.8898 11.5136C11.7587 10.7784 12.3651 9.78065 12.6177 8.6708C12.8702 7.56094 12.7553 6.39906 12.2901 5.36023C11.8249 4.32139 11.0347 3.46188 10.0385 2.9112C9.04238 2.36051 7.89424 2.14849 6.7671 2.30707C5.63997 2.46565 4.59491 2.98625 3.78937 3.79042" stroke="#949494" stroke-width="1.2" stroke-linecap="round" stroke-linejoin="round"/>
</svg>
