<svg width="120" height="120" viewBox="0 0 120 120" fill="none" xmlns="http://www.w3.org/2000/svg">
<path fill-rule="evenodd" clip-rule="evenodd" d="M10.3086 63.9017C10.655 68.6404 12.2421 72.9833 14.7179 76.6174C14.4542 78.4501 14.3825 80.342 14.5234 82.2689C15.4062 94.3458 24.3479 103.852 35.5203 105.605C43.871 111.237 54.1017 114.213 64.9266 113.422C78.4293 112.435 90.1649 105.783 97.978 95.9629C107.38 91.8198 113.621 81.8773 112.81 70.7756C112.48 66.2589 111.022 62.1018 108.743 58.5754C109.227 56.1128 109.395 53.5476 109.203 50.9267C108.208 37.3226 97.8702 26.6059 84.8369 24.4487C78.9787 17.8287 70.1494 13.9169 60.5797 14.6165C53.6038 15.1264 47.3734 18.0034 42.6364 22.3926C41.0843 22.0389 39.4509 21.9065 37.7761 22.029C28.8978 22.678 22.215 30.2414 22.8496 38.9224C22.8717 39.2245 22.9023 39.5241 22.9413 39.8208C14.783 44.4598 9.56211 53.6904 10.3086 63.9017Z" fill="#FBFBFB"/>
<circle cx="92.0536" cy="48.2109" r="7.32336" transform="rotate(7.31791 92.0536 48.2109)" fill="#FBFBFB"/>
<path d="M47.5648 43.6947C47.9798 42.5332 49.1879 41.844 50.3966 42.0792C51.6052 42.3144 52.4448 43.4021 52.3645 44.6287L52.1961 47.2018C52.177 47.4929 52.1321 47.782 52.0619 48.0658L51.82 49.0431C51.4736 50.4424 49.9805 51.2405 48.6291 50.7486C48.4865 50.6967 48.3493 50.6314 48.2194 50.5536L45.9916 49.2191L46.5462 46.5454L47.4174 44.1072L47.5648 43.6947Z" fill="#FBFBFB"/>
<path d="M70.5698 46.7496C70.4904 45.5187 69.5186 44.5237 68.2919 44.4172C67.0652 44.3107 65.9587 45.1254 65.6983 46.3267L65.2018 48.6178C65.1073 49.054 65.074 49.502 65.1028 49.9489L65.1812 51.1652C65.2848 52.772 66.9343 53.8189 68.4169 53.2188L70.562 52.4936L70.7646 49.7705L70.598 47.1867L70.5698 46.7496Z" fill="#FBFBFB"/>
<path d="M62.982 56.9404L52.525 55.3414C51.853 55.2386 51.2171 55.6765 51.0733 56.3409L50.889 57.1929C50.3426 59.7182 51.3661 62.3246 53.4848 63.8034C55.0992 64.9301 57.1419 65.2523 59.0247 64.6772L59.1942 64.6255C61.9374 63.7876 63.8553 61.3125 63.9818 58.447L63.994 58.1729C64.0209 57.5639 63.5846 57.0326 62.982 56.9404Z" fill="#FBFBFB" stroke="#ECECEC" stroke-width="2.95359" stroke-linecap="round"/>
<path d="M82.6938 49.7518C86.1404 49.2494 86.3523 48.5688 88.4876 47.8882C88.7219 47.8135 90.0133 47.8644 90.1194 47.7057C90.1979 47.5882 88.6381 46.6649 88.5285 46.5803C87.3942 45.7053 88.2527 45.7563 87.1138 44.8868C86.9045 44.727 84.5682 43.6847 84.7684 43.6358" stroke="#FBFBFB" stroke-width="5.16878" stroke-linecap="round"/>
<path d="M39.496 20.53C39.496 21.1229 39.2551 21.9928 39.5304 22.5433C39.6337 22.7499 40.1206 23.3976 40.2703 23.4725" stroke="#B6B6B6" stroke-width="2.38298" stroke-linecap="round"/>
<path d="M85.4049 25.2086C85.1258 25.1737 86.4889 23.9513 86.4889 23.6599" stroke="#B6B6B6" stroke-width="2.38298" stroke-linecap="round"/>
<path d="M25.867 39.114C25.5219 39.114 26.5484 39.294 26.8306 39.4926C27.1345 39.7064 27.7216 40.0356 27.8802 40.3529" stroke="#B6B6B6" stroke-width="2.38298" stroke-linecap="round"/>
<path d="M91.375 84.9548C91.9542 84.9548 92.1048 85.5298 92.4591 85.884" stroke="#B6B6B6" stroke-width="2.38298" stroke-linecap="round"/>
<path d="M11.4961 70.592C12.221 70.592 12.6468 70.1274 13.3545 70.1274" stroke="#B6B6B6" stroke-width="2.38298" stroke-linecap="round"/>
<path d="M76.9668 26.9998V25.7166L83.6465 15.9431H76.8965V14.2732H86.0195V15.5564L79.3398 25.3298H86.0723V26.9998H76.9668ZM87.9355 26.9998V25.7166L94.6152 15.9431H87.8652V14.2732H96.9883V15.5564L90.3086 25.3298H97.041V26.9998H87.9355ZM98.9043 26.9998V25.7166L105.584 15.9431H98.834V14.2732H107.957V15.5564L101.277 25.3298H108.01V26.9998H98.9043Z" fill="#434343"/>
</svg>
