<svg width="375" height="252" viewBox="0 0 375 252" fill="none" xmlns="http://www.w3.org/2000/svg">
<g clip-path="url(#clip0_953_7490)">
<rect x="-15" y="180" width="390" height="425" fill="#94D793"/>
<path d="M354.737 122.878C354.737 144.562 356.75 164.275 337.294 164.275C319.852 164.275 319.852 144.562 319.852 122.878C319.852 90.2178 327.661 46 337.294 46C346.928 46 354.737 90.2178 354.737 122.878Z" fill="#94D793"/>
<path d="M336.648 147.474V188.467" stroke="black" stroke-width="0.672015"/>
<path d="M331.945 145.458C331.945 160.242 333.961 173.683 314.472 173.683C297 173.683 297 160.242 297 145.458C297 123.19 304.823 93.041 314.472 93.041C324.122 93.041 331.945 123.19 331.945 145.458Z" fill="#50C154"/>
<path d="M313.805 155.538V188.467" stroke="black" stroke-width="0.672015"/>
<path d="M69.8856 142.153C69.8856 159.402 71.8982 175.082 52.4428 175.082C35 175.082 35 159.402 35 142.153C35 116.173 42.8094 81 52.4428 81C62.0762 81 69.8856 116.173 69.8856 142.153Z" fill="#00951D"/>
<path d="M51.7981 126.697V189.867M51.7981 138.122L45.75 132.073" stroke="black" stroke-width="0.672015"/>
<path d="M92.1719 185.549C93.6476 185.549 94.5143 184.603 95.955 184.603" stroke="white" stroke-width="4.85106" stroke-linecap="round"/>
<path fill-rule="evenodd" clip-rule="evenodd" d="M262.218 209.175C279.65 201.947 291.977 185.012 293.406 165.269C293.661 162.424 293.69 159.518 293.475 156.572C292.803 147.384 289.84 138.928 285.206 131.752C286.195 126.734 286.536 121.506 286.146 116.165C284.121 88.4629 263.063 66.6422 236.521 62.2595C224.595 48.7863 206.623 40.8255 187.145 42.2494C172.945 43.2873 160.264 49.1428 150.621 58.0761C147.464 57.3576 144.141 57.0888 140.735 57.3378C122.661 58.659 109.057 74.056 110.349 91.7279C110.394 92.3407 110.456 92.9482 110.535 93.55C93.9197 102.991 83.2859 121.786 84.8058 142.579C85.5182 152.325 88.8088 161.248 93.9383 168.692C93.3994 172.429 93.2528 176.286 93.5399 180.214C95.3448 204.905 113.697 224.318 136.579 227.766C153.499 239.043 174.16 244.986 196.011 243.388C222.885 241.424 246.321 228.437 262.218 209.175Z" fill="#2A7CFF"/>
<ellipse cx="164.652" cy="150.099" rx="19.6523" ry="20.099" fill="white"/>
<ellipse cx="204.715" cy="153.073" rx="18.7226" ry="19.1684" fill="white"/>
<circle cx="164.208" cy="149.206" r="12.0594" fill="#444444"/>
<circle cx="204.786" cy="152.893" r="11.5902" fill="#444444"/>
<path d="M144.284 54.2891C144.284 55.4959 143.794 57.2669 144.355 58.3875C144.565 58.808 145.556 60.1267 145.861 60.2791" stroke="white" stroke-width="4.85106" stroke-linecap="round"/>
<path d="M237.725 63.8134C237.157 63.7424 239.932 61.2539 239.932 60.6608" stroke="#B6B6B6" stroke-width="4.85106" stroke-linecap="round"/>
<path d="M116.518 92.1215C115.815 92.1215 117.905 92.4878 118.479 92.8921C119.098 93.3274 120.293 93.9976 120.616 94.6436" stroke="white" stroke-width="4.85106" stroke-linecap="round"/>
<path d="M265 192C266.179 192 266.486 193.17 267.207 193.892" stroke="white" stroke-width="4.85106" stroke-linecap="round"/>
<path d="M192.254 172.061L179.078 170.876C178.231 170.8 177.471 171.396 177.343 172.236L177.179 173.314C176.693 176.508 178.173 179.682 180.932 181.364C183.035 182.645 185.609 182.889 187.915 182.025L188.122 181.947C191.481 180.688 193.683 177.45 193.619 173.864L193.613 173.521C193.599 172.758 193.013 172.129 192.254 172.061Z" fill="#FF7171" stroke="#2770E4" stroke-width="6.01266" stroke-linecap="round"/>
<path d="M160.118 123.709C174.923 124.722 186.071 137.347 185.079 151.857C184.086 166.366 171.322 177.355 156.517 176.342C141.712 175.33 130.564 162.704 131.556 148.195C132.549 133.686 145.313 122.696 160.118 123.709Z" stroke="#272727" stroke-width="3.41167" stroke-linejoin="round"/>
<path d="M149.617 197.513L154.106 178.454" stroke="#272727" stroke-width="6.96549" stroke-linecap="round" stroke-linejoin="round"/>
<path d="M265.693 173.262C257.023 182.762 251.994 187.343 248.372 188.278L238.751 161.533C241.056 160.6 253.384 152.725 258.64 150.087C264.17 147.311 268.29 143.347 272.277 144.084C274.445 144.484 274.687 145.588 274.742 146.271C274.798 146.955 275.888 146.702 276.512 147.477C277.391 148.569 277.05 149.012 277.312 149.842C277.505 150.451 278.393 150.05 278.634 151.154C279.007 151.995 278.66 153.774 278.554 154.393C277.918 158.104 274.344 163.782 265.693 173.262Z" fill="url(#paint0_linear_953_7490)"/>
<path d="M136.497 200.966C124.392 202.609 117.997 202.962 114.982 201.694L126.642 179.482C128.789 180.072 142.209 181.366 147.447 182.382C152.957 183.45 158.338 183.024 160.47 185.56C161.628 186.938 161.045 187.774 160.622 188.244C160.198 188.713 161.086 189.113 160.976 189.936C160.82 191.094 160.297 191.203 159.911 191.873C159.628 192.365 160.483 192.566 159.9 193.402C159.579 194.137 158.153 195.104 157.667 195.448C154.751 197.512 148.576 199.326 136.497 200.966Z" fill="url(#paint1_linear_953_7490)"/>
<path d="M190.392 48.6373C214.3 24.7998 259.511 39.9443 247.728 77.6209C227.494 71.5878 217.575 75.901 190.392 48.6373Z" fill="#FF912C"/>
<rect x="240.227" y="39.6656" width="4.73843" height="7.10764" rx="2.36921" transform="rotate(45 240.227 39.6656)" fill="#FF912C"/>
<path d="M180.02 49.7789L190.493 48.5379L227.737 69.1153C225.085 68.9718 216.765 68.6803 204.703 68.6624C192.641 68.6446 183.222 56.066 180.02 49.7789Z" fill="#FF912C"/>
<path d="M190.914 48.9565C193.701 52.3112 201.367 60.2802 209.736 65.3184" stroke="#633D1A" stroke-width="1.18461" stroke-linecap="round"/>
</g>
<defs>
<linearGradient id="paint0_linear_953_7490" x1="291.747" y1="135.29" x2="243.612" y2="166.766" gradientUnits="userSpaceOnUse">
<stop stop-color="#9CC2FF"/>
<stop offset="1" stop-color="#2A7CFF"/>
</linearGradient>
<linearGradient id="paint1_linear_953_7490" x1="179.213" y1="189.952" x2="128.287" y2="177.4" gradientUnits="userSpaceOnUse">
<stop stop-color="#9CC2FF"/>
<stop offset="1" stop-color="#2A7CFF"/>
</linearGradient>
<clipPath id="clip0_953_7490">
<rect width="375" height="252" fill="white"/>
</clipPath>
</defs>
</svg>
