<svg width="122" height="120" viewBox="0 0 122 120" fill="none" xmlns="http://www.w3.org/2000/svg">
<path d="M7.78906 64.9033C8.54175 64.9033 8.98379 64.4209 9.71862 64.4209" stroke="#B6B6B6" stroke-width="2.47423" stroke-linecap="round"/>
<path fill-rule="evenodd" clip-rule="evenodd" d="M6.55277 57.9561C6.91242 62.8761 8.56026 67.3852 11.1308 71.1584C10.8569 73.0614 10.7825 75.0259 10.9287 77.0266C11.8454 89.5668 21.1306 99.4372 32.7318 101.257C41.4021 107.104 52.0241 110.193 63.263 109.372C77.284 108.347 89.4698 101.44 97.5821 91.2419C107.34 86.9386 113.818 76.6172 112.976 65.0928C112.633 60.4042 111.121 56.0889 108.755 52.428C109.258 49.8704 109.432 47.2061 109.233 44.4841C108.2 30.3588 97.4658 19.2316 83.9331 16.9921C77.8506 10.1185 68.6832 6.05694 58.747 6.78327C51.5037 7.31275 45.0346 10.3001 40.1161 14.8577C38.5038 14.4901 36.8073 14.3524 35.0675 14.4796C25.8493 15.1534 18.9105 23.0065 19.5694 32.0199C19.5924 32.3346 19.6244 32.6465 19.665 32.9555C11.1968 37.7729 5.77788 47.3555 6.55277 57.9561Z" fill="#F3F3F3"/>
<path d="M36.8591 12.9238C36.8591 13.5394 36.609 14.4426 36.8948 15.0142C37.002 15.2287 37.5076 15.9012 37.663 15.979" stroke="#B6B6B6" stroke-width="2.47423" stroke-linecap="round"/>
<path d="M84.5235 17.7815C84.2337 17.7453 85.6491 16.4761 85.6491 16.1736" stroke="#B6B6B6" stroke-width="2.47423" stroke-linecap="round"/>
<path d="M22.7056 32.2195C22.3473 32.2195 23.4131 32.4063 23.7061 32.6125C24.0216 32.8346 24.6312 33.1764 24.796 33.5059" stroke="#B6B6B6" stroke-width="2.47423" stroke-linecap="round"/>
<path d="M100 58C100.601 58 100.758 58.597 101.126 58.9648" stroke="#B6B6B6" stroke-width="2.47423" stroke-linecap="round"/>
<path d="M44 71C44 71.9852 45.0459 74.0467 49.2294 74.4104C53.4128 74.7742 54.9134 72.2884 55.1408 71" stroke="#8B8B8B" stroke-width="3.06669" stroke-linecap="round"/>
<path d="M66 71C66 71.9852 67.0459 74.0467 71.2294 74.4104C75.4128 74.7742 76.9134 72.2884 77.1408 71" stroke="#8B8B8B" stroke-width="3.06669" stroke-linecap="round"/>
<path d="M61.746 80.4111L60.3294 79.8997C60.0771 79.8087 59.8121 79.7578 59.5441 79.749L59.1318 79.7354C57.1874 79.6713 56.1542 77.4115 57.3778 75.8991C57.5623 75.671 57.7878 75.4794 58.0426 75.3341L58.62 75.005C60.4061 73.9868 62.6741 74.5033 63.8433 76.1944L64.3871 76.981C64.8407 77.637 64.9171 78.4828 64.5886 79.2096C64.0999 80.2906 62.8619 80.8139 61.746 80.4111Z" fill="#FF7171" stroke="#E0E0E0" stroke-width="3.06669" stroke-linecap="round"/>
<path d="M87.818 42.966C88.502 42.318 89.15 41.688 89.762 41.076C90.374 40.452 90.956 39.816 91.508 39.168C92.072 38.52 92.606 37.842 93.11 37.134C93.626 36.426 94.13 35.658 94.622 34.83H87.872C87.584 34.83 87.35 34.764 87.17 34.632C86.99 34.5 86.9 34.26 86.9 33.912C86.9 33.564 86.99 33.324 87.17 33.192C87.35 33.06 87.584 32.994 87.872 32.994H96.494C96.89 32.994 97.172 33.084 97.34 33.264C97.52 33.444 97.61 33.66 97.61 33.912C97.61 34.104 97.562 34.296 97.466 34.488C97.382 34.68 97.274 34.878 97.142 35.082C96.47 36.138 95.81 37.104 95.162 37.98C94.514 38.856 93.866 39.672 93.218 40.428C92.582 41.184 91.934 41.898 91.274 42.57C90.626 43.23 89.954 43.878 89.258 44.514C89.15 44.622 89.096 44.724 89.096 44.82C89.096 44.964 89.204 45.036 89.42 45.036C90.992 45.036 92.348 44.946 93.488 44.766C94.64 44.574 95.576 44.334 96.296 44.046C96.464 43.974 96.632 43.944 96.8 43.956C96.968 43.956 97.118 43.992 97.25 44.064C97.382 44.124 97.49 44.226 97.574 44.37C97.658 44.502 97.7 44.67 97.7 44.874C97.7 45.09 97.64 45.276 97.52 45.432C97.4 45.6 97.202 45.732 96.926 45.828C96.026 46.128 95.012 46.374 93.884 46.566C92.768 46.77 91.466 46.872 89.978 46.872C89.486 46.872 89.036 46.842 88.628 46.782C88.22 46.722 87.866 46.62 87.566 46.476C87.278 46.332 87.05 46.134 86.882 45.882C86.714 45.642 86.63 45.33 86.63 44.946C86.63 44.658 86.72 44.358 86.9 44.046C87.092 43.722 87.398 43.362 87.818 42.966ZM99.9645 42.966C100.648 42.318 101.296 41.688 101.908 41.076C102.52 40.452 103.102 39.816 103.654 39.168C104.218 38.52 104.752 37.842 105.256 37.134C105.772 36.426 106.276 35.658 106.768 34.83H100.018C99.7305 34.83 99.4965 34.764 99.3165 34.632C99.1365 34.5 99.0465 34.26 99.0465 33.912C99.0465 33.564 99.1365 33.324 99.3165 33.192C99.4965 33.06 99.7305 32.994 100.018 32.994H108.64C109.036 32.994 109.318 33.084 109.486 33.264C109.666 33.444 109.756 33.66 109.756 33.912C109.756 34.104 109.708 34.296 109.612 34.488C109.528 34.68 109.42 34.878 109.288 35.082C108.616 36.138 107.956 37.104 107.308 37.98C106.66 38.856 106.012 39.672 105.364 40.428C104.728 41.184 104.08 41.898 103.42 42.57C102.772 43.23 102.1 43.878 101.404 44.514C101.296 44.622 101.242 44.724 101.242 44.82C101.242 44.964 101.35 45.036 101.566 45.036C103.138 45.036 104.494 44.946 105.634 44.766C106.786 44.574 107.722 44.334 108.442 44.046C108.61 43.974 108.778 43.944 108.946 43.956C109.114 43.956 109.264 43.992 109.396 44.064C109.528 44.124 109.636 44.226 109.72 44.37C109.804 44.502 109.846 44.67 109.846 44.874C109.846 45.09 109.786 45.276 109.666 45.432C109.546 45.6 109.348 45.732 109.072 45.828C108.172 46.128 107.158 46.374 106.03 46.566C104.914 46.77 103.612 46.872 102.124 46.872C101.632 46.872 101.182 46.842 100.774 46.782C100.366 46.722 100.012 46.62 99.7125 46.476C99.4245 46.332 99.1965 46.134 99.0285 45.882C98.8605 45.642 98.7765 45.33 98.7765 44.946C98.7765 44.658 98.8665 44.358 99.0465 44.046C99.2385 43.722 99.5445 43.362 99.9645 42.966ZM112.111 42.966C112.795 42.318 113.443 41.688 114.055 41.076C114.667 40.452 115.249 39.816 115.801 39.168C116.365 38.52 116.899 37.842 117.403 37.134C117.919 36.426 118.423 35.658 118.915 34.83H112.165C111.877 34.83 111.643 34.764 111.463 34.632C111.283 34.5 111.193 34.26 111.193 33.912C111.193 33.564 111.283 33.324 111.463 33.192C111.643 33.06 111.877 32.994 112.165 32.994H120.787C121.183 32.994 121.465 33.084 121.633 33.264C121.813 33.444 121.903 33.66 121.903 33.912C121.903 34.104 121.855 34.296 121.759 34.488C121.675 34.68 121.567 34.878 121.435 35.082C120.763 36.138 120.103 37.104 119.455 37.98C118.807 38.856 118.159 39.672 117.511 40.428C116.875 41.184 116.227 41.898 115.567 42.57C114.919 43.23 114.247 43.878 113.551 44.514C113.443 44.622 113.389 44.724 113.389 44.82C113.389 44.964 113.497 45.036 113.713 45.036C115.285 45.036 116.641 44.946 117.781 44.766C118.933 44.574 119.869 44.334 120.589 44.046C120.757 43.974 120.925 43.944 121.093 43.956C121.261 43.956 121.411 43.992 121.543 44.064C121.675 44.124 121.783 44.226 121.867 44.37C121.951 44.502 121.993 44.67 121.993 44.874C121.993 45.09 121.933 45.276 121.813 45.432C121.693 45.6 121.495 45.732 121.219 45.828C120.319 46.128 119.305 46.374 118.177 46.566C117.061 46.77 115.759 46.872 114.271 46.872C113.779 46.872 113.329 46.842 112.921 46.782C112.513 46.722 112.159 46.62 111.859 46.476C111.571 46.332 111.343 46.134 111.175 45.882C111.007 45.642 110.923 45.33 110.923 44.946C110.923 44.658 111.013 44.358 111.193 44.046C111.385 43.722 111.691 43.362 112.111 42.966Z" fill="#353535"/>
<path d="M65.5905 91.8827C59.1954 95.4836 55.7025 97.0985 53.7374 97.0585L55.3254 82.0701C56.6547 81.9236 64.4357 79.6719 67.5858 79.0779C70.8999 78.4529 73.8104 77.0223 75.5626 77.9658C76.5151 78.4787 76.3746 79.0751 76.2422 79.4309C76.1098 79.7868 76.6946 79.8135 76.815 80.2973C76.9847 80.9785 76.7169 81.1554 76.6503 81.6152C76.6013 81.9528 77.1231 81.8754 76.9826 82.4718C76.9664 82.9528 76.3846 83.8092 76.1892 84.1093C75.0183 85.9081 71.972 88.2895 65.5905 91.8827Z" fill="url(#paint0_linear_985_3363)"/>
<path d="M75.6357 84.879C71.116 90.6614 68.9953 93.8724 68.74 95.8212L83.7969 96.5002C84.1412 95.208 87.535 87.8529 88.595 84.8276C89.7101 81.6448 91.5612 78.982 90.8913 77.108C90.5272 76.0894 89.9165 76.1388 89.5448 76.2162C89.173 76.2937 89.2344 75.7116 88.7742 75.5199C88.1261 75.2499 87.911 75.4881 87.4464 75.485C87.1054 75.4828 87.2602 74.9785 86.6495 75.0279C86.1714 74.9718 85.2374 75.4185 84.9114 75.5667C82.9573 76.4544 80.1458 79.1089 75.6357 84.879Z" fill="url(#paint1_linear_985_3363)"/>
<defs>
<linearGradient id="paint0_linear_985_3363" x1="56.4436" y1="86.8556" x2="80.0568" y2="79.2192" gradientUnits="userSpaceOnUse">
<stop stop-color="#F3F3F3"/>
<stop offset="1" stop-color="#C5C5C5"/>
</linearGradient>
<linearGradient id="paint1_linear_985_3363" x1="79.2334" y1="94.6766" x2="90.3265" y2="72.4766" gradientUnits="userSpaceOnUse">
<stop stop-color="#F3F3F3"/>
<stop offset="1" stop-color="#C5C5C5"/>
</linearGradient>
</defs>
</svg>
