<svg width="136" height="136" viewBox="0 0 136 136" fill="none" xmlns="http://www.w3.org/2000/svg">
<mask id="path-1-inside-1_1257_19974" fill="white">
<path fill-rule="evenodd" clip-rule="evenodd" d="M14.3655 67.6586C14.7277 72.6135 16.3892 77.154 18.9807 80.9517C18.7069 82.8608 18.6329 84.8314 18.7796 86.8383C19.6997 99.4257 29.0046 109.338 40.6411 111.194C49.3628 117.081 60.0503 120.192 71.359 119.365C85.4493 118.335 97.6966 111.398 105.854 101.154C115.695 96.8398 122.234 86.4449 121.385 74.8359C121.04 70.1172 119.517 65.7745 117.134 62.0911C117.639 59.5221 117.813 56.8462 117.613 54.1123C116.575 39.9102 105.784 28.722 92.1786 26.4674C86.062 19.5549 76.843 15.4703 66.8508 16.2008C59.5687 16.7331 53.0647 19.7359 48.1191 24.3171C46.5025 23.9502 44.8018 23.8131 43.058 23.9405C33.7882 24.6182 26.8106 32.5152 27.4731 41.5791C27.496 41.8917 27.5276 42.2016 27.5678 42.5086C19.0426 47.3499 13.5858 56.9918 14.3655 67.6586Z"/>
</mask>
<path fill-rule="evenodd" clip-rule="evenodd" d="M14.3655 67.6586C14.7277 72.6135 16.3892 77.154 18.9807 80.9517C18.7069 82.8608 18.6329 84.8314 18.7796 86.8383C19.6997 99.4257 29.0046 109.338 40.6411 111.194C49.3628 117.081 60.0503 120.192 71.359 119.365C85.4493 118.335 97.6966 111.398 105.854 101.154C115.695 96.8398 122.234 86.4449 121.385 74.8359C121.04 70.1172 119.517 65.7745 117.134 62.0911C117.639 59.5221 117.813 56.8462 117.613 54.1123C116.575 39.9102 105.784 28.722 92.1786 26.4674C86.062 19.5549 76.843 15.4703 66.8508 16.2008C59.5687 16.7331 53.0647 19.7359 48.1191 24.3171C46.5025 23.9502 44.8018 23.8131 43.058 23.9405C33.7882 24.6182 26.8106 32.5152 27.4731 41.5791C27.496 41.8917 27.5276 42.2016 27.5678 42.5086C19.0426 47.3499 13.5858 56.9918 14.3655 67.6586Z" fill="#F8F8F8"/>
<path d="M18.9807 80.9517L19.5964 81.04L19.6307 80.8007L19.4944 80.6011L18.9807 80.9517ZM14.3655 67.6586L13.7452 67.7039L14.3655 67.6586ZM40.6411 111.194L40.989 110.679L40.875 110.602L40.739 110.58L40.6411 111.194ZM105.854 101.154L105.605 100.584L105.464 100.646L105.368 100.766L105.854 101.154ZM117.134 62.0911L116.524 61.9711L116.475 62.2178L116.612 62.429L117.134 62.0911ZM92.1786 26.4674L91.7128 26.8796L91.8591 27.045L92.0769 27.0811L92.1786 26.4674ZM66.8508 16.2008L66.8055 15.5804L66.8508 16.2008ZM48.1191 24.3171L47.9814 24.9237L48.3012 24.9963L48.5418 24.7734L48.1191 24.3171ZM27.5678 42.5086L27.8749 43.0495L28.2388 42.8428L28.1845 42.4279L27.5678 42.5086ZM19.4944 80.6011C18.845 79.6494 18.2554 78.6499 17.7316 77.6081L16.6202 78.1669C17.1688 79.2582 17.7865 80.3052 18.4669 81.3023L19.4944 80.6011ZM15.4616 71.0568C15.232 69.9361 15.0717 68.7867 14.9859 67.6132L13.7452 67.7039C13.8349 68.9309 14.0025 70.1334 14.2428 71.3065L15.4616 71.0568ZM14.9859 67.6132C14.9259 66.793 14.9037 65.9791 14.9177 65.1734L13.6738 65.1518C13.6592 65.9949 13.6825 66.8463 13.7452 67.7039L14.9859 67.6132ZM15.4479 60.3301C15.7767 58.7189 16.2523 57.1596 16.8605 55.6689L15.7086 55.1989C15.0715 56.7606 14.5733 58.3939 14.229 60.0814L15.4479 60.3301ZM19.1133 51.3507C20.0001 49.9809 21.0115 48.7016 22.1324 47.5309L21.2337 46.6706C20.0584 47.8982 18.9982 49.2392 18.069 50.6746L19.1133 51.3507ZM25.819 44.3544C26.4815 43.887 27.1674 43.4513 27.8749 43.0495L27.2606 41.9677C26.5175 42.3897 25.7972 42.8473 25.1018 43.3379L25.819 44.3544ZM28.1845 42.4279C28.1748 42.3537 28.1657 42.2794 28.157 42.2049L26.9213 42.3486C26.9306 42.429 26.9405 42.5092 26.951 42.5893L28.1845 42.4279ZM28.1115 41.7578C28.1049 41.6832 28.0989 41.6086 28.0935 41.5337L26.8527 41.6244C26.8586 41.7051 26.8651 41.7857 26.8721 41.8661L28.1115 41.7578ZM28.0935 41.5337C28.0418 40.8268 28.0385 40.1275 28.0806 39.439L26.8389 39.363C26.7933 40.1069 26.797 40.8618 26.8527 41.6244L28.0935 41.5337ZM28.897 35.3441C29.3552 34.0162 29.9895 32.7619 30.775 31.6102L29.7473 30.9092C28.9005 32.1507 28.2159 33.504 27.721 34.9383L28.897 35.3441ZM33.5622 28.4899C34.6125 27.5835 35.7853 26.8061 37.0562 26.1854L36.5103 25.0676C35.1425 25.7355 33.8801 26.5723 32.7494 27.5481L33.5622 28.4899ZM41.0222 24.8446C41.7 24.7083 42.3946 24.6127 43.1034 24.5609L43.0127 23.3202C42.2519 23.3758 41.5057 23.4784 40.777 23.6249L41.0222 24.8446ZM43.1034 24.5609C43.5152 24.5308 43.9243 24.516 44.3303 24.516L44.3303 23.272C43.8941 23.272 43.4547 23.2879 43.0127 23.3202L43.1034 24.5609ZM46.7759 24.6972C47.1826 24.7579 47.5846 24.8336 47.9814 24.9237L48.2568 23.7105C47.8298 23.6136 47.3973 23.5322 46.9598 23.4668L46.7759 24.6972ZM48.5418 24.7734C49.164 24.1971 49.8113 23.6462 50.4823 23.1227L49.717 22.1419C49.0184 22.687 48.3442 23.2606 47.6964 23.8608L48.5418 24.7734ZM54.746 20.3416C56.2293 19.5442 57.7906 18.8655 59.4176 18.3194L59.0218 17.14C57.3275 17.7087 55.7017 18.4154 54.1569 19.2459L54.746 20.3416ZM64.3637 17.1116C65.1959 16.981 66.0405 16.8837 66.8962 16.8211L66.8055 15.5804C65.9156 15.6455 65.0369 15.7467 64.1709 15.8826L64.3637 17.1116ZM66.8962 16.8211C67.6721 16.7644 68.4431 16.7373 69.2082 16.7389L69.2107 15.4948C68.4146 15.4932 67.6125 15.5214 66.8055 15.5804L66.8962 16.8211ZM73.8145 17.0988C75.3527 17.3382 76.8549 17.6939 78.311 18.1572L78.6882 16.9717C77.1718 16.4892 75.6074 16.1188 74.0058 15.8696L73.8145 17.0988ZM82.5928 19.8919C83.978 20.5813 85.3037 21.3742 86.5587 22.2612L87.2767 21.2453C85.9699 20.3217 84.5895 19.496 83.147 18.7782L82.5928 19.8919ZM90.1153 25.2092C90.669 25.7451 91.2019 26.3023 91.7128 26.8796L92.6444 26.0552C92.1123 25.4538 91.5572 24.8734 90.9805 24.3153L90.1153 25.2092ZM92.0769 27.0811C92.897 27.217 93.7066 27.386 94.5042 27.5868L94.8079 26.3804C93.9773 26.1713 93.1342 25.9953 92.2803 25.8537L92.0769 27.0811ZM99.1927 29.1881C100.715 29.8528 102.174 30.6396 103.555 31.537L104.233 30.4939C102.795 29.5595 101.276 28.7401 99.6904 28.048L99.1927 29.1881ZM107.473 34.5693C108.692 35.685 109.819 36.9007 110.838 38.2045L111.818 37.4382C110.756 36.0798 109.583 34.8134 108.313 33.6515L107.473 34.5693ZM113.551 42.3474C114.331 43.7904 114.994 45.3071 115.528 46.8864L116.706 46.4882C116.15 44.8415 115.458 43.2601 114.645 41.7558L113.551 42.3474ZM116.709 51.6948C116.837 52.5042 116.932 53.3256 116.993 54.1577L118.234 54.067C118.17 53.2003 118.071 52.3446 117.938 51.501L116.709 51.6948ZM116.993 54.1577C117.041 54.8152 117.067 55.4692 117.072 56.119L118.316 56.1103C118.311 55.4331 118.284 54.7518 118.234 54.067L116.993 54.1577ZM116.837 60.0343C116.754 60.6862 116.65 61.332 116.524 61.9711L117.745 62.2111C117.876 61.5447 117.985 60.8713 118.071 60.1916L116.837 60.0343ZM116.612 62.429C117.209 63.3516 117.75 64.3166 118.232 65.3193L119.353 64.7811C118.849 63.7307 118.282 62.7198 117.657 61.7533L116.612 62.429ZM120.321 71.5953C120.533 72.6661 120.683 73.7628 120.765 74.8813L122.005 74.7906C121.92 73.621 121.764 72.4738 121.541 71.353L120.321 71.5953ZM120.765 74.8813C120.83 75.7736 120.851 76.6585 120.828 77.5335L122.072 77.5649C122.095 76.6492 122.074 75.7236 122.005 74.7906L120.765 74.8813ZM120.168 82.7864C119.768 84.5289 119.196 86.2071 118.47 87.7992L119.601 88.3156C120.362 86.6476 120.962 84.8896 121.38 83.0646L120.168 82.7864ZM115.795 92.3663C114.749 93.7962 113.56 95.1123 112.249 96.2912L113.08 97.2163C114.456 95.9796 115.702 94.5997 116.799 93.101L115.795 92.3663ZM107.967 99.3927C107.204 99.8303 106.416 100.228 105.605 100.584L106.104 101.723C106.957 101.35 107.785 100.932 108.586 100.472L107.967 99.3927ZM105.368 100.766C104.853 101.412 104.322 102.045 103.776 102.664L104.708 103.487C105.269 102.853 105.813 102.204 106.341 101.541L105.368 100.766ZM100.311 106.201C99.0977 107.318 97.8264 108.374 96.501 109.364L97.2454 110.361C98.6051 109.345 99.9093 108.262 101.153 107.116L100.311 106.201ZM92.3863 112.118C90.9741 112.961 89.5136 113.734 88.0092 114.432L88.5327 115.56C90.0764 114.844 91.575 114.051 93.0239 113.186L92.3863 112.118ZM83.4158 116.279C81.8654 116.81 80.2772 117.265 78.6554 117.639L78.9348 118.852C80.5988 118.468 82.2284 118.001 83.8193 117.456L83.4158 116.279ZM73.7791 118.502C72.9641 118.603 72.1421 118.684 71.3137 118.745L71.4044 119.986C72.2538 119.923 73.0968 119.84 73.9327 119.736L73.7791 118.502ZM71.3137 118.745C70.422 118.81 69.5344 118.85 68.6514 118.867L68.6742 120.11C69.5798 120.094 70.4901 120.052 71.4044 119.986L71.3137 118.745ZM63.3291 118.67C61.546 118.505 59.7884 118.241 58.0624 117.884L57.8103 119.102C59.5814 119.469 61.3848 119.739 63.2144 119.909L63.3291 118.67ZM52.9159 116.515C51.2205 115.961 49.5644 115.314 47.9542 114.581L47.4385 115.713C49.0906 116.465 50.7897 117.129 52.5294 117.698L52.9159 116.515ZM43.2375 112.107C42.4744 111.652 41.7247 111.175 40.989 110.679L40.2931 111.71C41.0477 112.219 41.8168 112.708 42.5996 113.175L43.2375 112.107ZM40.739 110.58C40.0273 110.466 39.3245 110.322 38.632 110.148L38.3287 111.354C39.0564 111.537 39.795 111.689 40.5431 111.808L40.739 110.58ZM34.5708 108.739C33.2585 108.152 32.0011 107.452 30.8111 106.651L30.1165 107.683C31.3648 108.524 32.6844 109.258 34.0625 109.875L34.5708 108.739ZM27.4566 103.957C26.4201 102.97 25.4625 101.895 24.5959 100.741L23.6011 101.488C24.5091 102.697 25.5126 103.824 26.599 104.858L27.4566 103.957ZM22.3037 97.0969C21.6478 95.8341 21.0893 94.5073 20.6393 93.1261L19.4565 93.5115C19.9276 94.9578 20.5126 96.3476 21.1997 97.6704L22.3037 97.0969ZM19.6425 88.936C19.5341 88.2315 19.4529 87.5168 19.4 86.7929L18.1592 86.8836C18.2145 87.6405 18.2995 88.3881 18.413 89.1251L19.6425 88.936ZM19.4 86.7929C19.3647 86.3104 19.3425 85.8301 19.333 85.3523L18.0892 85.377C18.0991 85.8768 18.1223 86.3791 18.1592 86.8836L19.4 86.7929ZM19.4308 82.4717C19.4732 81.9908 19.5285 81.5134 19.5964 81.04L18.3649 80.8634C18.2938 81.3592 18.2359 81.859 18.1915 82.3624L19.4308 82.4717ZM18.9807 80.9517L20.2121 81.1282L20.2807 80.6497L20.0082 80.2505L18.9807 80.9517ZM14.3655 67.6586L13.1248 67.7493L14.3655 67.6586ZM40.6411 111.194L41.337 110.163L41.1089 110.009L40.837 109.966L40.6411 111.194ZM105.854 101.154L105.355 100.014L105.073 100.138L104.881 100.379L105.854 101.154ZM117.134 62.0911L115.914 61.8512L115.817 62.3446L116.09 62.7668L117.134 62.0911ZM92.1786 26.4674L91.2469 27.2918L91.5396 27.6225L91.9752 27.6947L92.1786 26.4674ZM66.8508 16.2008L66.7602 14.96L66.8508 16.2008ZM48.1191 24.3171L47.8437 25.5303L48.4833 25.6755L48.9645 25.2298L48.1191 24.3171ZM27.5678 42.5086L28.1821 43.5904L28.9099 43.177L28.8013 42.3471L27.5678 42.5086ZM20.0082 80.2505C19.3743 79.3215 18.7987 78.3458 18.2874 77.3287L16.0644 78.4463C16.6255 79.5624 17.2572 80.6332 17.9531 81.6529L20.0082 80.2505ZM16.0709 70.932C15.8467 69.8374 15.6901 68.7146 15.6063 67.5679L13.1248 67.7493C13.2164 69.0031 13.3878 70.2321 13.6335 71.4313L16.0709 70.932ZM15.6063 67.5679C15.5477 66.7663 15.526 65.9712 15.5396 65.1841L13.0519 65.141C13.0369 66.0029 13.0607 66.8729 13.1248 67.7493L15.6063 67.5679ZM16.0573 60.4545C16.3784 58.8814 16.8427 57.3591 17.4364 55.9038L15.1327 54.9639C14.481 56.5611 13.9716 58.2314 13.6195 59.957L16.0573 60.4545ZM19.6354 51.6887C20.501 50.3517 21.4881 49.1033 22.5817 47.961L20.7844 46.2404C19.5819 47.4965 18.4973 48.8684 17.5468 50.3366L19.6354 51.6887ZM26.1776 44.8627C26.8236 44.4069 27.4924 43.982 28.1821 43.5904L26.9535 41.4268C26.1925 41.8589 25.4551 42.3274 24.7432 42.8297L26.1776 44.8627ZM28.8013 42.3471C28.792 42.2759 28.7832 42.2046 28.7748 42.133L26.3034 42.4204C26.3131 42.5038 26.3234 42.587 26.3343 42.67L28.8013 42.3471ZM28.7311 41.7036C28.7249 41.632 28.7191 41.5603 28.7138 41.4884L26.2324 41.6698C26.2385 41.7534 26.2452 41.8369 26.2525 41.9203L28.7311 41.7036ZM28.7138 41.4884C28.6642 40.8093 28.661 40.1379 28.7015 39.477L26.218 39.325C26.1708 40.0965 26.1746 40.8793 26.2324 41.6698L28.7138 41.4884ZM29.485 35.547C29.9248 34.2723 30.534 33.0675 31.2889 31.9607L29.2334 30.5587C28.3561 31.8451 27.6462 33.2479 27.133 34.7354L29.485 35.547ZM33.9686 28.9608C34.9787 28.0891 36.1067 27.3413 37.3292 26.7443L36.2374 24.5086C34.8211 25.2003 33.5139 26.0667 32.343 27.0772L33.9686 28.9608ZM41.1448 25.4544C41.7972 25.3232 42.466 25.2312 43.1487 25.1813L42.9673 22.6998C42.1805 22.7573 41.4086 22.8635 40.6543 23.0151L41.1448 25.4544ZM43.1487 25.1813C43.5454 25.1523 43.9395 25.138 44.3303 25.138L44.3303 22.6499C43.879 22.6499 43.4244 22.6664 42.9673 22.6998L43.1487 25.1813ZM46.684 25.3124C47.0753 25.3708 47.462 25.4437 47.8437 25.5303L48.3945 23.1039C47.9524 23.0036 47.5046 22.9193 47.0517 22.8516L46.684 25.3124ZM48.9645 25.2298C49.5738 24.6653 50.2078 24.1258 50.8649 23.6131L49.3343 21.6515C48.6219 22.2074 47.9344 22.7924 47.2737 23.4045L48.9645 25.2298ZM55.0405 20.8895C56.4932 20.1085 58.0221 19.4439 59.6155 18.9091L58.8238 16.5503C57.096 17.1303 55.4378 17.8511 53.8624 18.698L55.0405 20.8895ZM64.4601 17.7261C65.2754 17.5982 66.103 17.5028 66.9415 17.4415L66.7602 14.96C65.8531 15.0263 64.9574 15.1295 64.0744 15.2681L64.4601 17.7261ZM66.9415 17.4415C67.7019 17.3859 68.4574 17.3594 69.2069 17.3609L69.2119 14.8728C68.4003 14.8712 67.5826 14.8999 66.7602 14.96L66.9415 17.4415ZM73.7189 17.7134C75.2253 17.9478 76.6965 18.2962 78.1224 18.7499L78.8768 16.3789C77.3303 15.8869 75.7348 15.5091 74.1014 15.2549L73.7189 17.7134ZM82.3156 20.4488C83.6723 21.1239 84.9706 21.9005 86.1997 22.7692L87.6357 20.7373C86.303 19.7954 84.8952 18.9534 83.4242 18.2213L82.3156 20.4488ZM89.6827 25.6562C90.2249 26.1809 90.7467 26.7265 91.2469 27.2918L93.1103 25.643C92.5675 25.0296 92.0013 24.4376 91.4131 23.8684L89.6827 25.6562ZM91.9752 27.6947C92.7784 27.8278 93.5713 27.9933 94.3524 28.19L94.9598 25.7772C94.1127 25.5639 93.2529 25.3844 92.382 25.2401L91.9752 27.6947ZM98.9438 29.7582C100.435 30.4091 101.864 31.1797 103.216 32.0586L104.572 29.9723C103.105 29.0194 101.556 28.1838 99.9392 27.4779L98.9438 29.7582ZM107.053 35.0282C108.247 36.1207 109.35 37.3111 110.348 38.5877L112.308 37.0551C111.225 35.6693 110.028 34.3777 108.733 33.1927L107.053 35.0282ZM113.004 42.6431C113.767 44.0555 114.416 45.54 114.939 47.0855L117.296 46.2891C116.728 44.6087 116.022 42.9949 115.192 41.46L113.004 42.6431ZM116.095 51.7917C116.22 52.5841 116.313 53.3882 116.373 54.203L118.854 54.0216C118.789 53.1377 118.688 52.2647 118.553 51.404L116.095 51.7917ZM116.373 54.203C116.42 54.8469 116.445 55.4872 116.45 56.1233L118.938 56.1059C118.933 55.4151 118.905 54.7201 118.854 54.0216L116.373 54.203ZM116.22 59.9557C116.139 60.5936 116.037 61.2257 115.914 61.8512L118.355 62.331C118.489 61.651 118.6 60.9638 118.688 60.2703L116.22 59.9557ZM116.09 62.7668C116.672 63.6674 117.201 64.6095 117.671 65.5884L119.914 64.5119C119.399 63.4378 118.818 62.404 118.179 61.4154L116.09 62.7668ZM119.711 71.7165C119.918 72.7623 120.064 73.8336 120.144 74.9266L122.626 74.7452C122.538 73.5502 122.379 72.3776 122.151 71.2319L119.711 71.7165ZM120.144 74.9266C120.208 75.7986 120.228 76.6631 120.207 77.5178L122.694 77.5806C122.718 76.6446 122.696 75.6986 122.626 74.7452L120.144 74.9266ZM119.562 82.6474C119.171 84.3486 118.613 85.9869 117.904 87.5411L120.167 88.5737C120.946 86.8678 121.559 85.07 121.987 83.2037L119.562 82.6474ZM115.293 91.9989C114.272 93.3945 113.112 94.6786 111.833 95.8286L113.496 97.6789C114.904 96.4133 116.179 95.0014 117.301 93.4684L115.293 91.9989ZM107.658 98.8531C106.914 99.2798 106.146 99.6678 105.355 100.014L106.354 102.293C107.227 101.91 108.075 101.482 108.896 101.011L107.658 98.8531ZM104.881 100.379C104.373 101.016 103.849 101.641 103.31 102.252L105.174 103.899C105.742 103.257 106.293 102.6 106.828 101.929L104.881 100.379ZM99.8891 105.743C98.692 106.846 97.437 107.889 96.1288 108.866L97.6176 110.859C98.9944 109.831 100.315 108.734 101.575 107.573L99.8891 105.743ZM92.0675 111.584C90.6737 112.416 89.2322 113.179 87.7474 113.867L88.7944 116.125C90.3578 115.399 91.8754 114.596 93.3427 113.72L92.0675 111.584ZM83.2141 115.69C81.6839 116.215 80.1164 116.664 78.5157 117.033L79.0745 119.458C80.7596 119.069 82.4099 118.596 84.021 118.044L83.2141 115.69ZM73.7023 117.884C72.8978 117.984 72.0863 118.065 71.2683 118.124L71.4497 120.606C72.3097 120.543 73.1631 120.459 74.0094 120.353L73.7023 117.884ZM71.2683 118.124C70.388 118.189 69.5116 118.229 68.64 118.245L68.6855 120.732C69.6025 120.716 70.5241 120.674 71.4497 120.606L71.2683 118.124ZM63.3865 118.051C61.6265 117.888 59.8919 117.627 58.1884 117.275L57.6842 119.711C59.4779 120.083 61.3043 120.357 63.157 120.528L63.3865 118.051ZM53.1091 115.924C51.4358 115.377 49.8014 114.739 48.212 114.015L47.1806 116.279C48.8536 117.041 50.5744 117.713 52.3361 118.289L53.1091 115.924ZM43.5565 111.573C42.8032 111.124 42.0632 110.653 41.337 110.163L39.9451 112.225C40.7092 112.741 41.488 113.236 42.2806 113.71L43.5565 111.573ZM40.837 109.966C40.1434 109.855 39.4585 109.714 38.7837 109.545L38.1771 111.958C38.9224 112.145 39.6789 112.301 40.4451 112.423L40.837 109.966ZM34.825 108.172C33.5455 107.599 32.3193 106.917 31.1584 106.135L29.7692 108.199C31.0467 109.059 32.3974 109.811 33.8083 110.443L34.825 108.172ZM27.8854 103.506C26.8739 102.543 25.9392 101.494 25.0933 100.367L23.1037 101.861C24.0324 103.098 25.0588 104.251 26.1702 105.308L27.8854 103.506ZM22.8557 96.8102C22.2153 95.5774 21.6701 94.282 21.2308 92.9335L18.865 93.7041C19.3468 95.1831 19.945 96.6043 20.6477 97.9571L22.8557 96.8102ZM20.2573 88.8414C20.1514 88.1532 20.072 87.455 20.0203 86.7476L17.5389 86.929C17.5954 87.7024 17.6822 88.4663 17.7982 89.2197L20.2573 88.8414ZM20.0203 86.7476C19.9859 86.2761 19.9641 85.8068 19.9549 85.34L17.4673 85.3893C17.4774 85.9001 17.5012 86.4135 17.5389 86.929L20.0203 86.7476ZM20.0504 82.5264C20.0918 82.0567 20.1458 81.5906 20.2121 81.1282L17.7492 80.7751C17.6765 81.2821 17.6173 81.7931 17.5719 82.3078L20.0504 82.5264Z" fill="#D1D1D1" mask="url(#path-1-inside-1_1257_19974)"/>
</svg>
