<svg width="16" height="17" viewBox="0 0 16 17" fill="none" xmlns="http://www.w3.org/2000/svg">
<g clip-path="url(#clip0_419_3439)">
<path d="M2.66667 6.9231H8.66667C9.40305 6.9231 10 7.52005 10 8.25643V14.2564C10 14.9928 9.40305 15.5898 8.66667 15.5898H2.66667C1.93029 15.5898 1.33333 14.9928 1.33333 14.2564V8.25643C1.33333 7.52005 1.93029 6.9231 2.66667 6.9231Z" stroke="#949494" stroke-width="1.33333" stroke-linecap="round" stroke-linejoin="round"/>
<path d="M12.668 10.9228H13.3346C13.6883 10.9228 14.0274 10.7823 14.2774 10.5322C14.5275 10.2822 14.668 9.94306 14.668 9.58944V3.58944C14.668 3.23581 14.5275 2.89668 14.2774 2.64663C14.0274 2.39658 13.6883 2.2561 13.3346 2.2561H7.33464C6.98101 2.2561 6.64188 2.39658 6.39183 2.64663C6.14178 2.89668 6.0013 3.23581 6.0013 3.58944V4.2561" stroke="#949494" stroke-width="1.33333" stroke-linecap="round" stroke-linejoin="round"/>
</g>
<defs>
<clipPath id="clip0_419_3439">
<rect width="16" height="16" fill="white" transform="matrix(-1 0 0 1 16 0.923096)"/>
</clipPath>
</defs>
</svg>
