<svg width="120" height="120" viewBox="0 0 120 120" fill="none" xmlns="http://www.w3.org/2000/svg">
<path d="M7.78906 65.9033C8.54175 65.9033 8.98379 65.4209 9.71862 65.4209" stroke="#B6B6B6" stroke-width="2.47423" stroke-linecap="round"/>
<path fill-rule="evenodd" clip-rule="evenodd" d="M6.55277 58.9561C6.91242 63.8761 8.56026 68.3852 11.1308 72.1584C10.8569 74.0614 10.7825 76.0259 10.9287 78.0266C11.8454 90.5668 21.1306 100.437 32.7318 102.257C41.4021 108.104 52.0241 111.193 63.263 110.372C77.284 109.347 89.4698 102.44 97.5821 92.2419C107.34 87.9386 113.818 77.6172 112.976 66.0928C112.633 61.4042 111.121 57.0889 108.755 53.428C109.258 50.8704 109.432 48.2061 109.233 45.4841C108.2 31.3588 97.4658 20.2316 83.9331 17.9921C77.8506 11.1185 68.6832 7.05694 58.747 7.78327C51.5037 8.31275 45.0346 11.3001 40.1161 15.8577C38.5038 15.4901 36.8073 15.3524 35.0675 15.4796C25.8493 16.1534 18.9105 24.0065 19.5694 33.0199C19.5924 33.3346 19.6244 33.6465 19.665 33.9555C11.1968 38.7729 5.77788 48.3555 6.55277 58.9561Z" fill="#F3F3F3"/>
<ellipse cx="47.5493" cy="51.7766" rx="9.54925" ry="9.77661" fill="white"/>
<ellipse cx="67.5649" cy="53.1409" rx="9.54925" ry="9.77661" fill="white"/>
<circle cx="47.5521" cy="51.5491" r="5.91144" fill="#444444"/>
<circle cx="67.1068" cy="52.9134" r="5.91144" fill="#444444"/>
<path d="M36.8591 13.9238C36.8591 14.5394 36.609 15.4426 36.8948 16.0142C37.002 16.2287 37.5076 16.9012 37.663 16.979" stroke="#B6B6B6" stroke-width="2.47423" stroke-linecap="round"/>
<path d="M84.5235 18.7815C84.2337 18.7453 85.6491 17.4761 85.6491 17.1736" stroke="#B6B6B6" stroke-width="2.47423" stroke-linecap="round"/>
<path d="M22.7056 33.2195C22.3473 33.2195 23.4131 33.4063 23.7061 33.6125C24.0216 33.8346 24.6312 34.1764 24.796 34.5059" stroke="#B6B6B6" stroke-width="2.47423" stroke-linecap="round"/>
<path d="M88 66C88.6014 66 88.7578 66.597 89.1256 66.9648" stroke="#B6B6B6" stroke-width="2.47423" stroke-linecap="round"/>
<path d="M11.8567 46.5467C14.4546 53.4108 16.0991 56.8898 17.6326 58.1192L26.0257 45.6002C25.0997 44.6353 20.5732 37.9178 18.5371 35.4419C16.3949 32.8371 15.079 29.873 13.1295 29.4733C12.0698 29.2561 11.7951 29.8038 11.6685 30.1617C11.5418 30.5197 11.0761 30.1652 10.6734 30.4591C10.1063 30.8731 10.1984 31.1805 9.95465 31.5761C9.77574 31.8664 9.42503 31.4725 9.15036 32.0202C8.85431 32.3997 8.75161 33.4299 8.70905 33.7855C8.45401 35.9166 9.26435 39.6974 11.8567 46.5467Z" fill="url(#paint0_linear_953_7293)"/>
<path d="M91.2668 83.497C86.133 78.2522 83.6688 75.2966 83.1987 73.3881L98.0871 71.0415C98.5728 72.2875 102.762 79.2203 104.152 82.1092C105.613 85.1484 107.749 87.5893 107.291 89.526C107.042 90.5788 106.43 90.5975 106.052 90.5618C105.674 90.5261 105.799 91.0978 105.363 91.3394C104.749 91.6796 104.509 91.4668 104.048 91.5215C103.709 91.5616 103.919 92.0455 103.306 92.0642C102.837 92.1732 101.86 91.8328 101.519 91.7218C99.4785 91.0566 96.3896 88.7307 91.2668 83.497Z" fill="url(#paint1_linear_953_7293)"/>
<path d="M53.5 63C53.5 63 54.5 65 56.5 65C58.5 65 59.5 63.5 59.5 63.5" stroke="#E7E7E7" stroke-width="3.06669" stroke-linecap="round"/>
<defs>
<linearGradient id="paint0_linear_953_7293" x1="22.0989" y1="48.5551" x2="8.87729" y2="27.553" gradientUnits="userSpaceOnUse">
<stop stop-color="#F3F3F3"/>
<stop offset="1" stop-color="#C5C5C5"/>
</linearGradient>
<linearGradient id="paint1_linear_953_7293" x1="93.7543" y1="73.3605" x2="107.244" y2="94.1915" gradientUnits="userSpaceOnUse">
<stop stop-color="#F3F3F3"/>
<stop offset="1" stop-color="#C5C5C5"/>
</linearGradient>
</defs>
</svg>
