<svg width="120" height="120" viewBox="0 0 120 120" fill="none" xmlns="http://www.w3.org/2000/svg">
<path d="M7.78906 65.9033C8.54175 65.9033 8.98379 65.4209 9.71862 65.4209" stroke="#B6B6B6" stroke-width="2.47423" stroke-linecap="round"/>
<path fill-rule="evenodd" clip-rule="evenodd" d="M6.55277 58.9561C6.91242 63.8761 8.56026 68.3852 11.1308 72.1584C10.8569 74.0614 10.7825 76.0259 10.9287 78.0266C11.8454 90.5668 21.1306 100.437 32.7318 102.257C41.4021 108.104 52.0241 111.193 63.263 110.372C77.284 109.347 89.4698 102.44 97.5821 92.2419C107.34 87.9386 113.818 77.6172 112.976 66.0928C112.633 61.4042 111.121 57.0889 108.755 53.428C109.258 50.8704 109.432 48.2061 109.233 45.4841C108.2 31.3588 97.4658 20.2316 83.9331 17.9921C77.8506 11.1185 68.6832 7.05694 58.747 7.78327C51.5037 8.31275 45.0346 11.3001 40.1161 15.8577C38.5038 15.4901 36.8073 15.3524 35.0675 15.4796C25.8493 16.1534 18.9105 24.0065 19.5694 33.0199C19.5924 33.3346 19.6244 33.6465 19.665 33.9555C11.1968 38.7729 5.77788 48.3555 6.55277 58.9561Z" fill="#F3F3F3"/>
<ellipse cx="46.3227" cy="42.8547" rx="9.54925" ry="9.77661" fill="white"/>
<ellipse cx="66.3383" cy="44.219" rx="9.54925" ry="9.77661" fill="white"/>
<circle cx="46.3255" cy="42.6273" r="5.91144" fill="#444444"/>
<circle cx="65.8802" cy="43.9915" r="5.91144" fill="#444444"/>
<path d="M36.8591 13.9238C36.8591 14.5394 36.609 15.4426 36.8948 16.0142C37.002 16.2287 37.5076 16.9012 37.663 16.979" stroke="#B6B6B6" stroke-width="2.47423" stroke-linecap="round"/>
<path d="M84.5235 18.7815C84.2337 18.7453 85.6491 17.4761 85.6491 17.1736" stroke="#B6B6B6" stroke-width="2.47423" stroke-linecap="round"/>
<path d="M22.7056 33.2195C22.3473 33.2195 23.4131 33.4063 23.7061 33.6125C24.0216 33.8346 24.6312 34.1764 24.796 34.5059" stroke="#B6B6B6" stroke-width="2.47423" stroke-linecap="round"/>
<path d="M90.7266 80.8157C91.3279 80.8157 91.4843 81.4127 91.8521 81.7805" stroke="#B6B6B6" stroke-width="2.47423" stroke-linecap="round"/>
<path d="M55.3606 42.6516C55.3606 50.3826 49.1937 56.6344 41.6051 56.6344C34.0166 56.6344 27.8497 50.3826 27.8497 42.6516C27.8497 34.9206 34.0166 28.6687 41.6051 28.6687C49.1937 28.6687 55.3606 34.9206 55.3606 42.6516Z" stroke="#8E8E8E" stroke-width="1.13682"/>
<path d="M84.9153 44.4704C84.9153 52.2014 78.7483 58.4533 71.1598 58.4533C63.5713 58.4533 57.4043 52.2014 57.4043 44.4704C57.4043 36.7395 63.5713 30.4876 71.1598 30.4876C78.7483 30.4876 84.9153 36.7395 84.9153 44.4704Z" stroke="#8E8E8E" stroke-width="1.13682"/>
<path d="M55.25 42.8792H57.0689" stroke="#8E8E8E" stroke-width="1.13682"/>
<path d="M78.5995 69.5495C80.3111 76.6864 81.5037 80.345 82.8699 81.758L92.7748 70.3973C91.9778 69.3234 88.3346 62.0887 86.6269 59.3758C84.8304 56.5216 83.8988 53.4153 82.0153 52.7729C80.9914 52.4237 80.6498 52.9324 80.4791 53.2715C80.3083 53.6107 79.8909 53.2003 79.4544 53.4411C78.8397 53.7802 78.8922 54.0968 78.6006 54.4585C78.3865 54.724 78.0882 54.2889 77.7467 54.7976C77.4051 55.1367 77.1733 56.1458 77.0863 56.4932C76.5645 58.5751 76.8916 62.4279 78.5995 69.5495Z" fill="url(#paint0_linear_953_6850)"/>
<path d="M5.97734 48.5406C9.255 57.9135 13.7163 64.0856 15.5372 66L21 49.6891C19.9378 48.2341 17.8133 44.635 15.5372 40.9595C13.1427 37.0926 12.8058 30.6218 10.5296 29.2434C8.25348 27.865 11.6678 32.6891 7.57065 34.9866C5.02261 36.4154 1.88025 36.8244 5.97734 48.5406Z" fill="url(#paint1_linear_953_6850)"/>
<path d="M81.1157 39.081C84.7157 38.1729 85.6157 30 85.6157 30C85.6157 30 87.6172 36.8108 95.1172 36.2432C95.4062 36.2213 95.6251 36.201 95.7824 36.1844C96.1744 36.1168 96.2521 36.1346 95.7824 36.1844C94.8091 36.3521 91.898 37.0458 90.6172 39.081C88.102 43.0776 88.6765 50.0989 88.1157 45.3242C87.1157 36.8108 76.6157 40.2161 81.1157 39.081Z" fill="#FFDC84"/>
<path d="M58.027 54.6893L57.1794 56.8057C57.0654 57.0902 56.8924 57.3472 56.6718 57.5599C55.253 58.9277 52.8931 57.8444 53.0052 55.8769L53.1313 53.6653L53.3294 51.0763C53.3892 50.2957 53.8484 49.6014 54.5434 49.2409C55.8553 48.5604 57.4568 49.3002 57.7892 50.7403L58.1959 52.5028C58.3641 53.2318 58.3052 53.9948 58.027 54.6893Z" fill="#FF7171" stroke="#E0E0E0" stroke-width="3.06669" stroke-linecap="round"/>
<defs>
<linearGradient id="paint0_linear_953_6850" x1="88.5067" y1="72.8334" x2="78.0391" y2="50.3317" gradientUnits="userSpaceOnUse">
<stop stop-color="#F3F3F3"/>
<stop offset="1" stop-color="#C5C5C5"/>
</linearGradient>
<linearGradient id="paint1_linear_953_6850" x1="16.441" y1="54.6536" x2="1.69419" y2="28.02" gradientUnits="userSpaceOnUse">
<stop stop-color="#F3F3F3"/>
<stop offset="1" stop-color="#C5C5C5"/>
</linearGradient>
</defs>
</svg>
